<svg width="17" height="15" viewBox="0 0 17 15" fill="none" xmlns="http://www.w3.org/2000/svg">
<path fill-rule="evenodd" clip-rule="evenodd" d="M0.0163408 7.16171C-0.0406742 6.84952 0.0515099 6.51544 0.292893 6.27406L6.27406 0.292893C6.66458 -0.0976313 7.29774 -0.0976309 7.68827 0.292893L7.75313 0.357755C8.14365 0.748279 8.14365 1.38144 7.75313 1.77197L3.23116 6.29394H15.753C16.3053 6.29394 16.753 6.74166 16.753 7.29394V7.38567C16.753 7.93796 16.3053 8.38567 15.753 8.38567H3.59132L7.75374 12.5481C8.14426 12.9386 8.14426 13.5718 7.75374 13.9623L7.68888 14.0272C7.29835 14.4177 6.66519 14.4177 6.27466 14.0272L0.2935 8.04601C0.0529827 7.80549 -0.0394038 7.47293 0.0163408 7.16171Z" fill="#808080"/>
</svg>
