<svg width="160" height="136" viewBox="0 0 160 136" fill="none" xmlns="http://www.w3.org/2000/svg">
<path fill-rule="evenodd" clip-rule="evenodd" d="M40.2074 5.8432H129.913C145.039 5.8432 157.414 18.2175 157.414 33.3421V97.5986C157.414 112.723 145.039 125.097 129.913 125.097H40.2074C38.6886 125.097 37.1977 124.97 35.7444 124.731C35.1424 125.075 34.5414 125.395 33.9444 125.696C29.0431 128.159 24.447 129.251 20.1527 129.602C15.8585 129.953 11.8655 129.563 8.89412 128.809C5.92216 128.055 3.97119 126.937 3.15162 126.313C2.33207 125.688 2.64335 125.558 3.64325 124.982C4.64316 124.406 6.33112 123.384 8.48129 121.406C10.6315 119.428 13.2433 116.493 16.2996 111.642L16.4494 111.403C14.0723 107.34 12.7067 102.621 12.7067 97.5986V33.3421C12.7067 18.2175 25.0818 5.8432 40.2074 5.8432Z" fill="#FF4F73"/>
<path d="M58.9568 47.5457C58.9579 47.3465 58.9684 47.0374 58.9906 46.6185C59.0111 46.1946 59.0383 45.7241 59.0716 45.202C59.1043 44.6799 59.1349 44.1406 59.1648 43.5901C59.1937 43.0342 59.2153 42.5132 59.2297 42.0266C58.7797 42.0765 58.1938 42.1426 57.4735 42.223C56.7522 42.3035 56.0042 42.3867 55.2268 42.4732C54.45 42.5609 53.707 42.643 52.9984 42.7223C52.2887 42.8023 51.7311 42.8639 51.326 42.9094C51.3132 43.4065 51.3032 43.9319 51.2966 44.4857C51.2905 45.045 51.2871 45.5699 51.2849 46.0659C51.2838 46.5619 51.286 46.9947 51.2944 47.3698C51.3021 47.751 51.3032 48.0184 51.2993 48.1843C51.1218 48.227 50.9004 48.2858 50.634 48.3497C50.3677 48.4135 50.083 48.4745 49.7823 48.5305C49.4804 48.5871 49.1797 48.6493 48.8784 48.7053C48.5765 48.7624 48.313 48.8029 48.0888 48.8279C47.8635 48.8529 47.7159 48.8579 47.6449 48.8435C47.6327 48.3202 47.616 47.5129 47.5977 46.4266C47.5783 45.334 47.5605 44.0995 47.5439 42.7279C47.5261 41.3502 47.5167 39.9326 47.5123 38.4622C47.5084 36.998 47.5028 35.6253 47.4967 34.3491C47.4923 33.0785 47.4962 31.9899 47.5089 31.0877C47.5228 30.1911 47.5511 29.6235 47.5938 29.3915C47.8136 29.3211 48.0699 29.2695 48.3629 29.2368C48.6553 29.204 48.9594 29.1702 49.274 29.1352C49.7251 29.0847 50.1807 29.0337 50.6424 28.9826C51.1046 28.931 51.5074 28.9199 51.8526 28.9504C51.8032 29.5253 51.7566 30.2261 51.7111 31.0517C51.6672 31.8773 51.6245 32.7711 51.5834 33.7332C51.5424 34.6948 51.5058 35.6913 51.4725 36.7206C51.4392 37.7498 51.4092 38.7569 51.3826 39.7406C51.7571 39.6291 52.2504 39.5004 52.8619 39.3639C53.4745 39.2274 54.1309 39.0859 54.8334 38.9494C55.5364 38.8145 56.2672 38.6759 57.0263 38.5283C57.7859 38.3868 58.5145 38.2769 59.2131 38.1987C59.2497 37.1056 59.2819 36.0137 59.308 34.9223C59.3341 33.8304 59.364 32.8189 59.3968 31.8867C59.429 30.9479 59.4467 30.1423 59.4506 29.4637C59.4539 28.7796 59.4534 28.3063 59.4451 28.0338C59.6903 27.9833 60.0038 27.9368 60.3872 27.8946C60.7701 27.8513 61.153 27.8086 61.5353 27.7658C61.9864 27.7153 62.3965 27.6699 62.7682 27.6283C63.14 27.5867 63.4069 27.58 63.5701 27.6072C63.5745 28.4672 63.5584 29.4947 63.5207 30.6904C63.4829 31.8856 63.4369 33.1562 63.3825 34.5017C63.3265 35.8417 63.2671 37.1933 63.2016 38.551C63.1367 39.9093 63.0723 41.1649 63.008 42.329C62.9447 43.4925 62.8853 44.4973 62.8321 45.3462C62.7782 46.1902 62.735 46.7705 62.7028 47.0935C62.2594 47.2111 61.7678 47.3004 61.2273 47.3604C60.7551 47.4136 60.3046 47.4636 59.8762 47.5113C59.4484 47.5595 59.1421 47.5707 58.9568 47.5457ZM86.2865 35.3462C86.3647 35.4289 86.4424 35.5681 86.5217 35.7651C86.6 35.9609 86.6821 36.1796 86.7659 36.4215C86.8502 36.6629 86.9273 36.8992 86.9989 37.1306C87.0705 37.362 87.1132 37.5456 87.1288 37.6804C86.8491 38.4411 86.509 39.2201 86.1078 40.0169C85.7066 40.8142 85.2527 41.5489 84.7461 42.2208C84.2401 42.8933 83.6713 43.4636 83.0398 43.9336C82.4078 44.4024 81.7098 44.6799 80.9435 44.7659C80.3359 44.8341 79.8187 44.8003 79.3937 44.6655C78.9681 44.5306 78.6152 44.3303 78.335 44.0657C78.0542 43.8004 77.8417 43.4759 77.6963 43.0936C77.5515 42.7113 77.4533 42.2946 77.4028 41.8441C77.385 41.6865 77.3745 41.5394 77.3706 41.403C77.3667 41.267 77.3673 41.1188 77.3722 40.9585C77.1619 41.5289 76.8884 42.0893 76.551 42.6397C76.2136 43.1912 75.8141 43.6917 75.3508 44.1422C74.888 44.5922 74.3709 44.9584 73.7977 45.2386C73.2245 45.5199 72.6008 45.6975 71.9255 45.7729C71.2497 45.8484 70.5938 45.7901 69.9562 45.5993C69.3203 45.4084 68.736 45.0861 68.2072 44.6377C67.6784 44.1844 67.2362 43.5951 66.8816 42.871C66.5281 42.1525 66.2968 41.3058 66.1886 40.3382C66.0182 38.8123 66.097 37.4241 66.4255 36.1846C66.754 34.9406 67.239 33.872 67.8787 32.9681C68.5185 32.0648 69.272 31.3535 70.136 30.8236C71 30.2943 71.8711 29.9803 72.7495 29.8826C73.8304 29.7617 74.7998 29.8643 75.6571 30.1906C76.5138 30.5163 77.1963 31.0156 77.7052 31.6881C77.7035 31.4722 77.7057 31.2381 77.7107 30.9757C77.7157 30.7127 77.7324 30.4546 77.7612 30.2C77.7895 29.9464 77.8228 29.7317 77.8605 29.5624C77.8988 29.3927 77.9737 29.2989 78.0864 29.2867C78.5142 29.2385 79.0341 29.249 79.6456 29.3172C80.2576 29.3855 80.7626 29.4659 81.1604 29.558C81.1155 30.1795 81.0356 30.9407 80.9191 31.8423C80.8037 32.7439 80.6971 33.6739 80.5983 34.631C80.5007 35.5881 80.4197 36.4975 80.3559 37.3598C80.2926 38.2214 80.2909 38.9222 80.3514 39.4632C80.4041 39.9359 80.5146 40.311 80.6827 40.589C80.8497 40.8664 81.1027 40.9863 81.4407 40.9491C81.9811 40.888 82.5044 40.6245 83.011 40.1573C83.5176 39.6907 83.9876 39.1597 84.4232 38.5638C84.8587 37.9679 85.2361 37.3675 85.5562 36.7616C85.8753 36.1557 86.1189 35.6841 86.2865 35.3462ZM72.6663 42.3046C73.3416 42.2291 73.9481 41.9389 74.4846 41.4351C75.0212 40.9308 75.4923 40.3021 75.8979 39.5503C76.3041 38.7979 76.6348 37.9801 76.8895 37.0968C77.1442 36.2134 77.3162 35.3562 77.4061 34.5256C77.0254 33.9757 76.5027 33.5324 75.8385 33.1962C75.1743 32.8599 74.4702 32.734 73.7272 32.8166C73.2089 32.8749 72.7007 33.068 72.2013 33.397C71.703 33.7266 71.2624 34.1744 70.8812 34.7414C70.5 35.3085 70.2165 35.9837 70.03 36.7683C69.8441 37.5528 69.8053 38.4295 69.9135 39.3977C70.0345 40.478 70.3602 41.2514 70.8912 41.7164C71.4217 42.1814 72.0137 42.3778 72.6663 42.3046ZM82.647 29.3927C82.774 29.31 82.9777 29.1957 83.2579 29.0503C83.5381 28.9055 83.8572 28.7502 84.2151 28.5848C84.5724 28.4195 84.9436 28.2697 85.3276 28.1354C85.7116 28.0017 86.095 27.9135 86.4773 27.8702C86.8008 28.5182 87.1415 29.3749 87.4994 30.4347C87.8573 31.5005 88.2008 32.6302 88.5276 33.8253C88.8545 35.0144 89.1447 36.1846 89.3983 37.3303C89.6502 38.4706 89.8322 39.4354 89.9432 40.2217C90.6606 39.0925 91.2732 37.8902 91.7815 36.6246C92.2897 35.3601 92.7054 34.0767 93.0261 32.77C93.3485 31.4683 93.5932 30.1872 93.7602 28.9266C93.9267 27.6599 94.0282 26.4803 94.0654 25.3817C94.178 25.3689 94.2907 25.3567 94.4033 25.3439C94.5159 25.3312 94.6391 25.3173 94.7751 25.3023C95.27 25.2474 95.8099 25.2324 96.3937 25.2529C96.978 25.2785 97.5256 25.3373 98.0378 25.4338C97.8763 27.0479 97.5756 28.6941 97.1378 30.3847C96.6994 32.0748 96.159 33.7138 95.5147 35.2968C94.8705 36.8842 94.1381 38.3851 93.3163 39.7989C92.4928 41.2077 91.6167 42.4455 90.6861 43.507C90.2134 43.5597 89.7029 43.5818 89.1552 43.5752C88.607 43.568 88.1459 43.5286 87.7736 43.4553C87.5172 42.1792 87.2037 40.9036 86.8319 39.6169C86.4607 38.3363 86.0418 37.084 85.5757 35.8706C85.109 34.6516 84.6257 33.4913 84.1257 32.3844C83.6258 31.272 83.1325 30.2782 82.647 29.3927ZM107.914 29.9564C107.868 29.5514 107.697 29.2456 107.4 29.0387C107.103 28.8328 106.685 28.7601 106.145 28.8206C105.559 28.8855 104.99 29.0919 104.436 29.4381C103.882 29.7855 103.404 30.2494 103.001 30.8297C102.598 31.4107 102.292 32.0887 102.082 32.8644C101.873 33.6406 101.819 34.4895 101.923 35.4128C101.935 35.5254 101.946 35.627 101.956 35.7169C101.966 35.8067 101.989 35.9066 102.024 36.017C102.702 35.759 103.406 35.4239 104.135 35.0122C104.863 34.5999 105.519 34.1394 106.101 33.63C106.682 33.1201 107.149 32.5553 107.501 31.9344C107.854 31.3135 107.991 30.6544 107.914 29.9564ZM115.547 33.9946C115.238 34.7126 114.818 35.5399 114.285 36.4775C113.751 37.4147 113.075 38.3107 112.259 39.1658C111.443 40.0202 110.478 40.7782 109.366 41.4379C108.255 42.0982 106.978 42.5082 105.537 42.6691C104.547 42.7795 103.638 42.7046 102.81 42.4438C101.982 42.1825 101.265 41.773 100.656 41.2143C100.045 40.655 99.5532 39.9747 99.1792 39.173C98.8046 38.3712 98.5627 37.4863 98.4545 36.5181C98.2892 35.0316 98.3796 33.6484 98.727 32.3672C99.0743 31.0861 99.6103 29.9714 100.337 29.0243C101.063 28.0771 101.946 27.3053 102.986 26.7111C104.025 26.1163 105.141 25.7523 106.334 25.6186C107.1 25.5331 107.777 25.5714 108.365 25.734C108.953 25.896 109.448 26.1429 109.85 26.4742C110.252 26.806 110.564 27.2038 110.787 27.6693C111.01 28.1343 111.149 28.6148 111.205 29.1102C111.323 30.1683 111.144 31.1743 110.67 32.1281C110.194 33.0813 109.551 33.9569 108.74 34.7547C107.928 35.5515 107.009 36.2523 105.983 36.8576C104.956 37.4624 103.948 37.9335 102.96 38.2719C103.105 38.5521 103.43 38.8068 103.935 39.0354C104.438 39.2635 105.119 39.3306 105.974 39.2351C106.83 39.1397 107.656 38.8817 108.453 38.4622C109.249 38.0427 109.985 37.539 110.661 36.9508C111.336 36.3616 111.949 35.7185 112.497 35.0189C113.046 34.3192 113.511 33.6401 113.894 32.982C113.966 33.0192 114.076 33.0807 114.222 33.1673C114.369 33.2533 114.527 33.3437 114.698 33.4392C114.867 33.534 115.032 33.6301 115.191 33.7261C115.35 33.8226 115.468 33.9119 115.547 33.9946ZM60.8883 72.0411C60.986 72.0989 61.1191 72.2215 61.2884 72.4073C61.4576 72.5938 61.623 72.8035 61.7861 73.036C61.9492 73.2685 62.1029 73.5248 62.2483 73.8045C62.3932 74.0847 62.4914 74.3476 62.5413 74.5923C62.3665 74.8631 62.1179 75.1416 61.7966 75.4285C61.4754 75.7148 61.1236 75.9817 60.7407 76.2303C60.3578 76.4777 59.9489 76.6891 59.5116 76.8628C59.0755 77.037 58.6543 77.1474 58.2487 77.1924C57.3038 77.2978 56.5108 77.0903 55.871 76.5687C55.2313 76.0471 54.8439 75.1788 54.708 73.9626C54.6952 73.8499 54.6847 73.7551 54.6758 73.6757C54.6669 73.5969 54.668 73.5004 54.6775 73.385C54.4672 73.9554 54.1942 74.5163 53.8568 75.0662C53.5194 75.6171 53.1194 76.1181 52.656 76.5687C52.1938 77.0192 51.6761 77.3843 51.1035 77.6646C50.5303 77.9459 49.906 78.1239 49.2313 78.1994C48.5554 78.2748 47.8985 78.2166 47.2615 78.0257C46.625 77.8349 46.0418 77.512 45.513 77.0642C44.9831 76.6103 44.542 76.0216 44.1868 75.2976C43.8334 74.5785 43.602 73.7323 43.4943 72.7647C43.3234 71.2394 43.4022 69.8506 43.7307 68.6116C44.0592 67.3665 44.5442 66.2979 45.184 65.3946C45.8243 64.4908 46.5767 63.78 47.4418 63.2496C48.3057 62.7208 49.1769 62.4067 50.0547 62.3091C51.1357 62.1881 52.1045 62.2908 52.9623 62.6165C53.8196 62.9427 54.5021 63.4416 55.0104 64.1151C55.0087 63.8987 55.0115 63.6646 55.016 63.4016C55.021 63.1391 55.0376 62.8806 55.0665 62.6264C55.0948 62.3723 55.128 62.1587 55.1658 61.9884C55.2041 61.8191 55.279 61.7254 55.3911 61.7126C55.82 61.6649 56.3394 61.6754 56.9514 61.7437C57.5634 61.8119 58.0678 61.8929 58.4657 61.985C58.4363 62.5355 58.358 63.2107 58.231 64.0113C58.1033 64.8125 57.9813 65.6582 57.8642 66.5487C57.7471 67.4398 57.6533 68.3331 57.5818 69.2303C57.5113 70.1275 57.5174 70.9475 57.6006 71.6905C57.6206 71.8708 57.6483 72.0672 57.6833 72.2797C57.7182 72.4922 57.7754 72.6914 57.8525 72.8762C57.9297 73.0615 58.0384 73.2147 58.1777 73.3362C58.3164 73.4571 58.4984 73.5048 58.7243 73.4804C59.1515 73.4327 59.5754 73.248 59.9955 72.9278C60.4161 72.6071 60.7135 72.3119 60.8883 72.0411ZM49.9715 74.7316C50.6474 74.6556 51.2533 74.366 51.7893 73.8611C52.3264 73.3567 52.797 72.7286 53.2037 71.9768C53.6099 71.2244 53.9406 70.4066 54.1947 69.5232C54.4494 68.6399 54.622 67.7833 54.7113 66.9521C54.3312 66.4022 53.808 65.9589 53.1438 65.6226C52.4796 65.2864 51.7754 65.1599 51.0325 65.2431C50.5147 65.3008 50.0059 65.4945 49.5071 65.8235C49.0082 66.1525 48.5682 66.6009 48.1865 67.1685C47.8052 67.735 47.5217 68.4107 47.3358 69.1947C47.1499 69.9793 47.1111 70.856 47.2193 71.8242C47.3397 72.9045 47.666 73.678 48.1964 74.1429C48.7269 74.6084 49.3184 74.8037 49.9715 74.7316ZM70.7491 60.2029C71.2225 60.1496 71.784 60.1219 72.4327 60.1174C73.0824 60.1136 73.6828 60.1374 74.236 60.1896C74.2138 60.3977 74.195 60.5824 74.1783 60.7433C74.1622 60.9042 74.1467 61.0718 74.1317 61.2443C74.1167 61.4169 74.1056 61.6233 74.0984 61.8636C74.0907 62.1038 74.0735 62.4079 74.0463 62.7757C74.2788 62.4073 74.5828 62.02 74.9596 61.6139C75.3358 61.2066 75.777 60.821 76.2836 60.457C76.7902 60.0924 77.3423 59.7746 77.9382 59.5027C78.5353 59.2308 79.1717 59.0571 79.8465 58.9822C80.5895 58.899 81.2093 58.9384 81.7065 59.0993C82.2031 59.2597 82.612 59.5049 82.9344 59.8339C83.2557 60.1629 83.4987 60.5513 83.6635 61.0008C83.8272 61.4497 83.9354 61.9107 83.9881 62.3834C84.0514 62.946 84.0458 63.5625 83.9726 64.2317C83.8993 64.9014 83.8139 65.5716 83.7185 66.2435C83.6219 66.9154 83.5337 67.5469 83.4516 68.1372C83.3694 68.7276 83.3506 69.2253 83.3961 69.6309C83.4338 69.9688 83.5387 70.2473 83.7118 70.4676C83.8844 70.6879 84.1624 70.7761 84.5447 70.7339C84.8377 70.7012 85.1467 70.5575 85.4713 70.305C85.7971 70.0526 86.11 69.7441 86.4119 69.3795C86.7126 69.0155 86.9995 68.6244 87.2719 68.206C87.5444 67.7882 87.7758 67.4087 87.9655 67.0686C88.1331 67.1418 88.3995 67.2828 88.7651 67.4919C89.1308 67.7022 89.3772 67.8687 89.5048 67.9913C88.7329 69.8556 87.8235 71.3587 86.777 72.5017C85.7305 73.6441 84.5541 74.2894 83.2485 74.4348C82.2796 74.543 81.5527 74.3044 81.0656 73.7207C80.5784 73.137 80.2782 72.338 80.165 71.3254C80.0923 70.6723 80.0756 70.0132 80.115 69.3479C80.155 68.6821 80.2138 68.0368 80.2926 67.4126C80.3708 66.7884 80.4352 66.1886 80.4846 65.6132C80.5345 65.0373 80.5329 64.5135 80.4801 64.0408C80.4202 63.5003 80.2554 63.097 79.9857 62.8307C79.7166 62.5643 79.2783 62.465 78.6696 62.5327C77.9266 62.6154 77.147 62.9821 76.3307 63.6318C75.5145 64.2816 74.7521 65.2159 74.0441 66.4344C74.0119 66.7579 73.9886 67.2617 73.9741 67.9475C73.9597 68.6327 73.9475 69.3923 73.9375 70.2257C73.9286 71.058 73.9309 71.9019 73.9469 72.7547C73.9619 73.608 73.9825 74.3526 74.008 74.9879C73.9231 75.0429 73.7799 75.0878 73.578 75.1211C73.3771 75.1555 73.1485 75.1982 72.8916 75.2493C72.6352 75.3009 72.3661 75.3425 72.0848 75.3741C71.8034 75.4046 71.5276 75.4357 71.2569 75.4662L70.4806 75.5528C70.4401 75.1927 70.4134 74.5968 70.4007 73.7667C70.3879 72.9356 70.3851 71.9956 70.3935 70.9464C70.4018 69.8961 70.4218 68.8003 70.4528 67.6562C70.485 66.5132 70.5189 65.4374 70.5549 64.4309C70.5904 63.4238 70.6226 62.5366 70.6515 61.7698C70.6798 61.003 70.712 60.4808 70.7491 60.2029ZM97.1988 67.0636C96.9369 67.7766 96.6068 68.4973 96.2089 69.2258C95.8116 69.9544 95.356 70.6202 94.8422 71.225C94.3284 71.8292 93.7702 72.3424 93.167 72.763C92.5644 73.183 91.9141 73.4327 91.2161 73.5109C90.0896 73.6363 89.2323 73.3622 88.6442 72.6864C88.056 72.0117 87.6903 71.0319 87.5472 69.7485C87.4967 69.298 87.4772 68.7187 87.4895 68.0107C87.5022 67.3027 87.5311 66.5476 87.5788 65.7436C87.6254 64.9413 87.6831 64.1312 87.7519 63.3139C87.8202 62.4972 87.8851 61.7487 87.9456 61.0696C88.0066 60.3904 88.0676 59.8195 88.1303 59.3562C88.1925 58.8935 88.2285 58.6043 88.2391 58.4895C88.4411 58.4668 88.7074 58.4534 89.0381 58.4512C89.3683 58.4485 89.7051 58.4506 90.048 58.4579C90.3904 58.4656 90.7239 58.4967 91.0501 58.5516C91.3747 58.6066 91.6439 58.6676 91.8569 58.7348C91.7399 59.5238 91.6139 60.3865 91.4796 61.3248C91.3448 62.263 91.231 63.1819 91.1373 64.0813C91.044 64.9807 90.9719 65.8152 90.9214 66.5848C90.8704 67.3543 90.8687 67.953 90.917 68.3803C91.0174 69.2808 91.428 69.6913 92.1483 69.6109C92.4412 69.5781 92.7459 69.4527 93.0638 69.2352C93.3818 69.0172 93.7047 68.7476 94.0343 68.4263C94.3623 68.104 94.6708 67.7505 94.9582 67.3649C95.2456 66.9798 95.4937 66.5926 95.7006 66.2053C95.9636 66.3124 96.2588 66.4561 96.5873 66.6364C96.9142 66.8161 97.1189 66.9587 97.1988 67.0636ZM90.6184 51.9312C91.1916 51.9584 91.6278 52.1381 91.9269 52.4688C92.2259 52.8006 92.398 53.1691 92.4435 53.5741C92.5062 54.1373 92.3569 54.6899 91.9957 55.2315C91.6344 55.7735 91.0712 56.0864 90.306 56.1724C89.765 56.2329 89.2978 56.137 88.905 55.8845C88.5121 55.632 88.2774 55.1565 88.1992 54.4585C88.1387 53.9187 88.2557 53.3865 88.5509 52.8639C88.8456 52.3406 89.3644 52.0372 90.1079 51.9545C90.1978 51.9445 90.2827 51.9351 90.3615 51.9262C90.4398 51.9168 90.5258 51.919 90.6184 51.9312ZM106.966 57.1501C106.834 57.8037 106.637 58.3896 106.376 58.909C106.115 59.4283 105.807 59.9355 105.453 60.4315C104.816 60.0464 104.26 59.8062 103.781 59.7113C103.303 59.617 102.794 59.5998 102.254 59.6602C101.758 59.7152 101.259 59.8855 100.755 60.1696C100.251 60.4542 99.8112 60.8559 99.4367 61.3769C99.061 61.8974 98.778 62.5271 98.5871 63.2668C98.3963 64.0064 98.3535 64.8487 98.459 65.7947C98.5849 66.9199 98.9794 67.7993 99.6425 68.4319C100.306 69.0644 101.156 69.3235 102.192 69.2075C103.07 69.1099 103.9 68.8347 104.681 68.3825C105.463 67.9303 106.174 67.4009 106.813 66.7934C107.451 66.1869 107.998 65.5672 108.451 64.9352C108.905 64.3032 109.265 63.7439 109.529 63.2584C109.767 63.3461 110.058 63.4959 110.401 63.709C110.744 63.9209 110.954 64.0685 111.032 64.1512C110.656 65.0817 110.191 66.0177 109.635 66.957C109.079 67.8969 108.418 68.7692 107.653 69.5721C106.888 70.376 106.017 71.0541 105.042 71.6078C104.066 72.1616 102.97 72.5061 101.754 72.642C100.854 72.7425 100.012 72.6592 99.2303 72.3935C98.4484 72.1277 97.7526 71.721 97.145 71.1734C96.5363 70.6257 96.0402 69.9571 95.6551 69.1681C95.2706 68.3786 95.0253 67.5114 94.9199 66.5659C94.7468 65.0123 94.83 63.6124 95.1691 62.3662C95.5086 61.1195 96.0219 60.0481 96.7083 59.1503C97.3947 58.2537 98.2259 57.5335 99.2031 56.9914C100.179 56.4493 101.22 56.1159 102.324 55.9932C103.112 55.905 103.936 55.9438 104.798 56.1097C105.661 56.2762 106.383 56.6224 106.966 57.1501ZM117.476 58.7808C117.431 58.3758 117.26 58.0701 116.963 57.8637C116.667 57.6567 116.249 57.5846 115.708 57.6445C115.122 57.71 114.552 57.9158 113.998 58.2632C113.445 58.6105 112.966 59.0738 112.564 59.6542C112.161 60.2351 111.856 60.9131 111.646 61.6888C111.435 62.4645 111.382 63.3139 111.485 64.2372C111.498 64.3493 111.509 64.4514 111.519 64.5407C111.529 64.6317 111.551 64.7316 111.587 64.8414C112.264 64.5834 112.968 64.2489 113.698 63.8366C114.427 63.4244 115.082 62.9633 115.663 62.4545C116.245 61.9446 116.712 61.3797 117.065 60.7588C117.417 60.1385 117.554 59.4788 117.476 58.7808ZM125.109 62.8185C124.802 63.537 124.381 64.3642 123.848 65.3014C123.313 66.2391 122.638 67.1352 121.822 67.9902C121.006 68.8452 120.042 69.6026 118.929 70.2623C117.818 70.922 116.541 71.332 115.1 71.4929C114.109 71.6039 113.2 71.529 112.373 71.2682C111.546 71.0069 110.827 70.5969 110.218 70.0381C109.608 69.4788 109.116 68.7986 108.742 67.9969C108.368 67.1957 108.126 66.3107 108.018 65.3425C107.851 63.856 107.942 62.4733 108.29 61.1911C108.637 59.9105 109.173 58.7958 109.9 57.8481C110.626 56.901 111.509 56.1297 112.548 55.5349C113.587 54.9401 114.704 54.5762 115.897 54.443C116.662 54.3575 117.34 54.3958 117.928 54.5584C118.516 54.721 119.011 54.9673 119.413 55.2991C119.814 55.6304 120.127 56.0282 120.35 56.4937C120.573 56.9587 120.712 57.4392 120.768 57.9347C120.886 58.9922 120.708 59.9987 120.233 60.952C119.757 61.9057 119.114 62.7818 118.303 63.5786C117.491 64.3759 116.572 65.0767 115.545 65.682C114.518 66.2863 113.511 66.7579 112.523 67.0963C112.668 67.376 112.993 67.6312 113.497 67.8598C114.002 68.0878 114.681 68.155 115.537 68.0596C116.393 67.9641 117.219 67.7061 118.016 67.2866C118.812 66.8677 119.548 66.3634 120.224 65.7753C120.899 65.1866 121.511 64.5429 122.06 63.8432C122.609 63.1436 123.074 62.4639 123.457 61.8064C123.53 61.8436 123.639 61.9052 123.785 61.9923C123.932 62.0777 124.09 62.1687 124.261 62.2636C124.43 62.3585 124.595 62.4545 124.754 62.5504C124.913 62.6464 125.031 62.7363 125.109 62.8185ZM74.6555 98.2417C74.8231 98.3144 75.0351 98.4275 75.292 98.5818C75.5483 98.7349 75.752 98.8714 75.9018 98.9924C75.8075 99.3675 75.6105 99.9023 75.312 100.597C75.0134 101.291 74.6289 101.984 74.1589 102.675C73.6889 103.366 73.1474 103.979 72.5342 104.515C71.9216 105.05 71.2558 105.358 70.5344 105.439C69.6333 105.54 68.903 105.325 68.3426 104.795C67.7816 104.264 67.4376 103.426 67.3094 102.277C66.6913 103.486 65.9377 104.442 65.0472 105.146C64.1566 105.849 63.0474 106.275 61.719 106.423C60.8633 106.519 60.1059 106.421 59.4473 106.136C58.7875 105.845 58.211 105.43 57.7171 104.887C57.2238 104.344 56.8327 103.704 56.5452 102.966C56.2578 102.229 56.0697 101.463 55.9798 100.659C55.815 99.1827 55.906 97.8572 56.2539 96.6781C56.6002 95.4991 57.0918 94.4931 57.7288 93.6636C58.3664 92.8402 59.1032 92.1883 59.9389 91.7067C60.7745 91.2323 61.5974 90.946 62.4081 90.8555C62.791 90.8128 63.1938 90.7962 63.6167 90.8062C64.0395 90.8161 64.4629 90.8766 64.8857 90.9893C65.3091 91.1013 65.7141 91.2672 66.1042 91.4858C66.4932 91.705 66.8694 92.0107 67.2317 92.4024C67.2545 91.3799 67.2451 90.3723 67.2018 89.3741C67.1591 88.3815 67.0902 87.4604 66.9954 86.6098C66.9654 86.3396 66.9365 86.0811 66.9088 85.8336C66.8811 85.5862 66.8433 85.3447 66.7923 85.1001C67.1679 84.9896 67.6007 84.8843 68.0913 84.7838C68.5812 84.6834 69.0629 84.6068 69.5362 84.5536C69.7615 84.5286 69.9751 84.5047 70.1776 84.482C70.3801 84.4598 70.5732 84.4498 70.7558 84.4515C70.7913 85.7931 70.7786 87.2595 70.717 88.8509C70.6548 90.4416 70.5827 91.983 70.4983 93.4744C70.4134 94.9653 70.3413 96.3075 70.2808 97.4998C70.2198 98.6922 70.2209 99.5695 70.2842 100.132C70.3496 100.718 70.4845 101.107 70.6881 101.302C70.8923 101.495 71.1182 101.578 71.3656 101.55C71.6813 101.515 71.9915 101.39 72.2984 101.172C72.6047 100.956 72.8999 100.689 73.184 100.373C73.4675 100.056 73.7361 99.7065 73.9902 99.3253C74.2438 98.9435 74.4658 98.5829 74.6555 98.2417ZM66.6092 99.0723C66.8272 98.569 66.9587 97.9676 67.0059 97.2668C67.0531 96.5666 67.088 96.0095 67.1102 95.5967C66.6824 95.0291 66.1486 94.5869 65.5083 94.2706C64.869 93.9549 64.1777 93.8384 63.4347 93.921C62.917 93.9788 62.402 94.1674 61.891 94.4865C61.3788 94.8061 60.936 95.2266 60.5609 95.7471C60.1858 96.2675 59.9006 96.8806 59.7064 97.5858C59.5116 98.2916 59.46 99.0612 59.5533 99.8946C59.6742 100.975 59.9955 101.811 60.5171 102.403C61.0398 102.994 61.7284 103.243 62.584 103.147C63.5074 103.043 64.3175 102.594 65.0155 101.798C65.713 101.002 66.2446 100.093 66.6092 99.0723ZM94.0465 94.2645C94.1242 94.3472 94.2019 94.4865 94.2812 94.6829C94.36 94.8787 94.4416 95.0979 94.5254 95.3398C94.6097 95.5806 94.6869 95.817 94.7584 96.0484C94.83 96.2803 94.8733 96.4634 94.8883 96.5982C94.6086 97.3589 94.2685 98.1385 93.8673 98.9352C93.4661 99.732 93.0122 100.467 92.5056 101.139C91.9995 101.812 91.4308 102.381 90.7993 102.851C90.1673 103.321 89.4693 103.598 88.703 103.684C88.0954 103.752 87.5788 103.718 87.1532 103.583C86.7276 103.449 86.3747 103.248 86.0945 102.983C85.8137 102.718 85.6012 102.394 85.4558 102.012C85.311 101.629 85.2128 101.213 85.1623 100.762C85.1445 100.604 85.134 100.457 85.1301 100.321C85.1268 100.185 85.1273 100.037 85.1317 99.8763C84.9214 100.447 84.6484 101.008 84.3111 101.558C83.9737 102.109 83.5736 102.61 83.1103 103.06C82.6481 103.511 82.1304 103.876 81.5572 104.157C80.9845 104.438 80.3603 104.616 79.6856 104.691C79.0097 104.766 78.3533 104.708 77.7157 104.517C77.0793 104.326 76.4961 104.003 75.9667 103.555C75.4379 103.102 74.9957 102.513 74.6417 101.789C74.2876 101.07 74.0563 100.224 73.9481 99.2559C73.7777 97.7306 73.8565 96.3419 74.185 95.1029C74.514 93.8584 74.9984 92.7897 75.6382 91.8859C76.2786 90.9826 77.0315 90.2718 77.8955 89.7419C78.76 89.212 79.6312 88.898 80.509 88.8003C81.5899 88.6794 82.5593 88.782 83.4166 89.1077C84.2739 89.434 84.9564 89.9334 85.4647 90.6064C85.463 90.3906 85.4658 90.1559 85.4702 89.8934C85.4752 89.6304 85.4919 89.3719 85.5207 89.1178C85.549 88.8647 85.5823 88.65 85.6206 88.4802C85.6583 88.3104 85.7332 88.2167 85.8459 88.2045C86.2737 88.1567 86.7936 88.1667 87.4051 88.235C88.0171 88.3032 88.5221 88.3843 88.9199 88.4764C88.875 89.0967 88.7957 89.8585 88.6791 90.7601C88.5631 91.6623 88.4566 92.5922 88.3578 93.5493C88.2602 94.5064 88.1792 95.4159 88.1154 96.2775C88.0521 97.1398 88.0504 97.84 88.1115 98.3809C88.1636 98.8537 88.2741 99.2293 88.4422 99.5067C88.6098 99.7841 88.8628 99.904 89.2007 99.8669C89.7406 99.8064 90.2639 99.5422 90.7705 99.0756C91.2771 98.609 91.7476 98.0774 92.1827 97.4815C92.6182 96.8862 92.9956 96.2858 93.3157 95.6794C93.6353 95.0735 93.8784 94.6024 94.0465 94.2645ZM80.4258 101.223C81.1011 101.147 81.7076 100.857 82.2441 100.353C82.7813 99.8485 83.2518 99.2204 83.658 98.468C84.0642 97.7157 84.3949 96.8979 84.649 96.0151C84.9037 95.1312 85.0763 94.2745 85.1656 93.4434C84.7855 92.8935 84.2622 92.4501 83.5986 92.1139C82.9339 91.7777 82.2297 91.6517 81.4867 91.7349C80.969 91.7921 80.4602 91.9857 79.9613 92.3148C79.4625 92.6438 79.0225 93.0927 78.6407 93.6597C78.2595 94.2268 77.976 94.902 77.7901 95.6861C77.6042 96.4706 77.5653 97.3473 77.6736 98.3155C77.794 99.3963 78.1202 100.169 78.6507 100.634C79.1812 101.1 79.7732 101.296 80.4258 101.223Z" fill="white"/>
<path d="M92.2262 87.765C92.3388 87.7528 92.5646 87.7273 92.902 87.6896C93.2399 87.6518 93.6084 87.6341 94.0073 87.6402C94.4074 87.6469 94.8014 87.6546 95.1903 87.6624C95.5788 87.6702 95.8762 87.6768 96.0809 87.6768C95.9439 88.6944 95.8512 89.6515 95.8029 90.5465C95.7547 91.4404 95.7724 92.2593 95.8551 93.0028C96.001 94.3084 96.3173 95.2017 96.8045 95.6838C97.2911 96.1649 98.0075 96.3524 98.9536 96.247C99.539 96.1815 100.127 95.9907 100.719 95.6733C101.311 95.3626 101.846 94.9953 102.325 94.5825C102.45 93.0527 102.517 91.6662 102.528 90.4338C102.538 89.201 102.504 87.9281 102.427 86.6259C102.563 86.6109 102.715 86.5937 102.884 86.5749C103.051 86.556 103.227 86.5366 103.407 86.5166C103.834 86.4689 104.297 86.4173 104.791 86.3618C105.287 86.3069 105.775 86.2864 106.255 86.3014C106.254 87.9199 106.211 89.5322 106.129 91.1374C106.046 92.742 105.903 94.2739 105.702 95.7332C105.5 97.1919 105.212 98.5513 104.84 99.813C104.469 101.074 103.988 102.182 103.399 103.138C102.811 104.091 102.093 104.867 101.249 105.463C100.403 106.059 99.3942 106.422 98.2234 106.553C97.6157 106.621 97.0775 106.653 96.6097 106.648C96.1414 106.643 95.7042 106.6 95.2958 106.521C94.8879 106.441 94.5006 106.342 94.1338 106.223C93.7676 106.105 93.3814 105.966 92.9758 105.805C93.0429 105.183 93.1817 104.585 93.3914 104.015C93.6012 103.444 93.8764 102.844 94.216 102.213C94.707 102.523 95.3196 102.756 96.056 102.914C96.7912 103.071 97.4637 103.116 98.0713 103.048C99.1295 102.93 100.011 102.45 100.715 101.607C101.419 100.765 101.948 99.378 102.302 97.446C101.737 97.8971 101.117 98.3193 100.443 98.7133C99.7687 99.1083 98.9819 99.3558 98.0802 99.4563C97.3372 99.5389 96.6441 99.5023 95.9994 99.3475C95.3552 99.191 94.7847 98.8836 94.2898 98.432C93.7943 97.9742 93.3775 97.3594 93.0418 96.5938C92.705 95.8219 92.4736 94.8787 92.3482 93.7529C92.2683 93.0327 92.2084 92.1444 92.169 91.0775C92.1307 90.016 92.149 88.908 92.2262 87.765ZM109.608 81.7211C109.893 81.6201 110.227 81.5485 110.61 81.5058C110.993 81.4631 111.387 81.4192 111.792 81.3743C112.152 81.3343 112.49 81.2961 112.806 81.2605C113.121 81.2256 113.404 81.2056 113.654 81.2006C113.69 82.3364 113.694 83.5959 113.666 84.978C113.637 86.3601 113.589 87.7107 113.519 89.029C113.45 90.3479 113.367 91.543 113.27 92.6138C113.173 93.6841 113.085 94.4754 113.004 94.9858C112.437 95.003 111.829 95.0202 111.18 95.0357C110.532 95.0507 110.071 95.0508 109.796 95.0363C109.805 94.5103 109.819 93.8595 109.834 93.0827C109.85 92.3059 109.855 91.4847 109.849 90.6192C109.844 89.7536 109.837 88.8703 109.828 87.9709C109.819 87.0715 109.803 86.2186 109.781 85.4113C109.759 84.6046 109.735 83.8783 109.708 83.2314C109.682 82.5844 109.648 82.0812 109.608 81.7211ZM109.974 97.855C110.384 97.6491 110.758 97.5276 111.096 97.4899C111.681 97.4244 112.229 97.5287 112.738 97.8022C113.247 98.0758 113.535 98.5058 113.6 99.0912C113.65 99.5417 113.608 99.9228 113.472 100.234C113.335 100.546 113.159 100.799 112.941 100.994C112.723 101.19 112.472 101.343 112.188 101.454C111.905 101.566 111.649 101.634 111.425 101.659C110.772 101.732 110.233 101.656 109.809 101.429C109.384 101.203 109.131 100.719 109.048 99.9756C109.005 99.5928 109.052 99.1999 109.19 98.7971C109.327 98.3943 109.588 98.0797 109.974 97.855Z" fill="white"/>
</svg>
