<svg width="160" height="137" viewBox="0 0 160 137" fill="none" xmlns="http://www.w3.org/2000/svg">
<path fill-rule="evenodd" clip-rule="evenodd" d="M154.477 59.8915C160.087 39.4753 144.439 26.1656 125.894 32.4048C124.118 33.0018 124.202 33.6432 123.75 30.6177C121.651 16.5905 112.074 11.4865 98.2625 12.3248C92.379 12.6827 89.568 15.1601 87.9721 16.2082C86.3763 17.2558 87.5504 18.4931 85.9063 16.5406C84.2627 14.5881 79.802 9.44295 73.9425 8.06138C68.0823 6.68036 61.8243 6.67315 56.9414 8.48363C52.0578 10.2935 48.5493 13.9211 47.8823 15.1118C47.6659 15.498 47.4406 15.8259 47.2891 15.6806C45.9347 14.3894 36.1471 10.3662 27.3671 14.5526C16.9492 19.5212 17.1168 25.4448 17.1944 32.6168C17.2011 33.2266 12.8025 33.4651 8.49774 36.2699C-3.87396 44.3341 -2.27422 72.729 12.2205 74.2665C13.6765 74.4213 13.4856 74.6111 12.6988 76.4815C11.912 78.3513 10.5286 81.9013 10.6718 86.188C10.8144 90.4759 12.4835 95.5006 15.653 99.0849C17.4042 101.068 19.6137 102.608 21.5736 103.699C20.0166 106.289 18.2987 108.842 16.563 110.951C13.0689 115.201 9.50152 117.652 5.92308 119.064C9.54037 122.333 14.8306 123.65 20.152 123.622C27.3261 123.585 38.0575 121.097 43.8133 116.137C43.9987 116.207 44.1851 116.277 44.3721 116.347C44.4459 116.484 44.523 116.624 44.6041 116.766C51.7432 129.322 70.0716 128.574 81.4628 123.654C83.5042 122.772 83.3971 123.294 85.302 124.7C87.2075 126.105 92.414 129.322 97.9939 129.823C106.6 130.595 119.407 127.676 122.505 120.473C123.077 119.142 130.464 123.494 139.717 119.554C146.282 116.76 149.904 109.86 148.165 101.455C147.737 99.384 147.547 99.3834 148.998 98.383C150.45 97.3826 156.062 94.7715 157.872 90.6756C164.219 76.3123 153.937 67.8391 151.453 66.6801C149.82 65.9177 153.168 64.6554 154.477 59.8915Z" fill="#FF4F73"/>
<path d="M28.7422 40.5491C29.6627 40.5829 30.515 40.6218 31.3002 40.6667C32.0854 40.7111 32.86 40.8099 33.6224 40.9635C34.7133 41.1833 35.6782 41.4862 36.5178 41.8724C37.3584 42.2541 38.0387 42.7457 38.5625 43.3377C39.0852 43.9348 39.4354 44.6389 39.6124 45.4539C39.7872 46.274 39.7672 47.22 39.5486 48.3059C39.4975 48.56 39.437 48.813 39.3682 49.0593C39.2994 49.3101 39.2173 49.577 39.123 49.8556C38.5376 51.5434 37.8179 52.8645 36.965 53.8133C36.1133 54.7571 35.1683 55.4368 34.1301 55.8518C33.0925 56.2624 31.9888 56.461 30.8208 56.4388C29.6522 56.4216 28.4675 56.2913 27.2684 56.0499C26.723 55.94 26.1831 55.8318 25.6465 55.7236C25.1105 55.616 24.5783 55.5089 24.0518 55.4029C24.0995 55.1666 24.2243 54.6861 24.4252 53.9698C24.6272 53.2496 24.8713 52.4101 25.1604 51.4424C25.4501 50.4748 25.7619 49.4405 26.0959 48.3458C26.4311 47.245 26.7679 46.183 27.1058 45.1593C27.4443 44.1356 27.7584 43.2107 28.0464 42.3895C28.3355 41.5633 28.5669 40.953 28.7422 40.5491ZM35.8408 49.3939C35.9246 49.1648 35.9968 48.9478 36.0556 48.747C36.116 48.5417 36.1665 48.3392 36.2065 48.1394C36.3419 47.4669 36.3674 46.8954 36.2842 46.4155C36.2009 45.9355 36.0234 45.5266 35.7498 45.1926C35.4779 44.8541 35.1211 44.5834 34.68 44.3814C34.2383 44.1789 33.7361 44.0213 33.1724 43.9076C32.8267 43.8382 32.5054 43.7922 32.2074 43.7705C31.9089 43.7483 31.4872 43.7295 30.9423 43.7145C30.621 44.5579 30.287 45.4684 29.9385 46.4477C29.5901 47.4275 29.2682 48.3697 28.9725 49.2741C28.6773 50.1785 28.412 51.0002 28.179 51.7376C27.9454 52.4756 27.7845 53.0154 27.6968 53.3567C27.8244 53.3822 27.9465 53.4071 28.0652 53.431C28.1829 53.4543 28.306 53.4793 28.4331 53.5048C29.1234 53.6441 29.8275 53.7145 30.5456 53.7173C31.2636 53.7195 31.9483 53.5836 32.5986 53.3123C33.2495 53.0371 33.8549 52.5915 34.4125 51.9806C34.9719 51.3653 35.448 50.5014 35.8408 49.3939ZM48.5854 46.8105C49.2213 46.9387 49.7801 47.1457 50.2617 47.4314C50.7428 47.7183 51.1567 48.0562 51.5041 48.4473C51.8509 48.8385 52.1272 49.2724 52.3337 49.749C52.5401 50.2251 52.6782 50.7161 52.747 51.2216C53.5716 50.9714 54.3407 50.6301 55.0515 50.1968C55.7634 49.7629 56.3571 49.3484 56.8338 48.9528C57.0701 49.0949 57.2804 49.2696 57.4658 49.4766C57.6511 49.6841 57.8631 49.9449 58.1028 50.2573C57.3498 50.9947 56.5214 51.6555 55.6191 52.2392C54.7169 52.8234 53.7186 53.2512 52.6239 53.5231C52.3897 54.4969 52.0168 55.4096 51.5058 56.2619C50.9936 57.1135 50.3721 57.8298 49.6402 58.4108C48.9089 58.9911 48.0832 59.4062 47.1632 59.6564C46.2432 59.9061 45.265 59.9261 44.229 59.718C43.3024 59.5316 42.5205 59.2136 41.883 58.7637C41.2454 58.3142 40.7488 57.7749 40.3931 57.1452C40.0374 56.516 39.8127 55.828 39.7167 55.0811C39.6213 54.3337 39.6523 53.5692 39.8094 52.7879C39.9337 52.1698 40.1323 51.5811 40.4059 51.0218C40.6794 50.462 40.9946 49.9538 41.3514 49.496C41.7076 49.0383 42.106 48.636 42.5438 48.2892C42.9827 47.943 43.4405 47.6667 43.9161 47.4597C44.0437 47.5796 44.1968 47.7571 44.3772 47.9918C44.5564 48.2265 44.7351 48.4657 44.9132 48.7092C45.2012 48.0301 45.6939 47.5052 46.3925 47.1357C47.0911 46.7656 47.8224 46.6574 48.5854 46.8105ZM48.4739 53.5664C48.0017 53.4715 47.5456 53.3189 47.1055 53.107C46.6655 52.8956 46.2782 52.6381 45.9425 52.3341C45.6068 52.0306 45.3282 51.6954 45.1085 51.3303C44.8893 50.9647 44.7545 50.578 44.704 50.1707C44.1363 50.548 43.6902 51.0063 43.3639 51.5462C43.0377 52.0855 42.8179 52.637 42.7047 53.2002C42.4883 54.2722 42.5732 55.1449 42.9578 55.818C43.3423 56.4904 43.9982 56.9204 44.9248 57.1069C45.4159 57.2056 45.892 57.1884 46.3537 57.0542C46.8159 56.9204 47.2487 56.6952 47.6526 56.38C48.0561 56.0643 48.4223 55.6793 48.7497 55.2248C49.0776 54.771 49.3523 54.2733 49.5753 53.7317C49.3861 53.7312 49.2008 53.7129 49.0188 53.6762C48.8373 53.6396 48.6553 53.603 48.4739 53.5664ZM49.4416 51.4358C49.5326 51.4541 49.628 51.4729 49.7279 51.4935C49.8278 51.5134 49.9255 51.524 50.0198 51.524C50.0059 50.9347 49.8633 50.4193 49.5936 49.9776C49.3229 49.5354 48.9061 49.2574 48.3424 49.1442C48.0705 49.0893 47.8319 49.122 47.6282 49.2419C47.4246 49.3617 47.3003 49.5304 47.2565 49.7485C47.2276 49.8938 47.2309 50.0409 47.2676 50.1901C47.3036 50.3388 47.3957 50.4903 47.545 50.6423C47.6937 50.796 47.9201 50.9403 48.2231 51.0773C48.526 51.2138 48.9328 51.3337 49.4416 51.4358ZM56.7078 49.0122C57.0896 49.0893 57.534 49.2069 58.0412 49.3656C58.5478 49.5249 59.0106 49.693 59.4284 49.8716C59.3596 50.0281 59.2974 50.1674 59.2453 50.2883C59.192 50.4104 59.1382 50.5369 59.0838 50.6673C59.0294 50.7988 58.969 50.9569 58.9035 51.1417C58.8374 51.327 58.7481 51.5595 58.6355 51.8391C58.9085 51.6111 59.242 51.3847 59.6365 51.1617C60.0316 50.9386 60.4716 50.7483 60.9571 50.5907C61.4426 50.4332 61.952 50.3227 62.4847 50.2595C63.0168 50.1968 63.5562 50.2201 64.1016 50.33C64.7009 50.4504 65.1742 50.6357 65.521 50.8848C65.8684 51.1345 66.1259 51.4274 66.2945 51.7642C66.4632 52.1005 66.5553 52.4639 66.5714 52.8551C66.587 53.2457 66.5564 53.6319 66.4799 54.013C66.3883 54.4675 66.2307 54.9469 66.0066 55.4495C65.7824 55.9533 65.5493 56.4544 65.3068 56.9537C65.0644 57.4537 64.8374 57.9231 64.626 58.3625C64.4152 58.8025 64.2759 59.1859 64.2104 59.5133C64.1549 59.7857 64.1682 60.0293 64.2476 60.2434C64.3275 60.4582 64.5217 60.5963 64.8308 60.6585C65.0666 60.7062 65.3429 60.6723 65.6598 60.5564C65.976 60.4399 66.2973 60.2778 66.6225 60.0692C66.9482 59.8606 67.2695 59.627 67.5858 59.3696C67.9026 59.1121 68.1773 58.8741 68.4103 58.656C68.523 58.7542 68.6955 58.9307 68.928 59.1859C69.1605 59.4406 69.3109 59.632 69.3797 59.7591C68.3132 61.0191 67.2295 61.964 66.1292 62.5938C65.0283 63.223 63.9513 63.4316 62.8975 63.2191C62.1157 63.0621 61.608 62.6953 61.3738 62.1188C61.1408 61.5418 61.1058 60.8449 61.2706 60.0276C61.3766 59.5005 61.5275 58.9828 61.7245 58.4735C61.9215 57.9652 62.1285 57.4775 62.3454 57.0103C62.5624 56.5437 62.7621 56.0921 62.9441 55.6565C63.1267 55.2204 63.256 54.8115 63.3331 54.4297C63.4208 53.9936 63.393 53.638 63.2493 53.3633C63.1062 53.0887 62.7893 52.9022 62.2988 52.8035C61.6984 52.6831 60.9998 52.7735 60.2014 53.0765C59.4034 53.3788 58.5767 53.9171 57.721 54.69C57.615 54.9335 57.4713 55.3203 57.2888 55.8513C57.1062 56.3817 56.9076 56.9704 56.6928 57.6173C56.477 58.2643 56.2689 58.9218 56.0686 59.5904C55.8677 60.259 55.6979 60.8443 55.5598 61.3454C55.4793 61.3681 55.3567 61.3665 55.1913 61.3426C55.0254 61.3187 54.8367 61.2949 54.6242 61.271C54.4117 61.2472 54.1914 61.2122 53.9645 61.1667C53.7375 61.1212 53.5145 61.0763 53.2969 61.0324L52.6694 60.9059C52.7282 60.6158 52.8558 60.1441 53.0528 59.4938C53.2498 58.8436 53.4828 58.1106 53.7508 57.2944C54.0194 56.4788 54.3079 55.6293 54.6181 54.7466C54.9277 53.8632 55.2229 53.0337 55.502 52.2581C55.7806 51.4829 56.0275 50.7988 56.2406 50.209C56.4537 49.6181 56.6101 49.2197 56.7078 49.0122ZM72.7662 50.5419C72.6469 50.1962 72.5181 49.7784 72.3805 49.2874C72.2429 48.7963 72.1092 48.287 71.9788 47.7599C71.8484 47.2333 71.7313 46.7129 71.6259 46.1996C71.5215 45.6875 71.4489 45.247 71.4095 44.8802C71.8606 44.7066 72.3228 44.5961 72.795 44.549C73.2678 44.5024 73.664 44.483 73.9841 44.4907C73.9836 45.0572 73.998 45.6187 74.0285 46.173C74.0585 46.7273 74.0934 47.2594 74.1328 47.7677C74.1722 48.277 74.2155 48.7442 74.2621 49.1692C74.3087 49.5948 74.3504 49.9532 74.3864 50.2445C74.0918 50.3932 73.7716 50.4792 73.4265 50.5047C73.0802 50.5292 72.8605 50.5419 72.7662 50.5419ZM74.5568 53.3417C75.004 53.4693 75.4335 53.5936 75.843 53.714C76.2542 53.8344 76.6653 53.9548 77.0754 54.0752C77.3922 53.5342 77.7157 52.9844 78.0459 52.4267C78.3755 51.8691 78.7439 51.3292 79.1518 50.8055C79.5591 50.9442 79.9575 51.1239 80.3481 51.3442C80.7387 51.565 81.1027 51.8225 81.4407 52.1171C81.3663 52.2015 81.2686 52.3379 81.1432 52.5394C81.0184 52.7369 80.8736 52.9627 80.7077 53.2224C80.5418 53.4826 80.3681 53.7589 80.1844 54.0624C80.0002 54.3659 79.8304 54.6672 79.6756 54.9668C80.2571 55.0839 80.8891 55.211 81.5705 55.348C82.2519 55.4856 82.7796 55.6576 83.1541 55.8657C83.1242 56.0155 83.0731 56.1986 83.0004 56.4161C82.9283 56.633 82.8467 56.8528 82.7563 57.0664C82.6658 57.28 82.5837 57.4803 82.5072 57.6689C82.4317 57.857 82.3751 57.9497 82.339 57.9425C81.8302 57.8398 81.2259 57.7183 80.5262 57.5774C79.8265 57.4365 79.1945 57.3094 78.6313 57.1962C78.4537 57.5147 78.2706 57.8609 78.0842 58.2255C77.8977 58.5894 77.724 58.9562 77.5648 59.3263C77.4044 59.7002 77.2674 60.0509 77.1536 60.3827C77.0393 60.7145 76.9589 61.0003 76.9117 61.2316C76.7807 61.8814 76.8479 62.3491 77.1109 62.6382C77.375 62.9228 77.7157 63.1098 78.1336 63.1941C78.5697 63.2818 79.0735 63.2457 79.6445 63.0865C80.2155 62.9273 80.7321 62.7331 81.1937 62.505C81.2376 62.5705 81.3019 62.697 81.3868 62.884C81.4728 63.0715 81.5566 63.2868 81.6399 63.5304C81.7231 63.7745 81.7963 64.0209 81.8596 64.2694C81.9229 64.5186 81.9656 64.7305 81.9867 64.9053C81.2958 65.3331 80.5295 65.6893 79.6872 65.9734C78.8455 66.258 77.9338 66.3013 76.9522 66.1043C75.6987 65.8518 74.8309 65.2759 74.3498 64.3749C73.8698 63.4749 73.7539 62.4074 74.0024 61.1712C74.1267 60.5536 74.362 59.8301 74.7083 59.0017C75.0545 58.1733 75.4762 57.3272 75.9712 56.4627L74.8259 56.2319C74.6261 56.1914 74.4308 56.152 74.2405 56.1137C74.0496 56.0754 73.8521 56.0455 73.649 56.0233L73.6978 55.778C73.7894 55.3236 73.9081 54.8986 74.054 54.5024C74.2 54.1063 74.3675 53.7195 74.5568 53.3417ZM94.2557 51.8597C94.4372 51.8963 94.6602 51.9645 94.9232 52.0655C95.1874 52.1654 95.4543 52.2714 95.7251 52.3818C95.9958 52.4939 96.2555 52.6121 96.5041 52.7374C96.7533 52.8634 96.9541 52.9699 97.1067 53.0576C96.6584 53.8749 96.1801 54.771 95.6718 55.7464C95.1635 56.7224 94.6724 57.7056 94.1986 58.6976C93.7253 59.6897 93.3091 60.6507 92.9517 61.5806C92.5944 62.5111 92.3447 63.3306 92.2021 64.0392C92.085 64.6207 92.055 65.0973 92.1128 65.4679C92.1705 65.8391 92.4085 66.066 92.8263 66.1504C93.0993 66.2053 93.4256 66.1809 93.8057 66.0777C94.1858 65.975 94.5809 65.818 94.9926 65.6077C95.4032 65.3969 95.8027 65.1511 96.19 64.8703C96.5779 64.589 96.9169 64.2883 97.2083 63.9687C97.3242 64.0486 97.4657 64.1906 97.6327 64.3948C97.7998 64.5984 97.9163 64.7732 97.9812 64.9186C97.6277 65.4524 97.2038 65.9867 96.7089 66.5205C96.2139 67.0537 95.6801 67.5236 95.1064 67.9281C94.5337 68.3326 93.9289 68.6361 93.2919 68.8392C92.656 69.0417 92.0201 69.0794 91.3836 68.9512C90.7838 68.8308 90.3121 68.6128 89.9692 68.2987C89.6258 67.983 89.3838 67.6129 89.2429 67.1874C89.1014 66.7618 89.0376 66.3007 89.0531 65.8019C89.0687 65.3042 89.1253 64.8098 89.224 64.3194C89.3777 63.5559 89.6341 62.6576 89.9931 61.6234C90.3527 60.5897 90.7683 59.511 91.2405 58.3864C91.7127 57.2611 92.2137 56.1337 92.7442 55.0012C93.2747 53.8699 93.7785 52.8229 94.2557 51.8597ZM105.286 58.2199C105.959 58.3558 106.544 58.5917 107.044 58.9285C107.544 59.2652 107.955 59.6647 108.278 60.1264C108.6 60.5891 108.843 61.1007 109.003 61.6622C109.164 62.2243 109.243 62.798 109.239 63.3833C109.966 63.3406 110.692 63.2313 111.418 63.056C112.144 62.8806 112.859 62.6365 113.565 62.3252C113.579 62.4417 113.585 62.6027 113.58 62.8146C113.576 63.0221 113.558 63.2502 113.529 63.4899C113.499 63.7307 113.466 63.9693 113.429 64.1979C113.392 64.4276 113.355 64.6373 113.318 64.8182C112.652 65.1195 111.93 65.3475 111.152 65.5034C110.375 65.6543 109.588 65.737 108.792 65.7464C108.503 66.6153 108.093 67.4071 107.56 68.1318C107.027 68.8564 106.409 69.46 105.705 69.9516C105.001 70.4438 104.223 70.7834 103.371 70.9803C102.517 71.1779 101.618 71.1812 100.674 70.9909C99.7463 70.8044 98.9645 70.4865 98.3275 70.0371C97.6893 69.5866 97.1933 69.0472 96.8376 68.418C96.4819 67.7883 96.2577 67.0964 96.164 66.3396C96.0707 65.5833 96.1057 64.7965 96.27 63.9787C96.402 63.3245 96.6106 62.7097 96.8964 62.1333C97.1827 61.5573 97.5201 61.0347 97.9074 60.5641C98.2958 60.0942 98.727 59.6891 99.2014 59.3501C99.6764 59.0106 100.161 58.7393 100.656 58.5367C100.819 58.6638 100.986 58.8441 101.157 59.0766C101.327 59.3096 101.491 59.5554 101.647 59.8134C101.956 59.2142 102.432 58.7564 103.072 58.4407C103.712 58.1256 104.45 58.0518 105.286 58.2199ZM105.817 65.4463C104.382 65.1572 103.256 64.6661 102.44 63.972C101.625 63.279 101.24 62.3979 101.285 61.3287C100.783 61.6628 100.351 62.0911 99.991 62.6143C99.6303 63.1375 99.3751 63.7717 99.2253 64.5169C99.0388 65.4435 99.0999 66.2685 99.4078 66.9921C99.7163 67.7161 100.37 68.1783 101.369 68.3797C101.824 68.4713 102.27 68.4619 102.708 68.3509C103.147 68.2366 103.558 68.0496 103.943 67.7822C104.327 67.5192 104.678 67.1835 104.996 66.7785C105.312 66.3795 105.587 65.934 105.817 65.4463ZM103.756 61.1739C103.679 61.65 103.861 62.06 104.302 62.404C104.743 62.748 105.373 63.0027 106.191 63.1675L106.436 63.2163C106.495 62.5477 106.394 61.9457 106.132 61.4114C105.872 60.8765 105.423 60.5453 104.787 60.4171C104.55 60.3694 104.332 60.4199 104.133 60.5691C103.932 60.7178 103.807 60.9192 103.756 61.1739ZM119.025 60.9847C119.661 61.1129 120.219 61.3193 120.701 61.6056C121.183 61.8919 121.597 62.2304 121.943 62.621C122.29 63.0127 122.566 63.446 122.773 63.9227C122.98 64.3993 123.117 64.8903 123.186 65.3952C124.012 65.1455 124.78 64.8037 125.491 64.3704C126.203 63.9365 126.796 63.5226 127.273 63.127C127.509 63.2685 127.72 63.4438 127.905 63.6502C128.09 63.8583 128.302 64.1185 128.542 64.4315C127.789 65.1683 126.961 65.8291 126.058 66.4128C125.157 66.9976 124.158 67.4249 123.063 67.6967C122.829 68.6705 122.457 69.5832 121.945 70.4355C121.433 71.2872 120.811 72.0035 120.079 72.5844C119.349 73.1653 118.522 73.5803 117.602 73.83C116.683 74.0797 115.705 74.1002 114.669 73.8916C113.742 73.7052 112.96 73.3878 112.323 72.9378C111.685 72.4884 111.188 71.9485 110.833 71.3193C110.477 70.6901 110.252 70.0016 110.156 69.2548C110.061 68.5074 110.092 67.7428 110.249 66.9616C110.373 66.3435 110.572 65.7548 110.846 65.1955C111.119 64.6362 111.434 64.1274 111.791 63.6702C112.147 63.2119 112.545 62.8096 112.984 62.4628C113.422 62.1166 113.88 61.8403 114.356 61.6339C114.483 61.7537 114.637 61.9307 114.816 62.1654C114.996 62.4001 115.174 62.6393 115.352 62.8834C115.64 62.2043 116.134 61.6788 116.832 61.3093C117.531 60.9392 118.262 60.8316 119.025 60.9847ZM118.913 67.7406C118.441 67.6457 117.985 67.4925 117.545 67.2817C117.105 67.0697 116.717 66.8117 116.382 66.5077C116.046 66.2042 115.768 65.8696 115.548 65.504C115.329 65.1383 115.194 64.7522 115.143 64.3449C114.576 64.7222 114.129 65.1805 113.803 65.7198C113.477 66.2597 113.257 66.8106 113.144 67.3744C112.928 68.4464 113.012 69.3191 113.397 69.9921C113.782 70.6652 114.437 71.0941 115.364 71.2811C115.855 71.3798 116.331 71.3621 116.793 71.2284C117.255 71.0946 117.688 70.8694 118.092 70.5537C118.496 70.2379 118.862 69.8529 119.19 69.3985C119.517 68.9446 119.791 68.4469 120.015 67.9054C119.825 67.9054 119.64 67.887 119.458 67.8499C119.277 67.8138 119.095 67.7772 118.913 67.7406ZM119.881 65.6099C119.972 65.6283 120.067 65.6477 120.167 65.6671C120.267 65.6876 120.365 65.6976 120.459 65.6976C120.445 65.1084 120.303 64.5935 120.033 64.1512C119.762 63.7096 119.345 63.4316 118.782 63.3184C118.51 63.2635 118.271 63.2957 118.067 63.4155C117.864 63.5354 117.74 63.704 117.696 63.9227C117.667 64.0675 117.67 64.2145 117.707 64.3643C117.743 64.513 117.836 64.6645 117.984 64.8171C118.133 64.9696 118.359 65.1139 118.663 65.251C118.966 65.3875 119.372 65.5073 119.881 65.6099ZM123.175 75.0363C123.262 74.6002 123.439 73.9316 123.706 73.0305C123.973 72.1289 124.287 71.129 124.65 70.0293C125.014 68.9301 125.404 67.785 125.824 66.5926C126.243 65.4013 126.649 64.2772 127.041 63.2213C127.433 62.166 127.784 61.2438 128.094 60.4554C128.404 59.667 128.646 59.1204 128.821 58.8153C129.839 59.0194 130.795 59.3918 131.688 59.9311C131.496 60.3267 131.21 60.9215 130.833 61.7155C130.456 62.5095 130.065 63.3711 129.66 64.3016C129.256 65.2316 128.867 66.1515 128.495 67.0597C128.124 67.968 127.848 68.7254 127.669 69.333L127.953 69.3324C128.521 68.7659 129.165 68.22 129.885 67.694C130.606 67.1674 131.372 66.6936 132.185 66.2702C132.999 65.8485 133.844 65.4979 134.722 65.221C135.601 64.9436 136.482 64.7716 137.365 64.7039C137.448 65.0418 137.509 65.4934 137.546 66.0588C137.584 66.6242 137.558 67.1718 137.471 67.7028C135.911 67.8427 134.57 68.1162 133.448 68.524C132.326 68.9318 131.417 69.3585 130.723 69.8051C130.976 70.4232 131.301 71.0375 131.699 71.6467C132.097 72.2565 132.574 72.8441 133.131 73.4095C133.689 73.9754 134.329 74.5064 135.051 75.0013C135.774 75.4968 136.59 75.9307 137.499 76.3024C137.309 76.8689 137.061 77.4194 136.755 77.9537C136.449 78.4874 136.134 78.9019 135.81 79.196C134.941 78.8126 134.125 78.3176 133.358 77.7095C132.592 77.1014 131.901 76.424 131.285 75.676C130.67 74.9281 130.142 74.1225 129.701 73.258C129.261 72.3947 128.941 71.5169 128.742 70.6258C128.371 70.8727 128.039 71.1135 127.746 71.3471C127.453 71.5818 127.165 71.8404 126.881 72.1239C126.691 72.7853 126.532 73.3867 126.404 73.9277C126.276 74.4698 126.159 74.9564 126.053 75.3886C125.781 75.4285 125.414 75.4202 124.952 75.3659C124.49 75.3104 124.077 75.2466 123.714 75.1733C123.605 75.1511 123.505 75.1317 123.414 75.1134C123.323 75.0951 123.243 75.069 123.175 75.0363ZM136.804 69.4689C137.131 69.5344 137.531 69.6149 138.003 69.7097C138.476 69.8052 138.989 69.9084 139.543 70.0199C140.097 70.1314 140.665 70.2457 141.247 70.3628C141.828 70.4799 142.391 70.593 142.937 70.7029C143.446 70.805 143.914 70.8999 144.341 70.9853C144.768 71.0713 145.145 71.1474 145.472 71.2128C145.384 71.6489 145.266 72.0978 145.115 72.5639C144.965 73.0255 144.825 73.4417 144.695 73.8073C144.466 73.7235 144.201 73.6519 143.901 73.5915C143.602 73.531 143.279 73.4661 142.934 73.3967C142.407 73.2907 141.839 73.1764 141.23 73.0538C140.621 72.9317 140.017 72.8097 139.417 72.6893C138.817 72.5683 138.236 72.4513 137.673 72.3381C137.109 72.2249 136.609 72.1239 136.173 72.0362C136.275 71.6217 136.367 71.2145 136.447 70.815C136.528 70.4155 136.647 69.9661 136.804 69.4689ZM39.0847 67.2423C38.9449 67.937 38.7756 68.6838 38.5781 69.48C38.3794 70.2768 38.1591 71.093 37.9144 71.928C37.6714 72.7625 37.4056 73.5887 37.1187 74.4054C36.8313 75.2216 36.5305 75.989 36.2159 76.7053C36.5616 76.7752 36.9023 76.844 37.2386 76.9111C37.5743 76.9788 37.915 77.0476 38.2607 77.1169C38.6779 77.2007 39.0875 77.2834 39.487 77.3639C39.887 77.4443 40.2871 77.5248 40.6861 77.6052L40.5418 78.3232C40.4808 78.6267 40.4158 78.9263 40.3454 79.2287C40.2766 79.5267 40.205 79.7625 40.1334 79.9323C39.4792 79.8008 38.7068 79.6454 37.8157 79.4662C36.9251 79.287 35.999 79.1005 35.0357 78.9069C34.0763 80.3828 33.0009 81.4753 31.8085 82.1861C30.6155 82.9007 29.3098 83.1154 27.8927 82.8302C27.5653 82.7642 27.2385 82.651 26.9111 82.4907C26.5848 82.3309 26.3018 82.1128 26.0638 81.8382C25.8263 81.5635 25.6509 81.2351 25.5394 80.8533C25.4268 80.4716 25.4234 80.0172 25.53 79.4901C25.6615 78.8353 25.9633 78.2966 26.4372 77.871C26.9105 77.4465 27.5015 77.1164 28.2106 76.8811C28.9198 76.6459 29.7193 76.4994 30.6105 76.4423C31.5011 76.3851 32.4427 76.3807 33.4349 76.4295C33.7084 75.9168 33.9581 75.3814 34.1839 74.8216C33.7223 75.145 33.0736 75.4069 32.2391 75.6072C31.4045 75.8081 30.5239 75.8153 29.5967 75.6288C28.9064 75.4896 28.336 75.2471 27.8866 74.897C27.436 74.5513 27.0881 74.1408 26.8417 73.6752C26.5953 73.2053 26.4444 72.7115 26.3884 72.1938C26.3312 71.6767 26.3512 71.1801 26.4472 70.7029C26.6203 69.844 26.9238 69.0872 27.3561 68.4419C27.7883 67.796 28.2999 67.275 28.8903 66.8789C29.4807 66.4822 30.1399 66.2131 30.8668 66.0755C31.5954 65.934 32.3406 65.9423 33.1041 66.0954C33.74 66.2236 34.3343 66.49 34.8859 66.8933C35.438 67.2978 35.8247 67.7494 36.0461 68.2471C36.1521 67.9098 36.2259 67.6362 36.2681 67.4276C36.3103 67.2184 36.3674 66.9793 36.4407 66.7102C36.5788 66.7757 36.7658 66.8328 37.0022 66.8805C37.2386 66.9277 37.4927 66.9788 37.7652 67.0337C38.2191 67.1252 38.6591 67.1946 39.0847 67.2423ZM29.4397 71.0547C29.2721 71.8858 29.362 72.4756 29.7077 72.8241C30.0534 73.1725 30.5722 73.4145 31.2625 73.5532C31.4805 73.597 31.7524 73.6092 32.0776 73.5892C32.4039 73.5654 32.7318 73.5132 33.0614 73.4233C33.3905 73.3379 33.7062 73.2269 34.0064 73.0988C34.3071 72.965 34.5507 72.8108 34.7366 72.6404L35.3631 70.5165C34.998 69.885 34.6262 69.4556 34.2472 69.2231C33.8682 68.9912 33.4243 68.8264 32.9149 68.7232C32.552 68.6505 32.1847 68.6428 31.8124 68.7055C31.4417 68.7626 31.0943 68.8919 30.7714 69.0866C30.449 69.2814 30.1694 69.5422 29.9335 69.8684C29.6977 70.1941 29.5329 70.5908 29.4397 71.0547ZM28.6268 80.1698C29.862 80.4183 31.0583 79.8319 32.2147 78.4059C31.1027 78.2949 30.1466 78.3016 29.3454 78.4281C28.5447 78.5551 28.0896 78.8897 27.982 79.4257C27.9498 79.5849 27.9848 79.7386 28.0885 79.8823C28.1929 80.021 28.3721 80.1182 28.6268 80.1698ZM47.9062 69.0744C49.0693 69.3086 49.9654 69.8096 50.5952 70.5797C51.225 71.3499 51.6212 72.2226 51.7838 73.2008C52.3298 73.0277 52.8441 72.8191 53.328 72.5761C53.8119 72.3331 54.2391 72.0878 54.6103 71.8415C54.8284 72.0745 55.026 72.3836 55.2035 72.7686C55.3811 73.1548 55.4987 73.5804 55.5564 74.0453C55.0942 74.3683 54.5393 74.6817 53.8934 74.9819C53.2475 75.2776 52.5112 75.5079 51.6855 75.6627C51.4514 76.6376 51.0796 77.5453 50.568 78.397C50.057 79.2448 49.4355 79.9611 48.7042 80.5415C47.9728 81.123 47.1477 81.533 46.2277 81.7832C45.3077 82.0324 44.3295 82.0534 43.2935 81.8454C42.3668 81.6584 41.585 81.3405 40.9474 80.891C40.3093 80.4405 39.8132 79.9012 39.4576 79.272C39.1024 78.6423 38.8777 77.9503 38.7839 77.1935C38.6902 76.4373 38.7257 75.6505 38.8905 74.8327C39.022 74.1785 39.2306 73.5637 39.5169 72.9872C39.8033 72.4113 40.1395 71.8892 40.5274 71.4181C40.9152 70.9481 41.3464 70.5437 41.8214 70.2041C42.2963 69.8645 42.7813 69.5932 43.2763 69.3907C43.4389 69.5177 43.6014 69.697 43.7629 69.9278C43.9249 70.1592 44.0836 70.4038 44.2396 70.6618C44.5492 70.0632 45.0242 69.6049 45.6645 69.2897C46.3054 68.974 47.0517 68.9024 47.9062 69.0744ZM47.56 75.585C46.4696 75.3653 45.5979 74.9536 44.9443 74.3488C44.2906 73.7446 43.9549 73.0155 43.9377 72.161C43.4355 72.4951 42.9999 72.9228 42.6298 73.4433C42.2603 73.9654 41.9989 74.6074 41.8452 75.3709C41.6588 76.2975 41.7198 77.1225 42.0283 77.846C42.3363 78.5701 42.99 79.0323 43.9893 79.2337C44.4981 79.3364 44.9892 79.3169 45.462 79.176C45.9347 79.034 46.3731 78.8059 46.7787 78.4808C47.1843 78.1562 47.5483 77.7567 47.8702 77.2873C48.192 76.8129 48.455 76.3086 48.6587 75.7626C48.4711 75.7537 48.2919 75.7321 48.1187 75.6971C47.9462 75.6622 47.7603 75.625 47.56 75.585ZM48.2497 73.5676C48.3951 73.597 48.5316 73.6242 48.6587 73.6503C48.7863 73.6758 48.9255 73.6847 49.0787 73.678C49.0648 73.0888 48.9278 72.5694 48.6686 72.1205C48.409 71.6717 47.9889 71.3881 47.4068 71.2711C47.1888 71.2272 46.9884 71.2627 46.8042 71.3765C46.6206 71.4908 46.5052 71.6661 46.4574 71.9025C46.4358 72.0118 46.4374 72.1439 46.4624 72.3003C46.4874 72.4574 46.5651 72.6138 46.6938 72.7725C46.8225 72.9301 47.0095 73.0821 47.2548 73.2258C47.5001 73.3701 47.8313 73.4838 48.2497 73.5676Z" fill="white"/>
<path d="M74.6874 82.2909C74.8689 82.4218 75.0486 82.5861 75.2268 82.7825C75.4049 82.9789 75.5408 83.172 75.6352 83.3612C75.1796 83.9316 74.6918 84.4526 74.1719 84.9242C73.6514 85.3964 73.1265 85.7964 72.5972 86.1249C72.0684 86.4534 71.5329 86.6903 70.993 86.8368C70.4531 86.9838 69.9382 87.0077 69.4465 86.9089C68.7379 86.7663 68.2741 86.3945 68.0549 85.792C67.8357 85.1905 67.803 84.5075 67.9567 83.744C67.9744 83.6536 67.9939 83.5582 68.0138 83.4583C68.0343 83.3584 68.0643 83.2558 68.1043 83.1509C67.7985 83.5426 67.4451 83.9111 67.0455 84.2562C66.6449 84.6007 66.2077 84.8909 65.736 85.1267C65.2627 85.3631 64.7683 85.5185 64.2511 85.5939C63.7351 85.6699 63.2046 85.6533 62.6586 85.5429C62.1143 85.433 61.6166 85.225 61.1682 84.917C60.7199 84.6096 60.3459 84.2123 60.0451 83.7313C59.746 83.2452 59.5491 82.6765 59.4531 82.024C59.3565 81.3759 59.3876 80.6585 59.5446 79.8779C59.7927 78.6461 60.1999 77.5841 60.7654 76.7008C61.3319 75.8125 61.9761 75.1012 62.7008 74.5569C63.4249 74.012 64.189 73.6458 64.9941 73.4488C65.7993 73.2513 66.5567 73.2241 67.2653 73.3667C68.1376 73.542 68.8667 73.8639 69.4537 74.3321C70.0403 74.7993 70.4475 75.3586 70.6756 76.01C70.7283 75.8408 70.7888 75.6593 70.8582 75.4557C70.9281 75.2521 71.0052 75.0551 71.0912 74.8642C71.1761 74.6739 71.2555 74.5147 71.3276 74.3921C71.3997 74.2694 71.4818 74.215 71.5728 74.2334C71.9174 74.3027 72.3203 74.4409 72.7797 74.6467C73.2397 74.8526 73.6126 75.0412 73.9 75.2121C73.7103 75.6843 73.4567 76.2625 73.1398 76.9455C72.8224 77.6285 72.5062 78.3304 72.191 79.0523C71.8758 79.773 71.5851 80.466 71.3193 81.1312C71.0529 81.796 70.8776 82.3375 70.7932 82.7559C70.7167 83.137 70.705 83.4516 70.7594 83.6991C70.8138 83.9466 70.9863 84.0991 71.2771 84.1574C71.4952 84.2012 71.7465 84.1718 72.0323 84.0681C72.3181 83.9649 72.6166 83.8223 72.9273 83.6392C73.2386 83.455 73.5455 83.243 73.8495 83.0017C74.1536 82.7603 74.4327 82.5234 74.6874 82.2909ZM64.1019 83.0261C64.6468 83.1354 65.1911 83.0605 65.7355 82.8008C66.2792 82.5422 66.8036 82.1699 67.3069 81.685C67.8113 81.2006 68.2729 80.6458 68.6913 80.021C69.1103 79.3963 69.4582 78.7709 69.7356 78.1462C69.5764 77.623 69.2795 77.1474 68.8456 76.7197C68.4122 76.2919 67.8951 76.0172 67.2947 75.8968C66.8769 75.8125 66.4324 75.8369 65.9613 75.9689C65.4902 76.101 65.0363 76.3407 64.5974 76.6869C64.159 77.0337 63.769 77.4898 63.4288 78.0546C63.0881 78.6195 62.8395 79.2925 62.6825 80.0737C62.5066 80.9465 62.5671 81.6295 62.8651 82.1244C63.1625 82.6194 63.5747 82.9196 64.1019 83.0261ZM78.6376 71.1168C78.783 71.1462 78.9678 71.1928 79.1914 71.2566C79.4145 71.3204 79.6492 71.4009 79.8944 71.4974C80.1397 71.5945 80.3927 71.7016 80.6519 71.8203C80.9115 71.9391 81.149 72.0761 81.3627 72.2326C81.214 72.5056 81.0175 72.8956 80.7728 73.4044C80.5287 73.9132 80.2773 74.4586 80.0182 75.039C79.7591 75.6205 79.5116 76.1948 79.2746 76.7618C79.0377 77.3283 78.8518 77.8066 78.7164 78.195C79.4516 77.6435 80.2601 77.1968 81.1424 76.8534C82.0246 76.5116 83.0012 76.4478 84.0733 76.6636C85.1459 76.8795 85.8878 77.3267 86.3 78.0053C86.7118 78.6838 86.8444 79.4811 86.6973 80.3967C86.6246 80.7601 86.4865 81.1862 86.2845 81.675C86.082 82.1638 85.8633 82.6632 85.6281 83.1736C85.3928 83.6847 85.1747 84.184 84.9722 84.6723C84.7696 85.1611 84.632 85.5872 84.5594 85.9507C84.5189 86.1504 84.5139 86.3624 84.5444 86.586C84.5754 86.8096 84.7447 86.9527 85.0538 87.0149C85.3262 87.0698 85.6325 87.0271 85.9732 86.8878C86.3133 86.748 86.6468 86.5693 86.9742 86.3518C87.3016 86.1343 87.614 85.8991 87.9103 85.6466C88.2066 85.3942 88.448 85.1833 88.6339 85.0124C88.7609 85.1323 88.9368 85.3143 89.1621 85.5584C89.3874 85.8014 89.5361 85.9784 89.6088 86.0877C89.1827 86.6071 88.7238 87.1009 88.2327 87.5692C87.7416 88.0374 87.2217 88.4342 86.6746 88.7588C86.1264 89.0834 85.5587 89.3236 84.9694 89.4795C84.3801 89.6349 83.7858 89.6521 83.186 89.5317C82.4957 89.393 81.9902 89.0595 81.6706 88.5318C81.3516 88.0042 81.2744 87.3317 81.4387 86.5144C81.5447 85.9867 81.6995 85.4558 81.9015 84.9198C82.104 84.3844 82.3126 83.8633 82.5274 83.3584C82.7432 82.853 82.9413 82.3824 83.1239 81.9463C83.3059 81.5102 83.4302 81.1291 83.4956 80.8022C83.5911 80.329 83.5456 79.9466 83.3586 79.6542C83.1716 79.3613 82.8875 79.1765 82.5057 79.0994C82.1423 79.0261 81.7594 79.0251 81.3582 79.0955C80.9559 79.166 80.5481 79.2875 80.1358 79.4595C79.723 79.6315 79.3157 79.8468 78.914 80.107C78.5117 80.3661 78.1305 80.6397 77.7698 80.926C77.4818 81.7943 77.1722 82.7908 76.8426 83.9155C76.5119 85.0407 76.1839 86.3169 75.8588 87.7456C75.6751 87.8122 75.3655 87.8261 74.9282 87.7895C74.491 87.7534 74.0632 87.6957 73.6453 87.6114C73.4994 87.5825 73.3679 87.5559 73.2497 87.532C73.1315 87.5087 73.0194 87.4765 72.9146 87.4366C73.0139 86.9416 73.1948 86.2547 73.4583 85.367C73.7219 84.4792 74.0332 83.4971 74.3928 82.4163C74.7512 81.3393 75.1269 80.2246 75.5203 79.0694C75.9143 77.9104 76.3016 76.8062 76.6839 75.7536C77.0662 74.7005 77.4147 73.764 77.731 72.9434C78.0478 72.1233 78.2953 71.5018 78.4745 71.084L78.6376 71.1168ZM96.9361 82.6554C97.0021 82.3281 96.9455 82.0479 96.7657 81.8126C96.5859 81.5779 96.278 81.417 95.8418 81.3293C95.3696 81.2345 94.8741 81.2528 94.3558 81.3848C93.8376 81.5174 93.3493 81.7588 92.8904 82.1106C92.432 82.4629 92.0248 82.9146 91.668 83.4672C91.3106 84.0193 91.057 84.6679 90.9072 85.413C90.8889 85.504 90.8723 85.5856 90.8579 85.6583C90.8434 85.731 90.8357 85.8142 90.8357 85.9091C91.4283 85.8774 92.0603 85.7914 92.7311 85.6522C93.4014 85.5135 94.0273 85.3176 94.6077 85.0657C95.1876 84.8138 95.6926 84.4898 96.122 84.0941C96.5515 83.6985 96.8229 83.2186 96.9361 82.6554ZM101.877 87.7057C101.458 88.1884 100.923 88.7288 100.274 89.3253C99.6245 89.9228 98.8748 90.4533 98.0253 90.9149C97.1758 91.3777 96.2358 91.7272 95.2048 91.9641C94.1744 92.2011 93.0774 92.2027 91.9138 91.9686C91.1142 91.8077 90.4239 91.5225 89.8452 91.113C89.2659 90.703 88.8081 90.2047 88.4724 89.6171C88.1373 89.0295 87.9236 88.3765 87.8315 87.6585C87.7399 86.9405 87.7727 86.1909 87.9297 85.4097C88.1711 84.2101 88.5873 83.1542 89.1766 82.2432C89.767 81.3304 90.4628 80.597 91.2657 80.0393C92.0681 79.4823 92.9481 79.1022 93.9064 78.8974C94.8647 78.6933 95.8252 78.6877 96.7879 78.8819C97.406 79.0062 97.9237 79.2048 98.3416 79.4783C98.7594 79.7513 99.0829 80.0671 99.3143 80.4255C99.5446 80.7839 99.6883 81.1718 99.746 81.5901C99.8037 82.0079 99.7926 82.4174 99.7121 82.8169C99.5401 83.6708 99.1506 84.4104 98.5419 85.0352C97.9343 85.6594 97.2152 86.1815 96.3834 86.5999C95.5522 87.0188 94.661 87.3361 93.7105 87.5509C92.7589 87.7661 91.8566 87.8821 91.0021 87.8993C91.0454 88.1545 91.2352 88.4331 91.5714 88.7371C91.9077 89.0412 92.4204 89.2631 93.1107 89.4019C93.8015 89.5406 94.5101 89.5461 95.2353 89.4179C95.9606 89.2898 96.6597 89.0806 97.3322 88.791C98.0053 88.5008 98.6434 88.1512 99.2449 87.7428C99.8475 87.335 100.38 86.9222 100.842 86.5044C100.889 86.5521 100.959 86.6276 101.052 86.7308C101.144 86.8351 101.245 86.945 101.354 87.0609C101.463 87.178 101.567 87.2929 101.667 87.4083C101.767 87.5226 101.837 87.6213 101.877 87.7057ZM114.623 90.3268C114.804 90.4577 114.984 90.622 115.162 90.8189C115.34 91.0142 115.476 91.2079 115.571 91.3971C115.115 91.9675 114.627 92.4885 114.107 92.9601C113.587 93.4323 113.062 93.8323 112.533 94.1608C112.003 94.4893 111.468 94.7262 110.929 94.8726C110.388 95.0191 109.873 95.0436 109.382 94.9448C108.674 94.8022 108.21 94.4304 107.99 93.8279C107.771 93.2264 107.738 92.5434 107.892 91.7799C107.91 91.6895 107.929 91.594 107.949 91.4942C107.97 91.3943 108 91.2917 108.04 91.1862C107.734 91.5785 107.381 91.9469 106.981 92.292C106.58 92.6366 106.143 92.9268 105.671 93.1626C105.198 93.399 104.703 93.5543 104.187 93.6298C103.671 93.7058 103.14 93.6886 102.594 93.5788C102.05 93.4689 101.552 93.2608 101.104 92.9529C100.655 92.6455 100.281 92.2482 99.9807 91.7672C99.6816 91.2811 99.4841 90.7124 99.3886 90.0599C99.2921 89.4118 99.3232 88.6944 99.4802 87.9132C99.7282 86.682 100.136 85.62 100.701 84.7367C101.267 83.8483 101.912 83.137 102.636 82.5927C103.36 82.0479 104.124 81.6811 104.929 81.4847C105.735 81.2872 106.492 81.26 107.2 81.4026C108.073 81.5779 108.802 81.8997 109.389 82.3674C109.976 82.8352 110.383 83.3945 110.611 84.0459C110.664 83.8767 110.724 83.6952 110.794 83.4916C110.863 83.288 110.941 83.091 111.026 82.9001C111.112 82.7098 111.191 82.5506 111.263 82.428C111.335 82.3053 111.417 82.2509 111.508 82.2693C111.853 82.3386 112.256 82.4768 112.715 82.6826C113.175 82.8885 113.548 83.0771 113.835 83.248C113.645 83.7202 113.392 84.2983 113.075 84.9814C112.758 85.6644 112.442 86.3663 112.127 87.0881C111.811 87.8083 111.521 88.5019 111.255 89.1671C110.988 89.8319 110.813 90.3734 110.729 90.7917C110.652 91.1729 110.641 91.4875 110.695 91.735C110.749 91.9819 110.922 92.135 111.213 92.1933C111.431 92.2371 111.682 92.2077 111.968 92.104C112.254 92.0008 112.552 91.8576 112.863 91.6751C113.174 91.4908 113.481 91.2789 113.785 91.0375C114.089 90.7962 114.368 90.5593 114.623 90.3268ZM104.037 91.062C104.582 91.1712 105.127 91.0963 105.67 90.8367C106.215 90.5781 106.739 90.2058 107.242 89.7209C107.747 89.2365 108.208 88.6816 108.627 88.0569C109.046 87.4321 109.394 86.8068 109.671 86.1821C109.512 85.6588 109.215 85.1828 108.781 84.7555C108.347 84.3277 107.83 84.0537 107.23 83.9327C106.812 83.8484 106.367 83.8728 105.897 84.0048C105.426 84.1369 104.972 84.3766 104.533 84.7228C104.094 85.0696 103.705 85.5257 103.364 86.0905C103.024 86.6553 102.775 87.3284 102.618 88.1096C102.442 88.9824 102.503 89.6654 102.8 90.1603C103.098 90.6552 103.51 90.9554 104.037 91.062ZM126.794 94.9598C126.794 95.2439 126.793 95.6223 126.793 96.0944C126.792 96.5672 126.756 96.985 126.682 97.3484C126.65 97.5115 126.554 97.6347 126.395 97.7157C126.237 97.7978 126.041 97.8572 125.807 97.8955C125.573 97.9332 125.311 97.9421 125.021 97.9215C124.732 97.901 124.452 97.8638 124.179 97.8084C123.725 97.7174 123.368 97.5415 123.108 97.2812C122.848 97.021 122.662 96.7281 122.547 96.4029C122.434 96.0772 122.374 95.7388 122.369 95.3881C122.364 95.0375 122.39 94.7162 122.449 94.426C121.659 95.25 120.827 95.8342 119.955 96.1788C119.082 96.5228 118.109 96.5871 117.037 96.3713C116.346 96.2326 115.78 95.9679 115.339 95.5762C114.898 95.185 114.553 94.714 114.304 94.1625C114.056 93.6115 113.912 93.0106 113.873 92.3603C113.834 91.7095 113.88 91.057 114.012 90.4022C114.253 89.2032 114.657 88.1828 115.223 87.3417C115.79 86.5011 116.425 85.8347 117.129 85.3431C117.833 84.851 118.57 84.5225 119.341 84.356C120.112 84.1901 120.825 84.1724 121.479 84.3039C121.788 84.366 122.107 84.4537 122.433 84.5674C122.76 84.6801 123.074 84.8332 123.376 85.0263C123.678 85.2188 123.953 85.4496 124.201 85.7165C124.45 85.9845 124.667 86.3163 124.852 86.7131C125.144 85.8258 125.423 84.9564 125.689 84.1019C125.956 83.248 126.166 82.4396 126.319 81.6761C126.349 81.5308 126.377 81.3898 126.405 81.2539C126.432 81.1168 126.451 80.9742 126.463 80.8255C126.764 80.8294 127.069 80.8627 127.378 80.9249C127.687 80.987 127.996 81.0491 128.305 81.1113C128.541 81.159 128.764 81.2034 128.973 81.2456C129.181 81.2877 129.382 81.3465 129.575 81.4237C129.266 82.4912 128.882 83.6475 128.425 84.8837C127.967 86.1249 127.52 87.3156 127.08 88.4658C126.642 89.611 126.254 90.6442 125.92 91.5552C125.584 92.4713 125.372 93.1471 125.285 93.5832C125.187 94.0692 125.192 94.416 125.303 94.6174C125.414 94.8194 125.596 94.9459 125.851 94.9975C125.978 95.023 126.122 95.0374 126.282 95.0408C126.441 95.0446 126.612 95.018 126.794 94.9598ZM122.703 91.7538C122.998 91.4159 123.251 90.9804 123.462 90.4466C123.674 89.9123 123.84 89.4873 123.96 89.171C123.769 88.6217 123.462 88.1446 123.043 87.7384C122.623 87.3328 122.114 87.0693 121.514 86.9489C121.096 86.8645 120.648 86.8834 120.17 87.0038C119.691 87.1253 119.242 87.3422 118.819 87.6552C118.398 87.9664 118.022 88.3732 117.694 88.8747C117.367 89.3758 117.135 89.9628 117 90.6353C116.825 91.507 116.867 92.2388 117.126 92.8302C117.385 93.4212 117.86 93.7857 118.55 93.9244C119.295 94.0748 120.039 93.9266 120.782 93.48C121.524 93.0344 122.164 92.4591 122.703 91.7538ZM133.521 83.5221C133.768 83.5149 134.046 83.5432 134.355 83.6048C134.664 83.6675 134.983 83.7313 135.31 83.7973C135.6 83.8556 135.873 83.9099 136.128 83.9615C136.382 84.0126 136.607 84.0675 136.803 84.1258C136.548 85.0196 136.237 86.0017 135.87 87.072C135.503 88.1423 135.128 89.1821 134.745 90.1925C134.363 91.2029 134 92.1134 133.657 92.9235C133.314 93.733 133.048 94.3272 132.859 94.7051C132.412 94.5775 131.934 94.4388 131.425 94.2895C130.916 94.1397 130.556 94.0243 130.346 93.9444C130.484 93.5377 130.657 93.0339 130.863 92.4319C131.069 91.8304 131.278 91.1918 131.489 90.516C131.701 89.8402 131.915 89.1505 132.132 88.447C132.35 87.7445 132.551 87.0753 132.735 86.4412C132.919 85.8075 133.082 85.2349 133.222 84.7245C133.363 84.2134 133.462 83.8134 133.521 83.5221ZM129.781 96.1849C130.152 96.1272 130.474 96.1261 130.747 96.181C131.219 96.2759 131.62 96.4934 131.948 96.8335C132.277 97.1742 132.394 97.5803 132.299 98.0525C132.226 98.4165 132.097 98.7022 131.913 98.9114C131.729 99.12 131.528 99.2732 131.309 99.3714C131.092 99.4696 130.858 99.5262 130.609 99.5417C130.359 99.5583 130.144 99.5484 129.963 99.5117C129.436 99.4052 129.035 99.211 128.761 98.9292C128.487 98.6473 128.41 98.2067 128.531 97.607C128.593 97.2979 128.728 97.0038 128.936 96.7242C129.143 96.444 129.425 96.2648 129.781 96.1849Z" fill="white"/>
</svg>
