<svg width="161" height="137" viewBox="0 0 161 137" fill="none" xmlns="http://www.w3.org/2000/svg">
<path fill-rule="evenodd" clip-rule="evenodd" d="M127.948 60.144C128.095 60.4036 128.224 60.6633 128.34 60.9191C129.492 60.8819 130.472 60.9174 131.328 61.0905C131.522 61.1294 131.689 61.1693 131.83 61.2087C133.27 61.6149 134.252 62.4244 134.823 63.4231C135.394 64.4207 135.536 65.5926 135.308 66.7289C135.276 66.8826 135.244 67.0185 135.212 67.1317C134.866 68.3591 134.092 69.5165 132.624 70.4347C131.978 70.8392 131.191 71.196 130.239 71.4895C130.239 71.6277 130.233 71.7747 130.223 71.9334C130.21 72.1198 130.19 72.2857 130.169 72.4694L129.997 74.0168C129.85 75.3773 129.647 77.2561 129.332 79.7379L129.372 79.7213L129.374 79.7246C132.349 78.474 136.466 76.7439 140.128 76.1885C142.318 75.8567 144.344 75.9438 146.165 76.3899H146.169C148.088 76.861 149.771 77.731 151.173 78.9339C152.53 80.0986 153.615 81.5678 154.417 83.2712C155.221 84.979 155.742 86.9243 155.966 89.035C156.178 91.0163 156.129 93.1409 155.887 95.2282C155.626 97.4776 155.137 99.6997 154.505 101.664C153.888 103.583 153.133 105.26 152.116 106.747C151.087 108.252 149.801 109.553 148.133 110.701C146.5 111.825 144.503 112.799 142.263 113.582C140.038 114.359 137.568 114.951 134.971 115.318C131.216 115.849 127.187 115.907 124.123 115.951C123.046 115.967 122.092 115.981 121.289 116.015C120.987 116.028 120.714 116.044 120.466 116.062C119.595 117.853 118.711 119.387 117.852 120.609C116.586 122.41 115.358 123.57 113.488 124.306C111.716 125.003 109.411 125.27 105.931 125.31C102.477 125.349 97.8439 125.17 93.0886 124.828C88.4914 124.498 83.7588 124.017 79.8302 123.438C75.7885 122.842 72.579 122.139 69.9944 121.291C67.3492 120.423 65.3455 119.397 63.7708 118.175C62.1311 116.903 60.9581 115.436 60.1391 112.998C59.3645 110.692 58.9217 107.508 58.7025 102.723C58.4367 96.9072 58.4966 88.6316 58.5509 81.1716C58.5837 76.6196 58.6147 72.3712 58.5676 69.1769C58.5543 68.2664 58.5327 67.4053 58.5143 66.6301C58.4627 64.5217 58.4261 63.0292 58.5909 61.9544C58.3229 61.6909 58.1087 61.4218 57.9234 61.1449C57.338 60.2694 57.0639 59.3094 57.1049 58.3812C57.1465 57.4318 57.5155 56.5319 58.2147 55.7984C58.8833 55.0981 59.841 54.5561 61.2804 54.313C62.2215 54.1538 63.389 54.1233 64.8483 54.2637L64.8794 54.1555C65.1397 53.2644 65.6158 52.5065 66.2972 51.9377C66.9436 51.3979 67.7637 51.0367 68.7469 50.903C70.5009 50.6649 72.7388 51.1804 73.979 51.4661L74.272 51.5333C74.399 50.9573 74.7075 50.2044 75.6098 49.3876C76.3017 48.7623 77.3699 48.096 78.7143 47.6521C79.7647 47.3053 81.0038 47.085 82.3871 47.1161C84.2554 47.1583 86.3318 47.6593 88.073 48.1653C87.9748 47.0801 87.8771 46.0497 87.7828 45.1064C87.5026 42.3067 87.2307 40.0517 86.8717 38.2235C86.5288 36.478 86.1132 35.1624 85.5394 34.1731C85.0478 33.3259 84.4241 32.7011 83.7594 32.2611C82.982 31.7473 82.1497 31.4893 81.4105 31.4239C80.7846 31.3678 80.2369 31.4521 79.7775 31.6547C79.3119 31.86 78.9241 32.1906 78.6267 32.6212C78.1168 33.358 77.8088 34.4583 77.4986 35.5658C77.3915 35.9481 77.2838 36.3321 77.1656 36.7121C76.9082 37.54 76.6047 38.3373 76.2085 39.0497C75.7846 39.8115 75.2563 40.4718 74.5721 40.9645C73.8974 41.4506 73.0989 41.7551 72.2572 41.8883C71.4032 42.0231 70.4926 41.9843 69.6176 41.784C68.7325 41.5815 67.8775 41.2119 67.13 40.6771C66.4242 40.1721 65.8089 39.5169 65.3472 38.7113C64.885 37.9045 64.5853 36.9646 64.4455 35.9276C64.3084 34.9094 64.3223 33.7853 64.4821 32.5912C64.6419 31.3978 64.9488 30.1316 65.3993 28.8793C65.8249 27.6947 66.3798 26.514 67.0607 25.4071C67.7748 24.2463 68.6293 23.1643 69.5998 22.2067C70.5387 21.2801 71.5952 20.4656 72.7477 19.8042C73.9113 19.1367 75.1642 18.6351 76.4965 18.3017C77.8238 17.9699 79.2259 17.805 80.693 17.8089C82.2301 17.8139 83.8509 18.0026 85.4379 18.4187C86.8856 18.7983 88.3077 19.3681 89.6178 20.1604C90.9972 20.9955 92.2485 22.0785 93.3538 23.4507C94.4453 24.8067 95.3847 26.433 96.1521 28.3688C96.9051 30.2664 97.4989 32.4786 98.0132 34.9776C98.5204 37.4406 98.9471 40.1755 99.3733 43.1622C99.5886 44.6681 99.8027 46.2328 100.011 47.7941C100.706 47.8601 101.402 47.9728 102.069 48.1292C103.292 48.4161 104.435 48.855 105.312 49.4265H105.315C107 50.5268 107.616 52.0265 107.968 52.8832L107.991 52.937L108.462 52.8693C109.128 52.7827 110.145 52.7012 111.149 52.724C111.922 52.7423 112.695 52.82 113.322 52.9997C114.668 53.3853 115.314 54.1366 115.919 54.8418C116.026 54.9661 116.132 55.0893 116.243 55.2069V55.2108C116.479 55.4638 116.738 55.6819 117.101 55.8572C117.501 56.0508 118.04 56.2029 118.82 56.3077C119.251 56.366 119.704 56.407 120.184 56.4503C121.95 56.609 124.057 56.7987 125.602 57.6843C126.675 58.2991 127.417 59.2057 127.948 60.144ZM125.603 27.4833C127.473 27.0971 130.194 26.5967 131.342 25.422C132.489 24.2469 132.061 22.3981 131.043 21.6285C130.024 20.8589 128.415 21.1691 127.574 21.3994C126.733 21.6297 126.66 21.7806 126.475 20.7563C126.291 19.7315 125.994 17.5316 124.77 17.0322C123.546 16.5328 121.395 17.7351 120.728 19.9157C120.06 22.0963 120.878 25.2556 121.286 26.8347C121.695 28.4143 121.695 28.4144 122.204 28.2784C122.714 28.1425 123.733 27.87 125.603 27.4833ZM108.306 20.2331C109.812 19.0585 112.03 17.4045 112.538 15.8431C113.046 14.2818 111.844 12.8131 110.591 12.5739C109.337 12.3354 108.031 13.3258 107.379 13.905C106.727 14.4843 106.729 14.6519 106.11 13.8146C105.49 12.9779 104.25 11.1363 102.931 11.2312C101.613 11.3255 100.216 13.3563 100.583 15.6062C100.951 17.8567 103.083 20.3274 104.149 21.5625C105.215 22.7976 105.215 22.7976 105.611 22.4503C106.007 22.1024 106.8 21.4077 108.306 20.2331ZM56.4424 33.5977C56.7592 31.7151 57.278 28.9969 56.5977 27.5022C55.9175 26.008 54.0392 25.7372 52.9533 26.408C51.8674 27.0789 51.5733 28.6912 51.484 29.5584C51.3946 30.4262 51.5089 30.5483 50.4868 30.3496C49.4647 30.151 47.3062 29.6311 46.3979 30.5916C45.4895 31.5515 45.8313 33.9923 47.6231 35.4032C49.4142 36.8142 52.6548 37.1959 54.275 37.3868C55.8959 37.5777 55.8958 37.5777 55.9535 37.0534C56.0107 36.529 56.1261 35.4809 56.4424 33.5977ZM117.098 47.0878C119.731 45.8394 123.916 42.8693 124.996 40.1355C126.075 37.4023 124.051 34.905 121.823 34.4328C119.596 33.9601 117.166 35.5125 115.884 36.4913C114.601 37.4695 114.466 37.8745 113.758 36.8281C113.049 35.7828 111.766 33.2848 110.079 32.9813C108.391 32.6778 106.299 34.5676 106.603 37.3347C106.906 40.1023 109.606 43.7465 111.496 45.805C113.386 47.8635 114.466 48.3362 117.098 47.0878ZM127.7 90.7461C127.536 91.6971 127.363 92.6681 127.18 93.6502C126.5 97.2933 125.683 101.072 124.717 104.535C124.425 105.584 124.119 106.604 123.802 107.591C123.964 107.586 124.135 107.582 124.316 107.578L125.138 107.562C127.567 107.521 131.318 107.455 134.615 106.792C136.39 106.435 138.048 105.901 139.538 105.237C141.077 104.551 142.432 103.727 143.549 102.819C144.624 101.945 145.479 100.99 146.146 99.9616C146.809 98.9385 147.291 97.8321 147.622 96.6508C147.966 95.4224 148.145 94.1223 148.118 92.8606C148.093 91.706 147.893 90.5819 147.489 89.5765C147.066 88.5223 146.416 87.6023 145.537 86.9626C144.757 86.3939 143.777 86.0354 142.594 85.9883C141.244 85.935 139.617 86.2746 137.953 86.7801C136.26 87.2933 134.486 87.9991 132.919 88.6371L131.102 89.3801C129.801 89.9161 128.673 90.3805 127.7 90.7461ZM108.058 53.1018C108.096 53.1895 108.075 53.139 108.046 53.0718L108.058 53.1018Z" fill="white"/>
<path d="M130.107 57.9251C130.725 57.9578 131.323 58.0283 131.915 58.1476L131.918 58.1359C132.169 58.1931 132.393 58.2452 132.642 58.3129C133.698 58.6103 134.614 59.0675 135.392 59.6429C136.257 60.2821 136.934 61.0622 137.431 61.9311L137.436 61.9283C137.908 62.7517 138.205 63.6428 138.339 64.5588C138.471 65.4566 138.437 66.3915 138.25 67.3176L138.192 67.6282L138.108 67.944C137.838 68.905 137.399 69.8394 136.741 70.7121C136.119 71.5361 135.292 72.3023 134.214 72.9776V72.9892C133.875 73.2011 133.494 73.4087 133.069 73.6101L132.908 75.0693L133.493 74.8591C135.515 74.1433 137.645 73.5196 139.681 73.2106C140.914 73.0242 142.138 72.9548 143.343 72.9947C144.43 73.0308 145.471 73.1601 146.464 73.3765H146.503L146.887 73.4708C148.079 73.7626 149.189 74.1749 150.213 74.6948C151.256 75.2253 152.231 75.8811 153.127 76.6507C153.985 77.3869 154.745 78.202 155.406 79.0848L155.398 79.0903C156.064 79.9803 156.643 80.9524 157.132 81.99L157.136 81.9877C157.619 83.0131 158.014 84.0951 158.316 85.2208C158.612 86.3222 158.827 87.4919 158.957 88.717C159.069 89.7773 159.115 90.8986 159.1 92.0533C159.084 93.2728 159.006 94.4524 158.877 95.5699C158.738 96.7722 158.537 97.9707 158.288 99.132C158.035 100.308 157.724 101.47 157.366 102.582C157.016 103.673 156.629 104.687 156.192 105.627V105.639C155.74 106.609 155.216 107.541 154.6 108.442C153.984 109.343 153.285 110.189 152.483 110.989C151.701 111.768 150.825 112.495 149.84 113.173C148.915 113.81 147.882 114.408 146.759 114.958C145.65 115.502 144.475 115.992 143.252 116.419C141.991 116.859 140.713 117.235 139.437 117.539C138.173 117.839 136.816 118.094 135.383 118.296C131.486 118.847 127.324 118.907 124.16 118.953L124.125 118.965L124.124 118.953L122.346 118.985C122.156 119.338 121.961 119.689 121.762 120.034C121.25 120.924 120.765 121.696 120.313 122.339C119.551 123.423 118.773 124.337 117.863 125.128C116.903 125.962 115.848 126.61 114.583 127.107C113.481 127.541 112.229 127.839 110.727 128.032C109.377 128.206 107.816 128.29 105.955 128.311C104.177 128.331 102.131 128.297 99.9501 128.215C97.6035 128.127 95.1997 127.996 92.877 127.829C90.5587 127.663 88.1383 127.45 85.7378 127.199C83.4373 126.958 81.281 126.694 79.395 126.416C77.2947 126.107 75.4148 125.77 73.7307 125.402C72.0122 125.027 70.4652 124.611 69.0647 124.151C67.6026 123.672 66.2986 123.139 65.1278 122.549C63.9287 121.946 62.8733 121.282 61.9349 120.553C60.9012 119.752 60.0034 118.873 59.2166 117.785L59.2105 117.789C58.4403 116.725 57.8055 115.485 57.2906 113.951C56.8422 112.615 56.4943 111.065 56.2346 109.202C55.9888 107.444 55.8152 105.358 55.7008 102.853C55.5682 99.9521 55.5166 96.3739 55.5055 92.5637C55.4939 88.8279 55.5222 84.8913 55.5499 81.1599L55.5505 81.0706C55.5826 76.5691 55.6126 72.3694 55.566 69.2118C55.5549 68.4672 55.5349 67.6388 55.5172 66.8865C55.5172 66.8005 55.5005 66.6983 55.5005 66.6257H55.5111C55.4745 65.1287 55.4456 63.9191 55.4878 62.9049L55.4278 62.8166C54.9634 62.1214 54.6199 61.3879 54.3985 60.6416C54.1671 59.8587 54.0683 59.0531 54.1033 58.2519C54.141 57.3969 54.3247 56.5713 54.6538 55.805L54.6582 55.8066C54.9834 55.052 55.4439 54.349 56.0376 53.7265C56.5997 53.1373 57.2767 52.6174 58.1052 52.2001C58.8704 51.8151 59.7548 51.5205 60.7864 51.3468C61.374 51.248 62.0498 51.1875 62.8233 51.1742L62.9915 51.1726C63.3832 50.5855 63.8427 50.0673 64.3665 49.6306C64.9097 49.1768 65.5384 48.794 66.247 48.4949C66.8978 48.2202 67.5998 48.0266 68.3472 47.925C69.8016 47.7275 71.3674 47.8928 72.6831 48.1237C72.9383 47.8079 73.2402 47.4861 73.5975 47.1627C74.1269 46.6844 74.7899 46.1995 75.5562 45.7711C76.231 45.3938 76.9779 45.0542 77.773 44.7912C78.4655 44.5632 79.239 44.3751 80.088 44.2514C80.8066 44.1465 81.5939 44.0955 82.4462 44.1149C83.2037 44.1321 83.9527 44.2014 84.6813 44.3074C84.5787 43.3298 84.4788 42.4503 84.3789 41.6774C84.2507 40.6881 84.1015 39.741 83.9173 38.8006C83.7669 38.0349 83.6071 37.384 83.4317 36.8447C83.2774 36.3703 83.1143 35.9836 82.9379 35.6795C82.8208 35.4776 82.6882 35.3 82.5473 35.1486C82.4058 34.9971 82.2542 34.8706 82.1 34.7685C81.9535 34.6714 81.7865 34.592 81.6117 34.5299L81.6134 34.526C81.4564 34.4711 81.2988 34.4383 81.1517 34.4256V34.4139L81.0474 34.4111C80.8387 34.7812 80.6173 35.5708 80.3954 36.3637V36.3875L80.3915 36.3892C80.2761 36.8031 80.1596 37.2164 80.0386 37.6065C79.8943 38.0715 79.7279 38.5497 79.5292 39.043C79.33 39.5374 79.1009 40.0279 78.834 40.5095C78.5399 41.0372 78.1953 41.5476 77.7885 42.0326L77.7952 42.0381C77.3774 42.5364 76.8913 42.9946 76.3264 43.4013C75.7954 43.7842 75.2155 44.0971 74.6035 44.3407C74.0048 44.5793 73.3739 44.7502 72.728 44.8528C72.1054 44.9533 71.4673 44.9888 70.8331 44.9638C70.1911 44.9388 69.5557 44.8545 68.947 44.7147C68.3228 44.5715 67.6952 44.364 67.0804 44.0899C66.4844 43.8253 65.9152 43.5023 65.388 43.125C64.8675 42.7533 64.3714 42.3139 63.9098 41.8062L63.9042 41.8117C63.462 41.324 63.0674 40.788 62.734 40.206C62.4105 39.6417 62.1386 39.0141 61.9178 38.3322C61.7125 37.6969 61.5615 37.0256 61.4677 36.3276C61.3823 35.6917 61.3435 35.0154 61.3512 34.3063C61.359 33.611 61.4101 32.907 61.5038 32.2029C61.6026 31.4671 61.7413 30.7336 61.9178 30.0189C62.0859 29.3365 62.3051 28.6152 62.5742 27.8673C62.8256 27.1676 63.1152 26.4707 63.4415 25.7888C63.7888 25.0625 64.1417 24.4033 64.4946 23.8296C64.9013 23.1682 65.3669 22.5063 65.8863 21.8521C66.3741 21.2368 66.9112 20.6387 67.4927 20.0644C68.0598 19.5051 68.6585 18.9825 69.2839 18.5048C69.9248 18.0159 70.5828 17.5754 71.2531 17.1909C71.9329 16.8013 72.6631 16.4496 73.4394 16.1383C74.2079 15.8309 74.9847 15.5779 75.7671 15.3826C76.555 15.1856 77.3685 15.0375 78.2019 14.9398C78.9716 14.8494 79.8039 14.8056 80.6934 14.8078C81.6089 14.8106 82.545 14.8688 83.48 14.9887C84.3945 15.1063 85.305 15.2788 86.1917 15.5113C87.0884 15.746 87.959 16.034 88.7841 16.378C89.612 16.7225 90.4133 17.1237 91.1718 17.5826V17.5942C92.0197 18.1075 92.8198 18.6895 93.5667 19.3442C94.3274 20.0112 95.0393 20.7513 95.6969 21.567C96.3533 22.3826 96.952 23.2587 97.488 24.1969V24.2092C98.0141 25.1302 98.4996 26.1461 98.9424 27.2625C99.3669 28.3328 99.7387 29.4608 100.068 30.647C100.391 31.8055 100.684 33.0517 100.957 34.3773C101.225 35.6795 101.465 37.0156 101.69 38.3911C101.933 39.8769 102.147 41.3057 102.352 42.7383L102.691 45.1841L102.752 45.198C103.506 45.375 104.258 45.6086 104.976 45.896C105.365 46.0513 105.741 46.2239 106.102 46.4131H106.195L106.952 46.9075C108.309 47.7936 109.174 48.8106 109.759 49.7416C110.197 49.72 110.687 49.7111 111.208 49.7227L111.365 49.7272C110.667 49.2533 110.003 48.6264 109.284 47.8418C108.091 46.5424 106.6 44.662 105.467 42.7012C104.519 41.061 103.798 39.3149 103.615 37.6642C103.53 36.9058 103.563 36.1667 103.689 35.4637C103.958 33.9695 104.659 32.7033 105.569 31.7745C106.565 30.7563 107.848 30.1166 109.157 29.9729C109.626 29.9219 110.114 29.9374 110.609 30.0267C112.684 30.4001 114.085 31.9354 115.088 33.3697C115.732 32.9441 116.489 32.5058 117.311 32.1513C118.096 31.8128 118.943 31.5465 119.826 31.4188C119.254 30.9678 118.962 29.8398 118.379 27.5882C118.156 26.7259 117.821 25.4309 117.625 24.0005C117.405 22.3864 117.373 20.6204 117.856 19.0446V19.033C117.933 18.7788 118.008 18.5663 118.076 18.3966C118.709 16.8458 119.814 15.6345 121.008 14.8822C122.436 13.9811 124.104 13.6837 125.522 14.1176H125.534C125.618 14.1431 125.74 14.1891 125.896 14.2529L125.901 14.2429C127.745 14.9948 128.568 16.6393 128.998 18.143L129.195 18.1374C130.416 18.118 131.728 18.3749 132.856 19.2272C133.011 19.3442 133.173 19.4857 133.34 19.6483C134.225 20.5122 134.835 21.7378 134.995 23.0179C135.161 24.3462 134.871 25.7749 133.946 26.9995C133.821 27.1654 133.671 27.3385 133.496 27.5171C131.768 29.2871 128.765 29.9019 126.53 30.3591L126.203 30.4262C124.487 30.7813 123.48 31.0493 122.976 31.1841L122.072 31.4211C122.197 31.4405 122.322 31.4632 122.448 31.4899C122.83 31.5703 123.205 31.6846 123.566 31.8272H123.578C125.033 32.4015 126.359 33.4923 127.229 34.8972C128.134 36.3592 128.555 38.1514 128.15 40.0628C128.064 40.469 127.947 40.8646 127.798 41.2419C127.131 42.9308 125.756 44.5643 124.152 45.9753C122.315 47.5938 120.076 49.0037 118.382 49.8071C117.378 50.2832 116.491 50.585 115.653 50.7143C116.066 50.9379 116.433 51.1892 116.77 51.4583C117.426 51.9832 117.822 52.4432 118.204 52.8882L118.352 53.0613L118.451 53.1661L118.595 53.2083C118.779 53.2571 118.986 53.2982 119.22 53.3298L119.778 53.3947L120.444 53.4602C121.424 53.5484 122.501 53.6455 123.529 53.8403C124.773 54.0756 126.004 54.4445 127.097 55.0709C127.916 55.5409 128.607 56.119 129.191 56.756C129.534 57.1294 129.837 57.5228 130.107 57.9251ZM125.003 24.5404L125.071 24.5265C124.206 24.1803 123.867 23.2099 123.521 21.2862L123.509 21.2746L123.506 21.2568C123.441 21.8155 123.488 22.5085 123.582 23.2004C123.656 23.7447 123.763 24.2863 123.875 24.7812L125.003 24.5404ZM106.458 17.855L106.505 17.8189C105.582 17.8827 104.85 17.1637 103.696 15.604L103.67 15.5724C103.856 16.0989 104.207 16.7004 104.6 17.2819C104.915 17.7479 105.248 18.1851 105.561 18.5735L106.458 17.8667V17.855ZM110.417 22.4064L110.154 22.6106L110.149 22.6034C109.536 23.0817 108.962 23.5511 108.474 23.9589C107.892 24.4444 107.713 24.6014 107.589 24.7102C104.917 27.0505 104.916 27.0511 101.877 23.5283C101.284 22.8414 100.394 21.8105 99.6088 20.6481C98.6955 19.2976 97.8842 17.7252 97.6173 16.0889C97.5763 15.8348 97.548 15.6068 97.5341 15.4076C97.4153 13.7425 97.8671 12.1739 98.6012 10.9743C99.4834 9.53283 100.847 8.52469 102.311 8.28167C102.449 8.25671 102.585 8.2406 102.719 8.23062C104.699 8.08802 106.161 9.1966 107.21 10.3523L107.382 10.2608H107.394C108.476 9.70593 109.76 9.35639 111.144 9.61939C111.373 9.66322 111.585 9.71757 111.779 9.78027C112.938 10.1576 114.022 10.9871 114.738 12.0724C115.48 13.1965 115.855 14.6041 115.571 16.0961C115.526 16.3353 115.468 16.5616 115.4 16.773C114.632 19.13 112.216 21.0088 110.417 22.4064ZM53.4763 33.1034L53.4874 33.039C52.8498 33.7109 51.825 33.6738 49.9223 33.3042H49.8995C50.3972 33.5706 51.0465 33.7753 51.7079 33.9334C52.2223 34.056 52.7755 34.1515 53.296 34.2275L53.4763 33.1034ZM59.4652 33.7631L59.4091 34.0921C59.2477 35.0542 59.1456 35.74 59.0795 36.2355C59.0179 36.6921 58.9735 37.0977 58.9436 37.3712V37.3829C58.5546 40.92 58.5546 40.9201 53.9341 40.3763C53.0785 40.2759 51.7933 40.1238 50.319 39.7715C48.7132 39.3876 47.0435 38.7772 45.7634 37.7691C45.6008 37.642 45.4283 37.49 45.2507 37.3224V37.3108C44.025 36.1517 43.2936 34.6925 43.0273 33.3259C42.7027 31.6624 43.0301 29.9951 43.949 28.8277C44.0161 28.7428 44.1043 28.643 44.2092 28.5314H44.2208C45.5903 27.0833 47.4108 26.9079 48.9579 27.0483L49.02 26.8735C49.4417 25.7333 50.1592 24.6053 51.3761 23.8535C51.5814 23.7264 51.7711 23.6227 51.942 23.5444L51.9404 23.54C53.054 23.0334 54.4124 22.9119 55.667 23.2265C56.9687 23.5527 58.1995 24.3434 59.0068 25.6518C59.1262 25.8454 59.2349 26.0468 59.3292 26.2543H59.3409C60.3602 28.4954 59.8469 31.5159 59.4652 33.7631ZM48.6233 32.6101L48.5817 32.6456L48.5872 32.6506L48.6233 32.6101ZM115.815 44.3685C117.068 43.7742 118.753 42.7061 120.174 41.4555C121.133 40.611 121.911 39.746 122.194 39.0291C122.23 38.9387 122.253 38.8671 122.264 38.815C122.322 38.5403 122.257 38.274 122.119 38.0521C121.947 37.773 121.672 37.551 121.365 37.4301L121.366 37.4262C121.307 37.4034 121.252 37.3862 121.2 37.3752C120.798 37.2903 120.241 37.4456 119.688 37.6836C118.911 38.0193 118.202 38.5042 117.709 38.881C117.515 39.028 117.372 39.1434 117.248 39.2433C117.033 39.4164 116.859 39.5574 116.564 39.7565C114.152 41.3906 113.113 41.2269 111.274 38.5115C111.158 38.3406 111.004 38.0954 110.835 37.824C110.488 37.2708 110.007 36.5029 109.737 36.1406C109.674 36.2455 109.626 36.3742 109.599 36.5229C109.576 36.6533 109.572 36.8136 109.593 37.0051V37.0167C109.672 37.7413 110.097 38.6962 110.67 39.6883C111.557 41.2219 112.748 42.7211 113.71 43.7687C114.275 44.3834 114.631 44.7391 114.785 44.7791C114.86 44.799 115.179 44.6703 115.815 44.3685ZM124.482 91.6571L124.733 90.24L125.025 88.5399L126.64 87.933C127.12 87.7526 127.625 87.5535 128.16 87.3371L129.96 86.6024H129.972L131.789 85.8589V85.8473C132.52 85.5499 133.332 85.2236 134.33 84.8485C135.195 84.5228 136.115 84.2011 137.082 83.9075C138.017 83.624 138.955 83.3838 139.862 83.2201C140.852 83.0414 141.813 82.9515 142.712 82.9865C143.597 83.0214 144.399 83.1673 145.12 83.4059C145.908 83.6667 146.638 84.0523 147.303 84.5373C148.003 85.0466 148.592 85.6364 149.073 86.2806C149.559 86.9309 149.962 87.6672 150.28 88.4578C150.554 89.1409 150.757 89.8483 150.895 90.5652C151.029 91.2698 151.103 92.0216 151.119 92.8018C151.136 93.5791 151.092 94.3626 150.991 95.1338C150.885 95.9411 150.725 96.7234 150.518 97.463C150.312 98.1982 150.062 98.9046 149.764 99.5776C149.463 100.256 149.099 100.93 148.665 101.598C148.254 102.233 147.776 102.854 147.226 103.461C146.681 104.062 146.088 104.626 145.444 105.149C144.751 105.713 144.012 106.233 143.24 106.698C142.499 107.145 141.671 107.574 140.763 107.979C139.861 108.381 138.955 108.729 138.058 109.012C137.208 109.281 136.255 109.523 135.204 109.735C133.371 110.104 131.483 110.302 129.74 110.412C128.14 110.513 126.485 110.542 125.186 110.564C123.339 110.599 121.493 110.661 119.647 110.713L120.941 106.673C121.042 106.358 121.19 105.878 121.387 105.219C121.584 104.56 121.731 104.059 121.821 103.734C122.3 102.016 122.734 100.26 123.125 98.5128C123.519 96.7512 123.887 94.9263 124.226 93.1086L124.482 91.6571ZM130.376 92.9249C130.344 93.0914 130.319 93.2018 130.135 94.1917C129.795 96.0166 129.413 97.9047 128.987 99.8078C128.627 101.418 128.246 102.992 127.845 104.488C128.324 104.468 128.831 104.442 129.363 104.409C130.926 104.31 132.563 104.143 134.026 103.849C134.726 103.708 135.47 103.512 136.245 103.267C137.015 103.024 137.707 102.764 138.314 102.493C138.932 102.218 139.542 101.899 140.132 101.542C140.712 101.193 141.222 100.839 141.653 100.488C142.084 100.138 142.458 99.7862 142.775 99.4355C143.088 99.0899 143.372 98.7187 143.627 98.3258C143.857 97.9713 144.066 97.579 144.254 97.1534C144.445 96.7234 144.602 96.284 144.726 95.839C144.867 95.3358 144.972 94.8369 145.034 94.357C145.098 93.871 145.126 93.3871 145.116 92.9194C145.108 92.5227 145.065 92.1121 144.985 91.6948C144.916 91.3336 144.821 90.9968 144.7 90.6945C144.584 90.4065 144.433 90.1312 144.247 89.8827C144.089 89.6707 143.929 89.5015 143.771 89.3872C143.637 89.289 143.459 89.2008 143.236 89.127C142.997 89.0482 142.743 89 142.476 88.99C142.024 88.9722 141.496 89.0255 140.921 89.1292C140.262 89.2479 139.552 89.4316 138.824 89.6519C138.099 89.8721 137.284 90.1606 136.449 90.4747C135.745 90.7399 134.885 91.0867 134.049 91.4268L134.045 91.4169L132.242 92.1537L132.244 92.1581L130.376 92.9249Z" fill="white"/>
<path fill-rule="evenodd" clip-rule="evenodd" d="M127.986 62.9198C127.578 61.6431 126.862 59.6007 125.088 58.5836C123.313 57.566 120.479 57.5749 118.682 57.3324C116.886 57.0905 116.127 56.5962 115.489 55.9154C114.851 55.2346 114.332 54.3662 113.039 53.9956C111.746 53.6255 109.678 53.7531 108.592 53.8935C107.507 54.0344 107.405 54.1876 107.111 53.5107C106.818 52.8343 106.332 51.3273 104.749 50.2931C103.166 49.2594 100.485 48.6979 98.2325 48.7639C95.9813 48.8299 94.1591 49.5246 93.2136 49.9452C92.2692 50.3669 92.202 50.515 90.4319 49.9763C88.6618 49.4381 85.1888 48.2124 82.3672 48.1486C79.5456 48.0848 77.3749 49.1828 76.3023 50.1527C75.2297 51.1231 75.2559 51.966 75.192 52.3749C75.1282 52.7833 74.9751 52.7577 73.8131 52.4892C72.6512 52.2217 70.4805 51.7107 68.8846 51.9277C67.2888 52.1446 66.2673 53.0895 65.8711 54.4428C65.4754 55.7955 65.7052 57.5577 68.833 59.0769C71.9615 60.5961 77.9881 61.8733 86.5932 63.2904C95.1989 64.7075 106.384 66.2655 113.814 66.6101C121.245 66.9546 124.922 66.0858 126.709 65.3966C128.496 64.7075 128.394 64.1965 127.986 62.9198Z" fill="white"/>
<path d="M127.003 63.2356C126.813 62.6435 126.553 61.875 126.15 61.1648C125.78 60.509 125.276 59.8848 124.574 59.4825C123.406 58.8128 121.557 58.6464 120.006 58.5071C119.467 58.4589 118.958 58.4128 118.544 58.3567C117.528 58.2202 116.789 58.0039 116.202 57.7198C115.579 57.4185 115.138 57.049 114.738 56.6223C114.606 56.4852 114.478 56.3366 114.349 56.1862C113.942 55.7123 113.508 55.2074 112.756 54.9916C112.298 54.8606 111.708 54.8029 111.109 54.7891C110.22 54.7691 109.318 54.8412 108.726 54.9173L108.3 54.9794L108.296 54.9833C106.953 55.1897 106.729 55.2241 106.164 53.9196L106.057 53.6683C105.795 53.0302 105.336 51.9139 104.182 51.1598C103.519 50.7254 102.604 50.3814 101.6 50.1456C100.503 49.8881 99.3254 49.7655 98.2617 49.796C97.2291 49.8265 96.2919 50.0018 95.5051 50.2176C94.7205 50.4324 94.0785 50.6915 93.639 50.8874L93.4276 50.985C92.3922 51.4555 92.1308 51.5726 90.1327 50.9645L89.3142 50.7132C87.4731 50.1322 84.6244 49.2322 82.3477 49.1812C81.2301 49.1557 80.2224 49.3366 79.3624 49.6201C78.3053 49.9697 77.4974 50.464 76.9952 50.9179C76.3377 51.5132 76.2767 52.0304 76.2412 52.3344L76.2129 52.5325C76.0919 53.3043 75.8533 53.6666 74.9749 53.7182H74.971C74.6398 53.7376 74.2541 53.6527 73.5827 53.4979L73.5178 53.483C72.4069 53.2266 70.4021 52.765 69.0227 52.952C68.4456 53.0308 67.9784 53.2305 67.6255 53.5251C67.2637 53.8275 67.0073 54.2397 66.8642 54.7302C66.7293 55.1902 66.6983 55.714 66.9585 56.2361C67.2642 56.8487 67.9545 57.5006 69.2829 58.1454C70.7739 58.8694 72.9923 59.5447 75.8905 60.2138C78.8464 60.8958 82.4836 61.566 86.7596 62.2701C91.4628 63.0447 96.9622 63.8636 102.218 64.5045C106.495 65.0261 110.571 65.4249 113.86 65.5775C117.516 65.7468 120.235 65.6203 122.253 65.3661V65.3623C124.231 65.1143 125.511 64.7514 126.337 64.4329C126.927 64.206 127.177 64.08 127.208 64.0023C127.229 63.9485 127.14 63.6611 127.003 63.2356ZM127.949 60.1439C128.449 61.0272 128.751 61.92 128.971 62.6041V62.608C129.242 63.4564 129.407 64.0622 129.135 64.7552C128.872 65.4238 128.279 65.8994 127.082 66.3605C126.122 66.7305 124.668 67.1478 122.504 67.4191L122.503 67.4152C120.379 67.6821 117.543 67.8175 113.77 67.6427C110.379 67.4857 106.259 67.084 101.974 66.5618C96.7408 65.9238 91.1997 65.0971 86.4277 64.3108C82.0996 63.599 78.4196 62.9204 75.4288 62.2307C72.3814 61.5272 70.0204 60.8031 68.384 60.0085C66.5845 59.1347 65.5957 58.1453 65.1041 57.1594C64.567 56.0829 64.6186 55.0482 64.8794 54.1554C65.1402 53.2643 65.6163 52.5064 66.2971 51.9377C66.9441 51.3978 67.7642 51.0366 68.7474 50.9029C70.5014 50.6649 72.7393 51.1803 73.9795 51.4661L74.2724 51.5332C74.3995 50.9573 74.7074 50.2043 75.6102 49.3876C76.3022 48.7623 77.3709 48.0959 78.7148 47.652C79.7658 47.3053 81.0043 47.085 82.3876 47.1161C84.99 47.1749 87.9952 48.1237 89.9379 48.7368L90.732 48.9881C91.986 49.3699 92.1036 49.3166 92.5731 49.1019C92.5808 49.0941 92.7845 49.002 92.7928 49.002C93.2972 48.7773 94.0385 48.4788 94.9624 48.2258C95.8846 47.9727 96.9855 47.7674 98.2046 47.7314C99.4525 47.6953 100.816 47.8351 102.069 48.1292C103.292 48.4161 104.436 48.855 105.312 49.4265H105.316C107.001 50.5267 107.617 52.0265 107.969 52.8832L107.991 52.937L108.463 52.8687C109.129 52.7827 110.145 52.7012 111.149 52.7239C111.923 52.7417 112.695 52.8199 113.323 52.9997C114.669 53.3853 115.314 54.1366 115.92 54.8418C116.027 54.9661 116.133 55.0893 116.243 55.2069V55.2107C116.48 55.4638 116.739 55.6818 117.101 55.8571C117.502 56.0508 118.041 56.2034 118.82 56.3077C119.251 56.366 119.704 56.407 120.185 56.4503C121.951 56.609 124.057 56.7987 125.603 57.6842C126.675 58.299 127.417 59.2057 127.949 60.1439ZM108.059 53.1018C108.096 53.1895 108.075 53.1395 108.046 53.0718L108.059 53.1018Z" fill="black" fill-opacity="0.278431"/>
<path fill-rule="evenodd" clip-rule="evenodd" d="M122.007 58.7829C122.535 58.7829 122.963 59.2118 122.963 59.7401C122.963 60.2683 122.535 60.6961 122.007 60.6961C121.479 60.6961 121.05 60.2683 121.05 59.7401C121.05 59.2118 121.479 58.7829 122.007 58.7829Z" fill="black"/>
<path fill-rule="evenodd" clip-rule="evenodd" d="M109.711 55.8722C110.24 55.8722 110.667 56.3005 110.667 56.8287C110.667 57.3575 110.24 57.7853 109.711 57.7853C109.183 57.7853 108.754 57.3575 108.754 56.8287C108.754 56.3005 109.183 55.8722 109.711 55.8722Z" fill="black"/>
<path fill-rule="evenodd" clip-rule="evenodd" d="M102.483 51.409C103.011 51.409 103.44 51.8374 103.44 52.3661C103.44 52.8938 103.011 53.3221 102.483 53.3221C101.955 53.3221 101.527 52.8938 101.527 52.3661C101.527 51.8374 101.955 51.409 102.483 51.409Z" fill="black"/>
<path fill-rule="evenodd" clip-rule="evenodd" d="M105.087 57.4607C105.616 57.4607 106.044 57.889 106.044 58.4173C106.044 58.9455 105.616 59.3739 105.087 59.3739C104.559 59.3739 104.131 58.9455 104.131 58.4173C104.131 57.889 104.559 57.4607 105.087 57.4607Z" fill="black"/>
<path fill-rule="evenodd" clip-rule="evenodd" d="M82.6802 50.8347C83.2085 50.8347 83.6368 51.263 83.6368 51.7912C83.6368 52.3194 83.2085 52.7478 82.6802 52.7478C82.152 52.7478 81.7236 52.3194 81.7236 51.7912C81.7236 51.263 82.152 50.8347 82.6802 50.8347Z" fill="black"/>
<path fill-rule="evenodd" clip-rule="evenodd" d="M85.5918 55.3922C86.1206 55.3922 86.5484 55.8206 86.5484 56.3488C86.5484 56.877 86.1206 57.3054 85.5918 57.3054C85.0635 57.3054 84.6352 56.877 84.6352 56.3488C84.6352 55.8206 85.0635 55.3922 85.5918 55.3922Z" fill="black"/>
<path fill-rule="evenodd" clip-rule="evenodd" d="M78.5048 53.746C79.0331 53.746 79.4615 54.1738 79.4615 54.702C79.4615 55.2302 79.0331 55.6586 78.5048 55.6586C77.9771 55.6586 77.5482 55.2302 77.5482 54.702C77.5482 54.1738 77.9771 53.746 78.5048 53.746Z" fill="black"/>
<path fill-rule="evenodd" clip-rule="evenodd" d="M73.0659 53.554C73.5948 53.554 74.0226 53.9818 74.0226 54.5101C74.0226 55.0389 73.5948 55.4672 73.0659 55.4672C72.5377 55.4672 72.1093 55.0389 72.1093 54.5101C72.1093 53.9818 72.5377 53.554 73.0659 53.554Z" fill="black"/>
<path d="M127.896 80.3365C128.253 80.1917 128.796 79.9631 129.372 79.7212L129.373 79.7245C132.349 78.4739 136.465 76.7439 140.128 76.1885C142.318 75.8567 144.344 75.9438 146.165 76.3899H146.169C148.088 76.8609 149.771 77.731 151.173 78.9339C152.53 80.0985 153.615 81.5677 154.416 83.2711C155.22 84.9789 155.742 86.9243 155.966 89.0349C156.177 91.0163 156.129 93.1408 155.886 95.2282C155.626 97.4775 155.137 99.6997 154.505 101.664C153.888 103.583 153.132 105.26 152.115 106.747C151.088 108.252 149.8 109.553 148.133 110.701C146.5 111.825 144.503 112.8 142.263 113.582C140.038 114.359 137.567 114.951 134.971 115.318C131.216 115.849 127.187 115.907 124.123 115.952C123.046 115.967 122.092 115.981 121.289 116.015C120.458 116.051 119.841 116.109 119.391 116.152H119.387C118.671 116.219 118.27 116.257 117.889 116.096C116.899 115.68 116.953 115.167 117.382 114.148C117.617 113.589 118.094 112.596 118.61 111.611V111.607C119.032 110.805 119.482 110.003 119.854 109.433C120.384 108.626 120.816 108.176 121.583 107.892C122.223 107.655 123.008 107.606 124.316 107.578L125.138 107.562C127.567 107.521 131.318 107.455 134.614 106.792C136.39 106.435 138.048 105.901 139.538 105.236C141.077 104.551 142.432 103.727 143.549 102.818C144.623 101.945 145.479 100.99 146.146 99.9616C146.81 98.9384 147.291 97.8321 147.621 96.6513C147.965 95.4224 148.145 94.1223 148.117 92.86C148.092 91.7054 147.893 90.5818 147.489 89.5764C147.065 88.5222 146.416 87.6023 145.537 86.9626C144.757 86.3938 143.777 86.0354 142.594 85.9882C141.244 85.935 139.617 86.2751 137.953 86.7794C136.26 87.2932 134.486 87.999 132.919 88.6371L131.102 89.38C128.822 90.3188 127.071 91.0407 125.757 91.3913C124.769 91.6555 123.961 91.7232 123.292 91.4818H123.289C122.462 91.1828 121.969 90.5391 121.804 89.4233C121.685 88.6221 121.752 87.5046 121.945 86.4138C122.136 85.3285 122.458 84.2322 122.849 83.4642C123.585 82.0177 124.402 81.702 126.465 80.9036C126.824 80.7643 127.224 80.6101 127.896 80.3365ZM130.174 81.6327C129.677 81.8413 129.221 82.0333 128.674 82.2558C128.248 82.4294 127.688 82.6458 127.21 82.8312C125.681 83.4226 125.076 83.6568 124.695 84.4041C124.398 84.9878 124.145 85.8706 123.986 86.77C123.827 87.6656 123.767 88.5439 123.853 89.1242C123.892 89.39 123.938 89.5182 123.993 89.5382C124.209 89.6147 124.629 89.5498 125.223 89.3911C126.435 89.0677 128.121 88.3724 130.316 87.4686L132.141 86.7173C133.723 86.0737 135.523 85.3585 137.354 84.8036C139.215 84.2388 141.067 83.8598 142.674 83.9231C144.292 83.9874 145.65 84.4924 146.752 85.2941C147.965 86.178 148.848 87.4126 149.409 88.8069C149.907 90.047 150.152 91.4196 150.183 92.8201C150.214 94.2932 150.009 95.7991 149.614 97.21C149.229 98.5822 148.664 99.8778 147.879 101.088C147.097 102.293 146.1 103.407 144.853 104.422C143.598 105.442 142.087 106.363 140.38 107.123C138.759 107.847 136.954 108.427 135.019 108.816C131.538 109.517 127.673 109.584 125.171 109.628L124.356 109.643C123.288 109.666 122.668 109.698 122.296 109.836C122.052 109.926 121.863 110.146 121.587 110.567C121.244 111.092 120.829 111.831 120.441 112.571C120.169 113.087 119.91 113.604 119.696 114.049C120.104 114.014 120.601 113.976 121.2 113.95H121.204C121.979 113.917 122.975 113.903 124.099 113.887C127.092 113.843 131.028 113.786 134.687 113.269C137.152 112.921 139.488 112.362 141.583 111.63C143.651 110.908 145.48 110.018 146.958 109C148.405 108.004 149.52 106.879 150.407 105.582C151.305 104.267 151.979 102.764 152.537 101.032C153.126 99.2003 153.583 97.1157 153.829 94.9934C154.056 93.0426 154.102 91.0718 153.909 89.2535C153.709 87.3726 153.251 85.6509 152.545 84.1539C151.866 82.7102 150.957 81.4734 149.828 80.5052C148.671 79.5115 147.273 78.7907 145.675 78.3985C144.117 78.0167 142.36 77.9463 140.436 78.2376C137.003 78.758 133.038 80.4248 130.174 81.6282V81.6327Z" fill="#973434" fill-opacity="0.301961"/>
<path fill-rule="evenodd" clip-rule="evenodd" d="M112.89 59.5497C113.419 59.5497 113.847 59.9774 113.847 60.5057C113.847 61.0345 113.419 61.4623 112.89 61.4623C112.362 61.4623 111.934 61.0345 111.934 60.5057C111.934 59.9774 112.362 59.5497 112.89 59.5497Z" fill="black"/>
<path fill-rule="evenodd" clip-rule="evenodd" d="M100.569 60.1222C100.049 56.2194 99.2003 49.2522 98.3514 43.3087C97.5035 37.3651 96.6567 32.447 95.1918 28.7539C93.7275 25.062 91.6461 22.5967 89.0798 21.0437C86.514 19.4913 83.4633 18.8515 80.691 18.8438C77.9177 18.836 75.4224 19.4608 73.26 20.7014C71.0982 21.9415 69.2682 23.798 67.9431 25.9502C66.6186 28.1025 65.8002 30.5511 65.5083 32.7288C65.2164 34.9077 65.4511 36.8158 66.2452 38.1996C67.0387 39.5834 68.3915 40.4435 69.8491 40.7775C71.3074 41.1115 72.8711 40.9189 73.9692 40.1266C75.0678 39.3348 75.7015 37.9428 76.1787 36.4064C76.6559 34.87 76.9772 33.1888 77.7768 32.0331C78.5764 30.8773 79.8537 30.2459 81.5001 30.3929C83.147 30.5399 85.1623 31.4644 86.4352 33.6577C87.7093 35.8521 88.2419 39.316 88.8112 45.0032C89.3806 50.6898 89.9865 58.5992 90.3322 63.4951C90.6779 68.3911 90.7617 70.272 92.3653 71.1759C93.97 72.0797 97.094 72.0065 98.8646 70.9307C100.635 69.8554 101.053 67.7763 101.166 66.3187C101.279 64.8606 101.09 64.0245 100.569 60.1222Z" fill="white"/>
<path fill-rule="evenodd" clip-rule="evenodd" d="M74.1134 37.217C73.3449 36.1545 71.7257 34.5992 70.1271 33.5145C68.6578 32.518 67.2062 31.9188 65.7558 31.3512C65.6509 31.8189 65.5682 32.2794 65.5083 32.7288C65.2165 34.9077 65.4512 36.8158 66.2446 38.1996C67.0387 39.5834 68.3915 40.4435 69.8491 40.7775C71.3073 41.1115 72.871 40.919 73.9691 40.1266C74.2466 39.9269 74.4941 39.6883 74.7171 39.4192C74.7998 38.8488 74.8819 38.2795 74.1134 37.217Z" fill="#FF574C"/>
<path fill-rule="evenodd" clip-rule="evenodd" d="M73.6407 26.0568C75.0479 27.1987 76.1965 28.7744 76.7742 29.9618C77.3524 31.1497 77.359 31.9487 77.3662 32.7477C77.4883 32.4936 77.6237 32.2539 77.7763 32.0331C78.5759 30.8773 79.8532 30.2459 81.4995 30.3929C81.7415 29.6794 81.984 28.9658 82.0639 27.7335C82.1449 26.5012 82.0633 24.7496 81.5989 23.1128C81.1794 21.633 80.4469 20.2465 79.6845 18.8693C77.3113 18.9986 75.1572 19.6128 73.2595 20.7009C71.8684 21.4987 70.6154 22.5518 69.5456 23.7747C70.9928 24.3972 72.4144 25.0619 73.6407 26.0568Z" fill="#FF574C"/>
<path fill-rule="evenodd" clip-rule="evenodd" d="M95.3522 50.6371C93.9506 52.2706 92.287 53.3265 91.2971 53.9246C90.3078 54.5222 89.992 54.662 89.6758 54.8023C89.9332 58.0116 90.1629 61.111 90.3316 63.4952C90.3433 63.6644 90.3549 63.8303 90.3666 63.9929C92.226 62.9414 94.0854 61.89 95.6596 60.2676C97.2338 58.6458 98.5223 56.453 99.8112 54.2597C99.4545 51.4744 99.0505 48.345 98.6377 45.3511C97.6262 47.2986 96.5913 49.1934 95.3522 50.6371Z" fill="#FF574C"/>
<path fill-rule="evenodd" clip-rule="evenodd" d="M89.6757 43.8591C90.8299 42.7722 93.1415 40.6216 94.5188 38.4754C95.6579 36.7021 96.1596 34.9316 96.5502 33.1616C96.1568 31.5425 95.7134 30.0706 95.1912 28.7544C93.93 25.5735 92.2104 23.303 90.1174 21.7428C90.1651 23.424 90.2133 25.1046 89.8749 26.828C89.5364 28.5514 88.8112 30.3169 88.1042 31.4821C87.5094 32.4641 86.9267 33.0207 86.3469 33.5101C86.3763 33.5589 86.4057 33.6083 86.4351 33.6582C87.687 35.8144 88.2224 39.1978 88.7812 44.7125C88.9482 44.5488 89.2229 44.2858 89.6757 43.8591Z" fill="#FF574C"/>
<path d="M99.5424 60.2616C99.4387 59.4837 99.2051 57.6566 98.9431 55.6109C98.4704 51.9178 97.8967 47.4329 97.329 43.4558C96.9073 40.4995 96.4861 37.8019 95.9912 35.3972C95.504 33.0291 94.9419 30.934 94.23 29.1396C93.5336 27.3835 92.6996 25.9304 91.7435 24.743C90.8008 23.5722 89.7276 22.6451 88.5418 21.9271C87.4138 21.2446 86.1781 20.7514 84.9141 20.4196C83.5058 20.0506 82.0608 19.8831 80.6869 19.8786C79.383 19.8753 78.1505 20.0179 76.9986 20.3064C75.8489 20.5938 74.7708 21.0249 73.7714 21.5981C72.7926 22.1596 71.8787 22.8681 71.0514 23.6849C70.203 24.5221 69.4539 25.472 68.8246 26.4941C68.2204 27.4761 67.7277 28.5254 67.3492 29.579C66.9464 30.6998 66.6734 31.8206 66.533 32.867C66.3987 33.8719 66.3859 34.8096 66.4991 35.649C66.6051 36.4347 66.8187 37.1239 67.1417 37.6882C67.4452 38.2175 67.8581 38.6541 68.3364 38.9965C68.8579 39.3693 69.4572 39.6279 70.0803 39.7705C70.6957 39.9114 71.3332 39.9392 71.9281 39.8454C72.4702 39.7594 72.9668 39.5757 73.3647 39.2889C73.7786 38.9909 74.1176 38.557 74.4045 38.041C74.7191 37.4756 74.9711 36.8081 75.1908 36.1001C75.3012 35.7456 75.4044 35.3766 75.5076 35.0088C75.865 33.7332 76.2195 32.4665 76.9259 31.445C77.4436 30.6971 78.1217 30.1206 78.9396 29.7599C79.7126 29.4192 80.602 29.2744 81.5886 29.3627C82.639 29.4559 83.8159 29.8182 84.9068 30.5395C85.8113 31.1382 86.6603 31.9882 87.3306 33.1428C88.0297 34.3479 88.518 35.8621 88.902 37.8185C89.2698 39.6917 89.5496 42.0138 89.8386 44.9001C90.0967 47.4762 90.3502 50.3526 90.5805 53.1518C90.8774 56.7599 91.1587 60.5407 91.3623 63.4226L91.3923 63.8581C91.6858 68.0312 91.8012 69.6702 92.8755 70.2761C93.518 70.6378 94.5158 70.8009 95.5512 70.7616C96.5805 70.7227 97.607 70.4852 98.3273 70.0475C98.9926 69.6441 99.411 69.0321 99.6767 68.3779C99.9697 67.6572 100.085 66.8809 100.135 66.239C100.218 65.1753 100.115 64.4285 99.8066 62.1908L99.5424 60.2616ZM100.992 55.3434C101.186 56.8554 101.361 58.2209 101.596 59.983L101.856 61.9056C102.186 64.3037 102.297 65.1049 102.196 66.3988C102.133 67.2139 101.982 68.2076 101.596 69.1586C101.183 70.1762 100.507 71.1427 99.4009 71.8141C98.3705 72.44 96.9839 72.7773 95.6344 72.8278C94.2377 72.8805 92.8339 72.6286 91.8551 72.0765C89.8192 70.9291 89.6816 68.976 89.332 64.0029L89.3015 63.5674C89.1139 60.9096 88.8376 57.2188 88.5169 53.3254C88.2739 50.3686 88.0197 47.4674 87.7833 45.1065C87.5031 42.3067 87.2312 40.0518 86.8722 38.2235C86.5293 36.478 86.1137 35.1625 85.54 34.1732C85.0483 33.3254 84.4241 32.7006 83.7599 32.2612C82.9825 31.7474 82.1502 31.4894 81.4111 31.4239C80.7852 31.3679 80.2375 31.4522 79.778 31.6547C79.3125 31.86 78.9247 32.1907 78.6272 32.6212C78.1173 33.3581 77.8093 34.4584 77.4992 35.5658C77.3921 35.9481 77.2844 36.3321 77.1662 36.7122C76.9087 37.54 76.6052 38.3379 76.209 39.0503C75.7851 39.8115 75.2569 40.4713 74.5727 40.9645C73.8979 41.4506 73.0995 41.7552 72.2577 41.8883C71.4037 42.0232 70.4932 41.9843 69.6181 41.784C68.7331 41.5815 67.8786 41.212 67.13 40.6771C66.4248 40.1722 65.8094 39.5169 65.3477 38.7113C64.8855 37.9045 64.5859 36.9646 64.4466 35.9276C64.309 34.9095 64.3229 33.7853 64.4827 32.5913C64.6425 31.3972 64.9499 30.1317 65.3999 28.8794C65.8255 27.6948 66.3804 26.5141 67.0612 25.4071C67.7753 24.2464 68.6299 23.1644 69.6004 22.2067C70.5392 21.2801 71.5957 20.4651 72.7482 19.8043C73.9118 19.1368 75.1647 18.6352 76.497 18.3017C77.8243 17.9699 79.2265 17.8051 80.6941 17.809C82.2306 17.8134 83.8514 18.0027 85.4384 18.4188C86.8855 18.7983 88.3083 19.3682 89.6178 20.1605C90.9978 20.9955 92.249 22.0786 93.3544 23.4507C94.4458 24.8068 95.3853 26.433 96.1532 28.3689C96.9056 30.2665 97.4994 32.4786 98.0137 34.9777C98.5204 37.4407 98.9476 40.1755 99.3738 43.1623C99.9503 47.201 100.522 51.6659 100.992 55.3434Z" fill="#973434" fill-opacity="0.301961"/>
<path fill-rule="evenodd" clip-rule="evenodd" d="M128.286 81.2959C131.191 80.1135 136.082 77.8503 140.282 77.2127C144.482 76.5763 147.992 77.5662 150.501 79.7195C153.009 81.8729 154.517 85.1887 154.938 89.1442C155.36 93.1008 154.696 97.6967 153.521 101.348C152.347 105 150.662 107.706 147.546 109.851C144.431 111.996 139.886 113.579 134.829 114.293C129.773 115.009 124.207 114.855 121.244 114.983C118.282 115.111 117.925 115.52 118.334 114.549C118.742 113.579 119.917 111.229 120.722 110C121.527 108.771 121.962 108.662 124.336 108.61C126.712 108.559 131.026 108.567 134.817 107.804C138.609 107.042 141.877 105.51 144.201 103.62C146.525 101.731 147.903 99.4844 148.618 96.9304C149.333 94.3776 149.385 91.5179 148.45 89.1914C147.514 86.8655 145.593 85.0733 142.634 84.9557C139.676 84.838 135.68 86.3949 132.53 87.6772C129.381 88.9595 127.077 89.9676 125.491 90.3915C123.904 90.8155 123.034 90.6556 122.829 89.274C122.623 87.8919 123.083 85.2875 123.772 83.9336C124.462 82.5809 125.382 82.4788 128.286 81.2959Z" fill="#FF574C"/>
<path fill-rule="evenodd" clip-rule="evenodd" d="M59.601 69.164C59.7264 77.5866 59.3069 93.3105 59.7358 102.679C60.1648 112.047 61.4416 115.06 64.4035 117.357C67.3655 119.656 72.0132 121.239 79.9802 122.413C87.9473 123.588 99.2336 124.354 105.924 124.277C112.614 124.201 114.708 123.282 117.006 120.013C119.304 116.745 121.807 111.128 123.722 104.259C125.637 97.3904 126.965 89.2707 127.787 83.4681C128.609 77.666 128.926 74.1805 129.132 72.4255C129.338 70.6705 129.434 70.645 123.044 70.23C116.653 69.8155 103.776 69.0104 91.8769 66.9902C79.9774 64.97 69.0568 61.7346 63.9313 60.6776C58.8059 59.6206 59.475 60.742 59.601 69.164Z" fill="white"/>
<path d="M67.4271 79.3503C70.3675 79.3503 72.7513 76.9668 72.7513 74.0265C72.7513 71.0863 70.3675 68.7027 67.4271 68.7027C64.4866 68.7027 62.1029 71.0863 62.1029 74.0265C62.1029 76.9668 64.4866 79.3503 67.4271 79.3503Z" fill="#FF574C"/>
<path d="M80.0287 95.0156C82.9691 95.0156 85.3528 92.632 85.3528 89.6918C85.3528 86.7515 82.9691 84.368 80.0287 84.368C77.0882 84.368 74.7045 86.7515 74.7045 89.6918C74.7045 92.632 77.0882 95.0156 80.0287 95.0156Z" fill="#FF574C"/>
<path d="M65.6268 107.425C68.5673 107.425 70.951 105.041 70.951 102.101C70.951 99.1608 68.5673 96.7772 65.6268 96.7772C62.6863 96.7772 60.3026 99.1608 60.3026 102.101C60.3026 105.041 62.6863 107.425 65.6268 107.425Z" fill="#FF574C"/>
<path d="M77.96 121.06C80.9004 121.06 83.2841 118.676 83.2841 115.736C83.2841 112.796 80.9004 110.412 77.96 110.412C75.0195 110.412 72.6358 112.796 72.6358 115.736C72.6358 118.676 75.0195 121.06 77.96 121.06Z" fill="#FF574C"/>
<path d="M93.6643 109.34C96.6048 109.34 98.9885 106.956 98.9885 104.016C98.9885 101.076 96.6048 98.6923 93.6643 98.6923C90.7238 98.6923 88.3401 101.076 88.3401 104.016C88.3401 106.956 90.7238 109.34 93.6643 109.34Z" fill="#FF574C"/>
<path d="M103.699 92.9473C106.64 92.9473 109.024 90.5637 109.024 87.6235C109.024 84.6832 106.64 82.2997 103.699 82.2997C100.759 82.2997 98.3753 84.6832 98.3753 87.6235C98.3753 90.5637 100.759 92.9473 103.699 92.9473Z" fill="#FF574C"/>
<path d="M90.5233 79.4657C93.4637 79.4657 95.8474 77.0821 95.8474 74.1419C95.8474 71.2016 93.4637 68.8181 90.5233 68.8181C87.5828 68.8181 85.1991 71.2016 85.1991 74.1419C85.1991 77.0821 87.5828 79.4657 90.5233 79.4657Z" fill="#FF574C"/>
<path d="M120.016 81.4576C122.956 81.4576 125.34 79.0741 125.34 76.1338C125.34 73.1935 122.956 70.8099 120.016 70.8099C117.075 70.8099 114.692 73.1935 114.692 76.1338C114.692 79.0741 117.075 81.4576 120.016 81.4576Z" fill="#FF574C"/>
<path d="M122.237 103.902C125.178 103.902 127.561 101.518 127.561 98.5778C127.561 95.6375 125.178 93.254 122.237 93.254C119.297 93.254 116.913 95.6375 116.913 98.5778C116.913 101.518 119.297 103.902 122.237 103.902Z" fill="#FF574C"/>
<path d="M108.909 123.741C111.849 123.741 114.233 121.357 114.233 118.417C114.233 115.477 111.849 113.093 108.909 113.093C105.968 113.093 103.584 115.477 103.584 118.417C103.584 121.357 105.968 123.741 108.909 123.741Z" fill="#FF574C"/>
<path d="M60.6332 69.1524C60.6804 72.3572 60.6498 76.6163 60.6165 81.1793C60.5627 88.5999 60.5028 96.8316 60.768 102.634C60.9772 107.216 61.3884 110.225 62.0992 112.341C62.7656 114.325 63.7128 115.515 65.0351 116.539C66.4217 117.616 68.2234 118.531 70.6344 119.322C73.1059 120.134 76.2038 120.81 80.1296 121.389C84.0143 121.961 88.692 122.436 93.2343 122.763C97.9769 123.103 102.552 123.283 105.916 123.245C109.126 123.208 111.213 122.977 112.735 122.379C114.158 121.819 115.128 120.885 116.159 119.418C117.301 117.794 118.5 115.558 119.652 112.856C120.754 110.271 121.809 107.271 122.725 103.984C123.675 100.578 124.479 96.8611 125.148 93.2773C125.815 89.698 126.351 86.2268 126.762 83.3266C127.394 78.8656 127.726 75.779 127.94 73.7982L128.112 72.2341C128.133 72.0604 128.151 71.9039 128.158 71.803C128.17 71.6043 127.672 71.5677 122.978 71.2625L122.524 71.2331C115.973 70.8086 103.378 69.9919 91.7061 68.0106C83.6714 66.6467 76.1095 64.7392 70.448 63.3116C67.6652 62.6097 65.3397 62.0226 63.7245 61.6897C61.6004 61.2519 60.8385 61.2464 60.6692 62.0664C60.4906 62.9353 60.5261 64.4102 60.5794 66.5818C60.5977 67.3386 60.6188 68.1792 60.6332 69.1524ZM58.5512 81.1716C58.584 76.6196 58.615 72.3711 58.5679 69.1768C58.5546 68.2663 58.533 67.4052 58.5141 66.6301C58.4575 64.3169 58.4192 62.7462 58.6445 61.6531C59.1694 59.1091 60.5111 58.9171 64.1379 59.6651C65.8941 60.0274 68.1957 60.6083 70.9502 61.303C76.585 62.7239 84.1126 64.6232 92.0463 65.9698C103.621 67.9345 116.142 68.7463 122.654 69.168L123.108 69.1974C129.672 69.6241 130.367 69.714 130.223 71.9328C130.211 72.1198 130.191 72.2851 130.169 72.4693L129.997 74.0168C129.782 76.0115 129.447 79.1203 128.811 83.6102C128.4 86.512 127.861 90.0026 127.18 93.6501C126.501 97.2933 125.683 101.072 124.717 104.535C123.773 107.922 122.688 111.009 121.556 113.665C120.345 116.506 119.073 118.872 117.852 120.609C116.586 122.41 115.358 123.57 113.488 124.306C111.716 125.002 109.411 125.27 105.932 125.31C102.477 125.349 97.8442 125.169 93.0889 124.828C88.4917 124.498 83.7585 124.017 79.83 123.438C75.7887 122.842 72.5793 122.139 69.9947 121.291C67.3501 120.423 65.3458 119.397 63.7711 118.176C62.1314 116.903 60.9584 115.436 60.1394 112.998C59.3648 110.692 58.922 107.508 58.7028 102.723C58.437 96.9071 58.4974 88.6315 58.5512 81.1716Z" fill="#973434" fill-opacity="0.45098"/>
<path fill-rule="evenodd" clip-rule="evenodd" d="M58.785 60.5712C57.8661 59.1924 57.9177 57.6089 58.9642 56.5114C60.0113 55.4133 62.0544 54.8002 66.4463 55.5154C70.8382 56.2307 77.5795 58.273 86.7212 59.8554C95.8629 61.439 107.405 62.5625 115.525 62.5881C123.645 62.6136 128.344 61.5411 131.127 62.1026C133.91 62.6646 134.779 64.8607 134.217 66.8521C133.655 68.844 131.663 70.6311 126.454 71.1677C121.245 71.7037 112.818 70.989 101.787 69.6352C90.7558 68.2819 77.1201 66.2906 69.3572 64.7076C61.5944 63.1241 59.705 61.95 58.785 60.5712Z" fill="#FF574C"/>
<path d="M57.9234 61.1449C57.338 60.2694 57.0644 59.3095 57.1049 58.3812C57.1465 57.4319 57.5155 56.5319 58.2147 55.7984C58.8833 55.0976 59.841 54.5561 61.2804 54.3131C62.5738 54.0945 64.294 54.1178 66.6117 54.4945C68.5566 54.8113 70.8666 55.3606 73.6088 56.012C77.2705 56.8826 81.7096 57.9374 86.8944 58.8351C91.505 59.6335 96.7059 60.3132 101.751 60.792C106.717 61.2631 111.543 61.5433 115.524 61.5561C119.332 61.5677 122.431 61.3291 124.912 61.1383C127.697 60.9235 129.727 60.7676 131.328 61.0906C131.522 61.1294 131.689 61.1694 131.83 61.2088C133.27 61.6149 134.252 62.4244 134.823 63.4231C135.394 64.4213 135.536 65.5926 135.308 66.7289C135.276 66.8826 135.244 67.0186 135.212 67.1317C134.866 68.3596 134.092 69.5165 132.624 70.4348C131.282 71.2743 129.335 71.9101 126.559 72.1958C123.89 72.471 120.423 72.4273 116.235 72.1426C112.058 71.8591 107.178 71.3408 101.66 70.6639C95.8342 69.9493 89.2799 69.056 83.245 68.1388C77.867 67.3221 72.8741 66.4792 69.1498 65.7197C65.1918 64.9129 62.7148 64.2027 61.0995 63.5142C59.3156 62.754 58.486 61.9861 57.9234 61.1449ZM59.1702 58.4706C59.1485 58.9583 59.3089 59.4882 59.6474 59.9958V59.9998C60.0042 60.5352 60.5801 61.0445 61.9096 61.611C63.4089 62.2496 65.7594 62.9194 69.5632 63.695C73.1738 64.4319 78.1394 65.268 83.5529 66.0898C89.5656 67.0036 96.1 67.8941 101.912 68.6065C107.426 69.2834 112.276 69.7995 116.372 70.0774C120.456 70.3549 123.809 70.4004 126.348 70.139C128.78 69.8888 130.435 69.3628 131.531 68.677C132.502 68.0694 133.005 67.3365 133.22 66.5724C133.249 66.4704 133.269 66.3877 133.283 66.3239C133.415 65.6675 133.339 65.0028 133.024 64.4518C132.71 63.9009 132.137 63.4453 131.271 63.2007C131.14 63.164 131.024 63.1352 130.924 63.1152C129.62 62.8527 127.701 63.0003 125.065 63.2028C122.582 63.3943 119.479 63.6329 115.524 63.6207C111.466 63.6079 106.573 63.3244 101.557 62.8489C96.4229 62.3617 91.167 61.6765 86.546 60.8764C81.2646 59.962 76.8083 58.9022 73.1316 58.0289C70.3944 57.3786 68.0894 56.8304 66.2793 56.5358C64.2052 56.1985 62.7076 56.1702 61.6205 56.3544C60.6794 56.5131 60.0913 56.8271 59.7129 57.2238C59.3705 57.5828 59.1901 58.0172 59.1702 58.4706Z" fill="#973434" fill-opacity="0.45098"/>
<path fill-rule="evenodd" clip-rule="evenodd" d="M117.098 47.0878C119.731 45.8394 123.916 42.8693 124.996 40.1355C126.075 37.4023 124.051 34.905 121.823 34.4328C119.596 33.9601 117.166 35.5126 115.884 36.4913C114.601 37.4695 114.466 37.8746 113.757 36.8281C113.049 35.7828 111.766 33.2848 110.079 32.9813C108.391 32.6778 106.299 34.5677 106.603 37.3347C106.906 40.1023 109.606 43.7465 111.496 45.805C113.386 47.8634 114.466 48.3362 117.098 47.0878Z" fill="#FD7272"/>
<path fill-rule="evenodd" clip-rule="evenodd" d="M56.4424 33.5977C56.7593 31.7151 57.2781 28.997 56.5978 27.5022C55.9175 26.008 54.0392 25.7372 52.9533 26.4081C51.8674 27.0789 51.5733 28.6912 51.484 29.5585C51.3946 30.4262 51.5089 30.5483 50.4868 30.3496C49.4647 30.151 47.3062 29.6311 46.3979 30.5916C45.4895 31.5515 45.8313 33.9923 47.6231 35.4033C49.4143 36.8142 52.6548 37.196 54.2751 37.3868C55.8959 37.5777 55.8959 37.5777 55.9536 37.0534C56.0107 36.529 56.1262 35.4809 56.4424 33.5977Z" fill="#FD7272"/>
<path fill-rule="evenodd" clip-rule="evenodd" d="M108.306 20.2331C109.812 19.0585 112.03 17.4045 112.538 15.8431C113.046 14.2818 111.844 12.8131 110.591 12.5739C109.337 12.3354 108.031 13.3258 107.379 13.905C106.727 14.4843 106.729 14.6519 106.109 13.8146C105.49 12.9779 104.249 11.1363 102.931 11.2312C101.613 11.3255 100.216 13.3563 100.583 15.6062C100.951 17.8567 103.082 20.3274 104.148 21.5625C105.214 22.7976 105.214 22.7976 105.611 22.4503C106.007 22.1024 106.8 21.4077 108.306 20.2331Z" fill="#FD7272"/>
<path fill-rule="evenodd" clip-rule="evenodd" d="M125.603 27.4833C127.474 27.0972 130.195 26.5967 131.342 25.4221C132.489 24.2469 132.061 22.3981 131.043 21.6285C130.025 20.8589 128.416 21.1691 127.575 21.3994C126.733 21.6297 126.661 21.7806 126.476 20.7563C126.291 19.7315 125.994 17.5316 124.771 17.0322C123.547 16.5328 121.395 17.7351 120.728 19.9157C120.061 22.0963 120.878 25.2556 121.287 26.8347C121.695 28.4143 121.695 28.4144 122.205 28.2784C122.714 28.1425 123.733 27.8701 125.603 27.4833Z" fill="#FD7272"/>
</svg>
