<svg width="161" height="136" viewBox="0 0 161 136" fill="none" xmlns="http://www.w3.org/2000/svg">
<path fill-rule="evenodd" clip-rule="evenodd" d="M114.15 111.899C134.18 128.119 150.608 136.865 159.403 122.395V34.6226C159.403 26.0835 158.095 23.5467 152.126 16.8058C148.33 12.5208 144.17 9.47907 139.728 7.60422C135.287 5.72884 130.564 5.01975 127.106 5.57459C123.649 6.12945 121.456 7.94823 120.51 11.072C119.564 14.1958 119.867 18.6235 121.974 21.5581C124.081 24.4916 127.991 25.9331 131.795 27.6143C135.598 29.2961 139.293 31.2175 140.625 33.3226C141.571 34.8196 141.323 36.4098 140.58 38.1448C138.157 38.5937 135.757 38.9776 133.204 38.6586C129.605 38.2091 125.707 36.3609 121.608 34.151C117.509 31.941 113.208 29.3698 108.596 27.5461C103.984 25.7228 99.0609 24.6464 95.285 24.1432C91.5101 23.6405 88.8827 23.7098 85.2954 24.1398C81.708 24.5704 77.1614 25.3622 72.2734 27.2148C67.3854 29.0675 62.1556 31.981 57.5845 33.8641C53.0145 35.7467 49.1026 36.5995 45.5158 37.7913C41.9285 38.9843 38.6663 40.5168 36.7919 41.885C34.9175 43.2544 34.4309 44.4601 36.0694 46.6157C37.708 48.7718 41.4712 51.8773 44.3966 54.1694C47.3219 56.4615 49.4094 57.9407 50.9275 58.9361C52.4457 59.932 53.3957 60.4442 53.702 62.157C54.0094 63.8698 53.6737 66.7844 53.4906 70.0558C53.3075 73.3267 53.2764 76.9554 53.4645 78.525C53.652 80.0942 54.0588 79.6048 52.56 81.0013C51.0613 82.3984 47.6571 85.6809 44.3183 89.339C40.9807 92.9972 37.7086 97.0298 36.176 99.5583C34.6445 102.085 34.8509 103.108 39.0735 104.031C43.2957 104.955 51.5324 105.78 56.4503 106.269C61.3683 106.758 62.9685 106.911 65.9405 108.352C68.9119 109.793 73.2561 112.523 77.9154 114.334C82.5742 116.147 87.5488 117.04 92.606 117.167C106.939 117.524 113.533 111.737 113.486 111.769C113.629 111.894 113.518 111.387 114.15 111.899Z" fill="white"/>
<path d="M115.419 111.379C125.122 119.198 133.934 125.195 141.348 127.507C148.391 129.704 154.16 128.467 158.198 122.062V34.6226C158.198 30.5112 157.894 27.8701 156.897 25.5065C155.888 23.1145 154.126 20.8763 151.226 17.6021C149.402 15.5414 147.49 13.7781 145.503 12.3033C143.494 10.8118 141.41 9.61725 139.262 8.71062C137.158 7.82232 134.987 7.20699 132.933 6.8763C130.86 6.54339 128.918 6.50067 127.295 6.76089C125.783 7.00392 124.562 7.50994 123.633 8.28284C122.725 9.03966 122.068 10.085 121.664 11.4205C121.214 12.9064 121.077 14.7246 121.325 16.5051C121.547 18.0926 122.071 19.6345 122.949 20.8563C124.628 23.1955 127.772 24.5582 130.994 25.9559L132.28 26.513C134.218 27.3697 136.138 28.2935 137.762 29.2833C139.473 30.3253 140.865 31.4545 141.641 32.6823C142.256 33.6555 142.483 34.6576 142.436 35.6963C142.392 36.6623 142.109 37.6283 141.687 38.6159L141.434 39.2085L140.797 39.3267C139.561 39.5553 138.326 39.7683 137.049 39.8854C135.738 40.0058 134.414 40.0235 133.058 39.8549C131.15 39.6163 129.173 39.0115 127.137 38.1764C125.144 37.3591 123.112 36.3282 121.038 35.2102C120.123 34.717 119.253 34.2365 118.371 33.7499C115.114 31.9516 111.718 30.0762 108.153 28.6663C106.085 27.849 103.948 27.1838 101.885 26.6567C99.4322 26.0297 97.1083 25.5986 95.1296 25.3345C93.293 25.0903 91.7426 24.9844 90.2245 24.9921C88.7246 24.9999 87.2086 25.1236 85.4369 25.3356C83.6829 25.5459 81.6903 25.846 79.5313 26.3215C77.3767 26.7954 75.0706 27.4412 72.6973 28.3406C70.005 29.361 67.2117 30.7048 64.4856 32.0165C62.2816 33.079 60.1187 34.1194 58.0412 34.9755C54.9743 36.2389 52.2127 37.0423 49.6458 37.7897C48.3324 38.172 47.0683 38.5399 45.892 38.9305C44.1513 39.5092 42.4844 40.1734 41.024 40.8586C39.5912 41.5305 38.3744 42.2158 37.501 42.8527C36.8024 43.3665 36.3713 43.7965 36.2903 44.196C36.212 44.5805 36.4345 45.1143 37.0249 45.8905C37.779 46.8826 39.0775 48.1426 40.5462 49.4371C42.0733 50.7837 43.7146 52.1093 45.1363 53.2228C46.5484 54.3292 47.7958 55.2675 48.8962 56.0648C49.9488 56.8271 50.8366 57.4364 51.5868 57.9285L51.8736 58.1188C53.4895 59.1708 54.506 59.8333 54.8839 61.9451C55.1458 63.4038 55.0037 65.4623 54.8384 67.8531C54.7862 68.616 54.7307 69.4128 54.6914 70.1213C54.597 71.8036 54.5426 73.5559 54.5387 75.0523C54.5343 76.4488 54.572 77.649 54.6603 78.3841C54.6974 78.6949 54.7418 78.9013 54.7745 79.0588C54.8772 79.5366 54.9349 79.8084 54.7601 80.2856C54.5854 80.7645 54.2968 81.0313 53.631 81.6483L53.3796 81.8819C52.4962 82.7053 50.9536 84.1807 49.1686 85.9867C47.9362 87.2334 46.5734 88.6533 45.2084 90.1492C43.5021 92.0184 41.8147 93.9854 40.3747 95.7925C39.0286 97.4815 37.9078 99.0162 37.2031 100.18C36.6698 101.059 36.3985 101.606 36.5122 101.807C36.7098 102.157 37.5781 102.471 39.3277 102.854C41.3968 103.307 44.4737 103.739 47.6421 104.117C50.9564 104.514 54.1697 104.835 56.5679 105.074L56.6495 105.081C61.6662 105.58 63.3192 105.744 66.4632 107.268C67.4448 107.745 68.6062 108.378 69.8813 109.073C72.3672 110.428 75.3053 112.031 78.3482 113.214C80.5611 114.075 82.855 114.723 85.2016 115.175C87.6465 115.646 90.1346 115.904 92.6343 115.966C102.612 116.215 108.677 113.424 111.289 111.839L111.539 111.685L110.229 110.564H113.04C113.209 110.437 113.417 110.35 113.684 110.367C114.103 110.239 114.334 110.344 114.441 110.573C115.049 110.633 115.595 110.837 115.419 111.379ZM140.632 129.805C132.859 127.38 123.758 121.195 113.79 113.153C113.742 113.164 113.691 113.17 113.638 113.169C113.369 113.361 113.002 113.608 112.532 113.892C109.703 115.608 103.166 118.631 92.5777 118.368C89.9276 118.301 87.3069 118.031 84.7494 117.539C82.2741 117.062 79.842 116.373 77.4821 115.455C74.2954 114.216 71.2818 112.572 68.7321 111.182C67.5142 110.518 66.4038 109.913 65.4178 109.435C62.6512 108.094 61.1053 107.939 56.4143 107.473L56.3327 107.465C53.8129 107.215 50.4481 106.878 47.3596 106.509C44.1247 106.122 40.9713 105.679 38.8189 105.208C36.3474 104.668 34.9996 104.008 34.4214 102.984C33.7594 101.813 34.1512 100.584 35.1494 98.9369C35.9268 97.6546 37.1048 96.035 38.4915 94.2956C39.9664 92.4446 41.6904 90.4349 43.4289 88.5296C44.7928 87.0348 46.1833 85.5872 47.4545 84.3011C49.2906 82.4434 50.8526 80.9487 51.741 80.1208L51.9924 79.8867C52.2188 79.6769 52.3475 79.5948 52.4196 79.5454C52.3736 79.3279 52.3137 79.0433 52.2682 78.6666C52.1738 77.8748 52.1327 76.5731 52.1372 75.0523C52.1416 73.4665 52.1966 71.6671 52.2898 69.9898C52.3381 69.1287 52.3891 68.3946 52.4374 67.6928C52.5922 65.4473 52.7254 63.5131 52.5201 62.3684C52.3253 61.2809 51.6456 60.8376 50.5641 60.1341L50.2684 59.9437C49.5015 59.441 48.5848 58.8118 47.4834 58.0134C46.4297 57.2499 45.1695 56.3006 43.6575 55.1154C42.1543 53.938 40.4492 52.5631 38.9543 51.2454C37.4012 49.876 35.9973 48.5039 35.1139 47.3403C34.0663 45.9632 33.7128 44.8135 33.9359 43.7155C34.1567 42.6313 34.9069 41.773 36.0805 40.9152H36.0855C37.0871 40.1839 38.441 39.4171 40.0063 38.683C41.54 37.9634 43.2968 37.2648 45.139 36.6523C46.4081 36.23 47.6676 35.8638 48.9772 35.4826C51.4802 34.7541 54.172 33.9707 57.1278 32.7528C59.1021 31.9394 61.2512 30.9063 63.4413 29.852H63.4463C66.239 28.5082 69.1005 27.1316 71.8494 26.0896C74.3636 25.1369 76.7763 24.4595 79.013 23.9673C81.2453 23.4763 83.3211 23.1639 85.1544 22.9442C86.9689 22.7267 88.562 22.5996 90.2155 22.5913C91.8508 22.583 93.5033 22.6945 95.4409 22.9519C97.5417 23.2321 99.9704 23.6799 102.478 24.3208C104.633 24.8717 106.868 25.5681 109.038 26.4259C112.726 27.8834 116.199 29.801 119.53 31.6409C120.438 32.1419 121.341 32.6407 122.178 33.0918C124.202 34.1832 126.17 35.183 128.05 35.9543C129.887 36.7072 131.659 37.2521 133.35 37.4629C134.546 37.6122 135.699 37.5977 136.832 37.494C137.783 37.4069 138.742 37.2548 139.706 37.0828C139.894 36.5563 140.014 36.058 140.035 35.5925C140.061 35.0288 139.938 34.4867 139.607 33.9629C139.053 33.0863 137.931 32.2013 136.51 31.3363C135.005 30.4197 133.174 29.5408 131.31 28.7157L130.043 28.1592C126.509 26.6267 123.062 25.1319 120.999 22.2595C119.877 20.6965 119.214 18.7789 118.942 16.8347C118.645 14.7058 118.813 12.5197 119.356 10.7236C119.897 8.93645 120.811 7.50882 122.099 6.43741C123.367 5.38154 124.974 4.70018 126.918 4.3878C128.79 4.08762 130.992 4.13036 133.31 4.50321C135.547 4.86276 137.908 5.53246 140.195 6.49789C142.523 7.48052 144.775 8.76944 146.934 10.3724C149.051 11.9437 151.085 13.8197 153.025 16.0102C156.094 19.4758 157.972 21.8778 159.11 24.5738C160.259 27.297 160.609 30.1949 160.609 34.6226V122.722L160.431 123.016C155.682 130.829 148.903 132.385 140.632 129.805ZM52.5001 79.4661C52.5406 79.3546 52.4985 79.45 52.4618 79.5149C52.4813 79.4988 52.4935 79.485 52.5001 79.4661Z" fill="#371A45" fill-opacity="0.380392"/>
<path fill-rule="evenodd" clip-rule="evenodd" d="M96.973 44.3081C96.4658 45.6475 96.3626 47.246 96.9952 48.8379C97.6261 50.4298 98.9922 52.0161 100.555 52.6996C102.118 53.3832 103.878 53.1646 105.338 52.41C106.798 51.656 107.96 50.3671 108.48 48.8213C108.998 47.2755 108.875 45.4727 108.105 44.0196C107.335 42.5664 105.918 41.4628 104.344 40.9857C102.768 40.5085 101.034 40.6578 99.7125 41.2731C98.3907 41.8879 97.479 42.9693 96.973 44.3081Z" fill="#FFB8B8"/>
<path fill-rule="evenodd" clip-rule="evenodd" d="M98.3373 82.1527C97.7103 83.0771 97.0955 84.5602 97.1588 86.1099C97.222 87.6607 97.9628 89.2759 98.9555 90.3512C99.9471 91.427 101.192 91.9602 102.572 92.0196C103.952 92.079 105.47 91.6634 106.684 90.7229C107.897 89.783 108.807 88.3198 109.054 86.8484C109.301 85.378 108.882 83.8999 108.117 82.7519C107.35 81.6034 106.233 80.7856 104.864 80.4637C103.493 80.1436 101.868 80.3217 100.736 80.5925C99.6036 80.8632 98.9643 81.2283 98.3373 82.1527Z" fill="#FFB8B8"/>
<path fill-rule="evenodd" clip-rule="evenodd" d="M136.751 13.0834C135.94 11.8239 135.056 10.7824 133.825 10.7014C132.593 10.6199 131.015 11.4998 130.373 12.5657C129.731 13.6316 130.025 14.8839 130.382 15.7095C130.74 16.5351 131.161 16.934 130.798 17.5327C130.436 18.132 129.29 18.9315 129.057 19.9768C128.824 21.0222 129.504 22.3133 131.037 22.8426C132.57 23.3731 134.957 23.1406 136.431 22.0891C137.906 21.0383 138.47 19.1673 138.383 17.4939C138.297 15.8199 137.562 14.3429 136.751 13.0834Z" fill="#FFB8B8"/>
<path fill-rule="evenodd" clip-rule="evenodd" d="M130.95 10.3596C131.057 9.93958 131 9.3531 130.312 8.91921C129.625 8.48587 128.307 8.20623 127.77 8.58298C127.233 8.95972 127.477 9.99451 128.03 10.5544C128.583 11.1142 129.443 11.2002 130.009 11.117C130.574 11.0332 130.845 10.7796 130.95 10.3596Z" fill="#FFB8B8"/>
<path fill-rule="evenodd" clip-rule="evenodd" d="M127.701 12.8087C126.878 12.3194 125.484 11.9465 124.582 12.2644C123.679 12.5818 123.269 13.5911 123.743 14.2358C124.218 14.8811 125.578 15.1607 126.607 15.1446C127.636 15.1302 128.332 14.8201 128.554 14.3623C128.777 13.9046 128.524 13.2987 127.701 12.8087Z" fill="#FFB8B8"/>
<path fill-rule="evenodd" clip-rule="evenodd" d="M127.683 18.1259C127.103 17.6648 126.341 17.4384 125.747 17.4529C125.154 17.4678 124.728 17.7253 124.709 18.274C124.691 18.8233 125.079 19.6656 125.871 19.9979C126.663 20.3303 127.859 20.1533 128.26 19.7178C128.659 19.2816 128.262 18.587 127.683 18.1259Z" fill="#FFB8B8"/>
<path d="M105.595 60.9081C105.469 60.5452 105.277 60.2017 105.019 59.8821C103.676 58.2154 101.154 59.6169 101.046 59.6774L101.247 60.0308C101.27 60.0181 103.576 58.7403 104.703 60.1379C104.947 60.4403 105.115 60.7494 105.222 61.0579C105.939 63.1219 103.929 65.1815 103.664 65.4401L103.453 65.6476L103.723 65.7708C103.733 65.7746 104.713 66.228 105.55 67.0735C106.648 68.1799 106.999 69.4084 106.593 70.7239C105.957 72.7813 103.055 72.3551 103.026 72.3507L102.963 72.7535C102.996 72.758 106.242 73.2385 106.982 70.8443C107.43 69.3911 107.033 67.9846 105.831 66.7789C105.199 66.1436 104.508 65.7258 104.146 65.5294C104.563 65.0827 105.242 64.2383 105.58 63.1724C105.835 62.3712 105.837 61.6044 105.595 60.9081Z" fill="#371A45"/>
<path d="M101.209 59.9625C101.465 60.0153 101.695 60.0325 101.91 60.0513C102.125 60.0663 102.326 60.0763 102.514 60.0807L103.041 60.0929C103.204 60.0957 103.356 60.1112 103.49 60.1451C103.624 60.1767 103.739 60.2233 103.835 60.2827C103.935 60.3404 104.016 60.412 104.095 60.4991C104.114 60.5235 104.133 60.5468 104.152 60.5696C104.173 60.5962 104.198 60.6334 104.22 60.665C104.269 60.7293 104.306 60.797 104.351 60.862C104.425 60.9973 104.491 61.1333 104.542 61.272C104.589 61.4129 104.629 61.5561 104.651 61.7048C104.674 61.8535 104.674 62.0088 104.67 62.167C104.659 62.4849 104.579 62.8206 104.458 63.1529C104.332 63.4869 104.161 63.8176 103.952 64.1306C103.745 64.4446 103.501 64.742 103.237 65.0033L102.413 65.8173L103.469 66.3272L103.522 66.3522L103.586 66.3849C103.631 66.4077 103.676 66.4315 103.72 66.4565C103.809 66.5059 103.898 66.5591 103.986 66.613C104.161 66.7223 104.333 66.8393 104.497 66.9636C104.66 67.0879 104.817 67.22 104.966 67.3559C105.112 67.4946 105.25 67.6378 105.377 67.787C105.627 68.0872 105.832 68.4073 105.961 68.7425C105.998 68.8257 106.019 68.9112 106.048 68.9955C106.06 69.0377 106.067 69.0815 106.078 69.1237C106.087 69.1669 106.1 69.2091 106.103 69.2524L106.119 69.3828C106.125 69.426 106.123 69.4704 106.124 69.5143C106.13 69.6003 106.124 69.6879 106.117 69.775C106.116 69.8189 106.109 69.8627 106.102 69.906L106.082 70.0369C106.062 70.124 106.042 70.2106 106.02 70.2977C106.005 70.341 105.992 70.3848 105.979 70.4287L105.96 70.4936L105.951 70.5263L105.939 70.5529C105.924 70.5879 105.911 70.624 105.9 70.66C105.883 70.6933 105.867 70.7261 105.853 70.761C105.728 71.0201 105.572 71.2443 105.311 71.4596C105.054 71.6737 104.705 71.8568 104.311 72.0133C103.916 72.1714 103.476 72.2974 103.014 72.4289L103.004 72.4317C102.934 72.4511 102.893 72.5249 102.913 72.5953C102.923 72.6303 102.946 72.6592 102.976 72.6752C103.206 72.804 103.441 72.8911 103.688 72.9599C103.934 73.0276 104.189 73.0731 104.451 73.0892C104.973 73.1258 105.535 73.0609 106.084 72.8156C106.357 72.6919 106.625 72.5232 106.858 72.3029C107.091 72.0843 107.288 71.8197 107.431 71.5345C107.464 71.4635 107.497 71.3913 107.529 71.3186C107.556 71.2465 107.581 71.1727 107.605 71.0995L107.622 71.044L107.636 70.9929L107.662 70.8903C107.678 70.822 107.696 70.7538 107.711 70.685C107.735 70.5452 107.756 70.4037 107.772 70.2622L107.787 70.0475C107.791 69.9759 107.796 69.9043 107.792 69.8322C107.791 69.2557 107.685 68.6737 107.475 68.1471C107.269 67.6167 106.965 67.1495 106.622 66.7389C106.449 66.5347 106.265 66.3444 106.074 66.1652C105.882 65.9877 105.684 65.8217 105.478 65.6658C105.273 65.5099 105.062 65.3657 104.844 65.2308C104.735 65.1631 104.625 65.0971 104.512 65.035C104.455 65.0028 104.397 64.9717 104.339 64.9412L104.248 64.8952C104.216 64.8785 104.192 64.8658 104.145 64.8441L104.377 66.1674C104.725 65.8284 105.032 65.465 105.315 65.0755C105.597 64.686 105.843 64.2626 106.047 63.8054C106.245 63.3449 106.398 62.8444 106.45 62.3068C106.506 61.7714 106.445 61.1993 106.264 60.6689C106.171 60.4048 106.049 60.1534 105.907 59.9187C105.831 59.8066 105.76 59.6885 105.675 59.5852C105.633 59.5314 105.595 59.4821 105.548 59.426C105.497 59.3683 105.445 59.3112 105.392 59.2551C105.173 59.0332 104.907 58.8462 104.622 58.7119C104.336 58.5793 104.036 58.5016 103.746 58.4689C103.456 58.4378 103.177 58.445 102.913 58.4817C102.65 58.5199 102.402 58.5976 102.174 58.7064C101.946 58.8146 101.737 58.9538 101.553 59.1242C101.369 59.2967 101.206 59.4887 101.085 59.7456C101.05 59.8222 101.083 59.9126 101.159 59.9481C101.17 59.9531 101.181 59.957 101.192 59.9598L101.209 59.9625Z" fill="#371A45"/>
<path d="M101.857 64.7288C101.622 64.9946 101.398 65.2304 101.205 65.4185C101.205 65.4185 101.54 65.5694 102.019 65.8424L101.857 64.7288ZM102.949 72.2359C102.899 72.2515 102.85 72.2675 102.803 72.2836C102.85 72.2859 102.902 72.287 102.957 72.2897L102.949 72.2359Z" fill="#C3BAC7"/>
<path d="M105.407 60.9779C105.292 60.6495 105.115 60.3243 104.861 60.0097C104.085 59.0487 102.373 59.6934 101.493 60.0097C101.639 60.0286 101.778 60.0397 101.91 60.0513C102.125 60.0663 102.326 60.0763 102.514 60.0807L103.041 60.0929C103.205 60.0957 103.357 60.1112 103.49 60.1451C103.625 60.1767 103.739 60.2233 103.836 60.2827C103.935 60.3404 104.017 60.412 104.095 60.4991C104.114 60.5235 104.133 60.5468 104.152 60.5696C104.174 60.5962 104.198 60.6334 104.221 60.665C104.27 60.7293 104.307 60.797 104.351 60.862C104.425 60.9973 104.491 61.1333 104.543 61.272C104.589 61.4129 104.629 61.5561 104.651 61.7048C104.675 61.8535 104.674 62.0088 104.67 62.167C104.66 62.4849 104.58 62.8206 104.458 63.1529C104.332 63.487 104.161 63.8176 103.952 64.1306C103.746 64.4446 103.502 64.742 103.237 65.0034L102.413 65.8173L103.469 66.3272L103.522 66.3522L103.586 66.3849C103.631 66.4077 103.676 66.4315 103.72 66.4565C103.809 66.5059 103.898 66.5592 103.986 66.613C104.161 66.7223 104.333 66.8394 104.497 66.9636C104.66 67.0879 104.817 67.22 104.966 67.3559C105.112 67.4946 105.251 67.6378 105.378 67.787C105.627 68.0872 105.833 68.4074 105.961 68.7425C105.973 68.7697 105.984 68.7963 105.993 68.824C106.013 68.8806 106.029 68.9389 106.048 68.9955C106.061 69.0377 106.067 69.0815 106.078 69.1237C106.087 69.1669 106.1 69.2091 106.103 69.2524L106.12 69.3828C106.126 69.4261 106.123 69.4705 106.125 69.5143C106.13 69.6003 106.124 69.6879 106.117 69.7751C106.117 69.8189 106.11 69.8627 106.102 69.906L106.082 70.0369C106.062 70.1241 106.042 70.2106 106.02 70.2977C106.005 70.341 105.993 70.3848 105.98 70.4287L105.96 70.4936L105.951 70.5263L105.939 70.553C105.925 70.5879 105.911 70.624 105.9 70.66C105.884 70.6933 105.868 70.7261 105.854 70.761C105.728 71.0201 105.572 71.2443 105.312 71.4596C105.055 71.6738 104.705 71.8568 104.311 72.0133C104.044 72.1204 103.755 72.2136 103.452 72.3029C104.584 72.3129 106.361 72.1648 106.788 70.7832C107.043 69.9548 106.993 69.2191 106.771 68.5805C106.092 66.6263 103.807 65.5854 103.807 65.5854C104.812 64.6022 106.019 62.7385 105.407 60.9779Z" fill="#371A45"/>
<path d="M99.4611 66.269C99.6225 66.2363 99.804 66.203 99.9777 66.1758C100.152 66.1481 100.328 66.1236 100.504 66.1037C100.854 66.0626 101.205 66.0326 101.547 66.0271C101.633 66.0232 101.718 66.0249 101.802 66.0254C101.887 66.0271 101.972 66.0249 102.054 66.0315L102.301 66.0454L102.539 66.0726C102.85 66.1148 103.141 66.1874 103.352 66.289C103.844 66.5259 104.435 66.3189 104.672 65.8273C104.908 65.3363 104.701 64.7459 104.21 64.509C104.135 64.473 104.058 64.4469 103.979 64.4308L103.91 64.4175C103.413 64.3176 102.967 64.3265 102.545 64.3625L102.232 64.3975L101.929 64.448C101.828 64.463 101.731 64.4863 101.633 64.5074C101.535 64.5279 101.437 64.549 101.342 64.5739C100.956 64.6683 100.585 64.7842 100.221 64.9119C100.039 64.9751 99.8589 65.0428 99.6808 65.1138C99.5005 65.1848 99.3296 65.2559 99.1426 65.3402C98.894 65.4512 98.7836 65.743 98.8951 65.9916C98.9906 66.2052 99.2208 66.3173 99.4417 66.2729L99.4611 66.269Z" fill="#371A45"/>
<path d="M98.5858 72.1842C100.238 71.9029 101.21 68.6476 101.212 66.2778C101.214 64.4884 100.027 61.626 98.2335 61.6376C96.8179 61.6465 95.8081 63.2495 96.166 67.5101C96.4601 70.9946 97.4821 72.3728 98.5858 72.1842Z" fill="#371A45"/>
<path d="M97.1843 65.0194C97.1211 64.838 97.0667 64.7531 97.0356 64.7276C96.9978 64.727 96.9679 64.7387 96.9385 64.7675C96.8647 64.8374 96.6965 65.1038 96.7387 66.052C96.7581 66.4876 96.8159 66.7966 96.888 67.0052C96.9701 67.241 97.0717 67.3487 97.1633 67.3626C97.2759 67.3054 97.5018 66.735 97.4279 66.1852C97.3514 65.6076 97.2615 65.2414 97.1843 65.0194Z" fill="#C3BAC7"/>
<path d="M97.5712 64.8902C97.3836 64.3508 97.1894 64.3331 97.0873 64.3231C96.9253 64.3081 96.776 64.3597 96.6573 64.4724C96.4015 64.7165 96.2949 65.2392 96.3321 66.0703C96.3521 66.5153 96.4093 66.8743 96.5036 67.1456C96.6384 67.5334 96.8487 67.7426 97.1334 67.7693C97.2199 67.7776 97.3509 67.7582 97.4818 67.6228C97.7432 67.3509 97.9036 66.6679 97.832 66.1319C97.7543 65.5504 97.6638 65.1565 97.5712 64.8902ZM96.8881 67.0052C96.816 66.7966 96.7583 66.4876 96.7389 66.052C96.6967 65.1038 96.8649 64.8374 96.9387 64.7675C96.9681 64.7387 96.998 64.727 97.0357 64.7276C97.0668 64.7531 97.1212 64.838 97.1844 65.0194C97.2616 65.2414 97.3514 65.6076 97.428 66.1852C97.5018 66.735 97.276 67.3054 97.1634 67.3626C97.0718 67.3487 96.9703 67.241 96.8881 67.0052Z" fill="#371A45"/>
<path fill-rule="evenodd" clip-rule="evenodd" d="M107.2 87.7627C107.994 89.5166 109.224 92.9117 109.603 95.1367C109.982 97.3616 109.51 98.4158 108.716 96.662C107.923 94.9086 106.809 90.3467 106.43 88.1217C106.051 85.8973 106.407 86.0088 107.2 87.7627Z" fill="#371A45"/>
<path fill-rule="evenodd" clip-rule="evenodd" d="M104.242 89.0067C104.726 90.8721 105.323 94.4903 105.346 96.6725C105.369 98.8542 104.816 99.5994 104.362 98.6739C103.907 97.7489 103.55 95.1539 103.342 92.9162C103.135 90.6785 103.077 88.7981 103.232 87.9137C103.388 87.0298 103.758 87.1414 104.242 89.0067Z" fill="#371A45"/>
<path fill-rule="evenodd" clip-rule="evenodd" d="M100.929 89.2714C101.015 91.2272 100.9 94.7666 100.533 96.6719C100.165 98.5773 99.5467 98.8486 99.256 98.0646C98.9652 97.2812 99.003 95.4429 99.2266 93.3517C99.4508 91.2605 99.8608 88.9162 100.209 87.9303C100.558 86.9443 100.843 87.3161 100.929 89.2714Z" fill="#371A45"/>
<path fill-rule="evenodd" clip-rule="evenodd" d="M105.475 42.8211C105.822 40.9279 106.199 37.3359 106.03 35.0854C105.862 32.8349 105.15 31.9255 104.803 33.8187C104.455 35.7118 104.473 40.4075 104.641 42.658C104.809 44.9084 105.127 44.7142 105.475 42.8211Z" fill="#371A45"/>
<path fill-rule="evenodd" clip-rule="evenodd" d="M102.303 42.3268C102.324 40.3998 102.032 36.7433 101.528 34.621C101.025 32.4976 100.309 31.9078 100.09 32.9154C99.8721 33.923 100.151 36.5275 100.489 38.7491C100.827 40.9707 101.223 42.81 101.587 43.6301C101.951 44.4513 102.283 44.2537 102.303 42.3268Z" fill="#371A45"/>
<path fill-rule="evenodd" clip-rule="evenodd" d="M99.0255 42.8672C98.6376 40.9485 97.6727 37.5412 96.8576 35.7807C96.0425 34.0196 95.3767 33.9053 95.2835 34.7364C95.1897 35.567 95.6685 37.342 96.3904 39.3178C97.1112 41.2931 98.0744 43.4692 98.6498 44.3425C99.2258 45.2159 99.4139 44.7859 99.0255 42.8672Z" fill="#371A45"/>
<path d="M55.3826 85.8358C54.8238 84.8465 54.264 83.855 53.7696 82.6548C53.2663 81.4336 52.834 80.0121 52.5455 78.1927C52.2725 76.4688 52.1293 74.3771 52.1027 72.2714C52.0749 70.0459 52.1748 67.811 52.3862 65.9827C52.8096 62.3285 53.6625 60.2123 54.5142 58.0978L56.746 58.9927C55.9558 60.9541 55.1646 62.9161 54.7784 66.2563C54.5742 68.0185 54.4781 70.1458 54.5042 72.2431C54.5292 74.2322 54.6635 76.2019 54.9193 77.816C55.1745 79.4273 55.5529 80.6763 55.9924 81.7416C56.4396 82.828 56.9568 83.744 57.474 84.6584L55.3826 85.8358Z" fill="#371A45" fill-opacity="0.380392"/>
<path d="M122.587 106.97L122.524 107.014C119.467 109.194 116.416 111.369 114.117 112.791C111.988 114.109 110.537 114.761 109.718 115.109L108.758 115.513L107.826 113.3L108.559 112.992C109.261 112.696 110.667 112.102 112.855 110.748C115.056 109.386 118.09 107.222 121.13 105.055L121.193 105.011L122.587 106.97Z" fill="#371A45" fill-opacity="0.380392"/>
<path d="M137.818 37.3824C139.572 37.201 141.329 37.0195 143.163 36.8503C144.891 36.6905 146.495 36.5629 147.847 36.4974C150.613 36.3632 152.408 36.4791 154.199 36.5951L154.208 36.5962L154.076 38.997L154.048 38.9959C152.314 38.8844 150.575 38.7717 147.96 38.8983C146.613 38.9632 145.049 39.088 143.379 39.2423C141.813 39.3865 139.937 39.5807 138.062 39.7744L137.818 37.3824Z" fill="#371A45" fill-opacity="0.380392"/>
<path d="M55.2347 52.3617C55.3068 51.2071 57.0503 47.3625 58.4941 44.3542C59.5317 42.1952 60.414 40.4652 60.414 40.4652C55.506 38.4145 46.8149 41.4839 43.6071 43.174C41.7366 44.1588 42.4474 44.7781 42.4474 44.7781C42.4651 45.1088 43.7536 46.4099 45.3305 47.7837C47.3198 49.517 49.7669 51.3669 50.6924 51.5084C52.3488 51.7647 55.1143 54.3453 55.2347 52.3617Z" fill="#FFB8B8"/>
<path d="M62.1591 98.8475C56.6785 92.1388 55.016 86.5942 55.016 86.5942C49.536 89.3485 45.1146 94.7949 43.4178 97.0826C42.9944 97.6535 43.1687 98.4686 43.7907 98.8137C45.705 99.874 49.9022 101.789 55.0671 101.652C58.1589 101.571 60.1237 101.333 61.3645 101.08C62.386 100.873 62.8183 99.6543 62.1591 98.8475Z" fill="#FFB8B8"/>
<path fill-rule="evenodd" clip-rule="evenodd" d="M95.7023 84.5041C95.7445 83.2956 95.4027 82.3801 94.6453 81.5462C93.8879 80.7117 92.7154 79.9582 91.1856 79.4977C89.6557 79.0372 87.7691 78.8696 86.2021 79.0938C84.6357 79.3179 83.3894 79.9344 82.4771 80.7644C81.5644 81.5945 80.9856 82.6387 80.7798 83.6735C80.5739 84.7088 80.7404 85.7348 81.3652 86.6081C81.9906 87.4809 83.0731 88.2005 84.4459 88.7631C85.8181 89.3246 87.48 89.7286 89.2551 89.6947C91.0302 89.6609 92.9196 89.1892 94.0776 88.2022C95.2346 87.2157 95.6601 85.7131 95.7023 84.5041Z" fill="#371A45"/>
<path fill-rule="evenodd" clip-rule="evenodd" d="M94.1608 48.2042C94.244 46.7794 93.542 45.6597 92.4206 44.8341C91.2998 44.0085 89.7594 43.4775 88.2091 43.2661C86.6582 43.0547 85.0978 43.1634 83.5497 43.7865C82.0016 44.4096 80.4662 45.5482 79.6217 46.634C78.7777 47.7198 78.6251 48.7541 78.5485 49.2706C78.4719 49.7878 78.4719 49.7878 78.6589 50.1739C78.8459 50.5601 79.2199 51.3325 80.0977 52.1165C84.1262 55.7141 93.7873 54.646 94.1608 48.2042Z" fill="#371A45"/>
<path fill-rule="evenodd" clip-rule="evenodd" d="M82.4846 50.1635C82.5362 50.4553 82.7054 50.8409 83.1127 51.1239C83.5194 51.4069 84.1631 51.5866 84.9105 51.5406C85.658 51.4945 86.5091 51.2221 86.9608 50.902C87.4125 50.5818 87.4641 50.2139 87.4164 49.7995C87.3681 49.3844 87.2199 48.9228 86.649 48.7042C86.0774 48.4861 85.0836 48.5094 84.3329 48.6787C83.5821 48.8479 83.0744 49.1619 82.787 49.4177C82.5001 49.6741 82.4335 49.8716 82.4846 50.1635Z" fill="white"/>
<path fill-rule="evenodd" clip-rule="evenodd" d="M84.4264 82.8046C84.4641 83.2829 84.8159 83.8788 85.4973 84.1557C86.1782 84.4325 87.1887 84.3909 88.031 84.3266C88.8733 84.2622 89.5469 84.174 89.8216 83.7584C90.0968 83.3428 89.9719 82.5999 89.4981 82.1055C89.0242 81.6106 88.2013 81.3642 87.3834 81.3215C86.565 81.2788 85.752 81.4408 85.2077 81.7027C84.6633 81.964 84.3881 82.3258 84.4264 82.8046Z" fill="white"/>
<path d="M84.7814 82.7769C84.7964 82.9695 84.8818 83.1897 85.0388 83.3884C85.1797 83.5643 85.3767 83.7224 85.6314 83.8256C85.9305 83.9471 86.3134 83.9998 86.7168 84.0148C87.1373 84.0298 87.5907 84.0037 88.0052 83.9721C88.408 83.9416 88.7692 83.9055 89.0494 83.8306C89.2747 83.7707 89.4428 83.6874 89.5261 83.562C89.6121 83.4317 89.6315 83.2314 89.5893 83.0166C89.5444 82.7836 89.4268 82.5433 89.2431 82.3519C89.0561 82.1572 88.7981 82.0062 88.5029 81.8964C88.155 81.7682 87.7594 81.6955 87.3654 81.6761C86.997 81.6572 86.6263 81.6828 86.285 81.7427C85.931 81.8048 85.612 81.9025 85.3628 82.0223C85.1414 82.1278 84.9794 82.2487 84.8829 82.3847C84.8047 82.4956 84.7692 82.6271 84.7814 82.7769ZM84.4834 83.8295C84.2342 83.5138 84.0977 83.1531 84.0722 82.8324C84.0467 82.5106 84.126 82.2243 84.3042 81.9735C84.4706 81.7383 84.7236 81.5418 85.0543 81.3843C85.3628 81.2344 85.7463 81.1152 86.1624 81.0425C86.5508 80.9742 86.9748 80.9448 87.4015 80.967C87.8664 80.9909 88.3342 81.0763 88.7476 81.2295C89.1416 81.3765 89.4922 81.5846 89.7563 81.8609C90.0376 82.1555 90.218 82.5239 90.2874 82.8807C90.3639 83.273 90.3101 83.6641 90.1181 83.9543C89.9261 84.244 89.6193 84.4143 89.2303 84.5175C88.8946 84.6068 88.4962 84.6479 88.0573 84.6812C87.6306 84.7139 87.1573 84.7405 86.6918 84.7239C86.2102 84.7067 85.7457 84.6401 85.3645 84.4848C84.9883 84.3322 84.6948 84.0958 84.4834 83.8295Z" fill="black"/>
</svg>
