<svg width="161" height="136" viewBox="0 0 161 136" fill="none" xmlns="http://www.w3.org/2000/svg">
<path fill-rule="evenodd" clip-rule="evenodd" d="M21.3461 102.558C19.652 105.425 17.7543 108.286 15.8344 110.619C12.2449 114.984 8.5804 117.502 4.9054 118.952C8.62091 122.31 14.0555 123.663 19.5216 123.634C26.891 123.596 37.9144 121.04 43.8272 115.945C50.3571 118.436 57.8108 120.431 66.2756 121.845C84.7843 124.938 108.124 125.255 124.638 120.169C141.855 114.867 152.357 105.886 157.199 95.2554C174.651 56.9453 123.551 -4.33332 38.5203 11.0166C18.0218 14.7169 7.01341 25.4077 2.67533 37.7886C-4.45049 58.1222 5.70111 88.2355 21.3461 102.558Z" fill="#FF4F73"/>
<path d="M63.7245 79.0716C63.8261 78.7143 64.0031 78.1655 64.2539 77.4265C64.5069 76.6758 64.7938 75.8463 65.1173 74.9258C65.4413 74.0058 65.7704 73.0543 66.1022 72.0822C66.4362 71.0995 66.7392 70.1757 67.0105 69.3112C66.1777 69.1731 65.0945 68.9933 63.7611 68.773C62.4283 68.5517 61.0428 68.3225 59.6056 68.0845C58.1679 67.8464 56.7935 67.6184 55.4806 67.4015C54.1683 67.1839 53.1373 67.0131 52.3871 66.8888C52.1119 67.7743 51.8284 68.712 51.5359 69.7013C51.2419 70.7017 50.9688 71.6405 50.7141 72.5294C50.46 73.4182 50.2453 74.1956 50.0694 74.8731C49.8907 75.5605 49.7581 76.0416 49.666 76.3362C49.3264 76.3234 48.8991 76.3168 48.3892 76.2962C47.8787 76.2763 47.3388 76.2396 46.7695 76.1886C46.2002 76.137 45.6286 76.0959 45.0593 76.0443C44.4906 75.9927 43.9973 75.9328 43.5806 75.864C43.1638 75.7947 42.8964 75.7292 42.7782 75.6665C43.0207 74.7221 43.4008 73.2657 43.9179 71.307C44.4367 69.339 45.0299 67.1152 45.6958 64.6466C46.3633 62.1676 47.0636 59.6191 47.8005 56.9797C48.5357 54.352 49.2221 51.8868 49.8585 49.5947C50.4933 47.3137 51.0521 45.3623 51.5326 43.751C52.012 42.1508 52.3494 41.1471 52.5436 40.7515C52.9736 40.7371 53.4603 40.7742 54.0018 40.8641C54.5434 40.954 55.1055 41.0472 55.6893 41.1438C56.5221 41.2819 57.3661 41.4218 58.2201 41.5632C59.074 41.7042 59.8037 41.8895 60.4074 42.1181C60.0268 43.1251 59.5873 44.358 59.0885 45.8162C58.5902 47.2749 58.0608 48.8562 57.4998 50.5607C56.9394 52.2657 56.3684 54.0329 55.7869 55.8634C55.2054 57.6933 54.6416 59.4826 54.0945 61.2326C54.8236 61.2249 55.773 61.2432 56.9394 61.3075C58.1058 61.373 59.3559 61.4518 60.6854 61.565C62.0149 61.6776 63.3971 61.7997 64.8326 61.9201C66.2659 62.0505 67.6287 62.2225 68.9205 62.4361C69.5419 60.4953 70.1517 58.5527 70.7532 56.608C71.3531 54.6638 71.9191 52.8638 72.4501 51.2076C72.9828 49.5409 73.4239 48.1049 73.7751 46.8903C74.1286 45.6641 74.365 44.8152 74.4893 44.3219C74.9543 44.3563 75.5413 44.4324 76.2494 44.5494C76.958 44.6665 77.666 44.7841 78.3746 44.9012C79.2075 45.0394 79.9682 45.1653 80.6557 45.2791C81.3432 45.3928 81.8254 45.516 82.1034 45.6475C81.6761 47.1927 81.1262 49.0276 80.4532 51.1527C79.7801 53.2778 79.0532 55.5327 78.273 57.9185C77.4945 60.2933 76.7016 62.688 75.8965 65.09C75.0924 67.493 74.3395 69.7118 73.6348 71.7676C72.9306 73.8233 72.3158 75.5938 71.7898 77.0908C71.2654 78.5767 70.8936 79.5959 70.6722 80.1585C69.8177 80.1452 68.8911 80.0559 67.8911 79.8906C67.0155 79.7457 66.1832 79.6076 65.3908 79.4766C64.5996 79.3457 64.0441 79.2103 63.7245 79.0716ZM90.7568 81.7837C89.9095 81.9857 89.0439 82.1749 88.1589 82.3485C87.2738 82.5233 86.1025 82.4895 84.6442 82.2481C82.519 81.8958 81.1296 80.917 80.4754 79.3102C79.8212 77.7039 79.6913 75.7131 80.0847 73.3383C80.2223 72.5055 80.482 71.4569 80.8627 70.1935C81.2433 68.9295 81.6778 67.5995 82.1656 66.2041C82.6533 64.8075 83.166 63.3943 83.7026 61.9639C84.2392 60.533 84.7341 59.2241 85.188 58.0362C85.6413 56.8488 86.0431 55.8451 86.3932 55.0261C86.7428 54.206 86.9559 53.6961 87.0319 53.4942C87.4064 53.5563 87.8803 53.6673 88.4535 53.826C89.0267 53.9852 89.6187 54.1583 90.2302 54.3447C90.8412 54.5323 91.4243 54.7575 91.9803 55.0205C92.5352 55.2835 92.9874 55.5294 93.3348 55.7579C92.7178 57.1539 92.0558 58.6282 91.3494 60.1807C90.6431 61.7331 89.9833 63.2612 89.3702 64.7648C88.7576 66.2685 88.221 67.6989 87.7604 69.0566C87.2999 70.4143 86.9875 71.5928 86.8216 72.5926C86.6695 73.5092 86.7383 74.2588 87.0269 74.842C87.3154 75.4246 87.8137 75.7747 88.5223 75.8923C88.8552 75.9472 89.2531 75.9384 89.7147 75.8646C90.1764 75.7913 90.612 75.682 91.0215 75.5355C91.0565 75.8407 91.0792 76.2191 91.0897 76.6702C91.1009 77.1219 91.1064 77.604 91.107 78.1184C91.1081 78.6316 91.0975 79.1437 91.0775 79.6536C91.057 80.1641 91.0159 80.6074 90.9538 80.9819C90.885 81.3981 90.8195 81.6655 90.7568 81.7837ZM94.6238 42.9382C95.6376 43.2772 96.329 43.8198 96.698 44.5655C97.0659 45.3118 97.1885 46.0592 97.0642 46.8093C96.8916 47.8508 96.3439 48.7663 95.4212 49.5553C94.499 50.3437 93.3298 50.6206 91.9132 50.3859C90.9133 50.2206 90.1248 49.8116 89.5477 49.1597C88.9706 48.5077 88.7892 47.5362 89.0034 46.2451C89.1687 45.2447 89.6487 44.3508 90.4428 43.5618C91.2368 42.7734 92.3216 42.4932 93.6966 42.7201C93.8631 42.7478 94.0195 42.7745 94.1655 42.7978C94.3109 42.8222 94.464 42.8688 94.6238 42.9382ZM105.512 48.5299C106.074 48.4944 106.709 48.5355 107.417 48.6525C108.125 48.7696 108.855 48.8906 109.605 49.0149C110.272 49.1253 110.896 49.229 111.48 49.3256C112.063 49.4221 112.58 49.5292 113.032 49.6474C112.52 51.7026 111.888 53.963 111.138 56.4282C110.387 58.8934 109.615 61.2909 108.823 63.6207C108.03 65.9505 107.275 68.0512 106.559 69.9232C105.842 71.7947 105.282 73.168 104.881 74.043C103.853 73.7872 102.754 73.5092 101.584 73.208C100.414 72.9072 99.585 72.6736 99.0995 72.5077C99.383 71.57 99.7365 70.4087 100.158 69.0233C100.58 67.6384 101.006 66.1675 101.435 64.6122C101.863 63.0564 102.297 61.4701 102.737 59.8516C103.177 58.2337 103.581 56.6956 103.951 55.2375C104.321 53.7794 104.646 52.4638 104.926 51.2903C105.206 50.1162 105.401 49.1963 105.512 48.5299ZM97.9903 77.6529C98.8298 77.4925 99.5623 77.4642 100.187 77.5674C101.27 77.7472 102.2 78.211 102.975 78.9601C103.749 79.7091 104.047 80.6252 103.868 81.7082C103.729 82.5416 103.46 83.203 103.057 83.6929C102.655 84.1823 102.209 84.548 101.72 84.7877C101.231 85.0279 100.704 85.1755 100.138 85.2321C99.5723 85.2881 99.0806 85.2815 98.6645 85.2127C97.4559 85.0124 96.5287 84.6023 95.8823 83.9809C95.2364 83.3606 95.0266 82.3624 95.2547 80.9875C95.3718 80.2795 95.6559 79.5993 96.107 78.9462C96.5576 78.2931 97.1852 77.862 97.9903 77.6529Z" fill="white"/>
</svg>
