<svg width="160" height="136" viewBox="0 0 160 136" fill="none" xmlns="http://www.w3.org/2000/svg">
<path fill-rule="evenodd" clip-rule="evenodd" d="M81.4399 3.3064C121.454 3.3064 153.892 32.2446 153.892 67.9413C153.892 103.638 121.454 132.576 81.4399 132.576C67.009 132.576 53.5641 128.811 42.27 122.324C36.1047 126.056 27.1256 127.932 20.8204 127.965C15.3543 127.993 9.91972 126.64 6.20422 123.283C9.87977 121.832 13.5442 119.314 17.1338 114.949C19.0531 112.616 20.9508 109.755 22.6449 106.888C22.6449 106.888 22.9734 106.53 22.9384 106.072C14.169 95.3831 8.98752 82.2021 8.98752 67.9413C8.98752 32.2446 41.4255 3.3064 81.4399 3.3064Z" fill="#FF4F73"/>
<path d="M28.1984 50.9735C28.1911 50.8841 28.1939 50.7904 28.2056 50.6938C28.2172 50.5973 28.23 50.4868 28.2444 50.3637C28.3077 49.8371 28.412 49.1857 28.5579 48.4095C28.7044 47.6344 28.8753 46.7949 29.0723 45.8916C29.2693 44.9877 29.479 44.0506 29.7021 43.0791C29.9252 42.1081 30.1565 41.1726 30.3974 40.2754C30.6376 39.3765 30.8712 38.5404 31.0976 37.7653C31.324 36.9901 31.5299 36.3465 31.7152 35.8338C31.8584 35.8333 32.0049 35.8416 32.1541 35.8594C32.3034 35.8771 32.4571 35.8954 32.6152 35.9143C33.0369 35.9648 33.4614 36.033 33.887 36.1196C34.3137 36.2067 34.6544 36.3005 34.9097 36.402C34.5723 37.2881 34.2116 38.3684 33.8282 39.6418C33.4448 40.9146 33.0686 42.2374 32.6996 43.6106C32.3306 44.9833 31.9965 46.3294 31.6969 47.6483C31.3967 48.9666 31.162 50.1146 30.9922 51.0927C30.5489 51.0756 30.0816 51.0645 29.5922 51.0595C29.1028 51.0545 28.6384 51.0256 28.1984 50.9735ZM38.9393 38.0327C38.7994 37.7126 38.6452 37.3241 38.477 36.8675C38.3089 36.4109 38.1424 35.9365 37.9788 35.4443C37.8145 34.9527 37.6625 34.4672 37.5243 33.9867C37.385 33.5068 37.2829 33.094 37.2175 32.7477C37.6336 32.548 38.0648 32.4071 38.5109 32.3266C38.957 32.2462 39.3321 32.1974 39.6373 32.1807C39.68 32.72 39.7372 33.2532 39.8082 33.7781C39.8792 34.3036 39.953 34.8068 40.0285 35.2884C40.1056 35.7695 40.1816 36.2106 40.2588 36.6123C40.3359 37.0134 40.4019 37.3514 40.4585 37.6254C40.19 37.7891 39.8914 37.8962 39.5646 37.9467C39.2378 37.9966 39.0297 38.0249 38.9393 38.0327ZM42.2336 40.0024C42.3568 40.0174 42.5282 40.0374 42.748 40.064C42.9677 40.0901 43.2069 40.1367 43.466 40.2072C43.7246 40.2782 43.9837 40.3492 44.2412 40.4291C44.4992 40.509 44.7217 40.5889 44.9081 40.6688C44.8238 40.9262 44.7444 41.2153 44.6707 41.5366C44.5974 41.8573 44.4864 42.2584 44.3399 42.74C44.942 42.0276 45.6239 41.5027 46.3875 41.1526C47.151 40.8069 47.9278 40.6816 48.7185 40.7759C49.3866 40.8552 49.9232 41.1732 50.3294 41.7297C50.7355 42.2862 50.8931 42.942 50.8032 43.6977C50.7822 43.873 50.7572 44.0045 50.73 44.09C52.3658 42.325 54.1503 41.5576 56.0835 41.7879C56.8742 41.8828 57.5046 42.2024 57.9746 42.7484C58.444 43.2943 58.6188 44.0689 58.4989 45.0704C58.4362 45.5975 58.3086 46.1074 58.1161 46.6018C57.9235 47.0956 57.7204 47.5661 57.5068 48.0134C57.2932 48.4594 57.0962 48.8772 56.9158 49.2656C56.7361 49.654 56.6279 49.998 56.5923 50.2966C56.5652 50.5246 56.6046 50.721 56.7094 50.8858C56.8149 51.0489 56.9819 51.1454 57.2099 51.1721C57.3331 51.1865 57.4824 51.1693 57.6577 51.1183C57.8331 51.0683 58.0101 51.0051 58.1882 50.9279C58.3669 50.8514 58.5416 50.7693 58.7126 50.6833C58.8829 50.5962 59.0261 50.5157 59.142 50.4403C59.202 50.5362 59.2752 50.67 59.3618 50.8408C59.4483 51.0117 59.5321 51.2043 59.6137 51.419C59.6953 51.6337 59.7618 51.8601 59.8134 52.0976C59.8651 52.3356 59.8961 52.562 59.9061 52.7773C59.7297 52.9165 59.4972 53.0669 59.2103 53.2284C58.924 53.3904 58.6082 53.5352 58.2631 53.6639C57.918 53.7921 57.5506 53.8858 57.16 53.9469C56.7694 54.0068 56.3815 54.0135 55.9947 53.9674C55.6779 53.9297 55.3683 53.8393 55.0642 53.6967C54.7607 53.5535 54.4982 53.3571 54.279 53.108C54.0587 52.8588 53.8951 52.5498 53.7874 52.1808C53.6803 51.8118 53.6559 51.3813 53.7147 50.8886C53.763 50.4846 53.8706 50.0696 54.0371 49.644C54.2041 49.2185 54.3878 48.7951 54.5898 48.3734C54.7917 47.9518 54.9743 47.5367 55.1391 47.1289C55.3033 46.7205 55.4082 46.3322 55.4521 45.9632C55.5131 45.4538 55.4548 45.0815 55.2778 44.8463C55.1008 44.611 54.784 44.4667 54.3273 44.4124C54.0282 44.3768 53.6981 44.4174 53.3363 44.535C52.975 44.6521 52.6177 44.8457 52.2648 45.1153C51.9119 45.3856 51.5773 45.7235 51.261 46.1318C50.9453 46.5402 50.6745 47.0152 50.4492 47.5589C50.1479 48.2891 49.931 48.9538 49.7972 49.5525C49.6635 50.1517 49.5586 50.7676 49.4832 51.3996C49.4582 51.611 49.4371 51.8224 49.421 52.0343C49.4044 52.2463 49.3827 52.4666 49.3555 52.6952C49.1186 52.7379 48.7962 52.7529 48.3873 52.7401C47.9794 52.7268 47.5993 52.699 47.2475 52.6569C47.0894 52.6385 46.9501 52.6175 46.8275 52.5936C46.706 52.5703 46.6016 52.5448 46.5162 52.5165C46.6394 51.783 46.7637 51.1466 46.8902 50.6095C47.0173 50.0718 47.1465 49.5486 47.2786 49.0381C47.4107 48.5282 47.5455 47.9917 47.6842 47.4296C47.8229 46.867 47.9755 46.1856 48.142 45.3856L48.1637 45.2008C48.2269 44.6731 48.1409 44.2759 47.9051 44.0073C47.6698 43.7382 47.368 43.5823 46.9989 43.5385C46.7354 43.5069 46.4413 43.5429 46.1167 43.6472C45.7921 43.7504 45.4775 43.8908 45.1712 44.0683C44.8643 44.2459 44.578 44.4434 44.3116 44.6615C44.0453 44.879 43.8289 45.0848 43.663 45.279C43.5331 45.6197 43.3944 46.0713 43.2474 46.6329C43.1003 47.1944 42.9538 47.7881 42.8079 48.4117C42.6625 49.0359 42.5216 49.6518 42.3873 50.2599C42.2525 50.8675 42.1498 51.3901 42.0793 51.8268C42.0067 51.8407 41.8801 51.8573 41.7004 51.8712C41.5206 51.8856 41.3103 51.8912 41.0706 51.8851C40.8309 51.8784 40.5834 51.8623 40.3281 51.8318C40.0734 51.8013 39.8409 51.7735 39.6295 51.7486C39.5236 51.7364 39.432 51.7253 39.3532 51.7158C39.2733 51.7058 39.1995 51.6975 39.129 51.6886C39.1518 51.4956 39.2344 51.1044 39.3765 50.5113C39.5174 49.922 39.6895 49.229 39.892 48.4295C40.094 47.6338 40.3154 46.7821 40.5562 45.8838C40.7976 44.9816 41.0328 44.1322 41.262 43.331C41.4923 42.5248 41.6915 41.8223 41.8618 41.2187C42.0322 40.6111 42.1554 40.2071 42.2336 40.0024ZM79.6239 52.8832C79.6883 52.9443 79.7676 53.0602 79.8636 53.2322C79.9585 53.4042 80.0479 53.5929 80.13 53.7987C80.2121 54.0046 80.2837 54.2271 80.3447 54.4657C80.4046 54.7048 80.4324 54.9218 80.4268 55.1176C80.2459 55.2918 80.0079 55.4594 79.7122 55.6203C79.4164 55.7812 79.1018 55.9222 78.7661 56.0426C78.4309 56.163 78.0819 56.2501 77.719 56.3045C77.3561 56.3594 77.016 56.3682 76.7002 56.3305C75.9617 56.2423 75.3957 55.9433 75.0023 55.4333C74.6083 54.9229 74.4685 54.1927 74.5817 53.2445C74.5922 53.1557 74.6011 53.0813 74.6083 53.0197C74.6155 52.9581 74.6333 52.8849 74.661 52.7995C74.4002 53.1956 74.0923 53.5735 73.7377 53.9319C73.3831 54.2909 72.9892 54.5999 72.558 54.8607C72.1258 55.121 71.6669 55.3068 71.1808 55.4183C70.6953 55.5299 70.1892 55.5537 69.6615 55.491C69.1344 55.4283 68.6455 55.268 68.1955 55.0089C67.745 54.7503 67.3588 54.4008 67.0358 53.9657C66.7145 53.5263 66.4832 52.9998 66.3422 52.3861C66.2013 51.7769 66.1763 51.0916 66.2662 50.3365C66.4082 49.1458 66.7151 48.1043 67.1856 47.2205C67.6573 46.3316 68.2161 45.6053 68.8642 45.0321C69.5117 44.459 70.2109 44.0517 70.9622 43.8031C71.714 43.554 72.4326 43.4702 73.1179 43.5518C73.9613 43.6528 74.6799 43.903 75.2736 44.3042C75.8674 44.7042 76.298 45.2052 76.5649 45.8078C76.602 45.643 76.6459 45.4655 76.6964 45.2663C76.7469 45.0676 76.8057 44.874 76.8728 44.6859C76.9394 44.4984 77.0021 44.3408 77.062 44.2187C77.1208 44.0967 77.1946 44.0384 77.2829 44.0489C77.6163 44.0889 78.0098 44.1893 78.4631 44.3502C78.9165 44.5111 79.286 44.6621 79.5723 44.803C79.4514 45.2169 79.2716 45.7162 79.0324 46.3027C78.7927 46.8892 78.5497 47.5106 78.3022 48.1676C78.0542 48.8234 77.8239 49.487 77.6102 50.1567C77.3966 50.8259 77.2551 51.4512 77.1863 52.031C77.1697 52.1714 77.1552 52.3256 77.1441 52.4937C77.1336 52.6619 77.1403 52.8228 77.1663 52.9776C77.1924 53.1324 77.2479 53.2677 77.3317 53.3848C77.416 53.5019 77.5459 53.5713 77.7218 53.5923C78.0558 53.6317 78.4109 53.5668 78.7877 53.3981C79.1639 53.2289 79.443 53.0575 79.6239 52.8832ZM70.8423 52.9854C71.37 53.0486 71.8822 52.9354 72.3799 52.6469C72.8782 52.3595 73.3487 51.965 73.791 51.4651C74.2338 50.9657 74.6311 50.4025 74.9818 49.7761C75.3324 49.1497 75.616 48.5282 75.8324 47.9123C75.641 47.4263 75.3225 46.9963 74.8769 46.6229C74.4319 46.2484 73.9186 46.027 73.3387 45.9576C72.9342 45.9094 72.5131 45.9665 72.0747 46.128C71.6369 46.29 71.223 46.5519 70.8312 46.9153C70.4406 47.2787 70.1043 47.7426 69.8236 48.3058C69.5422 48.8689 69.3575 49.5286 69.267 50.2843C69.1666 51.1277 69.2759 51.7735 69.5972 52.2219C69.9179 52.6702 70.3329 52.9243 70.8423 52.9854ZM89.366 45.6242C89.4892 45.6386 89.6607 45.6591 89.8804 45.6852C90.1001 45.7113 90.3393 45.7579 90.5984 45.8283C90.857 45.8994 91.1161 45.9709 91.3736 46.0503C91.6316 46.1302 91.8541 46.2101 92.0406 46.2905C91.9562 46.5474 91.8769 46.8365 91.8031 47.1577C91.7298 47.4784 91.6189 47.8796 91.4724 48.3612C92.6681 47.0068 94.0387 46.422 95.5852 46.6062C96.2533 46.6856 96.7937 46.9691 97.2082 47.4546C97.6233 47.9406 97.7864 48.5527 97.6982 49.2906C97.6771 49.4665 97.6527 49.5974 97.6244 49.6829C98.4428 48.8007 99.3395 48.1903 100.316 47.8519C101.292 47.514 102.254 47.4013 103.204 47.5145C103.994 47.6094 104.625 47.9246 105.095 48.4661C105.565 49.0082 105.741 49.7733 105.623 50.7615C105.563 51.267 105.442 51.7608 105.258 52.2513C105.075 52.7412 104.877 53.2039 104.665 53.6462C104.451 54.0889 104.259 54.5023 104.089 54.8874C103.918 55.2724 103.816 55.6031 103.783 55.8805C103.756 56.1042 103.791 56.3 103.887 56.4626C103.984 56.6218 104.147 56.7173 104.375 56.7439C104.656 56.7777 104.957 56.7239 105.277 56.5841C105.596 56.4437 105.903 56.2661 106.195 56.052C106.488 55.8373 106.766 55.6081 107.026 55.3629C107.288 55.1171 107.501 54.8979 107.666 54.7037C107.814 54.8108 107.991 54.9695 108.198 55.1814C108.404 55.3934 108.562 55.5593 108.673 55.6791C108.438 56.0082 108.132 56.4032 107.756 56.8665C107.38 57.3298 106.936 57.7626 106.424 58.1649C105.913 58.5671 105.339 58.8956 104.703 59.1491C104.067 59.4027 103.389 59.4871 102.668 59.4011C102.053 59.3278 101.57 59.0426 101.219 58.5466C100.868 58.0506 100.741 57.3981 100.838 56.5896C100.89 56.1502 101.001 55.7047 101.171 55.2519C101.341 54.8002 101.526 54.3636 101.728 53.9419C101.93 53.5207 102.113 53.1102 102.276 52.7107C102.44 52.3112 102.542 51.9444 102.581 51.611C102.642 51.1016 102.589 50.7249 102.422 50.4824C102.254 50.2399 101.934 50.0907 101.459 50.0335C101.161 49.998 100.83 50.0391 100.469 50.1562C100.107 50.2738 99.7496 50.4669 99.3967 50.7365C99.0443 51.0067 98.7097 51.3452 98.3934 51.7536C98.0772 52.1614 97.8069 52.6364 97.5816 53.1801C97.2803 53.9103 97.0634 54.5755 96.9291 55.1742C96.7959 55.7729 96.691 56.3888 96.6156 57.0213C96.5906 57.2322 96.5695 57.4435 96.5534 57.6555C96.5368 57.8674 96.5146 58.0877 96.488 58.3163C96.251 58.3591 95.9281 58.3746 95.5197 58.3613C95.1113 58.3479 94.7318 58.3208 94.3805 58.2786C94.2218 58.2597 94.082 58.2387 93.9599 58.2148C93.8384 58.192 93.7341 58.166 93.6486 58.1382C93.7718 57.4047 93.8967 56.7683 94.0226 56.2307C94.1497 55.6936 94.2784 55.1698 94.411 54.6599C94.5431 54.1505 94.6779 53.6134 94.8167 53.0514C94.9548 52.4882 95.1074 51.8074 95.2744 51.0073L95.2961 50.8225C95.3588 50.2954 95.2733 49.8976 95.0375 49.6285C94.8022 49.36 94.5004 49.204 94.1314 49.1597C93.8678 49.1286 93.5737 49.1646 93.2491 49.2684C92.9251 49.3722 92.6093 49.5131 92.3036 49.6901C91.9967 49.8671 91.7104 50.0646 91.4435 50.2827C91.1777 50.5007 90.9608 50.7066 90.7954 50.9008C90.6656 51.2414 90.5268 51.6925 90.3798 52.254C90.2328 52.8161 90.0857 53.4092 89.9403 54.0334C89.795 54.6571 89.654 55.2735 89.5197 55.8816C89.3849 56.4892 89.2822 57.0113 89.2118 57.4485C89.1391 57.4619 89.0126 57.4785 88.8328 57.4924C88.653 57.5068 88.4427 57.5129 88.203 57.5063C87.9627 57.4996 87.7158 57.4835 87.4606 57.4535C87.2053 57.423 86.9728 57.3953 86.762 57.3698C86.656 57.3575 86.5644 57.3465 86.4856 57.337C86.4057 57.3276 86.3314 57.3187 86.2609 57.3104C86.2842 57.1167 86.3663 56.7256 86.5084 56.1324C86.6499 55.5432 86.8219 54.8508 87.0239 54.0512C87.2264 53.255 87.4478 52.4039 87.6886 51.5056C87.93 50.6034 88.1647 49.7534 88.3944 48.9522C88.6247 48.1465 88.8239 47.4441 88.9943 46.8404C89.1641 46.2323 89.2878 45.8283 89.366 45.6242ZM121.562 56.3339C121.744 56.4448 121.928 56.5874 122.112 56.7611C122.296 56.9336 122.441 57.1073 122.545 57.2804C122.155 57.858 121.73 58.3907 121.271 58.8795C120.812 59.3683 120.343 59.7895 119.865 60.1423C119.385 60.4952 118.895 60.7615 118.392 60.9419C117.889 61.1222 117.4 61.1843 116.926 61.1283C116.241 61.0462 115.771 60.7277 115.516 60.1712C115.261 59.6152 115.178 58.9683 115.266 58.2303C115.277 58.1421 115.288 58.05 115.3 57.9529C115.311 57.8569 115.332 57.7565 115.362 57.6538C115.1 58.0506 114.792 58.4278 114.438 58.7863C114.083 59.1447 113.69 59.4543 113.258 59.7145C112.826 59.9753 112.367 60.1612 111.882 60.2722C111.396 60.3837 110.889 60.4081 110.362 60.3454C109.835 60.2827 109.346 60.1218 108.896 59.8632C108.446 59.6041 108.059 59.2551 107.737 58.8201C107.415 58.3801 107.183 57.8541 107.043 57.2399C106.902 56.6307 106.877 55.946 106.967 55.1909C107.109 54.0002 107.416 52.9581 107.886 52.0748C108.358 51.186 108.917 50.4597 109.564 49.8865C110.212 49.3133 110.911 48.9061 111.663 48.6575C112.414 48.4084 113.133 48.3246 113.819 48.4062C114.662 48.5066 115.38 48.7574 115.974 49.158C116.568 49.5586 116.999 50.0602 117.265 50.6622C117.303 50.4974 117.346 50.3199 117.397 50.1212C117.448 49.922 117.506 49.7284 117.572 49.5403C117.64 49.3527 117.703 49.1952 117.763 49.0731C117.822 48.951 117.895 48.8928 117.984 48.9033C118.317 48.9427 118.711 49.0437 119.164 49.2046C119.617 49.3655 119.986 49.5164 120.273 49.6579C120.128 50.1212 119.931 50.6905 119.682 51.3646C119.431 52.0388 119.184 52.7312 118.939 53.442C118.694 54.1516 118.47 54.8335 118.268 55.4872C118.065 56.1397 117.939 56.6684 117.891 57.0729C117.847 57.4419 117.86 57.7421 117.93 57.9734C118.001 58.2043 118.177 58.3363 118.458 58.3701C118.669 58.3951 118.906 58.3479 119.17 58.2275C119.434 58.1071 119.707 57.949 119.989 57.7509C120.271 57.5523 120.548 57.327 120.818 57.0746C121.089 56.8215 121.337 56.5747 121.562 56.3339ZM111.543 57.8397C112.071 57.9024 112.583 57.7903 113.081 57.5018C113.579 57.2138 114.049 56.8193 114.492 56.32C114.935 55.8201 115.332 55.2569 115.683 54.6305C116.033 54.0041 116.317 53.3832 116.533 52.7667C116.342 52.2807 116.023 51.8507 115.578 51.4767C115.132 51.1027 114.619 50.8813 114.039 50.812C113.634 50.7637 113.213 50.8209 112.775 50.9823C112.337 51.1438 111.923 51.4062 111.532 51.7691C111.141 52.1331 110.805 52.5964 110.524 53.1596C110.243 53.7233 110.058 54.383 109.968 55.1387C109.867 55.9821 109.977 56.6279 110.297 57.0762C110.619 57.5246 111.034 57.7787 111.543 57.8397ZM123.21 49.6867C123.579 49.7311 124.011 49.8094 124.505 49.9215C125 50.0341 125.452 50.1595 125.864 50.2976C125.81 50.4513 125.762 50.5889 125.721 50.7082C125.68 50.8281 125.639 50.9529 125.597 51.0811C125.555 51.2098 125.51 51.3652 125.461 51.5461C125.412 51.7275 125.345 51.9555 125.259 52.2308C125.501 51.9922 125.802 51.7514 126.16 51.5094C126.519 51.267 126.923 51.0522 127.373 50.8653C127.824 50.6783 128.3 50.5346 128.802 50.4341C129.304 50.3337 129.819 50.3143 130.346 50.3776C130.926 50.4469 131.391 50.5873 131.74 50.7976C132.089 51.0084 132.356 51.2681 132.543 51.5755C132.729 51.8828 132.844 52.2219 132.889 52.5925C132.934 52.9631 132.934 53.3332 132.89 53.7016C132.838 54.1411 132.724 54.6094 132.549 55.1049C132.374 55.6014 132.191 56.0958 131.998 56.5896C131.805 57.0835 131.625 57.5479 131.457 57.9823C131.29 58.4168 131.187 58.7924 131.149 59.1086C131.118 59.3722 131.149 59.603 131.24 59.8011C131.333 59.9992 131.528 60.1157 131.827 60.1518C132.055 60.179 132.315 60.1257 132.608 59.9914C132.901 59.8566 133.194 59.6774 133.487 59.4543C133.782 59.2313 134.07 58.9844 134.351 58.7153C134.632 58.4456 134.876 58.1982 135.081 57.9734C135.196 58.0583 135.374 58.2137 135.614 58.4378C135.855 58.6631 136.012 58.8334 136.088 58.9488C135.168 60.2294 134.209 61.2115 133.21 61.8945C132.21 62.577 131.201 62.8578 130.182 62.7357C129.426 62.6458 128.915 62.3357 128.648 61.8047C128.383 61.2731 128.296 60.6129 128.39 59.8222C128.452 59.3123 128.556 58.8085 128.705 58.3086C128.853 57.8103 129.013 57.3304 129.184 56.8693C129.355 56.4082 129.51 55.9632 129.651 55.5349C129.791 55.106 129.883 54.707 129.927 54.3375C129.977 53.9158 129.924 53.5801 129.767 53.3294C129.61 53.0786 129.293 52.9254 128.819 52.8688C128.239 52.8 127.581 52.9393 126.844 53.2883C126.108 53.6373 125.362 54.2121 124.606 55.0133C124.524 55.253 124.417 55.632 124.284 56.1513C124.15 56.6695 124.006 57.2449 123.85 57.8769C123.694 58.5094 123.547 59.1508 123.407 59.8028C123.267 60.4542 123.15 61.024 123.056 61.5117C122.981 61.5389 122.864 61.5472 122.705 61.5367C122.546 61.5267 122.364 61.5189 122.16 61.5117C121.957 61.5056 121.744 61.489 121.524 61.4629C121.305 61.4368 121.089 61.4107 120.879 61.3857L120.272 61.3131C120.306 61.0323 120.392 60.5746 120.53 59.9404C120.667 59.3062 120.833 58.5915 121.026 57.7942C121.22 56.9974 121.429 56.1668 121.658 55.3029C121.885 54.439 122.103 53.6273 122.309 52.8677C122.516 52.1087 122.698 51.4395 122.856 50.8614C123.014 50.2827 123.132 49.8915 123.21 49.6867ZM57.6139 70.6501C57.2871 71.1455 56.9081 71.6355 56.4764 72.1182C56.0436 72.6015 55.5786 73.0271 55.0803 73.3955C54.582 73.7639 54.0665 74.0546 53.5333 74.2671C52.9995 74.4796 52.4607 74.5534 51.9158 74.4885C51.0374 74.3837 50.4342 74.0224 50.1069 73.4038C49.7795 72.7857 49.6752 71.9762 49.795 70.9741C49.8366 70.6223 49.9254 70.1784 50.0614 69.6419C50.1962 69.1059 50.3527 68.5367 50.5325 67.9341C50.7106 67.3315 50.8992 66.7256 51.0962 66.1164C51.2937 65.5072 51.4763 64.9501 51.6433 64.4441C51.8109 63.9386 51.9591 63.5152 52.0889 63.174C52.2187 62.8328 52.2975 62.6197 52.3258 62.5337C52.484 62.5532 52.6887 62.5903 52.9406 62.6469C53.192 62.7041 53.4478 62.7657 53.7069 62.8328C53.9661 62.8994 54.2152 62.982 54.4533 63.0819C54.6902 63.1818 54.8844 63.2761 55.0337 63.3649C54.8045 63.9431 54.5548 64.5778 54.2851 65.2675C54.016 65.9572 53.7658 66.6352 53.5349 67.3032C53.3035 67.9707 53.1005 68.5921 52.9246 69.1686C52.7487 69.7445 52.641 70.2001 52.6016 70.5336C52.5173 71.236 52.7564 71.6211 53.3191 71.6882C53.5477 71.716 53.8024 71.6749 54.0826 71.5656C54.3628 71.4563 54.6569 71.3092 54.9638 71.1228C55.2712 70.9369 55.5686 70.7222 55.8555 70.4803C56.1434 70.2389 56.4009 69.9887 56.6273 69.7301C56.8082 69.8594 57.0068 70.0203 57.2249 70.2162C57.4419 70.4115 57.5712 70.5557 57.6139 70.6501ZM55.3033 57.9701C55.7339 58.0927 56.0336 58.3069 56.2023 58.6115C56.3709 58.9172 56.4364 59.2279 56.3987 59.5442C56.3465 59.9836 56.134 60.3776 55.7633 60.7255C55.3921 61.0728 54.9077 61.211 54.3101 61.1394C53.8884 61.0895 53.5505 60.9335 53.2969 60.6717C53.0427 60.4098 52.9479 60.0064 53.0133 59.461C53.0633 59.0393 53.2475 58.6559 53.5649 58.3108C53.8817 57.9656 54.3312 57.8275 54.911 57.8963C54.981 57.9046 55.0475 57.913 55.1086 57.9202C55.1702 57.9274 55.2345 57.944 55.3033 57.9701ZM58.2786 63.057C58.6482 63.1008 59.0799 63.179 59.5743 63.2911C60.0693 63.4043 60.5215 63.5291 60.9332 63.6673C60.8794 63.821 60.8311 63.9586 60.79 64.0779C60.749 64.1983 60.7074 64.3226 60.6657 64.4507C60.6236 64.5795 60.5781 64.7348 60.5298 64.9157C60.4815 65.0971 60.4144 65.3257 60.3278 65.6004C60.5703 65.3618 60.8711 65.1216 61.2295 64.8797C61.588 64.6366 61.9919 64.4219 62.4425 64.2349C62.8925 64.0479 63.3686 63.9042 63.8713 63.8038C64.3729 63.7039 64.8879 63.6845 65.415 63.7472C65.9949 63.8166 66.4593 63.9569 66.8083 64.1678C67.1579 64.3786 67.4254 64.6377 67.6112 64.9451C67.7977 65.2525 67.9131 65.5915 67.958 65.9622C68.003 66.3334 68.003 66.7029 67.9591 67.0713C67.9042 67.529 67.7894 68.0095 67.6135 68.5139C67.437 69.0194 67.2439 69.5215 67.0325 70.0225C66.8216 70.523 66.6313 70.9902 66.4643 71.4252C66.2962 71.8591 66.1946 72.2259 66.1591 72.5244C66.1175 72.8761 66.1513 73.1119 66.2623 73.2323C66.3722 73.3522 66.5325 73.4249 66.7439 73.4504C66.8671 73.4648 67.012 73.4465 67.1784 73.3949C67.3449 73.3433 67.5219 73.2801 67.7089 73.204C67.8964 73.1286 68.0707 73.047 68.2327 72.9594C68.3953 72.8711 68.5246 72.789 68.6233 72.7113C68.6849 72.7907 68.7587 72.9194 68.8442 73.0992C68.9296 73.2789 69.0168 73.4803 69.1067 73.7051C69.1954 73.9298 69.2703 74.1612 69.3308 74.4003C69.3913 74.6389 69.4196 74.8564 69.4135 75.0517C69.2559 75.1754 69.0517 75.3203 68.8004 75.4862C68.549 75.6521 68.2543 75.8046 67.917 75.9428C67.5802 76.0809 67.2062 76.1875 66.7955 76.2629C66.3861 76.3395 65.9432 76.3489 65.4694 76.2923C65.1531 76.2546 64.8562 76.1658 64.5788 76.0254C64.3008 75.8856 64.0566 75.6914 63.8458 75.444C63.6349 75.196 63.4801 74.8875 63.3813 74.5196C63.2831 74.1512 63.2615 73.7295 63.3181 73.2556C63.3808 72.728 63.4957 72.2164 63.6621 71.7193C63.828 71.2216 64.0012 70.7439 64.1809 70.2844C64.3602 69.8239 64.5277 69.3895 64.6837 68.9805C64.8396 68.5711 64.9384 68.191 64.9805 67.8398C65.0305 67.4175 65.0022 67.058 64.8951 66.76C64.788 66.4615 64.4534 66.2795 63.8913 66.2124C63.61 66.1791 63.2953 66.1991 62.948 66.2734C62.6001 66.3483 62.2422 66.4704 61.8748 66.6402C61.507 66.81 61.1435 67.0208 60.7834 67.2721C60.4244 67.5235 60.0826 67.8076 59.7596 68.1255C59.6769 68.3652 59.5643 68.753 59.42 69.2885C59.2763 69.8233 59.1248 70.4204 58.9661 71.079C58.8074 71.737 58.6521 72.4051 58.5 73.082C58.3474 73.7589 58.2226 74.3587 58.1249 74.8813C57.9757 74.9352 57.6816 74.9357 57.2427 74.883C56.8032 74.8309 56.3815 74.7809 55.977 74.7326L55.3705 74.66C55.4082 74.3431 55.4964 73.8638 55.6352 73.2257C55.7745 72.5826 55.9404 71.8624 56.1329 71.0707C56.326 70.2739 56.5308 69.4516 56.7488 68.5955C56.9663 67.7438 57.1783 66.9398 57.3836 66.1891C57.5889 65.4428 57.7698 64.7825 57.9268 64.2138C58.0828 63.6484 58.2009 63.2617 58.2786 63.057Z" fill="white"/>
<path d="M78.3153 65.4201C78.4385 65.4345 78.6099 65.4551 78.8297 65.4811C79.0494 65.5072 79.2885 65.5538 79.5477 65.6248C79.8063 65.6959 80.0654 65.7669 80.3228 65.8468C80.5809 65.9261 80.8034 66.006 80.9893 66.0865C80.9055 66.3439 80.8261 66.6325 80.7523 66.9537C80.6791 67.2744 80.5681 67.6756 80.4216 68.1572C81.0237 67.4447 81.7139 66.9215 82.4958 66.5736C83.2759 66.2296 84.0445 66.1031 84.7997 66.193C85.4683 66.2729 86.0049 66.5908 86.4105 67.1468C86.8167 67.7033 86.9742 68.3597 86.8849 69.1154C86.8638 69.2913 86.8389 69.4217 86.8111 69.5077C88.4475 67.7422 90.232 66.9754 92.1646 67.2056C92.9559 67.2999 93.5863 67.6201 94.0562 68.166C94.5257 68.712 94.7005 69.486 94.5806 70.4881C94.5201 70.9969 94.398 71.4996 94.2144 71.9945C94.0302 72.4894 93.8315 72.9599 93.6184 73.4072C93.4043 73.8538 93.2117 74.2722 93.0408 74.6617C92.8688 75.0512 92.7667 75.3863 92.7334 75.6676C92.7062 75.8962 92.7401 76.0965 92.8355 76.2685C92.9309 76.4394 93.1018 76.5404 93.3471 76.5698C93.7344 76.6158 94.1439 76.5443 94.5762 76.3551C95.009 76.1664 95.4418 75.9012 95.874 75.5611C96.3063 75.2204 96.7219 74.842 97.1192 74.4264C97.5159 74.0097 97.8738 73.5891 98.1918 73.1641C98.2578 73.2074 98.3488 73.2718 98.4626 73.3567C98.578 73.4416 98.6873 73.5303 98.7922 73.623C98.8965 73.7157 98.998 73.8039 99.0946 73.8865C99.1922 73.9692 99.255 74.0397 99.2838 74.0963C98.9464 74.68 98.5181 75.2881 97.9965 75.9212C97.4754 76.5543 96.8978 77.1352 96.2647 77.6662C95.631 78.1966 94.9618 78.6155 94.2565 78.9235C93.5518 79.2314 92.8471 79.3435 92.1441 79.2597C91.8106 79.2198 91.4916 79.1288 91.1875 78.9851C90.884 78.8425 90.6221 78.6505 90.4007 78.4108C90.1798 78.17 90.0139 77.8787 89.904 77.5358C89.7931 77.1929 89.7648 76.7928 89.8191 76.3362C89.8719 75.8968 89.9828 75.4551 90.151 75.0118C90.3202 74.569 90.5005 74.1357 90.6942 73.7134C90.8867 73.2906 91.0643 72.8845 91.2269 72.4939C91.3895 72.1033 91.491 71.741 91.5304 71.4075C91.5914 70.8976 91.5382 70.5208 91.3706 70.2784C91.2036 70.0359 90.8829 69.8861 90.4084 69.8301C90.1099 69.794 89.7798 69.8345 89.418 69.9521C89.0567 70.0697 88.6988 70.2634 88.3459 70.5325C87.9936 70.8027 87.6584 71.1412 87.3427 71.5495C87.0264 71.9573 86.7562 72.4328 86.5309 72.9766C86.2296 73.7068 86.0126 74.3715 85.8784 74.9702C85.7452 75.5689 85.6403 76.1847 85.5648 76.8178C85.5399 77.0287 85.5188 77.2401 85.5027 77.452C85.4861 77.6634 85.4639 77.8837 85.4372 78.1123C85.2003 78.1556 84.8773 78.1705 84.4689 78.1572C84.0606 78.1439 83.681 78.1167 83.3292 78.0745C83.1711 78.0557 83.0312 78.0351 82.9092 78.0113C82.7871 77.9874 82.6833 77.9619 82.5979 77.9342C82.7211 77.2007 82.8454 76.5648 82.9719 76.0272C83.0989 75.4901 83.2277 74.9663 83.3597 74.4558C83.4918 73.9459 83.6272 73.4099 83.7659 72.8473C83.9041 72.2841 84.0567 71.6033 84.2231 70.8027L84.2453 70.6185C84.308 70.0914 84.2226 69.6936 83.9868 69.4245C83.7515 69.1559 83.4496 68.9994 83.0806 68.9556C82.8171 68.924 82.523 68.9606 82.1984 69.0644C81.8738 69.1681 81.5586 69.309 81.2528 69.486C80.946 69.6636 80.6597 69.8611 80.3928 70.0792C80.1264 70.2967 79.91 70.5025 79.7441 70.6962C79.6148 71.0374 79.4761 71.4891 79.3291 72.0506C79.182 72.6121 79.035 73.2052 78.8896 73.8294C78.7442 74.4536 78.6033 75.0695 78.469 75.6776C78.3341 76.2852 78.2315 76.8073 78.161 77.2445C78.0883 77.2584 77.9618 77.2745 77.782 77.2883C77.6023 77.3028 77.3914 77.3089 77.1522 77.3022C76.912 77.2961 76.6651 77.28 76.4098 77.2495C76.1546 77.219 75.9221 77.1912 75.7112 77.1663C75.6052 77.1535 75.5137 77.1424 75.4349 77.133C75.355 77.1235 75.2806 77.1147 75.2101 77.1064C75.2334 76.9133 75.3156 76.5221 75.4576 75.929C75.5991 75.3397 75.7711 74.6467 75.9731 73.8472C76.1756 73.051 76.3965 72.2043 76.6379 71.3015C76.8787 70.4038 77.114 69.5499 77.3437 68.7481C77.574 67.9425 77.7732 67.24 77.9435 66.6369C78.1133 66.0288 78.237 65.6243 78.3153 65.4201ZM97.3306 67.6079C97.471 67.6245 97.6691 67.6478 97.9232 67.6789C98.1785 67.7089 98.4443 67.7582 98.7206 67.8315C98.9969 67.9042 99.2649 67.9763 99.523 68.0562C99.7804 68.1361 99.9852 68.2138 100.137 68.2898C99.8492 69.0577 99.6117 69.7729 99.4258 70.4376C99.24 71.1012 99.1173 71.6794 99.0585 72.1709C99.0086 72.5932 99.0108 72.9455 99.0663 73.2279C99.1218 73.5109 99.22 73.7367 99.3598 73.9049C99.5002 74.073 99.6683 74.1956 99.8642 74.2722C100.06 74.3499 100.272 74.4015 100.501 74.4286C100.905 74.4769 101.351 74.4719 101.839 74.4142C102.327 74.3565 102.833 74.225 103.357 74.0203C103.525 73.5104 103.676 73.0249 103.81 72.5688C103.945 72.1121 104.06 71.6716 104.156 71.2377C104.253 70.8038 104.34 70.3732 104.417 69.9449C104.495 69.5221 104.57 69.0727 104.645 68.6005C104.75 68.6127 104.864 68.6266 104.987 68.641C105.11 68.656 105.242 68.6715 105.383 68.6882C105.699 68.7259 106.046 68.767 106.424 68.8124C106.801 68.8574 107.162 68.9406 107.504 69.0616C107.14 70.4665 106.746 71.8669 106.321 73.2646C105.895 74.6622 105.421 75.9911 104.896 77.2517C105.089 77.275 105.287 77.2983 105.489 77.3227C105.691 77.3466 105.889 77.3705 106.082 77.3932C106.609 77.4559 107.128 77.518 107.638 77.5785C108.148 77.6395 108.657 77.7 109.166 77.7611C109.177 77.816 109.168 77.9703 109.138 78.221C109.104 78.5112 109.045 78.8475 108.963 79.2386C108.881 79.6298 108.79 79.9488 108.689 80.1908C107.944 80.0082 107.174 79.8229 106.375 79.6425C105.577 79.4628 104.774 79.3224 103.965 79.2264C103.553 79.9921 103.114 80.684 102.648 81.306C102.182 81.923 101.679 82.4418 101.138 82.8679C100.597 83.289 100.021 83.5992 99.4109 83.7889C98.7994 83.9831 98.1507 84.0397 97.4655 83.9582C96.657 83.8616 95.9956 83.5465 95.4795 83.0127C94.964 82.4789 94.7593 81.7638 94.8664 80.8677C94.9546 80.1297 95.2148 79.5149 95.6482 79.0228C96.0816 78.5306 96.6403 78.1384 97.3256 77.846C98.0109 77.5535 98.7972 77.3533 99.6833 77.2451C100.569 77.1369 101.511 77.0886 102.508 77.1008L103.01 75.7975C102.803 75.8973 102.542 75.9911 102.229 76.0782C101.916 76.1659 101.587 76.233 101.242 76.2813C100.898 76.329 100.559 76.3645 100.227 76.3878C99.8942 76.41 99.6051 76.4072 99.3593 76.3778C99.0424 76.3395 98.6856 76.2702 98.2878 76.1698C97.8899 76.0688 97.5265 75.8646 97.1974 75.5589C96.8678 75.2565 96.617 74.8215 96.4439 74.2566C96.2702 73.6968 96.2397 72.94 96.3529 71.9956C96.4195 71.4335 96.5382 70.775 96.7097 70.0109C96.8806 69.2513 97.0881 68.4479 97.3306 67.6079ZM98.2012 81.372C98.8693 81.4519 99.4869 81.245 100.053 80.7511C100.621 80.2573 101.125 79.6536 101.567 78.9401C100.389 78.7992 99.3953 78.8369 98.5852 79.0566C97.7745 79.2764 97.3312 79.7047 97.2551 80.3417C97.183 80.9437 97.4987 81.2882 98.2012 81.372ZM49.8858 88.1423C49.6344 89.0528 49.3991 89.9067 49.1794 90.7007C48.9602 91.4941 48.7566 92.3025 48.5696 93.127C48.3815 93.951 48.21 94.831 48.053 95.7748C47.896 96.718 47.7473 97.7789 47.6069 98.9563C47.4781 98.9852 47.2889 99.0029 47.0387 99.009C46.7895 99.0101 46.5237 98.9962 46.2419 98.963C45.9611 98.9291 45.6798 98.8958 45.399 98.862C45.1177 98.8287 44.8807 98.8004 44.6871 98.7776C44.7542 98.215 44.8735 97.512 45.0466 96.6592C45.2192 95.8114 45.4245 94.8776 45.6609 93.8672C45.8967 92.8535 46.157 91.7965 46.4405 90.6901C46.7235 89.5877 47.0126 88.5079 47.3083 87.447C47.6041 86.3912 47.896 85.3969 48.1845 84.4731C48.4736 83.5448 48.7388 82.7436 48.9808 82.0589C49.1561 82.08 49.357 82.1133 49.5834 82.1577C49.8103 82.2032 50.0384 82.2659 50.2709 82.338C50.5028 82.4102 50.7209 82.4856 50.9267 82.5544C51.1321 82.6238 51.3019 82.697 51.4361 82.7664C51.3085 83.0904 51.1676 83.4877 51.0133 83.9593C50.8591 84.4309 50.6987 84.9153 50.5322 85.4124C51.1565 84.8093 51.8706 84.351 52.6746 84.0375C53.4787 83.7229 54.2405 83.6097 54.9613 83.6952C56.121 83.8333 57.0099 84.3 57.6281 85.0956C58.2462 85.8913 58.4621 87.0709 58.2756 88.635C58.2018 89.2503 58.0553 89.8834 57.8351 90.5343C58.77 90.9127 59.5619 91.3327 60.2116 91.7937C60.8603 92.2537 61.3219 92.6072 61.5955 92.8541C61.5478 92.955 61.469 93.0888 61.3608 93.2536C61.2515 93.4189 61.1338 93.5876 61.0062 93.759C60.8792 93.9316 60.7438 94.0892 60.6023 94.2329C60.4602 94.3766 60.3304 94.4942 60.2122 94.5874C59.892 94.2811 59.4298 93.9371 58.825 93.5532C58.2201 93.1687 57.5804 92.8208 56.904 92.5084C56.5949 93.0061 56.2431 93.4588 55.8463 93.8661C55.4513 94.2734 55.0218 94.6185 54.5607 94.902C54.0985 95.1861 53.6063 95.3947 53.0819 95.5279C52.5581 95.6616 52.0149 95.6943 51.4528 95.6272C51.207 95.5978 50.9523 95.5273 50.6893 95.4164C50.4262 95.3043 50.1876 95.1384 49.9729 94.9165C49.7593 94.6951 49.5923 94.4121 49.4735 94.0681C49.3536 93.7241 49.3231 93.3063 49.3814 92.8141C49.4385 92.3392 49.5984 91.8997 49.8603 91.4941C50.1222 91.0891 50.4939 90.7412 50.9739 90.451C51.4544 90.1608 52.0398 89.9544 52.7318 89.8318C53.4243 89.7097 54.2355 89.7036 55.1672 89.8152L55.3253 89.8335C55.4285 89.4184 55.5084 88.9734 55.5645 88.499C55.6383 87.8837 55.5512 87.3433 55.3037 86.8772C55.0562 86.4106 54.625 86.1409 54.0097 86.0677C53.694 86.03 53.351 86.0611 52.9832 86.1587C52.6147 86.2575 52.2496 86.4056 51.8878 86.6031C51.5255 86.8007 51.1687 87.0298 50.8163 87.2912C50.4645 87.5519 50.1538 87.836 49.8858 88.1423ZM51.9511 93.4683C52.39 93.5204 52.8455 93.4012 53.3166 93.1099C53.7883 92.8186 54.2144 92.3481 54.5945 91.6983C54.5069 91.6878 54.4325 91.6745 54.3726 91.6584C54.3115 91.6423 54.2466 91.6301 54.1762 91.6218C53.3327 91.5208 52.6685 91.5979 52.1836 91.8515C51.6986 92.1061 51.4378 92.3908 51.4001 92.7076C51.3684 92.9706 51.4128 93.1592 51.5332 93.2713C51.6531 93.3834 51.7924 93.4494 51.9511 93.4683ZM62.2664 84.5397C62.3718 84.5524 62.5299 84.5713 62.7413 84.5962C62.9516 84.6212 63.1786 84.6662 63.4194 84.735C63.6608 84.8038 63.9066 84.8731 64.1574 84.9391C64.4071 85.009 64.6257 85.0839 64.8122 85.1638C64.7406 85.3159 64.6784 85.4596 64.6268 85.5966C64.5747 85.7326 64.522 85.8779 64.4681 86.0322C64.4138 86.1859 64.3572 86.3618 64.2978 86.5599C64.239 86.7579 64.1657 86.9937 64.0797 87.2684C64.3178 87.0653 64.603 86.8412 64.9354 86.5959C65.2677 86.3496 65.6406 86.136 66.0546 85.954C66.4685 85.7714 66.9263 85.6299 67.4285 85.5295C67.9306 85.4291 68.4716 85.4135 69.052 85.4823C69.2451 85.5057 69.441 85.5423 69.6402 85.5928C69.8389 85.6427 70.0508 85.6998 70.275 85.762C70.2539 85.9379 70.2151 86.1515 70.1579 86.4034C70.1013 86.6547 70.0347 86.9144 69.9587 87.1818C69.8822 87.4482 69.7923 87.7184 69.6879 87.9914C69.5847 88.2638 69.476 88.5007 69.3633 88.701C69.1037 88.6344 68.8434 88.5723 68.5832 88.5146C68.3229 88.4563 68.0693 88.4131 67.8235 88.3836C66.9623 88.2805 66.1506 88.3265 65.3876 88.5207C64.6246 88.7149 63.9793 89.0839 63.451 89.6271C63.1603 90.7151 62.8856 91.8625 62.6259 93.0704C62.3657 94.2778 62.1698 95.4352 62.0378 96.5427C61.8047 96.5505 61.4573 96.5488 60.9957 96.5388C60.5335 96.5283 60.1178 96.5005 59.7488 96.4567C59.5025 96.4278 59.3643 96.3935 59.3332 96.3535C59.3022 96.3141 59.3005 96.1804 59.3277 95.9518C59.4137 95.2316 59.5746 94.3289 59.8127 93.2342C60.049 92.1433 60.3104 91.0386 60.5962 89.9145C60.8808 88.7942 61.176 87.7422 61.4795 86.7668C61.7836 85.7875 62.0455 85.0479 62.2664 84.5397ZM76.6146 94.0303C76.2877 94.5258 75.9082 95.0158 75.4765 95.4985C75.0442 95.9823 74.5792 96.4073 74.081 96.7757C73.5827 97.1442 73.0666 97.4349 72.5334 97.6474C71.9996 97.8599 71.4608 97.9343 70.9165 97.8688C70.0375 97.7639 69.4344 97.4027 69.107 96.7841C68.7801 96.166 68.6758 95.3559 68.7957 94.3544C68.8373 94.0026 68.9255 93.5593 69.0615 93.0222C69.1969 92.4862 69.3533 91.9169 69.532 91.3144C69.7112 90.7118 69.8993 90.1059 70.0969 89.4972C70.2939 88.8874 70.4764 88.3304 70.6434 87.8244C70.8116 87.3189 70.9597 86.8955 71.0896 86.5543C71.2194 86.2131 71.2982 86 71.326 85.914C71.4841 85.9334 71.6889 85.9706 71.9408 86.0272C72.1927 86.0843 72.4485 86.1459 72.7076 86.2131C72.9668 86.2791 73.2153 86.3623 73.4534 86.4622C73.6909 86.5621 73.8845 86.6564 74.0343 86.7452C73.8052 87.3233 73.5555 87.9581 73.2858 88.6477C73.0161 89.3374 72.7664 90.0155 72.5356 90.6835C72.3037 91.351 72.1006 91.9724 71.9252 92.5489C71.7488 93.1248 71.6417 93.5804 71.6017 93.9138C71.5179 94.6163 71.7571 95.0013 72.3198 95.0685C72.5478 95.0962 72.802 95.0552 73.0833 94.9459C73.3629 94.8365 73.657 94.6895 73.9644 94.5031C74.2718 94.3172 74.5693 94.1025 74.8561 93.8606C75.1436 93.6192 75.401 93.369 75.6274 93.1104C75.8083 93.2391 76.007 93.4006 76.225 93.5965C76.4425 93.7918 76.5718 93.936 76.6146 94.0303ZM74.3035 81.3504C74.7346 81.4725 75.0337 81.6872 75.2024 81.9918C75.3711 82.2975 75.4371 82.6082 75.3988 82.9251C75.3467 83.3639 75.1347 83.7573 74.7635 84.1058C74.3928 84.4531 73.9078 84.5912 73.3108 84.5197C72.8885 84.4697 72.5506 84.3138 72.297 84.0519C72.0429 83.79 71.9485 83.3867 72.0135 82.8413C72.064 82.4196 72.2482 82.0362 72.5656 81.6911C72.8824 81.3459 73.3313 81.2078 73.9112 81.2766C73.9816 81.2849 74.0477 81.2932 74.1093 81.3004C74.1703 81.3077 74.2352 81.3243 74.3035 81.3504ZM77.4142 86.4267C77.5373 86.4411 77.7082 86.4617 77.928 86.4877C78.1477 86.5138 78.3869 86.5604 78.646 86.6314C78.9051 86.7025 79.1637 86.7735 79.4217 86.8528C79.6792 86.9327 79.9017 87.0126 80.0881 87.0931C80.0044 87.3505 79.925 87.639 79.8512 87.9603C79.7774 88.281 79.6664 88.6822 79.5205 89.1638C80.7157 87.8099 82.0868 87.2246 83.6327 87.4088C84.3008 87.4887 84.8418 87.7711 85.2563 88.2572C85.6708 88.7432 85.834 89.3557 85.7457 90.0931C85.7252 90.269 85.7002 90.4 85.6719 90.486C86.4909 89.6032 87.3876 88.9929 88.3637 88.6544C89.3397 88.3165 90.3024 88.2044 91.2513 88.3176C92.042 88.4119 92.6729 88.7277 93.1435 89.2692C93.6129 89.8113 93.7893 90.5759 93.6711 91.5646C93.6107 92.0695 93.4897 92.5633 93.3066 93.0538C93.1229 93.5443 92.9254 94.0065 92.7123 94.4487C92.4992 94.8909 92.3067 95.3049 92.1363 95.6905C91.9654 96.075 91.8639 96.4057 91.8306 96.6831C91.804 96.9073 91.8389 97.1031 91.9355 97.2657C92.032 97.4244 92.1946 97.5198 92.4232 97.547C92.704 97.5803 93.0047 97.527 93.3243 97.3866C93.644 97.2468 93.9503 97.0693 94.2432 96.8545C94.5362 96.6398 94.8137 96.4106 95.0739 96.1654C95.3352 95.9202 95.5483 95.7005 95.7137 95.5063C95.8618 95.6133 96.0388 95.772 96.2453 95.984C96.4517 96.1959 96.6104 96.3618 96.7202 96.4817C96.4861 96.8107 96.1792 97.2063 95.8036 97.669C95.4274 98.1323 94.984 98.5651 94.4724 98.9668C93.9608 99.3697 93.3876 99.6976 92.7511 99.9517C92.1147 100.206 91.4366 100.29 90.7158 100.204C90.101 100.13 89.6177 99.8452 89.267 99.3491C88.9163 98.8531 88.7887 98.2006 88.8853 97.3922C88.938 96.9528 89.049 96.5072 89.2188 96.055C89.3891 95.6033 89.5744 95.1661 89.7759 94.7444C89.9784 94.3233 90.1604 93.9127 90.3241 93.5132C90.4872 93.1143 90.5893 92.7475 90.6287 92.4141C90.6898 91.9042 90.6365 91.528 90.4695 91.2849C90.3024 91.0425 89.9817 90.8927 89.5073 90.8366C89.2082 90.8006 88.8781 90.8411 88.5168 90.9587C88.155 91.0763 87.7977 91.2694 87.4448 91.5391C87.0919 91.8093 86.7573 92.1477 86.441 92.5561C86.1253 92.9639 85.8545 93.4394 85.6298 93.9832C85.3285 94.7134 85.1115 95.3781 84.9772 95.9768C84.8435 96.5754 84.7386 97.1913 84.6632 97.8244C84.6382 98.0353 84.6177 98.2461 84.601 98.4586C84.5849 98.67 84.5627 98.8903 84.5355 99.1189C84.2986 99.1621 83.9762 99.1771 83.5673 99.1638C83.1594 99.1505 82.7799 99.1233 82.4275 99.0811C82.2699 99.0623 82.1301 99.0412 82.0075 99.0179C81.886 98.994 81.7822 98.9685 81.6967 98.9408C81.8194 98.2072 81.9442 97.5714 82.0702 97.0337C82.1978 96.4961 82.3265 95.9729 82.4586 95.4624C82.5907 94.9525 82.7261 94.416 82.8642 93.8539C83.0029 93.2908 83.1555 92.6099 83.322 91.8093L83.3442 91.6251C83.4069 91.0974 83.3209 90.7001 83.0851 90.431C82.8504 90.1625 82.5479 90.006 82.1789 89.9622C81.9154 89.9306 81.6213 89.9672 81.2972 90.0709C80.9726 90.1741 80.6574 90.3156 80.3511 90.4926C80.0448 90.6696 79.758 90.8677 79.4916 91.0852C79.2253 91.3033 79.0089 91.5091 78.843 91.7028C78.7131 92.044 78.5744 92.4956 78.4274 93.0571C78.2809 93.6186 78.1338 94.2118 77.9885 94.836C77.8425 95.4602 77.7021 96.0761 77.5673 96.6836C77.4325 97.2918 77.3304 97.8139 77.2599 98.2511C77.1872 98.2644 77.0607 98.2811 76.8803 98.2949C76.7006 98.3094 76.4903 98.3149 76.2506 98.3088C76.0108 98.3027 75.7634 98.2866 75.5087 98.2561C75.2534 98.2256 75.0209 98.1978 74.8095 98.1729C74.7041 98.1601 74.612 98.149 74.5332 98.1396C74.4533 98.1301 74.3795 98.1212 74.309 98.1129C74.3318 97.9198 74.4144 97.5287 74.5565 96.9355C74.6974 96.3463 74.8694 95.6533 75.072 94.8537C75.274 94.0575 75.4954 93.2064 75.7367 92.3081C75.9775 91.4059 76.2128 90.5564 76.442 89.7547C76.6723 88.949 76.8715 88.2466 77.0418 87.6435C77.2122 87.0354 77.3359 86.6309 77.4142 86.4267ZM103.475 92.5289C103.513 92.2127 103.438 91.9497 103.248 91.7399C103.06 91.5302 102.754 91.4003 102.332 91.3499C101.876 91.2955 101.406 91.351 100.923 91.5163C100.44 91.6817 99.9929 91.9491 99.5834 92.3186C99.1739 92.6887 98.8205 93.1498 98.5225 93.7024C98.2251 94.2551 98.0331 94.892 97.9476 95.6122C97.9371 95.6999 97.9277 95.7792 97.9193 95.8497C97.911 95.9196 97.9099 95.9995 97.9171 96.09C98.4792 96.0145 99.0741 95.8847 99.7016 95.701C100.329 95.5179 100.91 95.2843 101.443 94.9997C101.975 94.7156 102.431 94.3694 102.81 93.9599C103.189 93.551 103.41 93.0732 103.475 92.5289ZM108.561 96.9589C108.2 97.4499 107.732 98.0047 107.16 98.6223C106.587 99.2409 105.914 99.8019 105.141 100.306C104.368 100.811 103.5 101.216 102.537 101.52C101.573 101.824 100.53 101.909 99.4042 101.774C98.6318 101.682 97.9532 101.463 97.3711 101.117C96.7885 100.772 96.3152 100.332 95.9506 99.7986C95.5866 99.2654 95.3341 98.66 95.1915 97.9837C95.05 97.3078 95.0234 96.5915 95.1133 95.8358C95.2515 94.6762 95.5672 93.6397 96.0594 92.727C96.551 91.8143 97.158 91.063 97.8794 90.471C98.6002 89.8801 99.4092 89.4512 100.305 89.1832C101.202 88.9157 102.115 88.8375 103.046 88.949C103.644 89.0201 104.152 89.1699 104.571 89.3985C104.989 89.626 105.321 89.9023 105.568 90.2257C105.815 90.5487 105.981 90.9077 106.068 91.301C106.154 91.6939 106.175 92.0845 106.129 92.4712C106.031 93.2969 105.716 94.0303 105.184 94.6712C104.654 95.3115 104.009 95.863 103.25 96.3246C102.49 96.7868 101.666 97.1564 100.778 97.4338C99.8892 97.7106 99.0391 97.8899 98.2273 97.9714C98.2878 98.2106 98.4898 98.4614 98.8327 98.7249C99.1756 98.989 99.6811 99.161 100.349 99.2404C101.017 99.3203 101.691 99.2715 102.371 99.0939C103.052 98.9169 103.701 98.6644 104.319 98.3376C104.938 98.0103 105.518 97.6291 106.06 97.1947C106.602 96.7602 107.077 96.3269 107.485 95.8941C107.534 95.9363 107.606 96.0023 107.702 96.0938C107.797 96.1859 107.902 96.2825 108.015 96.3851C108.127 96.4878 108.236 96.5899 108.339 96.6914C108.443 96.793 108.517 96.8817 108.561 96.9589Z" fill="white"/>
</svg>
