<svg width="160" height="136" viewBox="0 0 160 136" fill="none" xmlns="http://www.w3.org/2000/svg">
<path fill-rule="evenodd" clip-rule="evenodd" d="M22.3957 99.7369C21.2144 101.955 19.9725 104.107 18.7962 105.974C15.7399 110.826 13.128 113.761 10.9779 115.739C8.8277 117.717 7.13974 118.738 6.13984 119.314C5.13993 119.891 4.82865 120.021 5.64821 120.645C6.46777 121.27 8.41874 122.387 11.3907 123.141C14.3621 123.896 18.3551 124.286 22.6493 123.935C26.9436 123.584 31.5397 122.491 36.441 120.028C38.4136 119.037 40.4356 117.824 42.3494 116.254C43.8531 123.871 48.9042 130.379 56.6171 133.346C69.5409 138.317 85.041 131.469 91.2358 118.05C92.2035 115.957 92.8854 113.826 93.301 111.703L93.5191 111.97C103.288 123.629 120.23 126.901 131.358 119.279C142.488 111.658 143.589 96.026 133.819 84.3658C132.294 82.5471 130.595 80.9324 128.772 79.5314L129.133 79.4954C145.097 77.7354 156.585 66.0986 154.788 53.5052C152.994 40.9112 138.596 32.1274 122.63 33.8862C120.14 34.1614 117.76 34.6769 115.521 35.3982L115.662 35.0958C121.857 21.6773 116.402 6.76855 103.478 1.79653C90.5549 -3.17435 75.0553 3.67471 68.8595 17.0932C67.8929 19.1861 67.2109 21.3161 66.7964 23.4395L66.5773 23.1726C56.808 11.5141 39.8657 8.24109 28.7375 15.8642C17.6082 23.4856 16.5067 39.1168 26.2782 50.7769C27.802 52.5963 29.501 54.2103 31.3244 55.6113L30.9631 55.6468C14.9986 57.4074 3.51079 69.0448 5.30751 81.6376C6.50273 90.0225 13.2845 96.7168 22.3957 99.7369Z" fill="#FF47C2"/>
<path fill-rule="evenodd" clip-rule="evenodd" d="M52.9583 32.5229C52.9578 34.0821 51.0157 35.3455 48.6197 35.3455C47.8506 35.3455 47.1282 35.2151 46.5017 34.9865L46.4573 35.0919C47.0566 35.3732 47.6536 35.7893 48.1924 36.3281C49.8871 38.0226 50.3665 40.2892 49.2645 41.3917C48.1619 42.4936 45.8947 42.0142 44.2006 40.3196C43.6568 39.7759 43.2379 39.1728 42.9566 38.5686L42.8506 38.6118C43.0753 39.2344 43.2035 39.9501 43.2035 40.7125C43.2035 43.1083 41.94 45.0503 40.3808 45.0508C38.8216 45.0503 37.5581 43.1083 37.5581 40.7125C37.5581 39.9435 37.6885 39.221 37.9171 38.5946L37.8117 38.5502C37.5303 39.1495 37.1142 39.7465 36.5754 40.2852C34.8808 41.9797 32.6141 42.4592 31.5115 41.3572C30.4095 40.2548 30.8889 37.9876 32.5835 36.2937C33.1273 35.7499 33.7305 35.331 34.3348 35.0497L34.2915 34.9437C33.6689 35.1685 32.9531 35.2966 32.1907 35.2966C29.7947 35.2966 27.8526 34.0332 27.8521 32.4741C27.8526 30.915 29.7947 29.6516 32.1907 29.6516C32.9598 29.6516 33.6822 29.782 34.3087 30.0106L34.3531 29.9051C33.7538 29.6238 33.1567 29.2077 32.618 28.6689C30.9233 26.9744 30.4439 24.7079 31.5459 23.6054C32.6485 22.5035 34.9157 22.9829 36.6098 24.6774C37.1536 25.2211 37.5725 25.8243 37.8538 26.4285L37.9598 26.3852C37.7351 25.7627 37.6069 25.0464 37.6069 24.2846C37.6069 21.8887 38.8704 19.9462 40.4296 19.9462C41.9888 19.9462 43.2523 21.8887 43.2523 24.2846C43.2523 25.0536 43.1219 25.776 42.8933 26.4024L42.9987 26.4468C43.2801 25.8476 43.6962 25.2506 44.235 24.7118C45.9296 23.0173 48.1963 22.5379 49.2989 23.6398C50.4009 24.7423 49.9215 27.0094 48.2269 28.7034C47.6831 29.2471 47.0799 29.666 46.4756 29.9473L46.5189 30.0533C47.1415 29.8286 47.8573 29.7004 48.6197 29.7004C51.0157 29.7004 52.9578 30.9638 52.9583 32.5229ZM40.4052 27.6036C43.1086 27.6036 45.3004 29.7953 45.3004 32.4985C45.3004 35.2017 43.1086 37.3934 40.4052 37.3934C37.7018 37.3934 35.51 35.2017 35.51 32.4985C35.51 29.7953 37.7018 27.6036 40.4052 27.6036Z" fill="white"/>
<path fill-rule="evenodd" clip-rule="evenodd" d="M116.885 101.394C116.885 102.154 115.939 102.769 114.772 102.769C114.398 102.769 114.046 102.705 113.741 102.594L113.719 102.645C114.011 102.782 114.302 102.985 114.564 103.247C115.389 104.073 115.623 105.177 115.086 105.714C114.549 106.25 113.445 106.017 112.62 105.192C112.355 104.927 112.151 104.633 112.014 104.339L111.962 104.36C112.072 104.663 112.134 105.012 112.134 105.383C112.134 106.55 111.519 107.496 110.759 107.496C110 107.496 109.384 106.55 109.384 105.383C109.384 105.008 109.448 104.657 109.56 104.352L109.508 104.33C109.371 104.622 109.169 104.913 108.906 105.175C108.08 106 106.977 106.234 106.44 105.697C105.903 105.16 106.137 104.056 106.962 103.231C107.227 102.966 107.521 102.762 107.815 102.625L107.794 102.573C107.491 102.683 107.142 102.745 106.77 102.745C105.603 102.745 104.657 102.13 104.657 101.37C104.657 100.611 105.603 99.9954 106.77 99.9954C107.145 99.9954 107.497 100.059 107.802 100.171L107.824 100.119C107.532 99.9821 107.241 99.7796 106.978 99.5171C106.153 98.6915 105.92 97.588 106.456 97.0509C106.993 96.5143 108.098 96.7479 108.923 97.573C109.187 97.8377 109.392 98.1317 109.529 98.4258L109.58 98.4047C109.471 98.1017 109.408 97.7528 109.408 97.3816C109.408 96.2147 110.024 95.2687 110.783 95.2687C111.543 95.2687 112.158 96.2147 112.158 97.3816C112.158 97.7561 112.095 98.1078 111.983 98.413L112.035 98.4346C112.172 98.1428 112.374 97.8521 112.637 97.5896C113.462 96.7646 114.566 96.531 115.103 97.0675C115.64 97.6046 115.406 98.7087 114.581 99.5338C114.316 99.7985 114.022 100.003 113.728 100.14L113.749 100.191C114.052 100.082 114.401 100.019 114.772 100.019C115.939 100.019 116.885 100.635 116.885 101.394ZM110.771 98.9984C112.088 98.9984 113.155 100.066 113.155 101.382C113.155 102.699 112.088 103.766 110.771 103.766C109.455 103.766 108.387 102.699 108.387 101.382C108.387 100.066 109.455 98.9984 110.771 98.9984Z" fill="white"/>
<path fill-rule="evenodd" clip-rule="evenodd" d="M32.4277 83.1125C32.0515 84.1429 30.4629 84.5107 28.8781 83.9331C28.3698 83.7478 27.9237 83.4876 27.5641 83.1852L27.5098 83.2446C27.8383 83.5747 28.1323 83.9936 28.3587 84.4797C29.0712 86.0088 28.842 87.6229 27.8477 88.0868C26.8528 88.5495 25.4689 87.6862 24.7575 86.1576C24.5289 85.6671 24.3969 85.1672 24.3569 84.7L24.2764 84.7027C24.2748 85.1688 24.1871 85.6726 24.0034 86.177C23.4258 87.7611 22.1224 88.7409 21.0909 88.3653C20.0599 87.9891 19.6925 86.4006 20.2702 84.8165C20.4555 84.3077 20.7158 83.8616 21.0182 83.5026L20.9588 83.4477C20.6286 83.7761 20.2097 84.0708 19.7231 84.2972C18.1944 85.009 16.5796 84.7799 16.1163 83.7856C15.6535 82.7907 16.5169 81.4075 18.0456 80.6956C18.5362 80.467 19.0361 80.3355 19.5033 80.295L19.5006 80.2146C19.0345 80.2129 18.5306 80.1252 18.0262 79.9415C16.442 79.3639 15.4621 78.0606 15.8378 77.0297C16.214 75.9988 17.8026 75.6315 19.3868 76.2085C19.8956 76.3938 20.3418 76.6546 20.7008 76.9565L20.7557 76.8976C20.4272 76.567 20.1326 76.1481 19.9062 75.662C19.1943 74.1329 19.4234 72.5188 20.4178 72.0555C21.4127 71.5922 22.796 72.4555 23.5079 73.9847C23.7365 74.4752 23.8681 74.9745 23.9086 75.4423L23.989 75.439C23.9907 74.9734 24.0784 74.4685 24.262 73.9647C24.8397 72.3806 26.1431 71.4008 27.1741 71.7764C28.205 72.152 28.5724 73.7411 27.9953 75.3252C27.81 75.834 27.5492 76.2801 27.2473 76.6397L27.3061 76.694C27.6368 76.3656 28.0558 76.0715 28.5418 75.8446C30.0711 75.1327 31.6853 75.3618 32.1486 76.3561C32.6119 77.351 31.7485 78.7348 30.2193 79.4461C29.7287 79.6747 29.2288 79.8062 28.7616 79.8467L28.7649 79.9271C29.2305 79.9288 29.7348 80.0165 30.2387 80.2001C31.8234 80.7777 32.8028 82.0811 32.4277 83.1125ZM25.3124 76.8344C27.1003 77.4858 28.0214 79.4633 27.3694 81.2505C26.7179 83.0382 24.7403 83.9592 22.953 83.3078C21.1652 82.6564 20.2441 80.679 20.8955 78.8912C21.547 77.1035 23.5246 76.1825 25.3124 76.8344Z" fill="white"/>
<path fill-rule="evenodd" clip-rule="evenodd" d="M78.0266 113.747C78.026 115.17 76.2543 116.322 74.068 116.322C73.3661 116.322 72.7074 116.204 72.1353 115.995L72.0948 116.092C72.642 116.348 73.1869 116.727 73.6779 117.219C75.2244 118.765 75.6616 120.833 74.6562 121.839C73.6502 122.845 71.5816 122.407 70.0362 120.861C69.5401 120.365 69.1578 119.815 68.9009 119.264L68.8044 119.303C69.0091 119.871 69.1262 120.524 69.1262 121.219C69.1262 123.406 67.9737 125.177 66.551 125.178C65.1283 125.177 63.9758 123.406 63.9758 121.219C63.9758 120.518 64.0945 119.859 64.3032 119.287L64.2066 119.246C63.9502 119.793 63.5707 120.338 63.0791 120.829C61.5326 122.376 59.4646 122.813 58.4586 121.808C57.4531 120.802 57.8909 118.733 59.4368 117.188C59.9329 116.692 60.4833 116.31 61.0343 116.053L60.9949 115.956C60.4273 116.161 59.7742 116.278 59.0784 116.278C56.8921 116.278 55.1204 115.126 55.1198 113.703C55.1204 112.28 56.8921 111.128 59.0784 111.128C59.7803 111.128 60.4389 111.247 61.011 111.455L61.0515 111.359C60.5044 111.102 59.9595 110.723 59.4684 110.231C57.922 108.685 57.4847 106.617 58.4902 105.611C59.4962 104.606 61.5648 105.043 63.1102 106.589C63.6062 107.085 63.9885 107.636 64.2454 108.187L64.342 108.147C64.1372 107.58 64.0202 106.926 64.0202 106.231C64.0202 104.045 65.1727 102.272 66.5954 102.272C68.0181 102.272 69.1706 104.045 69.1706 106.231C69.1706 106.933 69.0518 107.591 68.8432 108.163L68.9398 108.204C69.1961 107.657 69.5757 107.112 70.0673 106.621C71.6138 105.074 73.6818 104.637 74.6878 105.643C75.6933 106.649 75.2555 108.717 73.7095 110.262C73.2135 110.758 72.663 111.141 72.112 111.398L72.1514 111.494C72.7191 111.289 73.3722 111.172 74.068 111.172C76.2543 111.172 78.026 112.325 78.0266 113.747ZM66.5732 109.259C69.0396 109.259 71.0394 111.259 71.0394 113.725C71.0394 116.191 69.0396 118.191 66.5732 118.191C64.1067 118.191 62.1069 116.191 62.1069 113.725C62.1069 111.259 64.1067 109.259 66.5732 109.259Z" fill="white"/>
<path fill-rule="evenodd" clip-rule="evenodd" d="M99.0235 13.8323C99.1012 14.588 98.2234 15.2971 97.0626 15.4164C96.6902 15.4547 96.3335 15.428 96.0183 15.3481L96.0022 15.4014C96.3068 15.5079 96.6164 15.6799 96.9044 15.9141C97.81 16.6504 98.1557 17.7245 97.6768 18.3138C97.198 18.9025 96.0754 18.7832 95.1699 18.0469C94.8797 17.8106 94.646 17.5392 94.4796 17.2607L94.4308 17.2867C94.5706 17.5775 94.6682 17.9176 94.7065 18.2871C94.8264 19.4479 94.3109 20.4516 93.5557 20.5298C92.7999 20.6075 92.0908 19.7298 91.9715 18.569C91.9332 18.1962 91.9599 17.84 92.0398 17.5248L91.9865 17.5087C91.8799 17.8133 91.7079 18.1229 91.4738 18.4109C90.7374 19.3164 89.6632 19.6621 89.0739 19.1832C88.4852 18.7039 88.6045 17.5819 89.3408 16.6764C89.5772 16.3857 89.8485 16.1527 90.1271 15.9862L90.101 15.9374C89.8102 16.0772 89.4701 16.1749 89.1005 16.2132C87.9397 16.3324 86.9359 15.8175 86.8577 15.0624C86.78 14.3067 87.6578 13.5976 88.8187 13.4783C89.1915 13.44 89.5478 13.4666 89.8629 13.5465L89.879 13.4933C89.5744 13.3867 89.2648 13.2148 88.9768 12.9806C88.0712 12.2443 87.7255 11.1701 88.2044 10.5809C88.6838 9.99221 89.8058 10.1115 90.7114 10.8477C91.0021 11.0841 91.2352 11.3555 91.4016 11.634L91.4505 11.6073C91.3106 11.3172 91.213 10.9765 91.1747 10.6075C91.0554 9.44676 91.5703 8.44248 92.3255 8.3648C93.0813 8.28656 93.7904 9.16489 93.9097 10.3256C93.948 10.6979 93.9214 11.0547 93.8415 11.3699L93.8947 11.386C94.0013 11.0813 94.1733 10.7717 94.4074 10.4837C95.1438 9.57824 96.218 9.23259 96.8073 9.71143C97.3961 10.1903 97.2768 11.3127 96.5404 12.2182C96.304 12.5084 96.0327 12.742 95.7541 12.9085L95.7808 12.9573C96.071 12.8175 96.4111 12.7198 96.7807 12.6815C97.9415 12.5617 98.9453 13.0772 99.0235 13.8323ZM92.6962 12.0756C94.0057 11.9408 95.1771 12.8935 95.3125 14.2029C95.4473 15.5123 94.4946 16.6836 93.185 16.819C91.8755 16.9538 90.7041 16.0012 90.5688 14.6917C90.4339 13.3823 91.3867 12.211 92.6962 12.0756Z" fill="white"/>
<path fill-rule="evenodd" clip-rule="evenodd" d="M146.687 61.0423C146.687 61.8019 145.741 62.4172 144.574 62.4172C144.2 62.4172 143.848 62.3534 143.543 62.2418L143.521 62.2935C143.813 62.4305 144.104 62.633 144.366 62.8955C145.191 63.7211 145.425 64.8247 144.888 65.3618C144.351 65.8983 143.247 65.6647 142.422 64.8397C142.157 64.575 141.953 64.281 141.816 63.9869L141.764 64.0079C141.874 64.3109 141.936 64.6599 141.936 65.0311C141.936 66.1979 141.321 67.1439 140.561 67.1439C139.802 67.1439 139.186 66.1979 139.186 65.0311C139.186 64.6566 139.25 64.3048 139.362 63.9996L139.31 63.978C139.173 64.2698 138.97 64.5606 138.708 64.823C137.882 65.6481 136.779 65.8817 136.241 65.3451C135.705 64.8081 135.938 63.7039 136.764 62.8788C137.028 62.6142 137.322 62.41 137.616 62.2729L137.595 62.2213C137.292 62.3306 136.943 62.3933 136.572 62.3933C135.405 62.3933 134.459 61.778 134.459 61.0184C134.459 60.2588 135.405 59.6435 136.572 59.6435C136.947 59.6435 137.299 59.7073 137.604 59.8188L137.625 59.7672C137.333 59.6302 137.043 59.4276 136.78 59.1652C135.955 58.3396 135.722 57.236 136.258 56.6989C136.795 56.1623 137.899 56.3959 138.725 57.221C138.989 57.4857 139.193 57.7797 139.331 58.0738L139.382 58.0527C139.273 57.7498 139.21 57.4008 139.21 57.0296C139.21 55.8627 139.825 54.9167 140.585 54.9167C141.345 54.9167 141.96 55.8627 141.96 57.0296C141.96 57.4041 141.896 57.7559 141.785 58.0611L141.836 58.0827C141.973 57.7909 142.176 57.5001 142.438 57.2376C143.264 56.4126 144.368 56.179 144.905 56.7155C145.441 57.2526 145.208 58.3568 144.383 59.1818C144.118 59.4465 143.824 59.6507 143.53 59.7877L143.551 59.8393C143.854 59.73 144.203 59.6674 144.574 59.6674C145.741 59.6674 146.687 60.2827 146.687 61.0423ZM140.573 58.6464C141.89 58.6464 142.957 59.714 142.957 61.0301C142.957 62.3467 141.89 63.4143 140.573 63.4143C139.257 63.4143 138.189 62.3467 138.189 61.0301C138.189 59.714 139.257 58.6464 140.573 58.6464Z" fill="white"/>
<path fill-rule="evenodd" clip-rule="evenodd" d="M40.4057 37.3935C43.1091 37.3935 45.3009 35.2018 45.3009 32.4986C45.3009 29.7954 43.1091 27.6037 40.4057 27.6037C37.7023 27.6037 35.5105 29.7954 35.5105 32.4986C35.5105 35.2018 37.7023 37.3935 40.4057 37.3935Z" fill="#FFDD59"/>
<path fill-rule="evenodd" clip-rule="evenodd" d="M20.8963 78.8912C20.2443 80.6789 21.1654 82.6559 22.9533 83.3073C24.7406 83.9592 26.7182 83.0381 27.3696 81.2499C28.0216 79.4633 27.1005 77.4858 25.3121 76.8344C23.5248 76.1825 21.5478 77.1035 20.8963 78.8912Z" fill="#FFDD59"/>
<path fill-rule="evenodd" clip-rule="evenodd" d="M90.5699 14.6912C90.7047 16.0017 91.8755 16.9539 93.1856 16.8185C94.4957 16.6837 95.4479 15.5129 95.3125 14.2024C95.1776 12.8929 94.0068 11.9408 92.6968 12.0762C91.3867 12.211 90.4345 13.3818 90.5699 14.6912Z" fill="#FFDD59"/>
<path fill-rule="evenodd" clip-rule="evenodd" d="M140.572 58.6464C139.255 58.6464 138.188 59.7134 138.188 61.0301C138.188 62.3473 139.255 63.4143 140.572 63.4143C141.889 63.4143 142.956 62.3473 142.956 61.0301C142.956 59.7134 141.889 58.6464 140.572 58.6464Z" fill="#FFDD59"/>
<path fill-rule="evenodd" clip-rule="evenodd" d="M113.156 101.382C113.156 100.065 112.089 98.9983 110.771 98.9983C109.455 98.9983 108.388 100.065 108.388 101.382C108.388 102.699 109.455 103.766 110.771 103.766C112.089 103.766 113.156 102.699 113.156 101.382Z" fill="#FFDD59"/>
<path fill-rule="evenodd" clip-rule="evenodd" d="M71.0397 113.725C71.0397 111.258 69.0405 109.259 66.5735 109.259C64.1065 109.259 62.1072 111.258 62.1072 113.725C62.1072 116.192 64.1065 118.191 66.5735 118.191C69.0405 118.191 71.0397 116.192 71.0397 113.725Z" fill="#FFDD59"/>
<path d="M55.9586 59.4037C55.9375 59.2661 55.9131 59.052 55.8843 58.7618C55.8537 58.4666 55.8232 58.1398 55.791 57.7769C55.7589 57.4129 55.7239 57.0379 55.6862 56.6561C55.6479 56.2694 55.6079 55.9082 55.5663 55.572C55.2617 55.6541 54.8649 55.7606 54.3766 55.8915C53.8889 56.0225 53.3812 56.159 52.8551 56.3005C52.3291 56.4419 51.8258 56.5773 51.3447 56.7066C50.8648 56.8359 50.4869 56.9369 50.2128 57.0107C50.2561 57.3547 50.3043 57.7181 50.3582 58.0998C50.4125 58.486 50.4653 58.8483 50.5163 59.1901C50.5674 59.5324 50.6145 59.8299 50.6595 60.0879C50.7055 60.3492 50.7344 60.5334 50.7488 60.6482C50.6312 60.6965 50.4847 60.7603 50.3077 60.8324C50.1312 60.9046 49.9414 60.9756 49.74 61.0461C49.5375 61.1171 49.3372 61.1914 49.1358 61.2619C48.9332 61.3324 48.7568 61.3884 48.6036 61.4295C48.451 61.4705 48.35 61.4894 48.3007 61.4866C48.2368 61.1276 48.1403 60.5728 48.0132 59.826C47.885 59.0758 47.743 58.2269 47.5871 57.2831C47.4311 56.336 47.2747 55.36 47.1171 54.3469C46.9606 53.3387 46.8124 52.3932 46.6743 51.5144C46.5372 50.6394 46.4257 49.8886 46.3402 49.2655C46.2548 48.6469 46.2148 48.2529 46.2193 48.0881C46.3641 48.016 46.5345 47.9539 46.7331 47.9006C46.9318 47.8474 47.1376 47.7918 47.3507 47.7347C47.6559 47.6526 47.9644 47.5694 48.2773 47.4856C48.5903 47.4012 48.8672 47.3513 49.1086 47.3358C49.1341 47.7375 49.1757 48.2252 49.2317 48.7989C49.2878 49.3726 49.3527 49.9929 49.4254 50.6604C49.4986 51.3279 49.5774 52.0176 49.6629 52.7306C49.7483 53.4435 49.8338 54.1404 49.9181 54.8207C50.1651 54.7053 50.4913 54.5649 50.8986 54.4062C51.3054 54.2475 51.7432 54.081 52.2137 53.9135C52.6837 53.7465 53.1731 53.5739 53.6808 53.3925C54.1885 53.2149 54.679 53.0629 55.1518 52.9359C55.063 52.1785 54.9704 51.4228 54.8738 50.6677C54.7767 49.9131 54.6913 49.2123 54.6152 48.5664C54.5387 47.9161 54.4665 47.3591 54.3983 46.8914C54.3284 46.4192 54.2773 46.0935 54.2435 45.9065C54.4077 45.846 54.6191 45.7805 54.8782 45.7112C55.1374 45.6418 55.3971 45.5719 55.6562 45.502C55.9608 45.4199 56.2394 45.3455 56.4913 45.2773C56.7427 45.2102 56.9263 45.1774 57.0406 45.1791C57.135 45.7711 57.2315 46.4807 57.3314 47.3086C57.4313 48.1364 57.5334 49.0164 57.6366 49.9497C57.7392 50.879 57.8402 51.8167 57.9384 52.7594C58.0361 53.7016 58.1232 54.5738 58.202 55.3828C58.2802 56.1917 58.3452 56.8897 58.3973 57.4801C58.4495 58.0677 58.4806 58.4721 58.4922 58.6979C58.1992 58.8256 57.8696 58.9387 57.504 59.0369C57.1838 59.123 56.878 59.2051 56.589 59.2827C56.2988 59.361 56.0885 59.4009 55.9586 59.4037ZM72.6534 49.7771C72.8415 49.8076 73.0407 49.8647 73.251 49.9474C73.4613 50.0301 73.6383 50.1256 73.782 50.2343C73.6511 50.8413 73.4763 51.4244 73.2582 51.9815C73.0402 52.5386 72.7916 53.0435 72.5119 53.4941C72.2328 53.9463 71.9149 54.3296 71.5581 54.6459C71.2018 54.9627 70.8173 55.1763 70.4056 55.2873C69.8107 55.4471 69.3152 55.3389 68.9202 54.9627C68.5245 54.5866 68.241 54.0783 68.0684 53.438C68.0479 53.3614 68.0262 53.2815 68.004 53.1972C67.9813 53.114 67.9652 53.0241 67.9558 52.9281C67.8714 53.3437 67.7416 53.7587 67.5668 54.1731C67.3926 54.5887 67.1695 54.9755 66.8981 55.3345C66.6263 55.694 66.3083 56.0003 65.9426 56.2533C65.5775 56.5074 65.1664 56.6955 64.7086 56.8187C64.2508 56.9418 63.7925 56.9702 63.3341 56.9058C62.8747 56.8415 62.4391 56.6805 62.0274 56.427C61.6151 56.1695 61.2489 55.81 60.9282 55.3489C60.6085 54.8911 60.3605 54.3324 60.1841 53.676C59.9066 52.6429 59.8145 51.678 59.9111 50.7897C60.0065 49.8975 60.2284 49.1102 60.5741 48.42C60.9204 47.7297 61.3643 47.161 61.9042 46.7055C62.4441 46.2488 63.0112 45.9414 63.606 45.7816C64.3385 45.5846 65.0165 45.5536 65.6413 45.6879C66.2667 45.8227 66.7899 46.0951 67.2106 46.5052C67.1873 46.3565 67.1639 46.195 67.1401 46.013C67.1157 45.8316 67.1001 45.6524 67.0929 45.4743C67.0863 45.2962 67.0863 45.1447 67.0946 45.0237C67.1029 44.9028 67.1451 44.8306 67.2211 44.8101C67.5107 44.7319 67.8703 44.6841 68.2987 44.6669C68.7282 44.6503 69.0838 44.6525 69.3679 44.6742C69.4023 45.1069 69.4279 45.6435 69.4451 46.2849C69.4623 46.9263 69.4872 47.5821 69.52 48.2513C69.5533 48.9215 69.5943 49.5607 69.6432 50.1688C69.692 50.7769 69.7636 51.2569 69.8579 51.6075C69.9439 51.9282 70.0543 52.1718 70.1897 52.34C70.3251 52.5081 70.5143 52.5597 70.759 52.4937C70.9416 52.4448 71.1225 52.3267 71.3012 52.1397C71.4798 51.9527 71.653 51.7307 71.8211 51.4722C71.9887 51.2147 72.1429 50.9362 72.2833 50.6366C72.4237 50.3375 72.5469 50.0512 72.6534 49.7771ZM64.8551 54.3507C65.3123 54.2275 65.6996 53.964 66.0164 53.5601C66.3327 53.1561 66.5913 52.6734 66.7927 52.1125C66.9936 51.5521 67.1351 50.9534 67.2172 50.3175C67.3004 49.6828 67.3293 49.0741 67.3032 48.4921C66.9831 48.1525 66.5769 47.9023 66.083 47.7408C65.5897 47.5788 65.0915 47.5655 64.5882 47.7009C64.2375 47.7952 63.9073 47.9822 63.5983 48.2613C63.2892 48.5409 63.0328 48.896 62.8297 49.3266C62.6261 49.7571 62.5024 50.2526 62.4563 50.813C62.4108 51.3728 62.4763 51.981 62.6527 52.6368C62.8492 53.3692 63.1549 53.8669 63.5694 54.1321C63.9845 54.3968 64.4128 54.4694 64.8551 54.3507ZM74.6477 47.5238C74.742 48.3606 74.8308 49.1468 74.9123 49.877C74.9945 50.6071 75.0943 51.3451 75.2131 52.0897C75.3318 52.8343 75.4811 53.62 75.6648 54.4539C75.8479 55.2879 76.0765 56.2155 76.3512 57.2376C76.2546 57.3047 76.1042 57.3818 75.8989 57.4701C75.6925 57.5538 75.4678 57.631 75.2236 57.6965C74.98 57.7619 74.7359 57.8274 74.4917 57.8934C74.2476 57.9589 74.0412 58.0144 73.8736 58.0593C73.7427 57.5711 73.6078 56.9491 73.4685 56.185C73.3293 55.4255 73.1889 54.5843 73.049 53.6688C72.9087 52.75 72.7727 51.789 72.6401 50.778C72.5086 49.771 72.3893 48.7806 72.2822 47.8035C72.1757 46.8309 72.0874 45.9098 72.0203 45.0493C71.9509 44.1843 71.9043 43.4324 71.8771 42.7855C72.0303 42.7444 72.2073 42.7056 72.4098 42.6673C72.6123 42.629 72.8226 42.6052 73.0391 42.5879C73.2549 42.5708 73.4608 42.5608 73.6539 42.5491C73.8475 42.5386 74.0123 42.5424 74.1466 42.5563C74.1483 42.8665 74.1633 43.2421 74.1921 43.6843C74.221 44.126 74.2493 44.5804 74.2765 45.0476C74.5938 44.3413 75.0328 43.7243 75.5948 43.1972C76.1558 42.6701 76.7496 42.3221 77.3749 42.1546C78.3815 41.8838 79.2732 41.9754 80.0495 42.4287C80.8252 42.8826 81.3956 43.7881 81.7607 45.1458C81.9044 45.679 81.9927 46.2522 82.0265 46.8647C82.9271 46.868 83.7228 46.9524 84.4131 47.1183C85.1034 47.2847 85.6033 47.4245 85.9118 47.5377C85.9063 47.6376 85.8852 47.7741 85.8502 47.9467C85.8147 48.1198 85.7731 48.2984 85.7243 48.4837C85.676 48.668 85.6172 48.8433 85.5473 49.0092C85.4773 49.1751 85.4085 49.316 85.3414 49.4325C84.9752 49.2855 84.478 49.154 83.8493 49.0364C83.2206 48.9193 82.5747 48.8433 81.9117 48.8089C81.8212 49.3238 81.6792 49.8159 81.4861 50.2848C81.2935 50.7536 81.0527 51.182 80.7647 51.5704C80.4767 51.9582 80.1377 52.295 79.7482 52.5797C79.3586 52.8643 78.9197 53.0724 78.4314 53.2033C78.2183 53.261 77.9836 53.2871 77.7289 53.2821C77.4737 53.2771 77.2212 53.2183 76.9699 53.1056C76.7191 52.993 76.4866 52.8143 76.274 52.5691C76.061 52.3238 75.8967 51.9876 75.7824 51.561C75.6709 51.1487 75.6576 50.7314 75.7402 50.3087C75.8224 49.8859 76.0144 49.4742 76.3156 49.0741C76.6175 48.6747 77.0342 48.309 77.5664 47.9783C78.099 47.6471 78.7693 47.3724 79.5778 47.1549L79.7149 47.1183C79.6627 46.7399 79.5806 46.3448 79.4702 45.9331C79.3265 45.3988 79.0751 44.9799 78.715 44.6764C78.3554 44.3723 77.9087 44.2924 77.3749 44.4356C77.1003 44.5094 76.8267 44.6481 76.5548 44.8523C76.2824 45.0565 76.0288 45.3 75.7946 45.5836C75.5599 45.8676 75.3407 46.1767 75.1354 46.5096C74.9307 46.8425 74.7681 47.1804 74.6477 47.5238ZM78.1273 51.2491C78.5086 51.1465 78.8459 50.8962 79.1395 50.499C79.4335 50.1006 79.63 49.5702 79.7293 48.9049C79.6533 48.9254 79.5873 48.9393 79.5318 48.9459C79.4768 48.9526 79.418 48.9643 79.357 48.9804C78.6251 49.1773 78.1002 49.4614 77.7833 49.8331C77.4659 50.2043 77.3444 50.5273 77.4182 50.8019C77.4798 51.0305 77.5791 51.172 77.7162 51.2253C77.8527 51.278 77.9897 51.2863 78.1273 51.2491ZM83.7844 39.9902C83.922 39.953 84.0868 39.9125 84.2805 39.8725C84.4736 39.8292 84.6761 39.7909 84.8875 39.7588C85.0989 39.7221 85.3109 39.69 85.5251 39.665C85.7393 39.64 85.9351 39.6245 86.1132 39.6173C86.116 39.9313 86.1144 40.2753 86.1088 40.6493C86.1016 41.0188 86.1221 41.4139 86.1676 41.8267C86.2919 41.4988 86.4634 41.1792 86.682 40.8668C86.9006 40.5544 87.147 40.2675 87.42 40.0062C87.6924 39.7449 87.9882 39.5179 88.3045 39.3271C88.6208 39.1357 88.9548 38.9925 89.3055 38.8982C89.7328 38.7833 90.16 38.7462 90.5878 38.7872C91.0156 38.8272 91.4202 38.9637 91.8019 39.1967C92.1837 39.4292 92.5294 39.7571 92.8396 40.181C93.1497 40.6044 93.3928 41.1442 93.5692 41.8C93.8028 42.6689 93.9022 43.5417 93.8683 44.4184C93.8339 45.294 93.6697 46.0984 93.3761 46.8314C93.0826 47.5644 92.6686 48.1991 92.1337 48.7356C91.5994 49.2716 90.9507 49.6423 90.1883 49.847C89.5019 50.0318 88.8954 50.0723 88.3688 49.9685C87.8417 49.8642 87.4156 49.6928 87.0898 49.4536C87.1448 49.7821 87.2086 50.1405 87.2807 50.5306C87.3529 50.9201 87.43 51.2996 87.5138 51.6702C87.5964 52.0403 87.6786 52.3899 87.759 52.7206C87.8395 53.0502 87.9105 53.3292 87.9721 53.5584L88.0581 53.8786C87.8389 54.0356 87.5554 54.1976 87.208 54.3646C86.8601 54.5316 86.4956 54.667 86.1138 54.7691C86.0378 54.7896 85.969 54.8085 85.9085 54.8246C85.8469 54.8407 85.7842 54.8495 85.7187 54.8501C85.6133 54.3962 85.4901 53.7998 85.3492 53.0651C85.2082 52.3266 85.0712 51.5127 84.9385 50.6244C84.8048 49.7322 84.6716 48.795 84.5396 47.8168C84.4064 46.8342 84.2866 45.8732 84.1789 44.925C84.0724 43.9801 83.9858 43.0801 83.9198 42.2267C83.8543 41.3734 83.8094 40.6288 83.7844 39.9902ZM86.8252 47.1938C87.0793 47.469 87.43 47.6937 87.8772 47.8679C88.325 48.0415 88.77 48.0698 89.2123 47.9511C89.548 47.8606 89.8709 47.6798 90.1828 47.4079C90.4935 47.136 90.7532 46.7926 90.9602 46.377C91.1671 45.9614 91.3036 45.4793 91.3686 44.9305C91.4335 44.3812 91.3802 43.7864 91.2076 43.1461C90.8309 41.7429 90.0624 41.1969 88.9032 41.5088C88.613 41.5864 88.34 41.7252 88.0831 41.9255C87.8262 42.1252 87.5887 42.3527 87.3712 42.6074C87.1531 42.862 86.9683 43.1323 86.8163 43.4186C86.6642 43.7049 86.5483 43.9728 86.4684 44.2236C86.5305 44.6974 86.5832 45.1985 86.6271 45.7262C86.6709 46.2544 86.7375 46.7438 86.8252 47.1938ZM94.1618 37.617C94.2839 37.5849 94.4554 37.5383 94.6768 37.4789C94.8976 37.4195 95.1345 37.3724 95.3876 37.3407C95.6412 37.3097 95.887 37.2803 96.1267 37.2609C96.3669 37.2414 96.5623 37.2381 96.7126 37.2509C96.7298 37.9821 96.7709 38.6535 96.8375 39.2655C96.9035 39.8775 96.9945 40.3969 97.1094 40.8241C97.2076 41.1897 97.3269 41.481 97.4667 41.6968C97.606 41.9127 97.7625 42.067 97.9339 42.1596C98.1065 42.2523 98.2863 42.2983 98.4744 42.2966C98.662 42.2955 98.8545 42.2678 99.0531 42.2151C99.4038 42.1202 99.7717 41.9682 100.157 41.7584C100.542 41.5487 100.918 41.2718 101.283 40.9284C101.253 40.4501 101.217 39.9979 101.177 39.5746C101.137 39.1523 101.086 38.7489 101.021 38.3578C100.958 37.9661 100.886 37.5804 100.808 37.2004C100.732 36.8242 100.646 36.4269 100.55 36.0107C100.642 35.9863 100.741 35.9592 100.848 35.9309C100.954 35.902 101.068 35.8715 101.191 35.8388C101.465 35.765 101.767 35.684 102.094 35.5957C102.422 35.5075 102.748 35.4571 103.072 35.4432C103.237 36.7276 103.376 38.0188 103.488 39.3182C103.6 40.6166 103.648 41.875 103.631 43.0934C103.8 43.0485 103.971 43.0019 104.146 42.9553C104.322 42.9081 104.494 42.862 104.661 42.8165C105.119 42.6939 105.569 42.5729 106.011 42.4542C106.454 42.3349 106.895 42.2162 107.338 42.0969C107.365 42.139 107.409 42.27 107.467 42.4881C107.535 42.7394 107.599 43.0368 107.661 43.3886C107.722 43.7398 107.753 44.0344 107.75 44.268C107.072 44.364 106.372 44.4666 105.651 44.5826C104.93 44.6991 104.218 44.8495 103.517 45.0376C103.43 45.8094 103.296 46.5285 103.115 47.1982C102.935 47.864 102.691 48.461 102.384 48.9931C102.077 49.5219 101.702 49.9696 101.259 50.3303C100.817 50.6943 100.299 50.9562 99.704 51.1165C99.0026 51.3046 98.3496 51.2636 97.7453 50.9922C97.141 50.7215 96.7343 50.1971 96.5251 49.4192C96.3525 48.7789 96.3647 48.183 96.5601 47.6315C96.7554 47.0805 97.0877 46.5695 97.5583 46.1001C98.0294 45.6296 98.6131 45.203 99.3117 44.819C100.01 44.435 100.774 44.0827 101.603 43.7609L101.587 42.5147C101.448 42.6667 101.263 42.831 101.032 43.0074C100.802 43.1839 100.552 43.3492 100.283 43.5029C100.014 43.6571 99.7445 43.7992 99.4771 43.9284C99.2091 44.0577 98.9688 44.151 98.7552 44.2081C98.4805 44.2825 98.1614 44.3435 97.7985 44.3918C97.4351 44.4406 97.0667 44.3917 96.6927 44.2475C96.3192 44.1065 95.9669 43.8291 95.6362 43.4191C95.306 43.0135 95.0297 42.3965 94.8094 41.5765C94.6784 41.0887 94.5575 40.5039 94.4459 39.8143C94.335 39.1285 94.2395 38.3938 94.1618 37.617ZM99.4554 48.7295C100.035 48.5742 100.478 48.1975 100.783 47.6004C101.088 47.0029 101.305 46.3354 101.435 45.5974C100.413 45.8721 99.6014 46.2333 99.0038 46.6844C98.405 47.1355 98.1803 47.6376 98.329 48.1903C98.4694 48.7124 98.8451 48.8938 99.4554 48.7295ZM40.2421 74.2653C40.3064 74.1993 40.4246 74.1061 40.5966 73.9863C40.7687 73.8664 40.9717 73.7382 41.2042 73.6023C41.4378 73.4658 41.6809 73.3349 41.9334 73.21C42.1858 73.0846 42.4222 72.9764 42.643 72.8843C43.4088 74.1499 44.0691 75.4206 44.624 76.6934C45.1789 77.9673 45.6539 79.2462 46.0478 80.5301C46.1416 80.2105 46.2437 79.7378 46.3541 79.1153C46.464 78.4889 46.5666 77.807 46.6632 77.0696C46.7603 76.3366 46.8485 75.5848 46.929 74.8191C47.0094 74.0534 47.076 73.3732 47.1265 72.7706C47.2403 72.7074 47.379 72.6457 47.5427 72.5853C47.7064 72.5248 47.8878 72.4682 48.0859 72.4149C48.2074 72.3822 48.3223 72.3517 48.4294 72.3228C48.5359 72.294 48.6369 72.2746 48.7329 72.2657C48.9665 72.7095 49.2151 73.1945 49.4803 73.7244C49.7445 74.2504 50.0069 74.8013 50.2683 75.3773C50.5302 75.9571 50.7821 76.543 51.0246 77.1406C51.2682 77.7415 51.4874 78.3158 51.6849 78.8678C52.0123 77.6516 52.2431 76.2445 52.3779 74.646C52.5122 73.0486 52.4739 71.3374 52.2614 69.5142L52.5361 69.4404C52.9323 69.3333 53.3373 69.2573 53.7502 69.2118C54.163 69.1663 54.5708 69.1308 54.9726 69.1041C55.0136 70.3525 54.9898 71.5566 54.9016 72.7173C54.8122 73.8775 54.6729 74.9861 54.4832 76.0431C54.2923 77.1001 54.0681 78.1049 53.809 79.0576C53.5499 80.0103 53.2685 80.8958 52.965 81.7131C52.8085 81.7386 52.6315 81.7658 52.4351 81.7941C52.2381 81.8224 52.04 81.8468 51.8414 81.8679C51.6427 81.8884 51.4618 81.9001 51.2987 81.9034C51.1361 81.9062 51.0124 81.9023 50.928 81.8929C50.8459 81.5871 50.7205 81.196 50.5507 80.7183C50.3815 80.2405 50.1884 79.7323 49.9697 79.1941C49.7511 78.6564 49.5175 78.1055 49.2684 77.5428C49.0187 76.9802 48.7634 76.4565 48.5021 75.9704C48.4499 76.5075 48.375 77.0962 48.2773 77.7354C48.1791 78.3751 48.0659 79.0188 47.9378 79.6663C47.809 80.3143 47.6747 80.9391 47.5338 81.5416C47.3934 82.1436 47.2469 82.6774 47.0938 83.144C46.6976 83.2505 46.3009 83.3283 45.9058 83.3776C45.5101 83.4265 45.185 83.4359 44.932 83.4059C44.7067 82.8128 44.4359 82.1248 44.1196 81.343C43.8033 80.5612 43.4437 79.7545 43.0398 78.9227C42.6364 78.0905 42.198 77.2682 41.7258 76.4548C41.2542 75.6414 40.7592 74.9117 40.2421 74.2653ZM60.7167 67.6582C61.2511 67.5145 61.7555 67.4607 62.2316 67.4967C62.7071 67.5317 63.151 67.6333 63.5639 67.8008C63.9767 67.9678 64.3523 68.1936 64.6914 68.4788C65.0293 68.764 65.3201 69.0864 65.5642 69.4459C66.0991 68.9427 66.5563 68.3906 66.9348 67.7902C67.3127 67.1893 67.609 66.6478 67.8226 66.1657C68.0562 66.184 68.2837 66.2372 68.5034 66.3255C68.7237 66.4137 68.984 66.5319 69.2858 66.6795C68.9906 67.5278 68.6089 68.3457 68.1422 69.1335C67.675 69.9214 67.0757 70.6261 66.3433 71.2486C66.5341 72.0804 66.5957 72.9182 66.528 73.7621C66.4609 74.606 66.2584 75.3884 65.9205 76.1086C65.5825 76.8288 65.1098 77.459 64.5027 77.9984C63.8951 78.5377 63.1566 78.9244 62.2876 79.158C61.5097 79.3672 60.7922 79.421 60.1352 79.3195C59.4782 79.2185 58.8951 78.9943 58.3851 78.6492C57.8752 78.3035 57.4418 77.8641 57.0856 77.3303C56.7293 76.7966 56.4636 76.2018 56.2871 75.546C56.1478 75.0272 56.0762 74.5028 56.0729 73.9724C56.069 73.4414 56.1168 72.9343 56.2155 72.4493C56.3137 71.965 56.4652 71.5078 56.6677 71.0772C56.8714 70.6461 57.1155 70.2615 57.4008 69.9236C57.5434 69.9664 57.7276 70.0441 57.954 70.155C58.1798 70.266 58.4068 70.3809 58.6348 70.499C58.5971 69.8715 58.7741 69.2839 59.167 68.7374C59.5598 68.1903 60.0759 67.8302 60.7167 67.6582ZM63.1932 72.8555C62.797 72.962 62.3908 73.018 61.9752 73.023C61.5596 73.0286 61.1662 72.9792 60.7944 72.8743C60.4226 72.77 60.0842 72.6202 59.7779 72.4244C59.4716 72.2285 59.2224 71.9849 59.0293 71.6931C58.7397 72.1963 58.5721 72.7156 58.5283 73.2511C58.4839 73.7859 58.5255 74.2903 58.6526 74.763C58.8945 75.6624 59.2896 76.2967 59.8384 76.664C60.3871 77.0318 61.0502 77.1112 61.8282 76.902C62.2399 76.7916 62.5967 76.5974 62.898 76.32C63.1999 76.0431 63.4451 75.7069 63.6332 75.3129C63.8219 74.919 63.9545 74.4867 64.0327 74.0157C64.111 73.5452 64.1321 73.0608 64.096 72.5636C63.9517 72.6352 63.8036 72.6912 63.651 72.7323C63.4984 72.7733 63.3463 72.8139 63.1932 72.8555ZM63.1238 70.8624C63.2004 70.8419 63.2803 70.8203 63.3641 70.7981C63.4484 70.7754 63.5261 70.7465 63.5983 70.7104C63.3641 70.2666 63.0606 69.927 62.6866 69.6923C62.3131 69.4576 61.8892 69.4038 61.4165 69.5308C61.1878 69.5919 61.0186 69.7072 60.9082 69.8759C60.7983 70.0446 60.7678 70.2205 60.8166 70.4031C60.8499 70.5251 60.9082 70.6361 60.9925 70.7365C61.0769 70.8364 61.2039 70.9169 61.3759 70.9768C61.5474 71.0367 61.7749 71.0617 62.0585 71.0506C62.3414 71.04 62.6966 70.9773 63.1238 70.8624ZM67.8575 66.2051C67.9646 66.1762 68.1128 66.1362 68.3037 66.0852C68.4946 66.0342 68.7082 65.9926 68.9462 65.9654C69.1843 65.9387 69.4223 65.911 69.662 65.8915C69.9029 65.8716 70.1132 65.8644 70.294 65.8688C70.3096 66.1102 70.3401 66.376 70.3862 66.6661C70.4311 66.9563 70.4727 67.3253 70.5116 67.7731C71.0515 66.2544 71.9931 65.314 73.3354 64.9533C73.9152 64.798 74.4568 64.8523 74.9617 65.117C75.4661 65.3822 75.8046 65.835 75.9772 66.4753C76.0182 66.6278 76.041 66.7444 76.0465 66.8254C76.4311 65.8217 76.971 65.0182 77.6674 64.4145C78.3632 63.8103 79.1239 63.3975 79.9474 63.1762C80.6338 62.9914 81.2608 63.0441 81.8301 63.3359C82.3994 63.6289 82.7995 64.2043 83.0298 65.0621C83.1479 65.5004 83.2118 65.9499 83.2228 66.417C83.234 66.8842 83.2234 67.3325 83.1934 67.7697C83.164 68.207 83.1424 68.6137 83.1291 68.9893C83.1158 69.3649 83.1413 69.6729 83.2057 69.9126C83.2584 70.1073 83.3521 70.2582 83.4859 70.3609C83.6185 70.4597 83.7844 70.4852 83.983 70.4314C84.2272 70.3659 84.458 70.2222 84.6766 69.9997C84.8947 69.7777 85.0895 69.5292 85.2609 69.2545C85.4324 68.9793 85.5855 68.6969 85.7204 68.4072C85.8552 68.1176 85.9584 67.8646 86.0311 67.6488C86.1898 67.6882 86.389 67.7614 86.6304 67.8679C86.8718 67.975 87.0582 68.0599 87.1892 68.1226C87.1037 68.4727 86.9822 68.9022 86.824 69.4104C86.6665 69.9192 86.4428 70.4247 86.1526 70.928C85.863 71.4312 85.4962 71.8934 85.0534 72.315C84.6106 72.7362 84.0768 73.0314 83.4515 73.1995C82.9177 73.3426 82.4233 73.2672 81.9672 72.9731C81.5121 72.6779 81.1903 72.1802 81.0016 71.4789C80.8995 71.0972 80.8435 70.691 80.8335 70.2599C80.8241 69.8293 80.833 69.406 80.8602 68.9898C80.8873 68.5737 80.9023 68.1731 80.9051 67.7881C80.9079 67.403 80.8707 67.0651 80.7925 66.7754C80.6737 66.3332 80.5045 66.0392 80.2853 65.8938C80.0667 65.7485 79.7509 65.7312 79.3392 65.8416C79.0795 65.9115 78.8198 66.0547 78.5596 66.2722C78.2988 66.4891 78.0674 66.7682 77.8643 67.1089C77.6618 67.4496 77.497 67.8413 77.371 68.2841C77.2445 68.7268 77.1785 69.2107 77.1724 69.7356C77.1652 70.4408 77.2062 71.0633 77.2945 71.6037C77.3827 72.1441 77.5003 72.6896 77.6479 73.2383C77.6968 73.4214 77.75 73.6034 77.8066 73.7848C77.8638 73.9652 77.9187 74.1549 77.972 74.353C77.79 74.4678 77.5281 74.5872 77.1857 74.712C76.8422 74.8368 76.5193 74.94 76.2135 75.0222C76.0765 75.0593 75.9533 75.0882 75.8451 75.1093C75.7358 75.1303 75.6409 75.1431 75.5604 75.1487C75.419 74.5001 75.3113 73.9319 75.2381 73.4447C75.1637 72.9576 75.0971 72.4804 75.0372 72.0149C74.9773 71.5482 74.9112 71.0589 74.8385 70.5468C74.767 70.0347 74.6665 69.4198 74.5395 68.7019L74.4962 68.5415C74.373 68.0843 74.1694 67.7831 73.8858 67.6388C73.6012 67.4946 73.2987 67.4651 72.9786 67.5511C72.75 67.6127 72.5186 67.7403 72.2844 67.934C72.0503 68.1276 71.8361 68.3496 71.6408 68.5976C71.446 68.8461 71.2745 69.1047 71.1258 69.3738C70.9771 69.6429 70.8667 69.8848 70.794 70.1006C70.7995 70.4269 70.8351 70.8464 70.8994 71.3601C70.9643 71.8745 71.0398 72.4144 71.1264 72.9798C71.2129 73.5457 71.3012 74.1022 71.3916 74.6498C71.4809 75.1986 71.5703 75.6652 71.6574 76.0508C71.6013 76.0864 71.502 76.1413 71.3578 76.2129C71.2135 76.285 71.0409 76.3594 70.8401 76.4337C70.6392 76.5081 70.4289 76.5769 70.2075 76.6362C69.9866 76.6961 69.7847 76.75 69.6016 76.7993C69.51 76.8238 69.4301 76.8454 69.3613 76.8637C69.293 76.8826 69.2281 76.8998 69.1671 76.9164C69.1221 76.7488 69.06 76.3971 68.9806 75.8583C68.9024 75.3234 68.8147 74.6932 68.7165 73.963C68.6189 73.2367 68.5201 72.4577 68.4219 71.6343C68.322 70.8059 68.2343 70.0246 68.1577 69.2845C68.0806 68.541 68.0129 67.8924 67.953 67.3364C67.8925 66.776 67.8609 66.4004 67.8575 66.2051ZM91.4712 62.6052C91.3974 62.3306 91.2476 62.1375 91.0212 62.0271C90.7954 61.9161 90.4996 61.91 90.1334 62.0082C89.7366 62.1147 89.3654 62.3161 89.0203 62.6135C88.6751 62.9109 88.3944 63.281 88.178 63.7232C87.9616 64.166 87.8217 64.6654 87.7585 65.2219C87.6963 65.7784 87.7485 66.3693 87.9166 66.9952C87.9371 67.0712 87.9555 67.14 87.9721 67.2005C87.9887 67.2615 88.0143 67.3281 88.0503 67.4002C88.4904 67.1516 88.9398 66.8464 89.3987 66.4863C89.8582 66.1257 90.2616 65.739 90.6084 65.3267C90.9557 64.9145 91.2182 64.4762 91.3952 64.0118C91.5733 63.5468 91.5983 63.078 91.4712 62.6052ZM97.1554 64.5849C97.0189 65.1125 96.8164 65.7273 96.5473 66.4292C96.2776 67.1311 95.9069 67.8191 95.4342 68.4949C94.9614 69.1691 94.3766 69.7927 93.6796 70.3642C92.9827 70.9357 92.1465 71.3529 91.1705 71.6154C90.4996 71.7957 89.8648 71.839 89.2678 71.7463C88.6707 71.6537 88.1319 71.4467 87.653 71.1254C87.1742 70.8047 86.7641 70.3875 86.4218 69.8743C86.0794 69.361 85.8197 68.7774 85.6433 68.121C85.3725 67.1145 85.2898 66.1513 85.3941 65.2319C85.499 64.3125 85.7515 63.4885 86.1521 62.7595C86.5533 62.0298 87.081 61.4062 87.7346 60.8868C88.3877 60.3675 89.119 59.9991 89.9275 59.7821C90.4458 59.6423 90.9163 59.598 91.3386 59.6479C91.7609 59.6978 92.1276 59.816 92.4395 60.0024C92.7513 60.1883 93.0088 60.4297 93.2113 60.7271C93.4139 61.0239 93.5603 61.3407 93.6502 61.6758C93.8428 62.3927 93.8256 63.1051 93.5992 63.8115C93.3717 64.5189 93.0204 65.1897 92.5455 65.8244C92.0699 66.4586 91.51 67.039 90.8664 67.5634C90.2222 68.0882 89.5774 68.5188 88.9321 68.8562C89.0619 69.0337 89.3127 69.1746 89.6834 69.2795C90.0551 69.3843 90.5312 69.3583 91.1105 69.2024C91.6904 69.047 92.2325 68.7823 92.7375 68.41C93.2424 68.0372 93.6963 67.6121 94.1003 67.1355C94.5036 66.6595 94.8577 66.1512 95.1623 65.6114C95.4669 65.0721 95.7161 64.5549 95.9103 64.0611C95.9646 64.0794 96.0462 64.1105 96.1561 64.1544C96.2665 64.1988 96.3853 64.2442 96.5123 64.2919C96.6399 64.3397 96.7631 64.3879 96.883 64.4379C97.0023 64.4872 97.0933 64.5366 97.1554 64.5849Z" fill="white"/>
<path d="M95.2272 58.8727C95.5473 58.7862 95.9313 58.708 96.378 58.6369C96.8247 58.5659 97.2419 58.5193 97.6287 58.4966C97.6348 58.6425 97.6409 58.7717 97.6465 58.8849C97.6526 58.9975 97.6592 59.1141 97.667 59.2345C97.6753 59.3555 97.6886 59.4986 97.7092 59.6651C97.7291 59.8315 97.7497 60.0429 97.7696 60.2992C97.8906 60.0213 98.0599 59.7222 98.2768 59.4021C98.4932 59.0825 98.7562 58.7701 99.0675 58.466C99.3777 58.1614 99.7245 57.8845 100.107 57.6343C100.49 57.3846 100.91 57.1982 101.368 57.075C101.871 56.9396 102.302 56.9014 102.662 56.9602C103.021 57.019 103.328 57.1449 103.585 57.3374C103.841 57.53 104.049 57.7725 104.21 58.0649C104.37 58.3573 104.493 58.663 104.579 58.9837C104.682 59.3649 104.743 59.7899 104.762 60.2587C104.782 60.7276 104.794 61.1992 104.799 61.672C104.803 62.1452 104.808 62.5891 104.814 63.0053C104.819 63.4203 104.859 63.7659 104.933 64.04C104.994 64.2686 105.096 64.4495 105.238 64.5832C105.38 64.717 105.581 64.7492 105.84 64.6793C106.039 64.626 106.237 64.495 106.434 64.2864C106.632 64.0783 106.815 63.8325 106.985 63.5501C107.154 63.2671 107.31 62.9681 107.454 62.6507C107.598 62.3345 107.718 62.0487 107.812 61.7946C107.936 61.8262 108.134 61.8956 108.408 62.0021C108.682 62.1081 108.87 62.1974 108.97 62.2679C108.634 63.6339 108.165 64.7652 107.564 65.663C106.964 66.5607 106.221 67.1283 105.336 67.3658C104.68 67.5422 104.154 67.4546 103.757 67.1039C103.36 66.7522 103.069 66.2333 102.885 65.547C102.766 65.1053 102.685 64.6526 102.642 64.1893C102.599 63.7265 102.573 63.276 102.561 62.8377C102.549 62.3994 102.531 61.9793 102.504 61.5771C102.478 61.1759 102.422 60.8147 102.336 60.494C102.238 60.1283 102.081 59.8676 101.868 59.7122C101.654 59.5568 101.341 59.5347 100.93 59.6457C100.426 59.781 99.9276 60.1156 99.4332 60.6488C98.9393 61.1826 98.5121 61.9061 98.1525 62.8205C98.1647 63.0468 98.2008 63.3964 98.2635 63.8702C98.3251 64.3441 98.3967 64.869 98.4777 65.4438C98.5587 66.0192 98.6497 66.6001 98.7496 67.186C98.8506 67.7725 98.9427 68.283 99.027 68.7185C98.9737 68.7652 98.88 68.8112 98.7446 68.8556C98.6097 68.9 98.4566 68.9538 98.2851 69.0159C98.1137 69.0786 97.9328 69.1352 97.7419 69.1868C97.551 69.2379 97.3646 69.2878 97.1815 69.3372L96.6554 69.4787C96.5894 69.2346 96.5089 68.8273 96.4124 68.2558C96.3164 67.6849 96.216 67.0373 96.1111 66.3127C96.0062 65.5886 95.9047 64.8312 95.8065 64.04C95.7082 63.2488 95.6183 62.5042 95.5373 61.8062C95.4558 61.1088 95.3847 60.494 95.3237 59.963C95.2627 59.4315 95.2305 59.068 95.2272 58.8727ZM108.059 53.9518C107.837 53.7332 107.58 53.463 107.289 53.1406C106.998 52.8182 106.703 52.4803 106.403 52.1274C106.105 51.7745 105.818 51.4228 105.543 51.071C105.269 50.7198 105.046 50.4113 104.878 50.1461C105.156 49.8426 105.466 49.5829 105.809 49.3682C106.152 49.1534 106.447 48.9887 106.694 48.8727C106.908 49.3055 107.132 49.7277 107.366 50.1394C107.599 50.5511 107.827 50.9439 108.05 51.3168C108.273 51.6902 108.483 52.0309 108.68 52.3372C108.877 52.6446 109.044 52.902 109.182 53.1101C109.014 53.3354 108.802 53.5229 108.548 53.6733C108.294 53.8231 108.131 53.9163 108.059 53.9518ZM119.216 53.1112C119.2 53.2954 119.158 53.5029 119.089 53.7343C119.021 53.9651 118.943 54.1942 118.857 54.4223C118.771 54.6498 118.681 54.8623 118.587 55.0592C118.493 55.2562 118.404 55.4144 118.323 55.5348C117.855 55.3173 117.334 55.1586 116.759 55.0598C116.185 54.9605 115.631 54.9827 115.096 55.1258C114.38 55.3189 113.891 55.5814 113.628 55.9137C113.366 56.2461 113.281 56.5873 113.376 56.9385C113.458 57.2432 113.718 57.4634 114.155 57.5999C114.592 57.7353 115.177 57.8274 115.909 57.8757C116.627 57.9284 117.229 58.0077 117.716 58.1142C118.202 58.2208 118.599 58.3589 118.907 58.5304C119.214 58.7007 119.451 58.9115 119.616 59.1612C119.781 59.4109 119.909 59.7039 119.999 60.0396C120.159 60.6344 120.167 61.1798 120.022 61.6764C119.878 62.1735 119.636 62.6107 119.295 62.988C118.956 63.3659 118.54 63.6899 118.048 63.9613C117.557 64.2326 117.044 64.4395 116.511 64.5832C115.504 64.854 114.569 64.9045 113.706 64.7358C112.843 64.5671 112.18 64.292 111.718 63.9091C111.782 63.6628 111.899 63.337 112.068 62.9314C112.237 62.5264 112.439 62.153 112.675 61.8118C113.185 62.067 113.753 62.2784 114.378 62.446C115.004 62.613 115.637 62.6102 116.277 62.4382C116.766 62.3067 117.165 62.0892 117.476 61.7846C117.787 61.4805 117.883 61.1071 117.764 60.6649C117.735 60.5578 117.674 60.4557 117.582 60.3575C117.491 60.2599 117.348 60.1716 117.156 60.0923C116.963 60.0135 116.712 59.9497 116.405 59.9014C116.098 59.8531 115.704 59.8198 115.225 59.8015C112.921 59.7505 111.565 58.9621 111.155 57.4368C111.011 56.903 110.996 56.3881 111.107 55.8915C111.219 55.3955 111.434 54.9455 111.751 54.5416C112.067 54.1377 112.479 53.7814 112.985 53.474C113.491 53.1661 114.056 52.9286 114.681 52.7605C115.551 52.5264 116.365 52.4509 117.123 52.533C117.881 52.6157 118.578 52.8082 119.216 53.1112ZM78.9702 90.8432C79.0933 90.8753 79.2515 90.9313 79.4446 91.0096C79.6371 91.0889 79.7919 91.1616 79.9079 91.2287C79.8818 91.4973 79.8025 91.8862 79.6699 92.3967C79.5373 92.9066 79.3453 93.4243 79.0939 93.9497C78.8425 94.4752 78.534 94.9546 78.1678 95.3885C77.8021 95.8218 77.3749 96.1048 76.8871 96.2357C76.2768 96.3999 75.7507 96.3284 75.3085 96.0221C74.8662 95.7158 74.5411 95.1737 74.3319 94.3958C74.0334 95.2936 73.6144 96.0315 73.0751 96.6102C72.5352 97.1889 71.816 97.599 70.9155 97.8409C70.3356 97.9963 69.8035 98.009 69.3196 97.8808C68.8346 97.7499 68.3935 97.5252 67.9962 97.2022C67.5989 96.8799 67.2627 96.4799 66.9869 96.0021C66.7117 95.5244 66.5008 95.0162 66.3549 94.4713C66.0857 93.4726 66.0092 92.5482 66.1246 91.6998C66.24 90.8509 66.4731 90.1057 66.8249 89.4671C67.1778 88.8329 67.6161 88.3058 68.1416 87.8869C68.6676 87.4713 69.2048 87.1884 69.7541 87.0402C70.0132 86.9709 70.289 86.917 70.5814 86.8793C70.8738 86.8415 71.1718 86.8394 71.4753 86.8726C71.7783 86.9054 72.0757 86.9764 72.367 87.0863C72.6578 87.1961 72.9497 87.367 73.2404 87.5995C73.1489 86.8926 73.0357 86.199 72.9014 85.5155C72.7677 84.8363 72.6234 84.2088 72.4686 83.6329C72.4198 83.4498 72.372 83.2745 72.3271 83.1069C72.2821 82.9388 72.2305 82.7767 72.17 82.6136C72.417 82.4976 72.7039 82.38 73.0318 82.259C73.3592 82.1381 73.6827 82.0349 74.0034 81.9489C74.1554 81.9079 74.3008 81.869 74.4379 81.8318C74.5749 81.7952 74.7064 81.768 74.8329 81.7503C74.9983 82.6707 75.1437 83.6828 75.2685 84.7853C75.3934 85.8889 75.5049 86.9581 75.6042 87.9946C75.7025 89.031 75.794 89.9631 75.8772 90.791C75.961 91.6194 76.0537 92.2236 76.1563 92.6048C76.2634 93.0015 76.3972 93.2562 76.5575 93.3682C76.719 93.4803 76.8832 93.5136 77.0508 93.4687C77.2644 93.411 77.4659 93.2917 77.654 93.1108C77.8421 92.9294 78.0174 92.7141 78.1795 92.4661C78.342 92.2181 78.4902 91.9489 78.625 91.6593C78.7599 91.3697 78.8753 91.0978 78.9702 90.8432ZM73.5123 92.2608C73.6094 91.8918 73.6372 91.4629 73.5967 90.9752C73.555 90.4875 73.5206 90.1002 73.4923 89.8133C73.1378 89.4671 72.7233 89.2186 72.2494 89.0682C71.7755 88.9178 71.2872 88.91 70.7834 89.0454C70.4327 89.1392 70.0981 89.3228 69.7791 89.5975C69.46 89.871 69.1987 90.2067 68.995 90.6051C68.7914 91.0035 68.6593 91.4557 68.5994 91.9628C68.5394 92.4694 68.5849 93.0048 68.737 93.5691C68.934 94.3015 69.243 94.8436 69.6653 95.1965C70.087 95.5488 70.5881 95.6476 71.1674 95.4917C71.7927 95.3235 72.3038 94.9285 72.7011 94.3065C73.0984 93.6851 73.3686 93.0032 73.5123 92.2608ZM91.9139 86.0637C91.9767 86.1125 92.0449 86.2001 92.1198 86.3272C92.1947 86.4543 92.2741 86.5963 92.3573 86.7539C92.4405 86.9115 92.5188 87.0663 92.5926 87.2177C92.6658 87.3703 92.7152 87.4918 92.7396 87.5834C92.627 88.1371 92.4744 88.7098 92.2813 89.3012C92.0887 89.8921 91.8535 90.4464 91.5749 90.963C91.2969 91.4795 90.9651 91.9323 90.5789 92.3224C90.1933 92.7119 89.741 92.9765 89.2228 93.1163C88.8105 93.2273 88.4509 93.2578 88.1435 93.2101C87.8361 93.1619 87.572 93.0609 87.3511 92.9077C87.1297 92.7546 86.9488 92.5537 86.809 92.3052C86.6686 92.0566 86.5571 91.7797 86.4755 91.4751C86.4467 91.3686 86.4234 91.2681 86.4067 91.1744C86.3901 91.0812 86.3745 90.9785 86.3612 90.8681C86.2769 91.2837 86.1465 91.6981 85.9723 92.1132C85.7975 92.5282 85.5744 92.915 85.3031 93.2745C85.0312 93.6335 84.7132 93.9398 84.3475 94.1933C83.9824 94.4469 83.5713 94.635 83.1135 94.7582C82.6563 94.8813 82.1974 94.9102 81.739 94.8458C81.2801 94.7809 80.844 94.62 80.4328 94.3664C80.02 94.1095 79.6538 93.75 79.3331 93.2884C79.0134 92.8306 78.7654 92.2719 78.589 91.616C78.3115 90.5823 78.2194 89.618 78.316 88.7292C78.4114 87.8369 78.6333 87.0496 78.979 86.3594C79.3253 85.6697 79.7692 85.1004 80.3091 84.6449C80.849 84.1888 81.4161 83.8809 82.0109 83.7211C82.7434 83.5247 83.422 83.4936 84.0468 83.6279C84.6716 83.7627 85.1943 84.0351 85.6155 84.4446C85.5922 84.2959 85.5688 84.135 85.545 83.953C85.5206 83.7716 85.5045 83.5918 85.4978 83.4132C85.4912 83.2356 85.4912 83.0841 85.4995 82.9637C85.5078 82.8428 85.55 82.7701 85.626 82.7496C85.9157 82.6719 86.2752 82.6242 86.7036 82.607C87.1331 82.5898 87.4893 82.5925 87.7728 82.6142C87.8073 83.0464 87.8322 83.5796 87.8472 84.2127C87.8622 84.8469 87.886 85.4989 87.9193 86.1686C87.9521 86.8383 87.992 87.4735 88.0392 88.0739C88.0858 88.6748 88.1585 89.1581 88.2567 89.5243C88.3427 89.8444 88.4581 90.0919 88.6029 90.2655C88.7478 90.4386 88.9348 90.4947 89.1639 90.4336C89.5296 90.3349 89.8625 90.0985 90.1627 89.7235C90.4624 89.3489 90.7309 88.9328 90.9684 88.4767C91.2054 88.0206 91.4024 87.5668 91.5588 87.1157C91.7153 86.6646 91.834 86.3145 91.9139 86.0637ZM83.2594 92.2902C83.7172 92.167 84.1045 91.904 84.4213 91.4995C84.7376 91.0956 84.9968 90.6134 85.1976 90.0525C85.3979 89.4915 85.54 88.8934 85.6221 88.2575C85.7053 87.6222 85.7337 87.0136 85.7081 86.4315C85.388 86.0925 84.9812 85.8417 84.4879 85.6803C83.9946 85.5183 83.4964 85.5055 82.9931 85.6403C82.6424 85.7346 82.3122 85.9216 82.0032 86.2013C81.6941 86.4804 81.4377 86.8354 81.2347 87.266C81.031 87.6971 80.9073 88.1921 80.8612 88.7525C80.8157 89.3123 80.8812 89.9204 81.0576 90.5763C81.2541 91.3087 81.5598 91.8069 81.9743 92.0716C82.3894 92.3362 82.8172 92.4089 83.2594 92.2902ZM89.9763 81.7769C90.0529 81.7564 90.2055 81.7148 90.4341 81.6537C90.6627 81.5922 90.9146 81.5405 91.1909 81.5034C91.4667 81.4656 91.7392 81.429 92.0083 81.3935C92.2763 81.3585 92.4821 81.3319 92.6231 81.3108C92.6364 82.0266 92.6725 82.6952 92.7335 83.3166C92.794 83.9386 92.8922 84.5007 93.0276 85.0039C93.2651 85.8889 93.5775 86.4709 93.9637 86.7517C94.3499 87.0319 94.8632 87.0862 95.5035 86.9142C95.9002 86.8077 96.2853 86.6141 96.6599 86.3333C97.0355 86.057 97.3657 85.7474 97.6515 85.4128C97.5771 84.3453 97.4778 83.3826 97.3552 82.532C97.2331 81.682 97.0755 80.8081 96.8857 79.9192C96.9778 79.8948 97.0805 79.8671 97.1948 79.8361C97.3091 79.8055 97.4273 79.7739 97.5494 79.7412C97.8396 79.6635 98.152 79.5791 98.4877 79.4887C98.8228 79.3988 99.1574 79.3334 99.4898 79.2929C99.659 80.4087 99.7994 81.5239 99.9104 82.6385C100.022 83.7538 100.085 84.8241 100.1 85.8506C100.114 86.8771 100.059 87.8442 99.9354 88.7525C99.8116 89.6608 99.5969 90.4747 99.2917 91.1949C98.9865 91.9146 98.5737 92.5243 98.0537 93.0237C97.5338 93.5231 96.8768 93.8793 96.0839 94.0929C95.6722 94.2033 95.3048 94.2821 94.9819 94.3276C94.659 94.3736 94.3527 94.3903 94.0636 94.3787C93.7739 94.3664 93.4965 94.3387 93.2312 94.2954C92.9666 94.2521 92.6858 94.1966 92.3895 94.1289C92.3701 93.6928 92.4028 93.2673 92.4877 92.8517C92.5726 92.4361 92.6986 91.9933 92.8667 91.5239C93.2373 91.6854 93.684 91.7819 94.2078 91.8125C94.7311 91.8441 95.1989 91.8041 95.6111 91.6932C96.3275 91.5006 96.8846 91.0767 97.2808 90.4226C97.6775 89.7678 97.8962 88.7569 97.9372 87.3881C97.5949 87.7587 97.2125 88.1144 96.7892 88.4578C96.3663 88.8002 95.8497 89.0532 95.2399 89.2174C94.7366 89.3528 94.2545 89.4005 93.7939 89.3605C93.3333 89.3212 92.9083 89.1692 92.5199 88.91C92.1304 88.647 91.7786 88.267 91.4662 87.7748C91.1532 87.2782 90.8946 86.6523 90.6899 85.89C90.5589 85.4023 90.4241 84.7958 90.2854 84.0646C90.1466 83.3371 90.0434 82.572 89.9763 81.7769ZM101.319 75.7839C101.505 75.6852 101.727 75.6009 101.987 75.531C102.246 75.4611 102.513 75.3895 102.787 75.3157C103.032 75.2497 103.26 75.1886 103.474 75.1309C103.687 75.0738 103.88 75.0299 104.052 75.0005C104.196 75.779 104.331 76.6468 104.457 77.6022C104.583 78.5577 104.692 79.4931 104.782 80.4092C104.873 81.3252 104.942 82.1575 104.987 82.9054C105.033 83.6534 105.055 84.2077 105.054 84.5678C104.665 84.6399 104.247 84.7154 103.802 84.7936C103.357 84.8724 103.039 84.9213 102.848 84.9401C102.799 84.5772 102.74 84.1267 102.669 83.5896C102.598 83.053 102.515 82.4866 102.421 81.8906C102.326 81.2942 102.228 80.6866 102.127 80.0679C102.026 79.4493 101.926 78.8628 101.826 78.3096C101.727 77.7553 101.633 77.2571 101.547 76.8143C101.46 76.3715 101.385 76.0281 101.319 75.7839ZM103.267 86.8638C103.528 86.679 103.773 86.5558 104.002 86.4942C104.398 86.3877 104.787 86.4021 105.166 86.537C105.546 86.6718 105.789 86.9376 105.896 87.3343C105.978 87.6395 105.988 87.9063 105.928 88.1355C105.866 88.3641 105.771 88.5577 105.641 88.7147C105.512 88.8723 105.355 89.0044 105.171 89.1109C104.988 89.218 104.819 89.2918 104.667 89.3328C104.224 89.4521 103.845 89.4554 103.529 89.3439C103.213 89.2329 102.987 88.9256 102.852 88.4223C102.782 88.1632 102.774 87.8875 102.826 87.5956C102.878 87.3032 103.025 87.0591 103.267 86.8638Z" fill="white"/>
<path fill-rule="evenodd" clip-rule="evenodd" d="M45.7898 93.4853C45.4996 94.2799 44.2744 94.5634 43.0532 94.1178C42.6609 93.9752 42.3168 93.7744 42.0394 93.5413L41.9972 93.5868C42.2508 93.8415 42.4777 94.165 42.6525 94.5395C43.2019 95.7186 43.0249 96.9636 42.258 97.321C41.4911 97.6777 40.4241 97.0119 39.8748 95.8335C39.6989 95.455 39.5973 95.0694 39.5663 94.7093L39.5041 94.7115C39.503 95.0705 39.4353 95.4595 39.2938 95.8484C38.8482 97.0702 37.8428 97.8253 37.0476 97.5357C36.253 97.2461 35.9695 96.021 36.4151 94.7992C36.5577 94.4069 36.7585 94.0629 36.9916 93.786L36.9461 93.7439C36.6914 93.9969 36.3679 94.2238 35.9934 94.3986C34.8142 94.9479 33.5691 94.7709 33.2117 94.0041C32.8549 93.2373 33.5208 92.1703 34.6994 91.6216C35.0778 91.4452 35.4634 91.3436 35.8236 91.3125L35.8213 91.2504C35.4623 91.2493 35.0734 91.1815 34.6844 91.0401C33.4625 90.5945 32.7073 89.5897 32.997 88.7946C33.2866 87.9995 34.5118 87.716 35.7337 88.1615C36.126 88.3041 36.47 88.505 36.7469 88.738L36.7891 88.6925C36.536 88.4379 36.3091 88.1149 36.1343 87.7398C35.585 86.5608 35.762 85.3157 36.5288 84.9584C37.2957 84.6016 38.3627 85.2674 38.9115 86.4465C39.088 86.8243 39.1895 87.21 39.2206 87.5706L39.2827 87.5679C39.2838 87.2089 39.3515 86.8199 39.493 86.4315C39.9386 85.2097 40.9435 84.454 41.7386 84.7437C42.5338 85.0333 42.8173 86.2584 42.3717 87.4802C42.2286 87.8724 42.0283 88.2165 41.7952 88.4933L41.8407 88.5361C42.0954 88.2825 42.4184 88.0555 42.7935 87.8808C43.9726 87.3315 45.2177 87.5085 45.5751 88.2753C45.9319 89.0421 45.266 90.1091 44.0869 90.6578C43.709 90.8342 43.3234 90.9358 42.9627 90.9668L42.9655 91.029C43.3245 91.0301 43.7135 91.0978 44.1019 91.2393C45.3237 91.6848 46.0795 92.6897 45.7898 93.4853ZM40.3031 88.6437C41.6815 89.1464 42.3917 90.6711 41.8896 92.0493C41.3868 93.4281 39.862 94.1384 38.4837 93.6357C37.1048 93.1335 36.3945 91.6083 36.8973 90.23C37.3994 88.8518 38.9248 88.1416 40.3031 88.6437Z" fill="white"/>
<path fill-rule="evenodd" clip-rule="evenodd" d="M36.8977 90.2301C36.395 91.6089 37.1052 93.1331 38.4841 93.6357C39.8624 94.1384 41.3873 93.4282 41.89 92.0489C42.3927 90.6712 41.6825 89.1465 40.303 88.6438C38.9247 88.1411 37.4004 88.8513 36.8977 90.2301Z" fill="#FFDD59"/>
</svg>
