<svg width="161" height="136" viewBox="0 0 161 136" fill="none" xmlns="http://www.w3.org/2000/svg">
<path fill-rule="evenodd" clip-rule="evenodd" d="M125.634 95.6671C127.183 95.8108 129.421 97.0115 130.997 97.5397C132.574 98.0685 133.489 97.9242 134.601 97.3489C135.713 96.7729 137.02 95.7659 138.78 95.4524C140.539 95.1383 142.75 95.5173 143.908 96.6159C145.065 97.7145 145.169 99.5322 144.152 101.475C143.135 103.418 140.995 105.485 138.81 107.363C136.626 109.24 134.397 110.926 132.661 111.992C130.925 113.057 129.683 113.502 128.963 114.006C128.244 114.509 128.047 115.071 126.55 113.528C125.052 111.985 122.253 108.335 121.338 105.288C120.422 102.24 121.39 99.7946 122.305 98.1151C123.22 96.4361 124.083 95.5234 125.634 95.6671Z" fill="white"/>
<path d="M129.147 112.04C130.708 111.551 132.311 110.725 133.864 109.724C136.775 107.849 139.486 105.371 141.442 103.311C143.054 101.613 144.379 99.9616 145.424 98.393C146.507 96.7668 147.285 95.2404 147.764 93.8538C148.207 92.5738 148.399 91.413 148.376 90.396V90.3921C148.352 89.385 148.114 88.5256 147.698 87.8431C147.33 87.2395 146.81 86.759 146.234 86.4C145.548 85.9722 144.794 85.7181 144.115 85.6282C143.52 85.5494 142.989 85.5977 142.517 85.7675V85.7713C142.035 85.9439 141.59 86.2457 141.174 86.6685C140.707 87.1424 140.268 87.7665 139.855 88.4584C139.434 89.1626 139.024 89.9721 138.633 90.7727C138.249 91.5606 137.889 92.3291 137.63 93.0105C137.392 93.6341 137.237 94.1718 137.229 94.5557V94.5601C137.225 94.7316 137.262 94.9441 137.296 95.1372C137.469 96.1137 137.603 96.8617 136.141 97.8726C135.252 98.4874 133.569 99.2375 131.368 98.9801C130.019 98.8219 128.472 98.2865 126.797 97.1036C128.107 102.19 128.838 107.236 129.147 112.04ZM65.5225 127.945C65.3228 124.325 65.2961 120.934 65.4115 117.764C65.5275 114.589 65.7861 111.646 66.1562 108.92C66.3754 107.307 66.6295 105.789 66.9114 104.361C67.1933 102.936 67.5129 101.554 67.8642 100.216C68.2781 98.6372 68.7198 97.1818 69.1787 95.8424C69.6736 94.3998 70.2074 93.036 70.7645 91.7543C71.2528 90.6318 71.7633 89.5704 72.2849 88.5716C72.8193 87.549 73.3375 86.6386 73.8342 85.8301L73.9046 85.7164L73.9196 85.7014C74.5743 84.6483 75.2075 83.7278 75.8051 82.9288C76.4254 82.0977 77.043 81.3509 77.6279 80.6923C79.7065 78.3491 81.2202 77.3515 81.2247 77.3487L81.4177 77.22L97.1387 74.5506L97.7053 77.1606H114.483C114.649 76.8838 114.879 76.6396 115.166 76.4548C115.669 76.1314 116.257 76.0409 116.797 76.158C117.338 76.2751 117.836 76.6002 118.163 77.1057C121.555 82.3723 124.018 87.9042 125.754 93.446C125.927 93.6169 126.099 93.7828 126.27 93.9431C126.771 94.412 127.256 94.8287 127.717 95.1744C129.182 96.2752 130.494 96.7568 131.607 96.8872C133.176 97.0709 134.34 96.5615 134.946 96.142C135.291 95.9034 135.26 95.7276 135.22 95.4995C135.172 95.2254 135.118 94.9264 135.128 94.5108C135.144 93.8444 135.349 93.0798 135.66 92.2608C135.951 91.4996 136.334 90.6801 136.739 89.85C137.137 89.0338 137.566 88.1905 138.05 87.3793C138.543 86.5553 139.079 85.7969 139.674 85.1937C140.318 84.5401 141.024 84.0668 141.808 83.7861L141.809 83.7894C142.601 83.5059 143.455 83.4204 144.388 83.5442C145.348 83.6712 146.403 84.0225 147.347 84.6117C148.181 85.1316 148.94 85.8407 149.494 86.7479C150.097 87.7388 150.444 88.9534 150.476 90.3466C150.506 91.6045 150.278 93.0132 149.749 94.538C149.208 96.1021 148.353 97.7905 147.179 99.5543C146.069 101.222 144.666 102.971 142.967 104.761C140.92 106.918 138.073 109.516 135 111.495C133.138 112.695 131.186 113.671 129.258 114.199C129.306 115.415 129.328 116.613 129.325 117.791L129.325 118.271L128.612 118.949C128.369 119.182 128.12 119.419 127.892 119.629C127.593 119.902 127.071 120.291 126.8 120.563C125.503 121.578 123.982 122.409 121.563 123.114C119.236 123.792 116.061 124.358 111.398 124.87C106.472 125.409 99.9059 125.89 93.3178 126.372C86.9316 126.839 80.5227 127.308 75.6569 127.823C73.8275 128.017 72.205 128.218 70.7479 128.415C69.4162 128.595 68.0622 128.798 66.8021 128.989L65.5908 129.173L65.5225 127.945ZM67.6388 117.842C67.5395 120.577 67.5495 123.492 67.6888 126.596C68.4984 126.476 69.4006 126.347 70.451 126.205C71.932 126.005 73.5784 125.801 75.43 125.605C80.4007 125.079 86.7924 124.611 93.1608 124.145C99.7483 123.663 106.314 123.182 111.162 122.651C115.696 122.154 118.747 121.614 120.942 120.974C123.043 120.361 124.341 119.658 125.428 118.807C125.813 118.642 127.051 117.356 127.097 117.311C127.056 106.012 121.799 86.9404 116.405 78.4989V79.3972H95.9046L95.4075 77.1079L82.2872 79.3356C81.87 79.6419 80.7541 80.5258 79.297 82.1681C78.7815 82.7485 78.2111 83.4421 77.5962 84.2655C76.9814 85.0883 76.3533 86.0005 75.7368 86.9981C75.228 87.8304 74.7303 88.7004 74.2592 89.6026C73.7748 90.5292 73.2893 91.5418 72.8093 92.6459C72.291 93.8372 71.7822 95.1428 71.2934 96.5676C70.8334 97.9092 70.4049 99.313 70.0221 100.774C69.6947 102.022 69.3867 103.358 69.1043 104.789C68.8224 106.216 68.5733 107.693 68.3669 109.217C68.0045 111.884 67.7515 114.755 67.6388 117.842Z" fill="#371A45" fill-opacity="0.341176"/>
<path d="M66.6361 127.884C66.2393 120.697 66.529 114.461 67.2614 109.069C67.6881 105.93 68.2646 103.082 68.9427 100.495C69.7689 97.3488 70.7455 94.594 71.787 92.1999C72.7553 89.9722 73.7785 88.0546 74.7862 86.4156L74.789 86.4128C76.0891 84.3082 77.3614 82.6698 78.4623 81.4303C80.4322 79.2098 81.8449 78.2793 81.8449 78.2793L96.2729 75.8296L96.8045 78.2793H115.287C115.287 77.933 115.457 77.5946 115.769 77.3943C116.257 77.0791 116.909 77.2206 117.224 77.7083C125.632 90.7628 128.234 105.455 128.211 117.791C127.871 118.111 127.513 118.461 127.136 118.808L127.132 118.811C127.033 118.903 126.932 118.994 126.83 119.084L126.821 119.092L126.818 119.094L126.807 119.104L126.693 119.205L126.682 119.215L126.675 119.22L126.671 119.225L126.658 119.235L126.636 119.255L126.624 119.265L126.617 119.272L126.613 119.275L126.601 119.285L126.59 119.295L126.587 119.297L126.578 119.305L126.566 119.314L126.543 119.334L126.531 119.344L126.527 119.347L126.52 119.354L126.509 119.364L126.498 119.372L126.496 119.374L126.485 119.384L126.474 119.393L126.468 119.398L126.462 119.403L126.45 119.413L126.438 119.422L126.433 119.427L126.428 119.432L126.422 119.436L126.417 119.441L126.411 119.445L126.406 119.45L126.401 119.453L126.395 119.458L126.39 119.462L126.385 119.467L126.379 119.471L126.374 119.476L126.369 119.48L126.364 119.485L126.358 119.489L126.353 119.493L126.348 119.498L126.342 119.502L126.337 119.507L126.331 119.511L126.326 119.515L126.324 119.517L126.32 119.52L126.315 119.524L126.31 119.528L126.304 119.533L126.299 119.537L126.294 119.542L126.288 119.546L126.283 119.551L126.277 119.554L126.272 119.559L126.267 119.563L126.261 119.568L126.256 119.572L126.251 119.577L126.245 119.581L126.239 119.586L126.234 119.589L126.228 119.594L126.223 119.598L126.218 119.602L126.212 119.607L126.209 119.61L126.207 119.611L126.202 119.616L126.196 119.62L126.191 119.624L126.185 119.628L126.174 119.637L126.169 119.642L126.163 119.646L126.158 119.65L126.152 119.654L126.147 119.659L126.141 119.663L126.13 119.672L126.125 119.676L126.119 119.68L126.114 119.685C123.73 121.551 120.478 122.75 111.28 123.761C101.662 124.813 85.5437 125.655 75.5431 126.714C71.8614 127.104 69.0093 127.524 66.6361 127.884Z" fill="white"/>
<path d="M81.858 128.744C79.816 129.767 78.4033 129.289 75.1439 130.201C73.4709 130.67 72.6891 131.156 69.9741 131.312C69.0985 131.362 68.0198 131.236 66.8407 130.92C61.6292 129.533 54.4462 124.493 54.1016 114.943C53.7703 105.756 60.3002 96.7857 66.7225 90.2379C72.7923 84.0508 78.7668 80.0259 78.7668 80.0259L78.4616 81.4302L75.8991 93.1813L73.305 105.086C73.305 105.086 72.4605 106.23 72.1182 108.255C71.3796 112.641 73.8572 115.156 75.4303 115.04C76.3935 114.972 78.0981 113.473 81.858 114.943C86.291 116.677 85.2278 127.055 81.858 128.744Z" fill="white"/>
<path d="M103.141 18.5519C106.672 15.5213 122.888 1.95357 126.66 4.42487C133.27 8.75215 129.651 27.7996 128.732 32.1208L103.141 18.5519Z" fill="#FF574C"/>
<path d="M128.733 33.1727C128.661 33.1727 128.587 33.1655 128.514 33.1494C127.945 33.029 127.582 32.4697 127.703 31.9016C129.901 21.5603 130.796 8.3904 126.084 5.30489C125.78 5.1057 123.84 4.41435 115.412 10.2885C110.344 13.8218 105.263 18.118 103.826 19.3514C103.385 19.7304 102.72 19.6788 102.342 19.2382C101.964 18.7971 102.015 18.1319 102.456 17.7546C103.911 16.5045 109.06 12.1512 114.208 8.56186C123.192 2.29983 125.947 2.69931 127.237 3.5449C134.278 8.15513 130.95 26.7503 129.761 32.3388C129.656 32.8337 129.22 33.1727 128.733 33.1727Z" fill="#371A45" fill-opacity="0.341176"/>
<path d="M125.365 10.1549C125.365 10.1549 126.201 9.72984 126.416 11.8272C126.786 15.4204 126.389 24.5987 122.665 28.3723C122.665 28.3723 115.379 20.0068 113.592 19.1579C111.804 18.3067 115.22 16.7104 116.073 15.2744C116.926 13.839 124.658 9.9135 125.365 10.1549Z" fill="#EBA7A4"/>
<path d="M125.272 10.2974C124.448 10.2974 117.046 13.94 116.206 15.3532C115.89 15.8853 115.258 16.4218 114.646 16.9401C113.927 17.5487 113.185 18.1785 113.239 18.6001C113.259 18.7527 113.4 18.8937 113.658 19.0169C115.353 19.8231 121.711 27.0461 122.67 28.1419C126.219 24.3628 126.627 15.3965 126.261 11.8427C126.147 10.7313 125.861 10.4106 125.7 10.3196C125.556 10.2375 125.437 10.2924 125.432 10.2941L125.375 10.3196L125.314 10.3024C125.303 10.2991 125.289 10.2974 125.272 10.2974ZM122.658 28.6008L122.548 28.4743C122.476 28.3905 115.263 20.1249 113.525 19.2965C113.165 19.1267 112.965 18.9053 112.931 18.6395C112.854 18.0514 113.591 17.4272 114.445 16.7031C115.037 16.2004 115.649 15.6828 115.939 15.1956C116.769 13.7979 124.144 9.99559 125.319 9.99559C125.327 9.99559 125.335 9.99559 125.343 9.99559C125.454 9.95618 125.647 9.93563 125.843 10.0433C126.227 10.253 126.472 10.8478 126.571 11.8099C126.945 15.4497 126.509 24.6985 122.775 28.4809L122.658 28.6008Z" fill="#390075"/>
<path d="M113.592 19.1556C114.634 19.6533 117.54 22.6961 119.785 25.1508C121.395 26.913 122.666 28.3723 122.666 28.3723C126.388 24.5982 126.785 15.4203 126.416 11.8255C126.201 9.7298 125.365 10.1548 125.365 10.1548C125.052 10.0505 123.369 10.7568 121.513 11.704C119.169 12.8974 116.548 14.4721 116.073 15.2744C115.219 16.7104 111.803 18.3067 113.592 19.1556Z" fill="#FFB8B8"/>
<path d="M122.071 27.4263C122.255 27.6194 122.497 27.7276 122.746 27.7104C122.99 27.6938 123.224 27.5877 123.357 27.4052C123.391 27.3602 123.423 27.3148 123.446 27.2609C123.458 27.2299 123.467 27.2177 123.484 27.1744L123.535 27.0473C123.601 26.8775 123.664 26.7055 123.726 26.5335C123.849 26.1873 123.964 25.8361 124.071 25.4821C124.489 24.0678 124.876 22.6052 125.17 21.1676C125.471 19.751 125.579 18.2984 125.558 16.8508C125.531 15.4032 125.358 13.9556 125.043 12.5441C124.967 12.189 124.881 11.8394 124.787 11.491L124.714 11.2324L124.697 11.1702L124.69 11.1586C124.69 11.1481 124.683 11.143 124.681 11.1358C124.668 11.107 124.643 11.0865 124.616 11.0676C124.588 11.0487 124.552 11.0399 124.521 11.0382C124.505 11.0349 124.49 11.0415 124.474 11.0415C124.467 11.0471 124.459 11.0454 124.451 11.0487C124.435 11.0587 124.456 11.0437 124.398 11.0709C124.062 11.2218 123.728 11.3761 123.394 11.5343C122.061 12.1685 120.748 12.8531 119.488 13.6177C118.22 14.3706 116.994 15.1907 115.844 16.0962C114.688 16.9951 113.603 17.9794 112.654 19.0735L112.447 17.9467C112.972 18.2729 113.418 18.5936 113.882 18.9381C114.339 19.2794 114.782 19.6329 115.216 19.9963C116.087 20.722 116.908 21.4988 117.706 22.2945C118.493 23.1023 119.265 23.9224 119.986 24.7841C120.359 25.2047 120.699 25.6519 121.055 26.0852C121.404 26.5258 121.736 26.978 122.076 27.423L122.071 27.4263ZM121.433 27.9223C121.074 27.504 120.724 27.0789 120.359 26.6667C119.986 26.2616 119.63 25.8427 119.243 25.4521C118.492 24.6492 117.695 23.893 116.89 23.1506C116.073 22.4182 115.229 21.7235 114.367 21.056C113.935 20.7237 113.496 20.403 113.05 20.0973C112.609 19.7954 112.138 19.4902 111.708 19.2466L110.945 18.8161L111.501 18.1198C112.481 16.8919 113.598 15.7927 114.785 14.7912C115.979 13.798 117.244 12.9025 118.551 12.083C119.863 11.2718 121.217 10.5338 122.609 9.8719C122.958 9.71099 123.31 9.55118 123.664 9.39692C123.691 9.38306 123.802 9.34032 123.874 9.31645C123.955 9.28871 124.04 9.2699 124.124 9.24936C124.294 9.22051 124.468 9.20495 124.64 9.22049C124.985 9.24267 125.32 9.3542 125.607 9.54285C125.893 9.7315 126.137 9.99397 126.293 10.3041C126.33 10.3813 126.368 10.4584 126.394 10.541L126.435 10.6625L126.456 10.7363L126.533 11.0226C126.633 11.4038 126.723 11.7861 126.803 12.1701C127.117 13.7103 127.255 15.28 127.246 16.8475C127.219 18.4166 127.027 19.9863 126.634 21.5071C126.44 22.2723 126.214 22.9808 125.984 23.7166C125.754 24.4451 125.495 25.1664 125.211 25.8827C125.07 26.2406 124.921 26.5968 124.762 26.9502C124.681 27.1272 124.6 27.3037 124.515 27.4785L124.45 27.6099C124.429 27.6527 124.389 27.7214 124.359 27.7753C124.294 27.8885 124.21 27.9939 124.12 28.0893C123.757 28.4822 123.219 28.6736 122.713 28.6337C122.2 28.6054 121.722 28.3146 121.438 27.9179L121.433 27.9223Z" fill="#371A45"/>
<path d="M140.113 62.0516C140.105 64.1822 138.073 64.0679 138.073 64.0679C138.073 64.0679 134.923 62.8883 136.07 64.6688C136.92 65.9899 137.648 66.9498 137.441 67.7332C137.221 68.5677 135.871 68.8806 134.257 68.8723C133.125 68.8679 132.197 69.1148 131.104 70.5851C130.892 70.8698 130.674 71.2038 130.447 71.5905L130.441 71.5955V71.5983C127.214 76.2862 122.523 79.9721 116.827 82.7557C116.827 82.7557 84.8221 95.2066 65.2297 84.1939C62.1961 82.4162 59.4789 80.1591 57.2394 77.3443C56.7561 77.2622 56.2922 77.3149 55.8033 77.4253C54.2302 77.7804 52.8435 77.7671 52.4457 76.9992C52.0783 76.2785 52.4745 75.1022 52.9512 73.598C53.3407 72.3795 53.4645 71.6272 53.5011 71.2954C53.5116 71.2088 53.4356 71.1483 53.3718 71.1882C52.5989 71.6882 49.0287 73.8765 48.6131 72.0244C48.5316 71.656 48.642 71.0013 48.8339 70.1596C49.1785 68.636 49.7778 66.5026 49.9227 64.3875C50.2889 59.0365 50.6312 55.2591 50.8593 52.9753C50.8654 52.9121 50.8704 52.8488 50.8787 52.7889C50.8809 52.7273 50.8887 52.6674 50.8942 52.6097C50.8992 52.552 50.9076 52.4937 50.9126 52.4382C50.9836 51.773 51.0729 51.1127 51.1811 50.4524C51.67 47.403 52.5195 44.3391 53.6431 40.8524L64.3064 26.6444L70.2492 18.7233L71.4149 17.1681C75.2586 14.7667 79.65 12.9729 84.5851 11.9592H84.5929C85.2959 11.8155 86.0112 11.6868 86.7348 11.5752C87.1848 11.5064 87.6343 11.4431 88.0793 11.3882C88.7945 11.2989 89.502 11.2285 90.2023 11.1807C90.2311 11.1757 90.2605 11.1757 90.2888 11.1757C92.4174 11.0215 94.4565 11.1358 96.4297 11.4071C98.4134 11.6779 100.334 12.1018 102.223 12.5595C107.006 13.7225 111.181 15.8215 114.635 18.123C121.783 22.8842 125.856 28.512 125.856 28.512C128.016 31.5193 129.771 34.2636 131.164 37.1122C131.7 38.2013 132.18 39.2983 132.612 40.4341C132.736 40.7581 132.854 41.0816 132.967 41.4106C132.967 41.4106 132.978 41.4367 132.997 41.4949C133.215 42.1158 134.712 46.4353 137.192 54.8768C138.118 58.0317 140.116 60.9968 140.113 62.0516Z" fill="white"/>
<path d="M132.613 40.4335C126.695 42.9908 119.619 44.1488 112.238 41.1792C95.5136 34.4489 95.3299 19.1284 96.4302 11.4088C98.4139 11.6779 100.333 12.1018 102.224 12.5595C116.897 16.1289 125.856 28.5126 125.856 28.5126C128.018 31.5182 129.772 34.2636 131.165 37.1122C131.699 38.2002 132.183 39.2983 132.613 40.4335Z" fill="#FF574C"/>
<path d="M75.3001 21.1969C71.2605 18.8848 52.7812 8.6113 49.5406 11.7484C43.8647 17.242 52.3639 37.8779 54.0791 41.9482L75.3001 21.1969Z" fill="white"/>
<path d="M72.7234 19.7543C72.2773 19.509 71.7973 19.2482 71.2879 18.9758C74.0024 17.0566 77.0309 15.5252 80.1749 14.3639C81.7979 13.7636 83.4598 13.2697 85.1439 12.9113C86.8208 12.5529 88.5509 12.3127 90.2722 12.1889L90.4009 12.1717C90.387 12.1772 90.3726 12.1806 90.3582 12.1822H90.3543C90.3487 12.1839 90.3288 12.1839 90.3355 12.1839L90.3576 12.1822H90.3582L90.4642 12.1772L90.6822 12.1634L91.1195 12.1379L91.9624 12.1135C92.0439 12.1135 92.1266 12.1135 92.2087 12.1135C92.6887 12.1135 93.1692 12.1223 93.6509 12.1495C94.5348 12.1945 95.4182 12.2782 96.3021 12.3964C96.2305 13.0123 96.1695 13.6643 96.1245 14.3501C94.957 14.2114 93.7668 14.1286 92.5472 14.1286C91.9124 14.1286 91.2699 14.1514 90.6173 14.1991C90.6151 14.1991 90.6123 14.1991 90.6095 14.1991C90.5851 14.1991 90.559 14.2008 90.5313 14.208C89.3938 14.2835 88.2391 14.4172 87.0638 14.6008C81.561 15.4481 76.9866 16.8335 72.7234 19.7543Z" fill="white"/>
<path d="M70.5282 21.4471C65.5981 18.705 55.9425 13.889 51.0912 13.889C50.2982 13.889 49.634 14.0177 49.1391 14.304C49.3616 13.7292 49.6551 13.2082 50.0302 12.7793L50.2472 12.5324C50.3165 12.4636 50.367 12.4447 50.4209 12.3898C50.549 12.311 50.6939 12.2339 50.8803 12.1823C51.1977 12.0913 51.5756 12.038 51.9834 12.038C52.0456 12.038 52.1094 12.0397 52.1732 12.0419C53.1293 12.0657 54.1575 12.2799 55.1674 12.5457C56.1811 12.8187 57.1932 13.1616 58.1965 13.5389C60.2046 14.2985 62.1805 15.1973 64.1282 16.1561C66.0742 17.1182 67.9969 18.1458 69.8846 19.2227L70.4739 19.5589L71.0249 19.1611C71.1126 19.099 71.1997 19.0357 71.2874 18.9758C71.7967 19.2482 72.2767 19.509 72.7228 19.7542C72.4781 19.9207 72.234 20.0938 71.992 20.2725L70.5282 21.4471Z" fill="white"/>
<path d="M51.8923 17.1321C51.8923 17.1321 50.9911 16.8713 51.1737 18.9725C51.4877 22.569 53.6058 31.5104 57.9727 34.5154C57.9727 34.5154 63.5542 24.9288 65.1495 23.7575C66.7448 22.5862 63.0898 21.6619 61.9822 20.4112C60.8736 19.1612 52.5415 16.7614 51.8923 17.1321Z" fill="#EBA7A4"/>
<path d="M51.8021 17.2763C51.7522 17.2763 51.6723 17.2896 51.5929 17.3568C51.4526 17.4766 51.2312 17.8439 51.3283 18.9586C51.6385 22.5174 53.727 31.2468 57.9231 34.2907C58.6594 33.034 63.5435 24.7429 65.0566 23.6321C65.2875 23.4623 65.3996 23.2981 65.3902 23.1433C65.3652 22.7199 64.5162 22.2411 63.6961 21.7784C62.9975 21.3839 62.2756 20.9771 61.8655 20.5144C60.7513 19.2588 52.4852 17.0122 51.9686 17.2658L51.9137 17.2952L51.8515 17.2813C51.8499 17.2813 51.831 17.2763 51.8021 17.2763ZM58.0218 34.7385L57.8842 34.6436C53.5062 31.6308 51.3366 22.6289 51.0186 18.9841C50.9343 18.0203 51.0636 17.3912 51.4004 17.1132C51.5741 16.9706 51.7677 16.9556 51.8831 16.9706C52.9402 16.712 61.011 19.084 62.0986 20.3086C62.4737 20.7319 63.1728 21.1264 63.8487 21.507C64.8231 22.058 65.6648 22.5313 65.7003 23.1244C65.7164 23.3924 65.5616 23.646 65.2409 23.8829C63.6894 25.0214 58.1622 34.4982 58.1062 34.5937L58.0218 34.7385Z" fill="#390075"/>
<path d="M65.1483 23.7558C64.2188 24.4405 61.9371 27.9754 60.1948 30.809C58.9452 32.8431 57.9719 34.5154 57.9719 34.5154C53.6055 31.5098 51.4881 22.569 51.1734 18.9708C50.9898 16.8713 51.892 17.132 51.892 17.132C52.1789 16.9706 53.9651 17.3462 55.9666 17.9277C58.493 18.6584 61.3634 19.7115 61.9821 20.4112C63.0897 21.6618 66.7458 22.5862 65.1483 23.7558Z" fill="#FFB8B8"/>
<path d="M59.1248 33.7355C58.9822 34.0545 58.7115 34.3297 58.3736 34.4678C58.0401 34.6104 57.6444 34.621 57.2904 34.4851C57.1156 34.4141 56.9525 34.3114 56.816 34.1827C56.7133 34.0845 56.6223 33.9984 56.5285 33.9025C56.3426 33.7149 56.1629 33.5224 55.9903 33.3249C55.2995 32.5353 54.6908 31.6836 54.1509 30.7964C53.6137 29.9064 53.1343 28.9871 52.7032 28.0477C52.2809 27.1056 51.8969 26.1501 51.5584 25.1641C51.2211 24.1793 50.9575 23.1623 50.7655 22.1197C50.5846 21.0771 50.4709 20.0013 50.5469 18.8988C50.5536 18.7595 50.568 18.6225 50.583 18.4838C50.5863 18.4255 50.6041 18.3189 50.6207 18.2263C50.634 18.132 50.6628 18.0409 50.6895 17.9483C50.801 17.5799 50.9958 17.237 51.2544 16.9518C51.766 16.3759 52.5473 16.0496 53.3241 16.0896C53.4201 16.0979 53.5177 16.0995 53.6121 16.1184C53.7008 16.1356 53.8179 16.1561 53.8662 16.17L54.2425 16.261C54.4921 16.3226 54.7424 16.3842 54.991 16.453C55.4881 16.5901 55.9825 16.7327 56.4736 16.8886C58.4429 17.4956 60.3678 18.2573 62.2156 19.2006C63.1417 19.6656 64.0401 20.1938 64.9062 20.7747C65.126 20.9157 65.3396 21.0649 65.5499 21.2208L65.8673 21.4505L66.0304 21.5693C66.1186 21.6375 66.203 21.7129 66.2773 21.7973C66.5803 22.1352 66.7373 22.5896 66.7151 23.0269C66.6968 23.4641 66.5059 23.8947 66.193 24.1965C63.3314 26.9086 61.0114 30.2088 59.1309 33.7377L59.1248 33.7355ZM58.4018 33.377C59.2575 31.5294 60.2274 29.7272 61.3394 28.005C61.8954 27.1438 62.4869 26.3033 63.12 25.4904C63.7559 24.6864 64.4468 23.8897 65.162 23.1678C65.2586 23.0629 65.2391 22.8881 65.1559 22.8243C65.147 22.816 65.1337 22.8094 65.1226 22.7988L64.9756 22.7012L64.6709 22.5003C64.4695 22.3632 64.2647 22.2329 64.0533 22.1091C63.2232 21.5965 62.3504 21.1487 61.4637 20.727C59.6908 19.8831 57.8298 19.2073 55.9398 18.633C55.4671 18.4888 54.991 18.3567 54.5138 18.2296L53.7974 18.041L53.4378 17.9522C53.3646 17.9311 53.3563 17.9367 53.3213 17.9278C53.2919 17.9178 53.2625 17.9211 53.2336 17.9178C53.0022 17.9006 52.7587 17.9949 52.5961 18.1747C52.5151 18.2623 52.4546 18.3672 52.4185 18.4821C52.4107 18.5109 52.398 18.5387 52.3958 18.5692C52.3908 18.6019 52.3825 18.6208 52.3775 18.6879C52.3647 18.7995 52.3514 18.9126 52.3447 19.0258C52.2088 20.8607 52.5811 22.7988 53.1276 24.667C53.4034 25.6036 53.7336 26.5385 54.0976 27.454C54.4577 28.3718 54.8583 29.2717 55.3139 30.14C55.7639 31.0106 56.26 31.8573 56.8393 32.6369C56.983 32.8322 57.1334 33.0214 57.2876 33.2072C57.3631 33.2982 57.448 33.3926 57.5212 33.4758C57.5639 33.5252 57.6144 33.564 57.6694 33.5951C57.8908 33.7249 58.2493 33.6528 58.4074 33.3803L58.4018 33.377Z" fill="#371A45"/>
<path d="M113.476 83.4338C115.843 82.3369 118.167 81.1628 120.37 79.8156C122.574 78.4707 124.64 76.9249 126.477 75.1466C126.927 74.6939 127.375 74.2383 127.797 73.7583C128.016 73.5264 128.215 73.2762 128.421 73.0326L128.71 72.6881L128.995 72.3002C129.182 72.0405 129.369 71.777 129.535 71.5229L129.65 71.3403C129.666 71.3142 129.686 71.2804 129.694 71.2637L129.75 71.1595C129.845 70.9841 129.94 70.8304 130.042 70.6751C130.447 70.0625 130.934 69.4977 131.542 69.0233C131.718 68.8873 131.905 68.7597 132.104 68.6438C132.527 68.2615 133.078 67.9918 133.691 67.8914C133.827 67.8698 133.964 67.8492 134.101 67.8425L134.439 67.822C134.626 67.8076 134.81 67.7993 134.99 67.7782C135.348 67.7366 135.695 67.6817 135.975 67.5923C136.263 67.5235 136.439 67.3643 136.403 67.407C136.36 67.5435 136.446 67.3865 136.348 67.1085C136.268 66.836 136.115 66.4942 135.929 66.1552C135.748 65.8112 135.542 65.4572 135.331 65.0966C135.115 64.7254 134.9 64.3404 134.701 63.942C134.602 63.7433 134.506 63.5402 134.413 63.3305L134.278 63.0065L134.212 62.8356L134.185 62.7546L134.178 62.7379L134.153 62.6525C134.137 62.5987 134.125 62.5254 134.118 62.4622C134.106 62.3268 134.116 62.1875 134.153 62.0505C134.226 61.7819 134.394 61.5034 134.736 61.3203C134.908 61.2298 135.123 61.1799 135.329 61.1944C135.436 61.2005 135.53 61.221 135.614 61.2493L135.676 61.2704L135.808 61.318L136.084 61.4135C136.269 61.4751 136.455 61.5333 136.642 61.5883C137.012 61.6954 137.386 61.7919 137.748 61.864C138.108 61.935 138.466 61.98 138.763 61.9767C138.907 61.9734 139.036 61.9567 139.103 61.9362C139.178 61.9162 139.158 61.904 139.104 61.9684C139.051 62.0383 139.053 62.101 139.058 62.0488C139.05 62.0538 139.045 61.934 138.984 61.7758C138.881 61.4707 138.726 61.1028 138.557 60.7382C137.876 59.2685 137.099 57.7254 136.537 56.0725C136.249 55.2208 136.046 54.4307 135.813 53.6334L135.127 51.2398C134.836 50.2239 134.543 49.2085 134.245 48.1948C133.563 46.0209 132.864 43.8447 132.122 41.7141L132.295 41.6547L132.291 41.6426L132.118 41.7025L132.144 41.7824L132.311 41.7269L132.309 41.713L132.14 41.7679C131.408 39.6534 130.434 37.5494 129.322 35.5586C128.206 33.5584 126.936 31.633 125.597 29.7466C124.311 27.9006 122.734 26.2105 121.103 24.607C119.458 23.0129 117.721 21.5076 115.869 20.1621C115.416 19.8109 114.93 19.509 114.462 19.18L113.755 18.6967C113.516 18.5381 113.268 18.396 113.026 18.2468C112.536 17.9521 112.052 17.6481 111.56 17.3601L110.048 16.5589C109.795 16.4291 109.549 16.2831 109.289 16.1666L108.51 15.8165C107.99 15.5868 107.476 15.3399 106.95 15.1235L105.348 14.5354C105.082 14.4394 104.817 14.3345 104.548 14.2441L103.729 14.0122L102.091 13.5461C101.536 13.4051 100.967 13.2786 100.405 13.1516C99.2802 12.9013 98.156 12.6777 97.0301 12.5013C95.9043 12.3298 94.7767 12.2061 93.6498 12.1495C93.0866 12.119 92.5239 12.1118 91.9618 12.114L91.1189 12.1379L90.6817 12.1634L90.4636 12.1773L90.3537 12.1823C90.3482 12.1839 90.3283 12.1839 90.3349 12.1839L90.3571 12.1823C90.3715 12.1806 90.3871 12.1773 90.4004 12.1717L90.2711 12.1895C88.5504 12.3127 86.8202 12.5529 85.1434 12.9113C83.4593 13.2692 81.7974 13.7636 80.1744 14.3639C76.9294 15.563 73.806 17.1559 71.0255 19.1612L70.474 19.559L69.8847 19.2233C67.9969 18.1458 66.0748 17.1182 64.1283 16.1561C62.1806 15.1973 60.2047 14.299 58.1972 13.5389C57.1934 13.1616 56.1813 12.8186 55.1675 12.5457C54.1576 12.2804 53.1294 12.0652 52.1728 12.0413C51.6939 12.0225 51.2461 12.0774 50.8804 12.1823C50.694 12.2339 50.5492 12.3104 50.421 12.3898C50.3666 12.4447 50.3167 12.4636 50.2473 12.5324L50.0304 12.7793C49.4533 13.4396 49.0687 14.3179 48.8396 15.2744C48.6104 16.2332 48.5244 17.2602 48.5183 18.2984C48.5094 19.3376 48.5893 20.394 48.7253 21.4488C48.8551 22.5019 49.0371 23.5583 49.2596 24.6098C49.4772 25.6612 49.734 26.7088 50.0181 27.7502C50.5825 29.8353 51.255 31.8999 51.9985 33.9373C52.7443 35.9692 53.5583 38.0011 54.4733 39.9258L54.6642 40.3264L54.5155 40.7437C54.1698 41.7169 53.8691 42.7178 53.5994 43.7321C53.3369 44.7497 53.1022 45.7784 52.8913 46.8154C52.6849 47.8535 52.4979 48.8966 52.3326 49.9453C52.2505 50.4691 52.1716 50.9934 52.1012 51.5189L51.9985 52.3062L51.9114 53.0553L51.9036 53.1307L51.8271 53.7948L51.7577 54.4945L51.6306 55.9027L51.4042 58.733L51.002 64.4074C50.8677 66.4277 50.3766 68.3574 49.9505 70.1746C49.8484 70.6229 49.7479 71.0773 49.703 71.4546C49.6919 71.5473 49.6813 71.6405 49.6847 71.696L49.6824 71.7293L49.6431 71.732C49.6298 71.7165 49.6131 71.7004 49.5964 71.6877V71.6588L49.6519 71.6577C49.7657 71.6538 49.9316 71.625 50.1058 71.5767C50.4593 71.4807 50.8532 71.3203 51.2411 71.1334C51.6295 70.9464 52.0196 70.7306 52.4003 70.502L52.6827 70.3266L52.7521 70.2828C52.7848 70.2689 52.6938 70.3017 52.9613 70.1701C53.1638 70.0819 53.4262 70.0548 53.6493 70.1041C54.106 70.2057 54.3718 70.5053 54.501 70.801C54.566 70.9519 54.5971 71.1106 54.5998 71.2627C54.5998 71.2993 54.5987 71.3359 54.5959 71.3731L54.5904 71.4308L54.5876 71.4574C54.551 71.7409 54.5038 71.9984 54.4489 72.2531C54.3407 72.7596 54.2075 73.2451 54.0611 73.7228C53.914 74.1967 53.768 74.6361 53.6437 75.0672C53.5206 75.49 53.4157 75.915 53.4002 76.2152C53.3907 76.3633 53.4096 76.466 53.4179 76.4899C53.4207 76.4899 53.4207 76.491 53.4218 76.4938C53.4224 76.4955 53.4218 76.4982 53.4207 76.4938C53.4229 76.4832 53.4046 76.4788 53.4085 76.4727C53.4013 76.4633 53.3985 76.4688 53.4246 76.4832C53.469 76.5137 53.5944 76.567 53.7509 76.6069C53.9107 76.6474 54.1027 76.6741 54.3024 76.7002C54.7103 76.7457 55.1558 76.7623 55.6163 76.7679C55.7956 76.7695 56.2123 76.7756 56.4975 76.8361C56.7428 76.8777 56.9686 76.9393 57.1872 77.0087L57.1912 77.0098L57.1983 77.0125L57.2039 77.0142L57.361 77.0597C57.5896 77.1457 57.832 77.2239 58.0434 77.3255C58.4885 77.5114 58.8835 77.7416 59.277 77.973C59.9145 78.3658 60.4982 78.8047 61.047 79.2713L61.2878 79.46C62.0569 80.0676 62.7904 80.7012 63.5074 81.3354L64.5711 82.2786C64.7464 82.4318 64.9207 82.5843 65.091 82.7253C65.2558 82.864 65.4406 83.0082 65.5382 83.0737L65.2913 82.9683C65.3995 82.996 65.5349 83.067 65.6021 83.1159L65.6132 83.1242L65.6359 83.1397L65.6809 83.1714L65.7702 83.2341L65.95 83.36L66.3129 83.6064C66.5565 83.7678 66.8023 83.9271 67.052 84.0802C67.5492 84.3898 68.0596 84.6789 68.574 84.963C69.0889 85.2459 69.6133 85.5129 70.1466 85.7637C70.6865 86.0167 71.2003 86.2491 71.7568 86.4611C72.8572 86.8844 73.9836 87.2601 75.1327 87.5719C76.2814 87.8904 77.451 88.1473 78.6341 88.3853L78.6374 88.3859C78.8488 88.428 78.9858 88.6344 78.9431 88.8464C78.9054 89.0345 78.7373 89.1643 78.5519 89.1593C76.0905 89.1083 73.6173 88.7293 71.2252 88.0019C71.0582 87.9525 70.889 87.9004 70.7203 87.8449C69.9341 88.5595 69.1661 89.2991 68.4109 90.041C62.2739 96.1038 55.249 104.93 55.1608 114.074C55.1525 115.227 55.2107 116.328 55.4405 117.467C56.2955 122.041 59.0783 125.832 63.0768 128.179C64.8996 129.252 67.2501 130.195 69.3819 130.264C73.8865 130.415 82.2175 129.494 83.4249 124.109C83.9188 121.956 84.0042 118.169 82.3085 116.482C81.9406 116.111 81.6271 115.974 81.161 115.815C80.1295 115.456 79.0819 115.281 78.1058 115.433C76.2753 115.72 75.8552 116.658 73.9825 115.854C72.6308 115.181 71.6775 113.809 71.2813 112.375C70.561 110.001 71.1598 106.653 73.022 104.878C73.2822 104.63 73.73 104.869 73.5869 105.294C73.2323 106.362 73.0153 107.499 72.9853 108.595C72.9826 108.87 72.9559 109.143 72.9792 109.412C73.0098 110.629 73.2112 111.631 73.8332 112.696C74.1029 113.159 74.8053 113.913 75.3719 113.913C75.3813 113.927 75.8242 113.78 75.843 113.774C78.138 112.966 79.8021 113.074 82.0971 113.911C86.0512 115.358 86.2582 121.153 85.4774 124.575C83.9676 131.072 74.9585 132.506 69.317 132.367C65.6559 132.249 61.5736 130.126 58.9257 127.729C52.7421 122.162 51.8154 114.122 54.4162 106.635C56.9936 99.2149 62.7827 92.3641 68.5413 86.9937C68.2683 86.8728 67.9964 86.7485 67.7262 86.6198C67.1591 86.3523 66.607 86.0527 66.0621 85.7409C65.7891 85.5844 65.5199 85.4235 65.2525 85.2576L64.8535 85.0062L64.6554 84.8775L64.5561 84.8126L64.5073 84.7799L64.4829 84.7638L64.4706 84.7555C64.5294 84.7993 64.6582 84.8647 64.7581 84.8875L64.51 84.7815C64.2054 84.5957 64.019 84.4414 63.8165 84.28C63.6195 84.1202 63.4336 83.9632 63.2493 83.8061L62.1668 82.874C61.4526 82.2597 60.7379 81.6622 60.0088 81.1023L59.8402 80.9742C59.2642 80.5836 58.6954 80.1979 58.1261 79.8573C57.7971 79.6592 57.4642 79.4639 57.139 79.3102C56.9736 79.222 56.8149 79.1703 56.6535 79.0982C56.5686 79.0727 56.4825 79.0417 56.3982 79.015L56.3915 79.0133L56.3899 79.0128C56.3027 78.99 56.2184 78.9717 56.1385 78.9601C55.9565 78.9301 55.8955 78.934 55.6008 78.9329C55.112 78.9329 54.6076 78.924 54.0699 78.8724C53.7969 78.8441 53.5189 78.8036 53.2182 78.7292C52.9163 78.6499 52.5862 78.545 52.2299 78.3176C52.0563 78.2072 51.8726 78.0529 51.7139 77.8609C51.6323 77.7716 51.5674 77.654 51.5002 77.5463C51.4387 77.4376 51.4004 77.3355 51.356 77.2273C51.2078 76.8012 51.1973 76.42 51.2128 76.0954C51.255 75.4451 51.402 74.9463 51.538 74.458C51.6667 74.0097 51.8088 73.5802 51.9347 73.1735C52.2937 73.0137 52.6372 72.8406 52.9718 72.6575C53.1677 72.5482 53.3613 72.4372 53.5528 72.3218L53.6887 72.2386C53.5356 72.2803 53.3591 72.2885 53.206 72.2547C52.8087 72.1654 52.5901 71.9112 52.4841 71.6699C52.4491 71.59 52.4264 71.5068 52.4142 71.4258L52.362 71.6982C52.3237 71.8841 52.2799 72.0727 52.2305 72.2614C52.1483 72.5843 52.0552 72.9 51.9508 73.2274C51.5569 73.4082 51.144 73.573 50.6774 73.6995C50.3927 73.7744 50.0903 73.8382 49.729 73.8521C49.3745 73.8582 48.9211 73.8349 48.4334 73.5469C48.1965 73.3999 47.9751 73.1891 47.833 72.9577C47.7498 72.8412 47.7093 72.7313 47.6538 72.6137C47.6083 72.5005 47.5822 72.3968 47.5511 72.2858C47.5084 72.0672 47.4851 71.8147 47.4968 71.6666C47.4973 71.4851 47.514 71.342 47.5312 71.1988C47.6033 70.6334 47.7165 70.1607 47.8253 69.683C48.2753 67.8098 48.7253 66.0371 48.8496 64.2588L49.2751 58.5672L49.5154 55.7174L49.6497 54.2892L49.7241 53.5707C49.7524 53.3233 49.7751 53.1035 49.814 52.82L49.8062 52.896L49.9066 52.0443L50.0154 51.2331C50.0892 50.6938 50.1685 50.1551 50.2534 49.6174C50.4232 48.5421 50.6147 47.4701 50.8283 46.3998C51.0458 45.3295 51.2888 44.2631 51.5629 43.1989C51.8459 42.1364 52.1628 41.0772 52.5368 40.0246L52.5795 40.843C51.6085 38.8006 50.79 36.7494 50.0226 34.6598C49.2591 32.5724 48.5705 30.4557 47.9867 28.3012C47.6937 27.2253 47.4269 26.1389 47.1999 25.0398C46.9669 23.9428 46.7754 22.8309 46.6361 21.7079C46.4924 20.5843 46.4047 19.4458 46.4131 18.2878C46.4214 17.1337 46.5129 15.9569 46.7943 14.779C47.0761 13.6071 47.5706 12.4037 48.4384 11.4022L48.7702 11.0326C48.894 10.9078 49.076 10.7757 49.2308 10.6542C49.5632 10.4361 49.9155 10.2702 50.259 10.1704C50.9454 9.97172 51.6057 9.91846 52.2227 9.93733C53.4651 9.97283 54.601 10.2236 55.7113 10.5138C56.8188 10.8101 57.8881 11.1735 58.9396 11.5697C61.0404 12.3659 63.0679 13.2881 65.0599 14.2696C67.0497 15.2539 69.004 16.297 70.93 17.3978L69.7898 17.4594C72.7795 15.321 76.05 13.6759 79.4669 12.4275C81.176 11.805 82.9277 11.2906 84.7183 10.915C86.5156 10.541 88.3112 10.2991 90.1324 10.1759L90.0036 10.1926C90.0536 10.1843 90.1051 10.1793 90.1567 10.1743L90.2683 10.167L90.3776 10.1604L90.5957 10.1482L91.0335 10.1227L91.9419 10.1021C92.5472 10.1005 93.152 10.1105 93.7552 10.1465C94.9604 10.2115 96.1567 10.349 97.3381 10.5344C98.5194 10.723 99.6863 10.961 100.839 11.2218C101.416 11.3539 101.987 11.4837 102.561 11.6335L104.293 12.1307L105.158 12.3815C105.441 12.4775 105.72 12.5868 106.001 12.69L107.686 13.3175C108.238 13.5472 108.778 13.808 109.325 14.0515L110.141 14.4239C110.413 14.547 110.67 14.7018 110.936 14.8389L112.515 15.685C113.029 15.988 113.535 16.3053 114.043 16.6155C114.297 16.7742 114.554 16.9246 114.803 17.0893L115.539 17.597C116.025 17.9416 116.532 18.259 117.001 18.6257C118.922 20.0339 120.719 21.602 122.42 23.2637C124.107 24.9388 125.729 26.6849 127.111 28.6774C129.827 32.5258 132.297 36.635 133.851 41.2192L133.686 41.2736L133.68 41.2603L133.847 41.2048L133.82 41.1254L133.647 41.1859L133.642 41.1737L133.817 41.1132C134.552 43.251 135.226 45.3794 135.889 47.5167C136.238 48.5754 136.582 49.6351 136.923 50.6954C137.18 51.4889 137.425 52.2851 137.67 53.0813C137.919 53.8764 138.151 54.6932 138.412 55.4112C138.952 56.9009 139.7 58.3241 140.448 59.8544C140.633 60.2428 140.822 60.6345 140.986 61.1172C141.065 61.3502 141.152 61.6387 141.169 62.0593C141.166 62.1564 141.159 62.2547 141.149 62.3518C141.135 62.4539 141.108 62.5643 141.082 62.6686C141.046 62.7779 141 62.8894 140.95 62.9954C140.888 63.1014 140.825 63.2096 140.746 63.3028C140.429 63.6912 140.02 63.8776 139.698 63.9719C139.367 64.0668 139.078 64.0912 138.808 64.1006C138.271 64.109 137.801 64.0441 137.345 63.9592C137.159 63.9242 136.976 63.8848 136.796 63.8415L136.773 63.801C136.563 63.4209 136.362 63.0287 136.193 62.6458C136.126 62.8489 135.99 63.0592 135.717 63.2062C135.678 63.2273 135.636 63.2462 135.592 63.2617L135.724 63.3067C136.051 63.4132 136.384 63.5097 136.723 63.5968L136.935 63.6468C137.006 63.7783 137.081 63.9104 137.156 64.0424C137.362 64.402 137.574 64.7664 137.787 65.1543C137.996 65.546 138.218 65.9522 138.391 66.4726C138.475 66.7323 138.55 67.0297 138.559 67.3915C138.563 67.5718 138.547 67.7654 138.5 67.9657C138.451 68.1771 138.36 68.4018 138.241 68.586C138.003 68.96 137.698 69.1969 137.418 69.3617C137.135 69.5293 136.867 69.6286 136.609 69.7074C136.089 69.8539 135.607 69.916 135.137 69.9299C134.902 69.9366 134.671 69.9426 134.441 69.9271L134.154 69.9099C134.085 69.9033 134.014 69.906 133.943 69.9066C133.662 69.9215 133.372 69.9654 133.041 70.0348L132.949 70.0542C132.811 70.1324 132.676 70.2223 132.545 70.3222C132.115 70.6523 131.726 71.0929 131.405 71.5745C131.326 71.6926 131.249 71.8197 131.187 71.9329L131.126 72.0461C131.096 72.1021 131.074 72.1371 131.047 72.1826L130.899 72.4162C130.703 72.7113 130.508 72.9827 130.31 73.2551L130.01 73.6601L129.666 74.0713C129.447 74.3287 129.235 74.5929 129.002 74.8381C128.553 75.343 128.079 75.8241 127.599 76.3001C125.657 78.1805 123.467 79.7779 121.164 81.1357C120.014 81.8187 118.827 82.4301 117.631 83.0144C116.433 83.5908 115.21 84.1085 113.986 84.6146C113.658 84.7494 113.282 84.5934 113.147 84.265C113.015 83.9454 113.159 83.5814 113.47 83.4377L113.476 83.4338ZM132.297 41.6537L132.295 41.6409L132.293 41.6415L132.297 41.6537ZM132.347 41.6364L132.348 41.6359L132.343 41.6242L132.342 41.6248L132.347 41.6364ZM133.64 41.1881L133.645 41.1865L133.641 41.1743L133.639 41.1748L133.641 41.1787L133.639 41.1748L133.633 41.177L133.64 41.1881ZM133.675 41.2619L133.671 41.2636L133.674 41.2775L133.678 41.2763L133.675 41.2619ZM133.667 41.2647H133.666L133.669 41.2791L133.671 41.2786L133.667 41.2647ZM133.627 41.278H133.626L133.632 41.2913H133.632L133.627 41.278ZM132.372 41.6919L132.37 41.6925L132.376 41.7058L132.377 41.7052L132.372 41.6919ZM132.319 41.7091L132.315 41.7102L132.323 41.723L132.325 41.7224L132.319 41.7091ZM132.313 41.7113L132.311 41.7119L132.315 41.7263L132.319 41.7247L132.313 41.7113ZM132.292 41.642L132.293 41.6415L132.295 41.6503L132.295 41.6542L132.292 41.642ZM133.591 41.1915L133.596 41.2031L133.591 41.1915Z" fill="#371A45" fill-opacity="0.341176"/>
<path d="M97.9074 62.0215C98.3058 63.4619 101.281 64.0312 103.384 63.8203C104.972 63.6611 107.404 62.3517 107.233 60.7621C107.098 59.5065 105.585 58.7541 101.837 59.4549C98.7719 60.0286 97.6416 61.0594 97.9074 62.0215Z" fill="#371A45"/>
<path d="M103.117 60.5746C102.651 60.5746 102.21 60.3715 102.193 60.2738C102.216 60.1024 102.545 59.9154 103.4 59.9048C103.423 59.9048 103.445 59.9048 103.466 59.9048C104.265 59.9048 104.499 60.0597 104.56 60.1285C104.591 60.1645 104.603 60.2017 104.599 60.2422C104.57 60.2983 104.273 60.4664 103.264 60.5679C103.215 60.5723 103.166 60.5746 103.117 60.5746Z" fill="#C3B2D5"/>
<path d="M103.122 60.8853C102.686 60.8853 102.201 60.7372 101.999 60.5297C101.889 60.4165 101.877 60.3071 101.885 60.2356C101.922 59.9514 102.213 59.6085 103.398 59.5941C103.436 59.5935 103.474 59.593 103.511 59.593C104.171 59.593 104.599 59.704 104.792 59.9215C104.885 60.0247 104.924 60.1512 104.907 60.2888C104.892 60.407 104.852 60.7211 103.296 60.877C103.239 60.8826 103.182 60.8853 103.122 60.8853ZM103.467 59.9049C103.446 59.9049 103.424 59.9049 103.401 59.9049C102.546 59.9154 102.217 60.1024 102.194 60.2738C102.21 60.3715 102.652 60.5746 103.118 60.5746C103.167 60.5746 103.216 60.5724 103.265 60.5679C104.274 60.4664 104.571 60.2983 104.6 60.2422C104.604 60.2017 104.592 60.1646 104.56 60.1285C104.499 60.0597 104.266 59.9049 103.467 59.9049Z" fill="#390075"/>
<path d="M108.983 64.5845C108.983 64.5845 109.986 66.9004 108.491 67.862C106.562 69.1026 104.57 67.5656 103.647 66.3982C103.647 66.3982 101.642 69.7884 98.7556 68.5461C96.823 67.7155 97.5477 65.0167 97.5477 65.0167L108.983 64.5845Z" fill="white"/>
<path d="M100.02 68.9738C99.6035 68.9738 99.1596 68.8889 98.6951 68.6891C96.6626 67.8153 97.39 65.005 97.3983 64.9767L97.6985 65.0566C97.6913 65.0821 97.0321 67.6361 98.8177 68.4034C101.543 69.5758 103.435 66.4526 103.514 66.3194L103.63 66.1247L103.77 66.3028C104.006 66.6018 106.147 69.1852 108.407 67.7315C109.772 66.8526 108.85 64.6682 108.84 64.646L109.125 64.5228C109.169 64.6221 110.163 66.9719 108.576 67.9928C106.645 69.234 104.645 67.8086 103.662 66.6601C103.266 67.2366 101.912 68.9738 100.02 68.9738Z" fill="#390075"/>
<path d="M109.075 64.5445C109.464 64.8186 109.7 65.1931 109.842 65.612C109.984 66.0321 109.999 66.5075 109.888 67.0014C109.866 67.1245 109.823 67.2489 109.775 67.3721C109.734 67.4964 109.669 67.6145 109.598 67.7316C109.534 67.8525 109.446 67.9563 109.355 68.0589C109.268 68.1677 109.167 68.2554 109.06 68.3375L108.901 68.4618C108.849 68.4989 108.8 68.5239 108.749 68.5556C108.647 68.616 108.543 68.6726 108.44 68.7287C108.215 68.8163 107.996 68.9179 107.754 68.9634C107.281 69.076 106.777 69.0783 106.318 68.9773C105.857 68.8796 105.432 68.7048 105.047 68.4895C104.287 68.0423 103.661 67.4736 103.13 66.8072L104.215 66.734C103.947 67.154 103.685 67.4874 103.368 67.8254C103.055 68.1549 102.707 68.4596 102.32 68.7276C101.921 68.9812 101.494 69.2125 101.009 69.3379C100.894 69.3806 100.767 69.3939 100.644 69.4161C100.52 69.4339 100.397 69.4655 100.272 69.4689C100.196 69.4683 100.12 69.4711 100.044 69.4733C99.8672 69.4799 99.6896 69.4855 99.5165 69.4511L99.1414 69.3995C99.021 69.3712 98.9034 69.3318 98.7846 69.2969C98.6653 69.2563 98.5499 69.228 98.4289 69.1731C98.3063 69.1143 98.1876 69.0472 98.0677 68.9817C97.5999 68.6821 97.2426 68.1988 97.0833 67.7028C96.9202 67.205 96.9069 66.7095 96.9807 66.2545C97.055 65.7979 97.2043 65.3734 97.4507 64.9906C97.4823 64.9412 97.5478 64.9268 97.5966 64.9584C97.6238 64.9761 97.6404 65.0033 97.6438 65.0338L97.6449 65.0427C97.7526 65.8761 97.8996 66.6718 98.2391 67.1973C98.4056 67.4592 98.5965 67.6378 98.8257 67.7832C98.8889 67.8148 98.9527 67.8442 99.0116 67.882C99.0754 67.9169 99.163 67.9385 99.2374 67.9702C99.314 67.999 99.39 68.0351 99.4682 68.0606L99.7041 68.1094C100.339 68.2532 100.995 68.0179 101.585 67.6367C101.877 67.4331 102.154 67.1934 102.41 66.9237C102.66 66.6618 102.908 66.3405 103.081 66.0625L103.579 65.2575L104.165 65.9899C104.586 66.517 105.134 66.9709 105.708 67.2688C106.289 67.5524 106.889 67.6717 107.418 67.5285C107.555 67.5096 107.683 67.4414 107.816 67.3981C107.88 67.3626 107.943 67.3255 108.009 67.2938C108.04 67.2766 108.077 67.2616 108.104 67.2444L108.172 67.1939C108.354 67.0618 108.481 66.8948 108.569 66.6496C108.655 66.4038 108.668 66.1003 108.709 65.7657C108.749 65.4283 108.784 65.0588 108.89 64.6244L108.892 64.6127C108.908 64.5494 108.972 64.5111 109.035 64.5261C109.049 64.53 109.063 64.5361 109.075 64.5445Z" fill="#371A45"/>
<path d="M97.7837 65.0073C97.7909 64.9584 97.7976 64.9129 97.8037 64.8713C97.8143 64.9141 97.8237 64.9596 97.832 65.0056L97.7837 65.0073ZM103.589 64.7886C103.877 64.3891 104.042 64.1072 104.042 64.1072C104.191 64.2959 104.379 64.5173 104.593 64.7498L103.589 64.7886Z" fill="#C3B2D5"/>
<path d="M100.029 68.8196C99.6292 68.8196 99.2036 68.7386 98.7569 68.5461C97.6077 68.0522 97.6088 66.5403 97.7165 65.5354C97.8197 66.1829 97.9678 66.7767 98.2397 67.1972C98.4062 67.4591 98.5971 67.6377 98.8262 67.7831C98.8895 67.8147 98.9533 67.8442 99.0121 67.8819C99.076 67.9168 99.1636 67.9384 99.2379 67.9701C99.3145 67.9989 99.3906 68.035 99.4688 68.0605L99.7046 68.1094C99.8328 68.1388 99.9621 68.1515 100.091 68.1515C100.602 68.1515 101.115 67.9407 101.586 67.6366C101.878 67.433 102.155 67.1933 102.41 66.9237C102.66 66.6618 102.909 66.3405 103.081 66.0625L103.579 65.2575L104.166 65.9899C104.587 66.517 105.134 66.9708 105.708 67.2688C106.122 67.4707 106.545 67.5895 106.946 67.5895C107.108 67.5895 107.267 67.5701 107.419 67.5284C107.556 67.5096 107.684 67.4413 107.817 67.3981C107.88 67.3626 107.944 67.3254 108.01 67.2938C108.04 67.2766 108.078 67.2616 108.104 67.2444L108.172 67.1939C108.355 67.0618 108.481 66.8948 108.57 66.6496C108.656 66.4038 108.668 66.1003 108.709 65.7657C108.74 65.5099 108.767 65.2358 108.825 64.929C109.026 65.753 109.399 67.2782 108.492 67.8619C107.986 68.1876 107.476 68.3224 106.981 68.3224C105.591 68.3224 104.327 67.2599 103.649 66.3982C103.649 66.3982 102.215 68.8201 100.029 68.8196Z" fill="#371A45"/>
<path d="M104.269 62.2956C104.375 62.633 104.458 62.9537 104.535 63.2899C104.609 63.624 104.674 63.9624 104.717 64.3103C104.759 64.6593 104.792 65.0127 104.781 65.3872C104.769 65.7601 104.733 66.1496 104.598 66.5691L104.586 66.6057C104.453 67.0246 104.005 67.256 103.586 67.1217C103.167 66.9885 102.936 66.5408 103.07 66.1218C103.088 66.0653 103.114 66.0092 103.142 65.9604C103.253 65.7701 103.343 65.5121 103.407 65.2363C103.474 64.9589 103.507 64.6554 103.531 64.3508C103.556 64.044 103.559 63.7299 103.553 63.4142C103.546 63.1007 103.526 62.775 103.494 62.4715L103.493 62.4571C103.47 62.239 103.628 62.0426 103.846 62.0193C104.038 61.9994 104.213 62.1187 104.269 62.2956Z" fill="#371A45"/>
<path d="M76.0275 62.1774C75.7156 61.2348 75.5963 60.2799 75.5869 59.29C75.5913 58.3052 75.7184 57.2904 76.0852 56.3089C76.4436 55.3329 77.0362 54.3797 77.8685 53.6573C78.6842 52.921 79.7135 52.4388 80.7168 52.1935C81.7244 51.9278 82.8287 51.8385 83.9035 52.0593C84.1682 52.1275 84.4345 52.1925 84.692 52.2779C84.9439 52.3828 85.1991 52.4799 85.4422 52.5975C85.6747 52.7368 85.9116 52.8677 86.1335 53.017C86.3433 53.1806 86.5608 53.3371 86.7595 53.5097C86.9465 53.6939 87.1418 53.8709 87.3166 54.0634C87.4775 54.2665 87.6461 54.4634 87.7949 54.6715C87.933 54.8868 88.0784 55.0971 88.2055 55.3151C88.3242 55.5376 88.4446 55.759 88.5473 55.9871C88.9535 56.9003 89.1971 57.8658 89.2509 58.8329C89.2614 59.0282 89.1122 59.1957 88.9168 59.2063C88.757 59.2151 88.6161 59.1169 88.564 58.9743L88.5628 58.9705C87.953 57.2932 86.9792 55.779 85.6725 54.8579C85.0232 54.4002 84.3002 54.1128 83.5545 54.0112C82.8065 53.9069 82.0296 53.9968 81.2622 54.2127C79.7041 54.6155 78.5183 55.5797 77.8097 57.039C77.0884 58.4822 76.8037 60.2793 76.7188 62.0576L76.7177 62.0831C76.7089 62.2784 76.5429 62.4294 76.3471 62.4199C76.1972 62.4127 76.073 62.3123 76.0275 62.1774Z" fill="#371A45"/>
<path d="M110.774 57.4646C110.469 56.5702 110.35 55.6641 110.337 54.7231C110.337 53.7876 110.453 52.82 110.8 51.8839C111.14 50.9529 111.704 50.0413 112.499 49.3499C113.278 48.6458 114.262 48.1847 115.218 47.9517C116.179 47.6987 117.233 47.6143 118.261 47.8263C118.513 47.8918 118.767 47.9544 119.014 48.036C119.255 48.1364 119.498 48.2297 119.73 48.3434C119.952 48.476 120.177 48.602 120.389 48.744C120.589 48.9016 120.796 49.0508 120.985 49.2156C121.163 49.3926 121.349 49.5613 121.515 49.745C121.668 49.9391 121.828 50.1272 121.969 50.327C122.1 50.5317 122.238 50.732 122.358 50.9401C122.47 51.1526 122.583 51.364 122.68 51.581C123.063 52.4515 123.29 53.3703 123.335 54.2897C123.344 54.485 123.193 54.6521 122.997 54.661C122.84 54.6687 122.7 54.5722 122.648 54.4318L122.646 54.4273C122.056 52.846 121.128 51.4228 119.898 50.5645C119.287 50.1372 118.61 49.872 117.911 49.7788C117.212 49.6828 116.485 49.7677 115.764 49.9708C114.302 50.3519 113.199 51.2464 112.526 52.6146C111.841 53.9663 111.563 55.6624 111.466 57.3447L111.464 57.3708C111.452 57.5661 111.284 57.716 111.09 57.7043C110.941 57.6954 110.819 57.5972 110.774 57.4646Z" fill="#371A45"/>
<path fill-rule="evenodd" clip-rule="evenodd" d="M139.69 78.8796C139.44 82.5117 139.003 88.0174 137.628 95.8646C136.252 103.711 133.936 113.898 133.184 118.992C132.431 124.087 133.243 124.088 134.092 124.064C134.94 124.041 135.827 123.992 137.116 117.754C138.406 111.515 140.099 99.0872 141.182 90.9143C142.266 82.7413 142.74 78.8246 143.066 75.915C143.391 73.0059 143.567 71.1051 143.044 70.5757C142.521 70.0464 141.298 70.8903 140.653 72.1903C140.008 73.4904 139.942 75.2476 139.69 78.8796Z" fill="#63AD38"/>
<path d="M140.441 78.9295C140.315 80.7533 140.142 83.0492 139.828 85.874C139.514 88.7054 139.059 92.0622 138.369 95.9939C137.74 99.5832 136.881 103.811 136.074 107.788C135.171 112.237 134.332 116.367 133.929 119.101C133.572 121.515 133.57 122.677 133.75 123.206C133.788 123.32 133.928 123.318 134.071 123.314C134.292 123.308 134.519 123.298 134.798 122.846C135.247 122.115 135.758 120.62 136.381 117.604C137.018 114.521 137.762 109.862 138.482 104.95C139.216 99.9472 139.904 94.8437 140.438 90.8171C140.954 86.9193 141.346 83.8765 141.661 81.3497C141.963 78.9239 142.162 77.2361 142.319 75.8323C142.48 74.3875 142.604 73.1956 142.623 72.3384C142.635 71.7552 142.617 71.3574 142.553 71.1821L142.53 71.1999C142.368 71.2665 142.182 71.4024 141.993 71.5888L141.979 71.6021C141.736 71.8463 141.505 72.1631 141.327 72.5226C140.805 73.5751 140.702 75.0933 140.504 78.0223L140.441 78.9295ZM138.333 85.7092C138.644 82.9122 138.816 80.6368 138.941 78.8291L139.003 77.9219C139.214 74.7981 139.324 73.1785 139.979 71.8574C140.235 71.3419 140.571 70.8853 140.926 70.5313L140.939 70.5174C141.264 70.1967 141.616 69.9515 141.953 69.8111C142.402 69.6247 142.847 69.6064 143.236 69.7994C143.351 69.8566 143.457 69.9309 143.552 70.0214L143.58 70.0491C144.002 70.4769 144.148 71.2598 144.124 72.3678C144.104 73.3194 143.977 74.5345 143.813 75.9971C143.645 77.503 143.443 79.2296 143.157 81.5317C142.882 83.7334 142.494 86.7368 141.927 91.0113C141.378 95.1571 140.677 100.356 139.971 105.168C139.253 110.073 138.504 114.749 137.853 117.904C137.187 121.126 136.608 122.776 136.081 123.634C135.381 124.771 134.739 124.797 134.112 124.814C133.407 124.834 132.715 124.842 132.325 123.689C132.075 122.951 132.043 121.563 132.439 118.883C132.837 116.191 133.687 112.003 134.602 107.494C135.391 103.609 136.23 99.4788 136.886 95.7347C137.573 91.8214 138.024 88.5001 138.333 85.7092Z" fill="#3F7A1D"/>
<path d="M148.639 87.71C148.154 85.7258 145.845 82.7785 141.516 85.5511C138.068 87.7605 136.59 95.3092 138.551 98.2105C139.562 99.7069 140.676 99.7313 141.559 99.7102C142.64 99.6847 143.374 99.5926 143.148 102.043C143.148 102.043 146.034 99.3574 147.278 96.5765C148.785 93.208 149.112 89.6453 148.639 87.71Z" fill="white"/>
<path d="M145.7 88.1932C145.208 87.9025 144.666 87.7549 144.124 87.675C143.581 87.5973 143.034 87.5973 142.508 87.6656C141.454 87.7982 140.494 88.2271 139.811 88.8602C139.433 89.2092 138.843 89.1876 138.493 88.8097C138.143 88.4319 138.166 87.842 138.544 87.4919C138.608 87.4325 138.679 87.3837 138.753 87.3454L138.79 87.3277C140 86.7162 141.324 86.5692 142.525 86.7451C143.129 86.8322 143.71 86.9959 144.252 87.2328C144.791 87.4708 145.304 87.781 145.7 88.1932Z" fill="#371A45"/>
<path d="M144.697 93.3362C144.209 92.9456 143.629 92.7291 143.047 92.6204C142.462 92.5122 141.867 92.5089 141.287 92.5766C140.708 92.6476 140.143 92.7907 139.624 92.9988C139.107 93.2063 138.629 93.4871 138.291 93.8117C137.921 94.169 137.331 94.1584 136.974 93.7883C136.616 93.4172 136.628 92.8274 136.997 92.4711C137.058 92.4129 137.123 92.3646 137.193 92.3264L137.235 92.3036C137.919 91.9291 138.61 91.7526 139.29 91.6589C139.969 91.569 140.642 91.5728 141.299 91.6555C141.954 91.742 142.597 91.9107 143.189 92.1826C143.778 92.4528 144.32 92.8374 144.697 93.3362Z" fill="#371A45"/>
<path fill-rule="evenodd" clip-rule="evenodd" d="M144.871 63.9763C146.688 63.7543 149.461 61.3968 150.945 58.9421C152.429 56.488 152.624 53.9363 151.736 52.6463C150.848 51.3568 148.879 51.3296 147.645 52.1336C146.41 52.9375 145.911 54.5744 145.578 54.3319C145.245 54.0889 145.079 51.9671 144.011 51.0655C142.944 50.1644 140.974 50.4835 140.378 52.2374C139.781 53.9918 140.558 57.1811 141.377 59.7328C142.194 62.284 143.054 64.1982 144.871 63.9763Z" fill="#FF574C"/>
<path d="M144.799 63.3782C145.578 63.2833 146.6 62.7024 147.611 61.8651C148.682 60.9773 149.715 59.8149 150.431 58.6314C151.106 57.5151 151.496 56.3815 151.622 55.3789C151.747 54.3774 151.613 53.5268 151.242 52.9881C150.928 52.5315 150.417 52.2845 149.863 52.2157C149.207 52.133 148.504 52.2912 147.973 52.6374C147.408 53.0047 146.993 53.6289 146.694 54.0789C146.609 54.2071 146.531 54.3247 146.453 54.4307C146.074 54.9489 145.721 55.1792 145.226 54.8191C144.939 54.6071 144.814 54.186 144.654 53.6411C144.451 52.9503 144.166 51.9827 143.624 51.5244C143.49 51.4107 143.331 51.323 143.159 51.2653C142.852 51.161 142.508 51.1488 142.18 51.2342C141.855 51.3191 141.544 51.5022 141.303 51.7885C141.157 51.9605 141.034 52.1741 140.948 52.4299C140.685 53.2023 140.733 54.3419 140.941 55.5898C141.156 56.8915 141.548 58.298 141.949 59.5491C142.341 60.7731 142.74 61.8396 143.242 62.5486C143.656 63.134 144.149 63.4575 144.799 63.3782ZM148.378 62.7922C147.201 63.7676 145.96 64.4501 144.945 64.5744C143.778 64.7164 142.933 64.1943 142.258 63.2405C141.672 62.411 141.23 61.2431 140.805 59.9165C140.388 58.6164 139.981 57.1506 139.754 55.7823C139.517 54.3597 139.475 53.0258 139.809 52.0443C139.945 51.6437 140.144 51.3002 140.385 51.0139C140.793 50.5279 141.322 50.2166 141.879 50.0718C142.434 49.927 143.02 49.9481 143.545 50.1262C143.853 50.2311 144.144 50.3925 144.398 50.6061C145.203 51.2841 145.55 52.4277 145.795 53.2599C146.143 52.7423 146.614 52.0887 147.318 51.6298C148.083 51.1321 149.084 50.9035 150.009 51.0195C150.883 51.1288 151.704 51.5382 152.231 52.305C152.772 53.0913 152.979 54.2359 152.817 55.5249C152.672 56.6862 152.228 57.9856 151.461 59.2529C150.676 60.5523 149.546 61.8246 148.378 62.7922Z" fill="#371A45"/>
<path fill-rule="evenodd" clip-rule="evenodd" d="M140.448 63.7194C140.594 62.7556 140.704 61.3962 140.615 59.871C140.524 58.3457 140.233 56.6534 139.776 55.2319C139.318 53.8109 138.694 52.6602 137.89 52.32C137.085 51.9805 136.101 52.4521 135.629 53.1801C135.157 53.908 135.199 54.8923 134.922 55.3495C134.645 55.8073 134.048 55.7385 133.133 55.4056C132.217 55.0727 130.983 54.4767 129.978 54.9683C128.973 55.461 128.196 57.0423 128.64 58.7618C129.083 60.4812 130.747 62.3394 132.835 63.5385C134.921 64.738 137.432 65.2791 138.777 65.2652C140.122 65.2513 140.302 64.6831 140.448 63.7194Z" fill="#FF574C"/>
<path d="M139.852 63.6301C139.93 63.1118 139.999 62.4832 140.029 61.7885C140.054 61.2109 140.054 60.5756 140.014 59.9064C139.97 59.148 139.874 58.3507 139.733 57.5733C139.599 56.8259 139.42 56.0891 139.203 55.4155C138.977 54.7114 138.71 54.0833 138.404 53.6111C138.167 53.2449 137.916 52.9825 137.656 52.8732C137.425 52.7755 137.154 52.795 136.898 52.8921C136.588 53.0108 136.309 53.2349 136.133 53.5074C135.926 53.8264 135.835 54.2658 135.757 54.6498C135.679 55.0315 135.608 55.3745 135.435 55.6602C135.173 56.093 134.783 56.2772 134.264 56.2739C133.887 56.2722 133.444 56.1585 132.928 55.9704L132.565 55.835C131.81 55.5465 130.886 55.1924 130.242 55.5076C129.848 55.7001 129.494 56.1418 129.289 56.7227C129.096 57.2687 129.044 57.9268 129.221 58.6109C129.417 59.3711 129.893 60.1755 130.556 60.9313C131.248 61.7191 132.14 62.4477 133.134 63.0181C134.036 63.5363 135.026 63.9275 135.958 64.1982C137.072 64.5217 138.09 64.6721 138.772 64.6654C139.248 64.6604 139.494 64.586 139.61 64.4534C139.737 64.3086 139.794 64.0118 139.852 63.6301ZM141.229 61.8396C141.196 62.6025 141.124 63.2705 141.043 63.8087C140.955 64.3896 140.85 64.8602 140.514 65.2441C140.168 65.6386 139.65 65.8567 138.782 65.8656C137.996 65.8734 136.85 65.708 135.623 65.3518C134.61 65.0572 133.528 64.6288 132.535 64.059C131.426 63.422 130.429 62.6064 129.652 61.7219C128.869 60.8309 128.302 59.8576 128.058 58.9122C127.817 57.9767 127.889 57.074 128.154 56.3227C128.463 55.4471 129.044 54.758 129.714 54.4295C130.832 53.883 132.022 54.338 132.994 54.7098L133.337 54.8407C133.735 54.9855 134.05 55.0732 134.269 55.0737C134.345 55.0743 134.394 55.0637 134.409 55.0388C134.473 54.9322 134.524 54.6853 134.58 54.4096C134.68 53.9213 134.795 53.3631 135.125 52.8526C135.439 52.3683 135.929 51.9732 136.47 51.7674C136.998 51.5671 137.583 51.5393 138.123 51.7668C138.621 51.9771 139.049 52.3965 139.412 52.9569C139.779 53.5251 140.09 54.2508 140.347 55.0482C140.58 55.7684 140.77 56.558 140.915 57.3608C141.066 58.1942 141.167 59.0398 141.214 59.836C141.255 60.5418 141.255 61.2176 141.229 61.8396Z" fill="#371A45"/>
<path fill-rule="evenodd" clip-rule="evenodd" d="M149.642 67.1512C150.786 67.498 152.561 67.6783 154.225 67.4775C155.89 67.276 157.443 66.694 158.511 65.5288C159.578 64.3642 160.161 62.617 159.974 61.1949C159.787 59.7739 158.83 58.6781 157.887 58.5466C156.944 58.4146 156.014 59.2469 155.592 58.9622C155.169 58.6781 155.252 57.2777 154.905 56.3278C154.558 55.3779 153.782 54.8791 152.915 55.2325C152.048 55.586 151.091 56.7922 150.114 58.3452C149.136 59.8988 148.137 61.7986 147.694 63.0947C147.25 64.3914 147.361 65.085 147.673 65.6881C147.985 66.2912 148.498 66.8044 149.642 67.1512Z" fill="#FF574C"/>
<path d="M149.817 66.5747C150.376 66.7439 151.101 66.8715 151.892 66.9276C152.618 66.9792 153.399 66.9703 154.155 66.8793C154.971 66.7805 155.755 66.5852 156.454 66.2678C157.07 65.9871 157.622 65.612 158.069 65.1243C158.543 64.6072 158.911 63.9558 159.142 63.2739C159.371 62.5947 159.46 61.894 159.379 61.2725C159.303 60.6955 159.074 60.1817 158.771 59.7961C158.48 59.4277 158.133 59.1874 157.805 59.1419C157.474 59.0953 157.072 59.2512 156.73 59.3838C156.183 59.5958 155.722 59.7733 155.257 59.4615C154.791 59.1474 154.698 58.4927 154.592 57.7509C154.532 57.3325 154.466 56.8764 154.341 56.5319L154.309 56.4509C154.185 56.149 154.007 55.9243 153.801 55.8084C153.623 55.7102 153.409 55.6907 153.179 55.7745L153.141 55.789C152.802 55.9288 152.419 56.2628 152.011 56.7322C151.559 57.2543 151.092 57.919 150.622 58.6653C150.131 59.4465 149.628 60.3293 149.193 61.1826C148.797 61.9605 148.466 62.6974 148.264 63.2877C148.066 63.8648 147.992 64.2942 148 64.6349C148.008 64.939 148.089 65.1842 148.208 65.4123C148.327 65.6436 148.485 65.8578 148.72 66.0448C148.973 66.2462 149.322 66.4249 149.817 66.5747ZM151.807 68.1277C150.923 68.065 150.105 67.9202 149.468 67.7277C148.819 67.5307 148.339 67.2794 147.971 66.9869C147.587 66.6807 147.331 66.3356 147.139 65.9633C146.946 65.5898 146.814 65.1848 146.8 64.6677C146.787 64.1861 146.879 63.6196 147.125 62.9016C147.349 62.2452 147.703 61.4539 148.119 60.6366C148.56 59.7716 149.084 58.855 149.606 58.025C150.113 57.2199 150.616 56.503 151.102 55.9438C151.633 55.3356 152.164 54.889 152.689 54.6748L152.769 54.6448C153.353 54.4317 153.911 54.4911 154.389 54.7602C154.835 55.0143 155.197 55.4488 155.426 56.0087L155.471 56.123C155.64 56.5879 155.715 57.1061 155.783 57.5816C155.848 58.0427 155.907 58.4511 155.926 58.4633C155.978 58.4988 156.066 58.3523 156.297 58.2636C156.774 58.0788 157.333 57.8618 157.969 57.9506C158.61 58.0399 159.238 58.4439 159.717 59.0526C160.144 59.5941 160.464 60.3121 160.57 61.1177C160.675 61.9217 160.565 62.8106 160.28 63.6556C159.999 64.489 159.543 65.2897 158.954 65.9338C158.386 66.5519 157.703 67.0214 156.948 67.3648C156.131 67.736 155.227 67.9629 154.296 68.075C153.466 68.1754 152.607 68.1849 151.807 68.1277Z" fill="#371A45"/>
<path fill-rule="evenodd" clip-rule="evenodd" d="M137.821 66.001C136.852 65.0872 134.843 64.3131 132.826 63.9081C130.809 63.5031 128.784 63.4687 127.766 64.124C126.748 64.7798 126.738 66.1269 127.375 66.9054C128.012 67.6849 129.296 67.8969 129.398 68.5572C129.499 69.2175 128.418 70.3266 128.389 71.5533C128.362 72.7812 129.388 74.1262 130.588 74.6322C131.787 75.1382 133.16 74.8058 134.533 73.7311C135.906 72.6564 137.279 70.8398 138 69.4044C138.722 67.969 138.791 66.9154 137.821 66.001Z" fill="#FF574C"/>
<path d="M137.409 66.4387C136.997 66.0509 136.35 65.6814 135.578 65.3579C134.713 64.9956 133.71 64.697 132.708 64.4962C131.685 64.2937 130.666 64.1866 129.801 64.2232C129.081 64.2537 128.478 64.3808 128.091 64.6299L127.974 64.7143C127.716 64.9268 127.58 65.2186 127.549 65.5182C127.517 65.8328 127.594 66.1569 127.761 66.4154L127.841 66.5242C128.061 66.7938 128.432 67.0008 128.768 67.1889C129.366 67.5229 129.894 67.8187 129.993 68.4678C130.068 68.9583 129.822 69.4405 129.537 69.997C129.289 70.4808 129.001 71.0435 128.99 71.5656C128.979 72.0322 129.176 72.5365 129.496 72.9838C129.838 73.4637 130.314 73.8649 130.821 74.079C131.296 74.2793 131.812 74.3137 132.349 74.1911C132.932 74.0579 133.544 73.7428 134.164 73.2584C134.779 72.7757 135.404 72.1254 135.963 71.4263C136.577 70.66 137.108 69.8455 137.464 69.1358C137.781 68.5039 137.955 67.9712 137.944 67.5218C137.935 67.1312 137.768 66.7772 137.409 66.4387ZM136.04 64.2465C136.938 64.6233 137.711 65.071 138.233 65.5632C138.843 66.1391 139.127 66.77 139.145 67.4929C139.161 68.1571 138.94 68.8701 138.537 69.6724C138.142 70.4603 137.563 71.3519 136.9 72.1798C136.29 72.9416 135.599 73.659 134.902 74.2044C134.141 74.8003 133.37 75.1915 132.617 75.3635C131.833 75.5422 131.07 75.4873 130.355 75.1854C129.641 74.8841 128.982 74.3332 128.516 73.6807C128.056 73.0365 127.773 72.2791 127.789 71.5417C127.807 70.7416 128.163 70.048 128.469 69.451C128.657 69.0826 128.82 68.7636 128.803 68.6465C128.792 68.5783 128.507 68.419 128.185 68.2387C127.749 67.9957 127.269 67.7277 126.909 67.2866C126.854 67.2194 126.8 67.1445 126.748 67.0652C126.438 66.583 126.293 65.9804 126.353 65.3956C126.415 64.7969 126.688 64.2121 127.212 63.7832C127.289 63.7228 127.365 63.6673 127.442 63.6179C128.016 63.2478 128.827 63.0625 129.754 63.0231C130.726 62.982 131.842 63.0963 132.944 63.3171C134.031 63.5374 135.113 63.8587 136.04 64.2465Z" fill="#371A45"/>
<path fill-rule="evenodd" clip-rule="evenodd" d="M141.152 67.0147C139.963 67.7382 138.695 69.0748 137.947 70.8631C137.197 72.6525 136.968 74.8941 137.282 76.4654C137.598 78.0373 138.458 78.9384 139.29 79.0904C140.122 79.2435 140.926 78.6471 141.537 78.3003C142.147 77.9541 142.563 77.8564 143.222 78.2798C143.88 78.7026 144.782 79.6458 145.634 79.8322C146.487 80.0198 147.292 79.4516 147.486 77.6827C147.68 75.915 147.264 72.9477 146.674 70.8121C146.085 68.6765 145.322 67.3731 144.386 66.7766C143.45 66.1807 142.341 66.2912 141.152 67.0147Z" fill="#FF574C"/>
<path d="M141.466 67.5279C140.887 67.8797 140.288 68.3907 139.749 69.0371C139.267 69.6164 138.831 70.3072 138.502 71.0939C138.156 71.9196 137.927 72.8534 137.82 73.7661C137.709 74.7016 137.726 75.6093 137.873 76.3478C138.001 76.9953 138.232 77.5064 138.514 77.8742C138.789 78.2344 139.104 78.4463 139.398 78.5001C139.884 78.5889 140.466 78.2393 140.945 77.9519L141.24 77.7777C141.621 77.5618 141.953 77.422 142.328 77.401C142.72 77.3793 143.102 77.4886 143.547 77.7732C143.78 77.923 144.02 78.115 144.277 78.3192C144.762 78.7065 145.314 79.1465 145.762 79.2442L145.855 79.2602C146.033 79.2797 146.204 79.232 146.345 79.1027C146.537 78.9257 146.7 78.6089 146.806 78.1245C146.841 77.9669 146.869 77.7982 146.888 77.6196C146.975 76.8223 146.93 75.7491 146.796 74.6184C146.648 73.3633 146.394 72.0539 146.096 70.9725C145.815 69.9543 145.495 69.1398 145.139 68.5156C144.805 67.9335 144.447 67.5269 144.064 67.2827C143.716 67.0613 143.332 66.9698 142.924 66.9997C142.475 67.0325 141.984 67.2128 141.466 67.5279ZM138.827 68.2698C139.456 67.5129 140.16 66.9148 140.839 66.5014C141.523 66.0859 142.194 65.8467 142.84 65.7996C143.503 65.7507 144.132 65.9033 144.709 66.2706C145.262 66.6224 145.753 67.1667 146.183 67.918C146.588 68.6299 146.946 69.5365 147.254 70.6523C147.57 71.7997 147.838 73.1741 147.992 74.4774C148.134 75.6892 148.181 76.8544 148.084 77.7466C148.059 77.9786 148.024 78.1894 147.983 78.3786C147.82 79.1238 147.527 79.6498 147.159 79.9871C146.741 80.3716 146.244 80.5125 145.727 80.4565C145.649 80.4476 145.575 80.4354 145.507 80.421C144.784 80.2623 144.116 79.7302 143.528 79.2608C143.295 79.0755 143.076 78.9007 142.897 78.7859C142.683 78.6483 142.527 78.5944 142.394 78.6011C142.244 78.6099 142.062 78.6927 141.833 78.8225L141.561 78.9828C140.908 79.3751 140.113 79.8523 139.182 79.6814C138.601 79.5754 138.023 79.2109 137.558 78.6038C137.175 78.1017 136.863 77.4237 136.694 76.5831C136.52 75.7242 136.498 74.685 136.623 73.6252C136.744 72.6087 137.001 71.5639 137.391 70.6323C137.767 69.734 138.268 68.9395 138.827 68.2698Z" fill="#371A45"/>
<path fill-rule="evenodd" clip-rule="evenodd" d="M145.822 67.6638C146.335 69.0093 147.486 71.6576 148.893 73.4397C150.301 75.2219 151.965 76.1369 153.442 76.047C154.919 75.9566 156.209 74.8612 156.542 74.0012C156.875 73.1418 156.25 72.5176 156.514 72.1015C156.777 71.6853 157.928 71.4773 158.664 70.5274C159.398 69.578 159.718 67.8863 159.392 66.7627C159.066 65.6397 158.095 65.0849 156.259 65.0766C154.424 65.0683 151.723 65.607 149.795 65.8911C147.868 66.1752 146.713 66.2057 146.073 66.2412C145.433 66.2773 145.309 66.3194 145.822 67.6638Z" fill="#FF574C"/>
<path d="M146.385 67.4497C146.68 68.2231 147.192 69.4388 147.844 70.6656C148.299 71.5206 148.816 72.3734 149.365 73.0675C150.012 73.8859 150.713 74.5052 151.418 74.9096C152.101 75.3008 152.78 75.485 153.407 75.4468C153.975 75.4123 154.513 75.1959 154.959 74.903C155.471 74.5639 155.845 74.1395 155.982 73.7849C156.094 73.4948 156.015 73.1951 155.949 72.9466C155.839 72.5343 155.747 72.1887 156.007 71.7792C156.202 71.474 156.526 71.3037 156.923 71.0956C157.326 70.8825 157.838 70.6129 158.189 70.1601C158.496 69.7634 158.719 69.198 158.834 68.6049C158.95 68.0067 158.952 67.3992 158.817 66.9303C158.699 66.5275 158.468 66.2268 158.106 66.0287C157.682 65.7973 157.072 65.6803 156.258 65.6769C154.919 65.6708 153.047 65.9766 151.392 66.2468C150.837 66.3367 150.301 66.4249 149.883 66.4865C148.18 66.7373 147.059 66.7938 146.368 66.8282L146.16 66.8388L146.385 67.4497ZM146.78 71.231C146.102 69.9559 145.568 68.6864 145.26 67.8786C144.957 67.084 144.851 66.6412 144.935 66.3139C145.086 65.723 145.445 65.6747 146.041 65.6414L146.307 65.6275C146.968 65.5954 148.038 65.5416 149.709 65.2952C150.216 65.2209 150.695 65.1421 151.2 65.06C152.894 64.7831 154.812 64.4701 156.263 64.4768C157.282 64.4812 158.078 64.6466 158.68 64.9745C159.342 65.3362 159.76 65.8756 159.97 66.5958C160.16 67.2527 160.165 68.0611 160.016 68.8307C159.867 69.597 159.564 70.3466 159.14 70.8948C158.627 71.5572 157.987 71.8935 157.482 72.1587C157.241 72.2841 157.045 72.3867 157.023 72.4217C157.001 72.4589 157.076 72.5021 157.111 72.6358C157.223 73.0575 157.357 73.5619 157.103 74.2177C156.882 74.7892 156.339 75.4317 155.621 75.905C155.014 76.304 154.271 76.5986 153.478 76.6469C152.614 76.6996 151.706 76.4621 150.82 75.9544C149.989 75.4783 149.17 74.7576 148.423 73.8116C147.813 73.0387 147.257 72.1282 146.78 71.231ZM146.105 66.6651C146.115 66.568 146.128 66.4892 146.097 66.6107L146.105 66.6651Z" fill="#371A45"/>
<path fill-rule="evenodd" clip-rule="evenodd" d="M142.771 69.1897C146.127 70.3127 149.899 70.3127 150.648 68.5233C151.397 66.7345 149.123 63.1579 145.767 62.0355C142.411 60.913 137.972 62.2463 137.224 64.0346C136.475 65.8234 139.415 68.0678 142.771 69.1897Z" fill="white"/>
<path d="M142.961 68.6205C144.648 69.1848 146.439 69.4527 147.855 69.3329C148.985 69.2375 149.836 68.9062 150.092 68.2931L150.121 68.2182C150.349 67.5363 150.027 66.5015 149.326 65.4783C148.583 64.3925 147.424 63.3605 146.031 62.7779C145.874 62.7118 145.721 62.6536 145.575 62.6047C144.081 62.1054 142.343 62.1326 140.858 62.4799C139.319 62.8395 138.093 63.5153 137.779 64.2649L137.753 64.332C137.573 64.868 137.928 65.5239 138.603 66.1797C139.388 66.9432 140.578 67.6667 141.914 68.226C142.265 68.3725 142.616 68.5051 142.961 68.6205ZM147.955 70.5331C146.385 70.6662 144.419 70.3744 142.58 69.7596C142.189 69.6287 141.812 69.4866 141.453 69.3368C139.984 68.7226 138.66 67.9108 137.765 67.0408C136.76 66.0648 136.267 64.9862 136.614 63.9503L136.669 63.8043C137.133 62.6913 138.689 61.7509 140.585 61.3075C142.259 60.9152 144.236 60.8902 145.957 61.4662C146.147 61.5294 146.327 61.5971 146.493 61.6665C148.112 62.344 149.457 63.5413 150.32 64.8009C151.223 66.1203 151.609 67.5479 151.262 68.5944L151.204 68.7542C150.75 69.8389 149.526 70.4005 147.955 70.5331Z" fill="#371A45"/>
<path fill-rule="evenodd" clip-rule="evenodd" d="M115.613 59.8199C116.351 59.0814 117.605 58.2558 119.038 58.0411C120.473 57.8258 122.086 58.2214 123.248 58.9433C124.41 59.664 125.119 60.7127 125.417 61.9694C125.714 63.2256 125.6 64.6921 124.951 65.9716C124.301 67.2511 123.118 68.3441 121.811 68.8296C120.504 69.3151 119.074 69.1914 117.885 68.6903C116.696 68.1893 115.748 67.3082 115.212 66.1075C114.676 64.9063 114.554 63.3832 114.603 62.2962C114.653 61.2093 114.875 60.5579 115.613 59.8199Z" fill="#FFB8B8"/>
<path fill-rule="evenodd" clip-rule="evenodd" d="M122.323 66.967C124.073 67.3865 127.406 67.918 129.516 67.8742C131.625 67.8309 132.51 67.2111 130.76 66.7922C129.01 66.3727 124.626 66.153 122.517 66.1969C120.408 66.2401 120.574 66.5475 122.323 66.967Z" fill="#371A45"/>
<path fill-rule="evenodd" clip-rule="evenodd" d="M122.944 64.0323C124.742 64.1483 128.169 64.0595 130.176 63.6961C132.183 63.3327 132.769 62.6946 131.839 62.4399C130.91 62.1858 128.465 62.3151 126.374 62.5187C124.284 62.7218 122.547 62.9998 121.763 63.2983C120.979 63.5968 121.147 63.9163 122.944 64.0323Z" fill="#371A45"/>
<path fill-rule="evenodd" clip-rule="evenodd" d="M122.604 60.9458C124.415 60.68 127.644 59.9515 129.329 59.279C131.013 58.6065 131.153 57.9906 130.382 57.8619C129.612 57.7332 127.931 58.0905 126.05 58.6648C124.17 59.2385 122.09 60.0275 121.246 60.5213C120.402 61.0146 120.794 61.2121 122.604 60.9458Z" fill="#371A45"/>
<path fill-rule="evenodd" clip-rule="evenodd" d="M86.1803 64.6416C85.3668 63.9863 84.0323 63.3005 82.5835 63.2406C81.1341 63.1812 79.5732 63.7477 78.4951 64.5905C77.4169 65.4317 76.8249 66.5502 76.6645 67.8319C76.5036 69.1125 76.7744 70.5585 77.5579 71.7608C78.3408 72.9632 79.6343 73.923 80.986 74.2648C82.3371 74.6072 83.7465 74.3303 84.8752 73.705C86.0027 73.0786 86.8506 72.101 87.2545 70.8498C87.6579 69.598 87.6163 68.07 87.4504 66.9952C87.2845 65.9194 86.9932 65.2963 86.1803 64.6416Z" fill="#FFB8B8"/>
<path fill-rule="evenodd" clip-rule="evenodd" d="M80.2772 72.4683C78.5825 73.0736 75.3248 73.9603 73.2234 74.1428C71.1215 74.3265 70.1754 73.8054 71.8701 73.2007C73.5641 72.5959 77.8994 71.9062 80.0008 71.7231C82.1021 71.54 81.9712 71.8635 80.2772 72.4683Z" fill="#371A45"/>
<path fill-rule="evenodd" clip-rule="evenodd" d="M79.3447 69.6169C77.5697 69.9254 74.1527 70.2056 72.1185 70.0602C70.0843 69.9143 69.4323 69.3428 70.329 68.9899C71.2257 68.637 73.6705 68.5027 75.7713 68.4811C77.8715 68.4583 79.6277 68.5477 80.4395 68.7602C81.2513 68.9727 81.1187 69.3089 79.3447 69.6169Z" fill="#371A45"/>
<path fill-rule="evenodd" clip-rule="evenodd" d="M79.3497 66.5126C77.5214 66.4427 74.2331 66.0648 72.4858 65.5771C70.739 65.0899 70.5337 64.4929 71.2861 64.2815C72.038 64.0707 73.7476 64.246 75.6792 64.6144C77.6102 64.9829 79.7626 65.5444 80.6543 65.9444C81.5465 66.3439 81.1781 66.5819 79.3497 66.5126Z" fill="#371A45"/>
<path d="M70.8028 121.333C70.8544 120.599 71.0204 119.893 71.2362 119.193C71.4609 118.496 71.7495 117.813 72.1174 117.156C72.4942 116.507 72.9409 115.871 73.5096 115.324C74.0878 114.788 74.7819 114.33 75.5671 114.085C76.0599 113.93 76.5842 114.205 76.7385 114.698C76.8644 115.1 76.7052 115.522 76.375 115.749L76.2973 115.801C75.8102 116.135 75.3302 116.447 74.8585 116.832C74.4002 117.231 73.9285 117.652 73.4868 118.132C72.6134 119.102 71.8183 120.222 71.0581 121.41L71.0542 121.416C71.0137 121.479 70.9294 121.498 70.8655 121.458C70.8217 121.43 70.7995 121.381 70.8028 121.333Z" fill="#371A45"/>
<path d="M77.1875 118.389C77.5987 117.869 78.127 117.412 78.7595 117.106C79.3904 116.798 80.109 116.646 80.827 116.634C81.5467 116.618 82.2636 116.729 82.9544 116.913C83.6464 117.1 84.3144 117.359 84.9592 117.67L84.9675 117.674C85.4287 117.897 85.6223 118.451 85.3998 118.912C85.1767 119.374 84.6219 119.567 84.1607 119.344C84.0975 119.313 84.0354 119.273 83.9815 119.23C83.0299 118.462 81.9435 117.814 80.7477 117.55C80.1523 117.422 79.5274 117.402 78.9137 117.54C78.3006 117.675 77.7097 117.975 77.1875 118.389Z" fill="#371A45"/>
<path d="M78.0801 122.279C78.5928 121.994 79.1216 121.709 79.6993 121.521C80.2725 121.324 80.8867 121.181 81.5293 121.168C82.1696 121.148 82.836 121.25 83.4569 121.457C84.0734 121.649 84.676 121.966 85.126 122.127C85.6104 122.3 85.8624 122.832 85.6892 123.316C85.5161 123.8 84.984 124.051 84.5007 123.879C84.4186 123.849 84.3436 123.811 84.2765 123.763L84.266 123.755C83.6966 123.348 83.3326 122.999 82.8815 122.712C82.4448 122.423 81.9682 122.21 81.4449 122.085C80.9228 121.955 80.3613 121.933 79.7931 121.972C79.2215 122.001 78.6528 122.135 78.0801 122.279Z" fill="#371A45"/>
</svg>
