<svg width="161" height="136" viewBox="0 0 161 136" fill="none" xmlns="http://www.w3.org/2000/svg">
<path d="M135.966 120.688C136.043 122.012 136.087 123.345 136.1 124.683L136.331 125.864C135.076 126.111 133.82 126.357 132.318 126.621C130.812 126.885 129 127.177 126.577 127.523C124.205 127.862 121.248 128.251 117.845 128.609C114.471 128.963 110.679 129.283 106.629 129.484C102.506 129.688 98.1068 129.767 93.645 129.705C89.3563 129.645 85.0532 129.456 80.9287 129.125C76.6872 128.785 72.57 128.291 68.5171 127.72C64.5025 127.156 60.5395 126.512 56.5777 125.869L56.7707 124.683H55.6677C56.1021 123.031 56.5921 121.395 57.142 119.782C58.8682 114.641 61.035 109.676 63.4255 104.83C64.6346 102.413 65.9624 100.057 67.4018 97.7718C68.1253 96.6311 68.8866 95.5153 69.7023 94.435C69.9764 94.0727 70.255 93.7131 70.5407 93.3597C70.2589 93.1721 69.9798 92.9796 69.704 92.7837C69.4171 92.5818 69.1352 92.372 68.855 92.1601L68.4383 91.8377L68.2324 91.6724L68.1292 91.5903L68.0782 91.5486L68.0515 91.5281L68.0388 91.5181C68.0949 91.5675 68.218 91.6458 68.3168 91.6791L68.0765 91.547C67.7658 91.3139 67.5732 91.1231 67.3668 90.9222C67.1654 90.7247 66.9751 90.5294 66.787 90.3352L65.6783 89.1805C64.9464 88.4176 64.2112 87.6741 63.4549 86.9695C62.6997 86.2665 61.9195 85.6018 61.1133 85.0464C60.7115 84.7706 60.3009 84.5248 59.8992 84.3467C59.7 84.2624 59.5024 84.1847 59.3188 84.1398C59.1146 84.0854 59.028 84.0804 58.7051 84.0488C58.1602 83.9972 57.6014 83.9333 57.0138 83.8202C56.7169 83.7597 56.4145 83.6859 56.0933 83.5732C55.772 83.4556 55.4252 83.3069 55.0678 83.0273C54.8914 82.8913 54.7116 82.7083 54.5629 82.4874C54.4846 82.3842 54.4275 82.2533 54.3681 82.1329C54.3132 82.0103 54.2832 81.8976 54.246 81.7778C54.1312 81.3072 54.1572 80.895 54.2088 80.5443C54.3209 79.8402 54.5362 79.3031 54.7382 78.7749C54.943 78.255 55.1627 77.7568 55.3586 77.2852C55.5517 76.8163 55.7298 76.3447 55.8752 75.8786L55.8935 75.8209L56.1054 75.7266C56.1948 75.9674 56.389 76.2237 56.7613 76.3458C56.8029 76.3596 56.8473 76.3696 56.8923 76.3774L56.8035 76.6388C56.3707 76.8407 55.9296 77.0288 55.4707 77.1986C54.9286 77.3972 54.3692 77.5775 53.735 77.6863C53.4165 77.7385 53.0786 77.7762 52.6868 77.7545C52.3017 77.7257 51.8206 77.6536 51.3334 77.299C51.0976 77.1198 50.8851 76.8751 50.7575 76.6165C50.6815 76.4851 50.6498 76.3641 50.6032 76.2337C50.5655 76.1089 50.5483 75.994 50.5261 75.8731C50.5034 75.635 50.5033 75.3642 50.5316 75.2039C50.5505 75.0075 50.5844 74.8521 50.6177 74.6968C50.7569 74.0831 50.9323 73.5682 51.1032 73.0483C51.8029 71.0076 52.4948 69.07 52.8228 67.0865L53.9009 60.7806L54.4708 57.628L54.7715 56.0488C54.8769 55.5129 54.9735 55.0146 55.1083 54.4326L55.0933 54.5086L55.2942 53.5737L55.5012 52.682C55.6405 52.0883 55.7858 51.4969 55.9373 50.9065C56.2403 49.7263 56.5671 48.5512 56.9184 47.381C57.2735 46.2125 57.6591 45.049 58.0747 43.8932C58.5031 42.7397 58.9676 41.595 59.4958 40.4637L59.4597 41.2982C58.5952 38.9217 57.8988 36.5481 57.264 34.1373C56.6353 31.7304 56.091 29.2985 55.6688 26.8355C55.4557 25.6059 55.2731 24.367 55.1372 23.1191C54.994 21.8713 54.898 20.6162 54.862 19.35C54.8209 18.0855 54.8431 16.8088 54.9757 15.5243C55.1061 14.2415 55.3319 12.9482 55.767 11.6726C56.202 10.4064 56.8734 9.13303 57.9322 8.12265L58.3344 7.75202C58.4831 7.62774 58.6923 7.50343 58.8743 7.38801C59.2555 7.18494 59.6567 7.04125 60.0412 6.96969C60.812 6.81987 61.5428 6.83042 62.2231 6.91864C63.5908 7.08676 64.8266 7.48456 66.0301 7.92344C67.2298 8.37121 68.3823 8.89 69.5109 9.44153C71.7665 10.549 73.9272 11.7935 76.0441 13.0957C78.1593 14.4041 80.2273 15.7746 82.2577 17.205L81.0952 17.1573C84.6476 15.0949 88.4624 13.6073 92.3987 12.5786C94.3675 12.0632 96.3728 11.6764 98.4042 11.4479C100.443 11.2215 102.47 11.141 104.51 11.196L104.378 11.201C104.431 11.1976 104.486 11.1976 104.54 11.1976L104.66 11.1993L104.783 11.2048L105.028 11.2137L105.518 11.2342L106.531 11.3053C107.205 11.3674 107.877 11.4423 108.543 11.5466C109.877 11.7458 111.194 12.0232 112.491 12.3562C113.786 12.6918 115.06 13.0791 116.318 13.4903C116.947 13.7005 117.571 13.9053 118.194 14.1317L120.069 14.868L121.005 15.2375C121.311 15.3745 121.609 15.5277 121.912 15.6719L122 15.7147C123.969 14.4635 126.122 13.1485 128.266 11.9372C138.898 5.93377 141.89 6.64785 143.217 7.70983C149.4 12.6541 146.303 27.9535 144.042 36.2485C146.535 40.6651 148.721 45.3303 149.919 50.3872L149.027 50.5897L149.026 50.583L149.024 50.5747L149.915 50.3711L149.894 50.2801L149.004 50.497L149.002 50.4893L149 50.4843L149.89 50.2668C150.589 53.1647 151.196 56.0411 151.797 58.9357L152.669 63.2769L153.091 65.4491C153.16 65.8203 153.232 66.1499 153.308 66.4955C153.392 66.8379 153.479 67.1808 153.579 67.522C153.968 68.8942 154.487 70.2408 155.002 71.6401C155.13 71.9908 155.254 72.3498 155.375 72.7215C155.486 73.1099 155.611 73.4761 155.656 74.0054C155.666 74.3161 155.649 74.5969 155.519 74.9204C155.399 75.2411 155.146 75.5584 154.853 75.7482C154.56 75.9408 154.258 76.0312 153.999 76.0711C153.736 76.1122 153.491 76.1216 153.266 76.1083C152.362 76.0523 151.611 75.8148 150.871 75.5596C150.502 75.4275 150.143 75.2855 149.791 75.1323C149.614 75.0563 149.439 74.9781 149.263 74.8965L149.254 74.8926L149.243 74.8433C149.375 74.8588 149.52 74.8438 149.637 74.7911C149.828 74.7123 149.946 74.5797 150.017 74.4515C150.041 74.4071 150.06 74.3616 150.074 74.3161L150.212 74.375C150.369 74.8793 150.575 75.4014 150.796 75.9086C151.079 76.5572 151.41 77.2319 151.699 77.9593C151.841 78.3272 151.978 78.7139 152.068 79.1633C152.148 79.6044 152.21 80.1598 151.936 80.7668C151.87 80.9239 151.77 81.0559 151.671 81.188C151.565 81.3011 151.454 81.4204 151.337 81.5014C151.101 81.6851 150.865 81.7933 150.635 81.8843C150.177 82.0518 149.745 82.1173 149.327 82.1528C148.909 82.1861 148.505 82.1834 148.106 82.1623C147.907 82.1495 147.71 82.134 147.514 82.1129C147.403 82.099 147.359 82.1051 147.28 82.1007L147.07 82.0901C146.511 82.1018 145.948 82.3054 145.421 82.6322C144.896 82.9618 144.41 83.4184 143.995 83.9272C143.895 84.0532 143.793 84.1875 143.71 84.3107L143.63 84.4299C143.593 84.4876 143.562 84.5243 143.529 84.5703L143.341 84.8134C143.092 85.1196 142.848 85.4015 142.599 85.6839L142.223 86.1045L141.797 86.5234C141.527 86.7864 141.262 87.0577 140.977 87.3063C140.425 87.8212 139.846 88.3056 139.263 88.785C136.901 90.6731 134.295 92.2222 131.586 93.4928L131.319 93.6171C141.184 101.193 144.301 111.719 140.993 116.913C140.335 117.944 138.622 119.638 135.966 120.688Z" fill="#747D8C"/>
<path d="M132.304 122.799C132.287 122.273 132.257 121.638 132.214 120.894L132.058 118.183L134.583 117.185C135.428 116.851 136.109 116.454 136.635 116.059C137.266 115.586 137.656 115.17 137.829 114.897C138.906 113.207 138.749 110.281 137.366 106.951C135.919 103.468 133.156 99.7671 129.038 96.6045L124.13 92.8348L129.996 90.0939C131.238 89.5113 132.481 88.8477 133.71 88.0942C134.847 87.3973 135.912 86.6627 136.882 85.8903L136.879 85.8865C137.069 85.73 137.3 85.5374 137.688 85.2045C137.919 85.007 138.161 84.7934 138.416 84.5548L138.505 84.4816C138.609 84.39 138.786 84.2158 138.963 84.0416L139.557 83.4579L139.783 83.2054L139.774 83.1977C140.083 82.8453 139.951 83.0073 140.115 82.8154L140.39 82.4902C140.473 82.3831 140.516 82.3166 140.59 82.2061L140.594 82.2089L140.839 81.876L140.829 81.8688L141.082 81.5581C141.424 81.1375 141.786 80.7491 142.155 80.414C142.536 80.0677 142.959 79.7437 143.419 79.4541L143.449 79.4391C143.99 79.104 144.54 78.8377 145.08 78.6596H145.095C145.686 78.4654 146.322 78.3527 146.997 78.3377H147.261L147.785 78.3605L147.777 78.3438L145.998 77.5282L144.424 70.4727L147.223 70.8095L147.711 69.2238L150.562 70.4389C150.349 69.8252 150.147 69.1988 149.959 68.5374L149.803 67.951C149.702 67.547 149.61 67.1536 149.518 66.7469L149.403 66.1544L149.398 66.1549L148.975 63.9832L148.984 63.9816L148.124 59.7004L148.119 59.7015C147.889 58.5984 147.632 57.3772 147.202 55.3969L147.089 54.8804L146.183 55.0862L145.418 51.645C145.049 50.3595 144.726 49.0417 144.381 47.7472L145.174 47.5536C144.82 46.5332 144.43 45.5317 144.008 44.5491C143.039 42.287 141.937 40.1447 140.775 38.0879L140.018 36.7457L140.422 35.2626C141.696 30.5869 143.252 23.5996 143.085 17.8292C142.99 14.5728 142.388 11.8463 140.877 10.6378C140.853 10.619 140.771 10.7072 139.952 10.867C138.031 11.2437 134.999 12.4405 130.105 15.2037C129.357 15.6265 128.288 16.2607 127.01 17.033C126.02 17.6317 125.008 18.2626 124.016 18.8929L122.254 20.0114L120.278 19.0566H120.264L119.945 18.9012V18.8868L119.636 18.7386L116.826 17.6339C116.181 17.3981 115.801 17.2716 115.428 17.1468H115.413L115.156 17.0613L115.155 17.0658C114.59 16.8815 113.99 16.6929 113.344 16.4998C112.629 16.2868 112.017 16.112 111.548 15.9905L111.549 15.9871C111.005 15.8473 110.418 15.7108 109.781 15.5799C109.276 15.4756 108.684 15.3718 107.998 15.2692L107.969 15.2547L107.113 15.1476L106.281 15.0516L106.281 15.0577L105.268 14.9862L105.269 14.9823L104.611 14.9568L104.621 14.9557L104.621 14.9495L104.499 14.9512L104.501 14.5068L104.454 13.6013L104.422 14.9479C103.496 14.9235 102.558 14.9296 101.604 14.9684C100.725 15.0045 99.7965 15.0766 98.8166 15.1848C97.8788 15.2902 96.9627 15.4301 96.0693 15.5987C95.1321 15.7763 94.2221 15.9827 93.3404 16.2135C91.9681 16.5714 90.591 17.0008 89.2154 17.5069L94.8503 21.4757L68.0527 20.3843L74.5709 16.5997L74.0787 16.2928L74.0721 16.3034C73.0011 15.6442 71.9646 15.0261 70.9908 14.4768C69.8566 13.8388 68.8057 13.2745 67.8685 12.8139L67.8629 12.8262C67.2292 12.516 66.6876 12.2591 66.2959 12.0871H66.2815C65.6833 11.8235 65.1634 11.606 64.7505 11.4512L64.7495 11.4551C64.2173 11.2609 63.6896 11.0789 63.1874 10.9396C62.7568 10.8198 62.2902 10.7199 61.7669 10.6556L61.7525 10.6412C61.5727 10.6178 61.3901 10.6051 61.2104 10.6073C61.0905 10.609 60.9379 10.6262 60.7476 10.6628L60.7199 10.6661C60.7337 10.6656 60.7482 10.6667 60.7226 10.6755L60.7021 10.6828L60.4779 10.8892C60.2304 11.1328 60.024 11.409 59.8532 11.6998C59.6556 12.0355 59.4808 12.4483 59.3276 12.8939L59.3232 12.8922C59.169 13.3472 59.0469 13.8249 58.9503 14.317C58.8355 14.898 58.7611 15.4162 58.7134 15.8917V15.9067C58.6535 16.4848 58.6196 17.0241 58.6063 17.533C58.5913 18.0911 58.5957 18.6593 58.614 19.2324V19.2468C58.6268 19.7029 58.6607 20.2844 58.7118 20.9763C58.7534 21.5434 58.8088 22.116 58.8749 22.6925V22.7219C58.9331 23.259 59.008 23.8388 59.0968 24.4547C59.1751 24.9968 59.2694 25.5816 59.3771 26.2024C59.5735 27.3493 59.806 28.5212 60.0673 29.713L60.1666 30.1591L64.0586 21.8252L62.3978 60.3523L59.4625 52.2876L59.3637 52.6904L59.3604 52.6898L58.9714 54.3533L58.7717 55.2882C58.6851 55.6527 58.5897 56.1343 58.4898 56.6437L58.4648 56.7702L58.4592 56.7691L58.1641 58.3193L58.1585 58.3182L57.5998 61.4121L57.6092 61.4137L56.531 67.7196L56.5261 67.719C56.2791 69.1988 55.8996 70.5543 55.4668 71.8954L58.2428 70.6653L59.0991 72.9784L61.8302 73.5244L59.852 79.3559L58.2573 80.1005L58.2162 80.2142L58.361 80.2348C58.6252 80.2692 58.8443 80.293 59.0435 80.3113L59.149 80.3202C59.6706 80.3713 59.8559 80.3895 60.2898 80.5055L60.2881 80.5127C60.5362 80.5754 60.7349 80.637 60.898 80.697L60.8963 80.7014C61.0045 80.7419 61.1726 80.8112 61.3563 80.8889L61.4295 80.9183C61.7775 81.0732 62.0971 81.2379 62.3895 81.4083C62.6897 81.5825 62.9694 81.7617 63.2324 81.9415L63.2468 81.9565C63.7928 82.3326 64.2733 82.6988 64.7017 83.0539C65.1179 83.399 65.5606 83.7947 66.0151 84.2175C66.3919 84.5692 66.7975 84.9643 67.2242 85.3899C67.6365 85.8016 68.0199 86.1949 68.3861 86.5761C68.9244 87.1371 69.4576 87.7147 70.0147 88.2573C70.134 88.3739 70.25 88.487 70.3282 88.5453L70.3127 88.5658L70.1129 88.4149L69.7229 89.3004L70.1268 88.8133L69.7395 89.3298L70.3493 88.5458L70.3621 88.5558V88.5708L70.462 88.6352L70.513 88.6768L70.5102 88.6807L71.1506 89.1878L71.1467 89.1928L72.2537 89.9857L76.0591 92.5125L73.4689 95.7139L73.0893 96.2039H73.0744C72.9512 96.362 73.04 96.2566 72.7042 96.7005C72.2742 97.2697 71.9125 97.7708 71.6073 98.2141C71.3481 98.5909 70.9996 99.1268 70.5802 99.7882L70.5735 99.7838C69.9315 100.804 69.2751 101.908 68.6076 103.093C67.9051 104.341 67.2975 105.474 66.7892 106.489L66.7953 106.492C65.6045 108.905 64.4914 111.298 63.4926 113.652C62.4872 116.022 61.5555 118.441 60.7226 120.916H61.1899L60.8897 122.761C63.5747 123.191 66.277 123.611 69.032 123.998C70.9508 124.268 72.9545 124.528 75.0792 124.772C77.0656 125 79.1087 125.204 81.2234 125.373C83.3758 125.545 85.405 125.674 87.3021 125.761C89.4917 125.86 91.628 125.924 93.6888 125.952C95.8629 125.983 98.0264 125.979 100.15 125.943C102.222 125.908 104.333 125.836 106.452 125.732C108.259 125.642 110.199 125.511 112.196 125.352C114.227 125.191 115.967 125.029 117.462 124.871C119.277 124.681 120.819 124.501 122.127 124.336C123.221 124.198 124.602 124.007 126.047 123.8C127.613 123.577 128.621 123.427 129.218 123.333C129.622 123.269 130.504 123.117 131.671 122.913L132.304 122.799ZM139.821 122.955L139.847 124.241L140.742 128.822C140.014 128.968 137.597 129.559 137.043 129.559C135.743 129.814 134.44 130.07 132.966 130.329C132.626 130.388 131.849 130.515 130.366 130.749C129.074 130.953 127.963 131.123 127.107 131.245C126.181 131.378 124.896 131.551 123.068 131.781C121.455 131.986 119.814 132.179 118.227 132.346C116.349 132.543 114.505 132.72 112.785 132.856C111.03 132.996 109.048 133.125 106.805 133.236C104.768 133.337 102.58 133.408 100.268 133.448C98.0824 133.484 95.8507 133.488 93.6007 133.456C91.3167 133.425 89.0983 133.361 86.9781 133.265C84.6797 133.16 82.5507 133.031 80.6347 132.877C78.5095 132.707 76.3709 132.493 74.2257 132.246C72.2192 132.016 70.1357 131.744 68.0022 131.443C64.0075 130.881 60.0024 130.231 55.9995 129.581L56 129.577L52.2645 128.989L52.3522 128.449H50.7919L52.0332 123.727C52.2773 122.796 52.5192 121.935 52.7562 121.143C53.0064 120.31 53.2816 119.454 53.5813 118.575L53.5852 118.576C54.4724 115.937 55.4796 113.324 56.5766 110.738C57.6902 108.113 58.856 105.599 60.0557 103.167L60.0706 103.152C60.7687 101.757 61.4268 100.511 62.0444 99.4148C62.7003 98.2502 63.4283 97.0345 64.2234 95.7711V95.7561C64.5014 95.3178 64.856 94.7823 65.3016 94.1304C65.094 93.9517 64.937 93.7986 64.7766 93.6427C64.1601 93.0418 63.5659 92.4048 62.9705 91.7851C62.6059 91.405 62.2541 91.0438 61.9273 90.717C61.6143 90.4046 61.2731 90.0744 60.8947 89.721C60.5945 89.4419 60.2688 89.1523 59.9048 88.851C59.5613 88.5669 59.2533 88.3256 58.9964 88.148L58.9942 88.1508C58.8554 88.0559 58.7284 87.9732 58.6224 87.9117L58.4027 87.7907L58.3516 87.7857C58.012 87.7524 57.683 87.718 57.39 87.6803C56.9816 87.627 56.6098 87.571 56.3074 87.5133L56.263 87.4988C56.0139 87.4478 55.7853 87.3973 55.6061 87.3507L55.6072 87.3468C55.3547 87.2808 55.1033 87.2059 54.857 87.1193L54.8131 87.1049C54.5268 87 54.2238 86.8785 53.902 86.7154C53.5469 86.5356 53.1712 86.307 52.7739 85.9974C52.5176 85.8038 52.2689 85.5813 52.0426 85.3383L52.0509 85.331C51.7995 85.0614 51.5909 84.8101 51.4433 84.592C51.2602 84.3212 51.1381 84.0715 51.0211 83.828L51.0149 83.8307L50.9395 83.6776C50.7913 83.348 50.7253 83.1327 50.6603 82.9158L50.6698 82.913L50.5971 82.6606C50.4667 82.1257 50.4162 81.613 50.4129 81.1308V81.0576C50.0001 80.8867 49.5695 80.6525 49.1267 80.3296L49.0679 80.2858C48.7094 80.0139 48.3887 79.7149 48.1306 79.4097C47.8438 79.0701 47.5885 78.6867 47.3877 78.2789L47.391 78.2773C47.2229 77.9577 47.1474 77.7368 47.0725 77.5121L47.0764 77.511L46.9981 77.3079C46.9005 76.985 46.8644 76.7836 46.8283 76.5783L46.8178 76.5206L46.7884 76.226C46.7662 75.9924 46.7551 75.7272 46.7573 75.4725C46.7607 75.1179 46.7812 74.7939 46.8233 74.557C46.8627 74.2574 46.9005 74.0837 46.9365 73.9145L46.9454 73.9167L46.9537 73.8728C47.1319 73.0844 47.3089 72.5501 47.4836 72.0174V72.0025L47.684 71.4149C48.2888 69.6549 48.8692 67.9682 49.1145 66.4834V66.454L50.1926 60.1481L50.2076 60.1187L50.7775 56.966V56.9361L51.0782 55.3575V55.3282L51.1032 55.2016C51.1908 54.7561 51.2752 54.3272 51.4289 53.6619C51.5127 53.2719 52.0653 51.0908 52.0653 50.8955L52.3028 49.9794C52.502 49.202 52.664 48.5917 52.7889 48.1406C53.0136 47.335 53.189 46.7213 53.3133 46.3069L53.3283 46.2919C53.5047 45.7109 53.7006 45.0967 53.9159 44.4464C54.1278 43.8078 54.3376 43.2002 54.5435 42.6276V42.5838C54.696 42.1716 54.9319 41.5773 55.2754 40.7428L55.2848 40.719C55.0806 40.0986 54.8808 39.465 54.6855 38.8192C54.2732 37.4603 53.9309 36.238 53.6295 35.0939V35.0795C53.2672 33.6929 52.957 32.4262 52.7101 31.3021C52.4377 30.0603 52.1857 28.7842 51.9605 27.4681C51.855 26.8605 51.7518 26.2097 51.6514 25.5139C51.5626 24.9008 51.4794 24.2455 51.4034 23.5458C51.3229 22.875 51.2575 22.1948 51.207 21.5062C51.1659 20.9469 51.132 20.2717 51.1098 19.4677C51.0871 18.7775 51.0826 18.0739 51.1015 17.3565C51.1215 16.5902 51.1653 15.8479 51.2385 15.1415C51.3218 14.3409 51.425 13.5752 51.5637 12.8744C51.7196 12.0854 51.9272 11.282 52.2063 10.4664V10.4514C52.4876 9.63133 52.8671 8.77299 53.3782 7.90353C53.9059 7.00691 54.5512 6.15519 55.3425 5.4006C55.5245 5.21861 55.7281 5.03996 55.9212 4.86796C56.1681 4.661 56.4816 4.46514 56.7791 4.27816L56.7752 4.27148L56.8729 4.2099L57.1081 4.07784C57.5148 3.86145 57.8794 3.69501 58.1918 3.58348C58.5248 3.46419 58.9098 3.36209 59.336 3.28219L59.3349 3.27664C59.9136 3.16456 60.514 3.11128 61.1216 3.10296C61.6637 3.09519 62.1825 3.13184 62.6781 3.19398L62.6797 3.1812C63.5226 3.28495 64.3588 3.46917 65.1884 3.69999C65.9463 3.91028 66.6399 4.14777 67.3102 4.3919L67.3396 4.40686C68.1215 4.6987 68.7679 4.96117 69.3128 5.2003L69.31 5.20585C70.0702 5.53987 70.6667 5.8173 71.1589 6.05755V6.07198C72.4751 6.71838 73.6315 7.32981 74.6691 7.91463C75.8671 8.58987 76.9713 9.2457 78.0162 9.88822V9.9032C79.213 10.6434 80.2929 11.3325 81.2572 11.9706L81.9553 12.4355C82.9779 11.9317 84.0117 11.4701 85.0527 11.049C87.0991 10.2195 89.2437 9.52314 91.4566 8.94444C92.5436 8.66036 93.6223 8.41398 94.6865 8.21257C95.7957 8.00284 96.8994 7.83306 97.9925 7.71044C99.0507 7.59281 100.157 7.51124 101.31 7.46409C102.301 7.42358 103.306 7.4147 104.327 7.43688L104.54 7.43079L104.577 7.443C104.967 7.45632 105.384 7.48184 105.769 7.48184L106.781 7.55342L106.87 7.5684L107.967 7.67328C108.193 7.6999 108.553 7.75093 109.086 7.83416L109.087 7.82418C109.734 7.92073 110.47 8.05501 111.281 8.22257C111.955 8.36184 112.67 8.53051 113.417 8.72193H113.432C114.259 8.9361 114.934 9.12364 115.492 9.2901C116.12 9.47707 116.789 9.68903 117.48 9.91486L117.509 9.92984L117.796 10.0253L117.795 10.0303C118.463 10.2528 119.12 10.4719 119.475 10.6001L119.563 10.6301L121.691 11.4662L123.125 10.589C123.951 10.0896 125.031 9.45934 126.427 8.67145C132.165 5.43113 135.946 3.98296 138.51 3.48083C142.175 2.76341 144.205 3.70111 145.557 4.78141C149.08 7.59893 150.436 12.3318 150.589 17.6234C150.764 23.6901 149.366 30.6601 148.054 35.7536C149.102 37.6784 150.077 39.6298 150.924 41.6062C151.508 42.9689 152.042 44.3538 152.51 45.7631L152.656 45.727L153.308 48.4253C153.404 48.7881 153.496 49.1527 153.583 49.5189L154.458 53.1881L154.454 53.1892L154.458 53.2075L154.429 53.2136L154.559 53.8084C154.756 54.7139 155.104 56.3801 155.476 58.1706V58.2L156.347 62.5412L156.362 62.5706L156.784 64.7428V64.7722L156.957 65.6134L157.072 66.0678L157.199 66.5072C157.482 67.5071 157.893 68.6162 158.315 69.7537L158.534 70.3451V70.3596L158.737 70.9516H158.752L158.951 71.5586L159.021 71.8171L159.025 71.816C159.181 72.3498 159.339 72.8875 159.409 73.6964V73.9028C159.418 74.2224 159.412 74.5465 159.363 74.9293C159.303 75.3937 159.194 75.8509 159.006 76.3181L159.003 76.3164C158.798 76.8363 158.512 77.3246 158.177 77.7396C157.815 78.1896 157.371 78.5963 156.883 78.9115L156.878 78.9042C156.522 79.1367 156.188 79.3104 155.879 79.4363C155.89 79.62 155.894 79.8142 155.887 80.0211C155.864 80.743 155.724 81.5159 155.365 82.3116C155.128 82.8503 154.912 83.1388 154.698 83.4263H154.683C154.595 83.5428 154.5 83.6554 154.406 83.7658C154.175 84.0116 153.931 84.2707 153.474 84.5881C153.222 84.7707 152.97 84.9221 152.72 85.0531C152.463 85.1873 152.234 85.2861 152.018 85.3716L151.93 85.4159C151.501 85.573 151.082 85.6823 150.672 85.7611C150.274 85.8376 149.939 85.8792 149.636 85.9053H149.621C149.422 85.9208 149.109 85.9292 148.709 85.9303C148.378 85.9314 148.121 85.9253 147.915 85.9142L147.5 85.8931L147.335 85.8743L147.217 85.9758C147.1 86.0807 147.002 86.1838 146.922 86.2804C146.866 86.3531 146.963 86.2366 146.862 86.3714H146.853L146.83 86.4147L146.749 86.534L146.741 86.5284C146.626 86.7065 146.591 86.7559 146.565 86.7897L145.825 87.7003C145.413 88.1802 145.485 88.1014 145.425 88.1708L145.395 88.1858L144.857 88.7822L144.231 89.3975C144.024 89.6017 143.815 89.8076 143.535 90.0556C143.241 90.3341 142.916 90.621 142.574 90.9134C142.389 91.071 142.038 91.3612 141.646 91.6841L141.603 91.7135C140.355 92.7105 139.089 93.6 137.817 94.3901C140.807 97.4906 142.969 100.834 144.311 104.067C146.642 109.681 146.558 115.16 144.157 118.929C143.588 119.821 142.559 120.996 141.138 122.062C140.731 122.367 140.292 122.668 139.821 122.955ZM69.4931 89.8747L70.4525 88.6674L70.442 88.6602L69.4964 89.8153L69.4476 89.9257L69.4931 89.8747ZM70.4964 88.6979L70.0225 89.2766L70.5202 88.714L70.4964 88.6979ZM70.442 88.6602L69.4964 89.8153L69.5797 89.6267L70.3732 88.6102L70.346 88.5908L69.6347 89.5019L69.5797 89.6267L70.3732 88.6102L70.442 88.6602ZM70.346 88.5908L69.6347 89.5019L69.6446 89.4785L70.3388 88.5852L70.3255 88.5758L69.6679 89.4253L69.6446 89.4785L70.3388 88.5852L70.346 88.5908ZM70.1268 88.8133L70.3249 88.5747L70.3127 88.5658L70.1268 88.8133ZM69.866 88.2884L69.6008 88.1674L69.4599 88.3045L69.2179 89.0197L69.785 88.4365L69.866 88.2884ZM69.5825 88.1585L69.5203 88.1275L69.4732 88.2662L69.5825 88.1585ZM69.2074 89.0513L69.1885 89.1068L69.7129 88.5675L69.7506 88.4987L69.2074 89.0513ZM69.1885 89.1068L68.82 90.1932L69.7129 88.5675L69.1885 89.1068ZM58.3422 87.7668L58.31 87.7596L58.3422 87.7668ZM104.628 14.949L104.621 14.9495L104.621 14.9557L104.651 14.9534H104.628L104.628 14.949ZM104.54 14.9534V14.9634L104.611 14.9568L104.54 14.9534ZM104.54 14.9634C104.535 14.9646 104.536 14.964 104.54 14.9634V14.9634ZM104.651 14.9523C104.682 14.9507 104.696 14.949 104.651 14.9523V14.9523ZM146.85 86.3714L146.84 86.3819L146.85 86.3714ZM140.466 82.4137L140.469 82.4064L140.44 82.4542L140.466 82.4137Z" fill="white"/>
<path d="M140.553 116.26C140.034 117.042 138.233 118.845 135.304 119.84C134.94 119.964 134.559 120.075 134.162 120.171C131.434 120.833 127.901 120.744 123.668 118.786C119.891 117.038 120.123 110.067 126.309 108.554C128.666 107.978 130.91 107.091 131.736 105.984C131.875 105.799 131.976 105.608 132.027 105.411C132.117 105.083 132.08 104.736 131.883 104.375L131.041 99.0358L130.276 94.1698C131.641 95.188 132.888 96.2871 134.015 97.434C140.602 104.142 143.025 112.498 140.553 116.26Z" fill="#747D8C"/>
<path d="M56.7708 124.683C59.7878 113.524 65.3666 103.179 69.041 97.1116C70.3272 94.9893 71.3777 93.3891 72.0025 92.4614L72.5895 89.6689L103.206 88.3367L124.213 89.3787L130.089 93.4585C130.759 97.4379 131.402 101.423 132.027 105.41C132.788 110.283 133.611 115.788 134.163 120.171C134.278 121.077 134.38 121.934 134.469 122.728C134.991 122.715 135.534 122.762 136.043 122.883C135.794 123.472 135.579 124.073 135.396 124.683C108.36 131.021 92.1175 129.511 56.7708 124.683Z" fill="#747D8C"/>
<path d="M91.151 128.454C91.8929 116.289 99.6646 102.97 108.459 102.97C117.253 102.97 124.923 114.271 125.665 126.436L91.151 128.454Z" fill="white"/>
<path d="M128.419 124.683L128.714 112.278L129.232 90.3951C129.232 90.3951 132.269 100.302 133.896 112.685C134.392 116.441 134.755 120.426 134.866 124.433L134.873 124.683H128.419Z" fill="#747D8C"/>
<path d="M133.955 124.683C133.909 119.771 133.417 114.931 132.486 110.342C132.368 109.761 132.743 109.195 133.323 109.077C133.904 108.958 134.47 109.334 134.587 109.915C135.547 114.642 136.053 119.627 136.099 124.683H133.955Z" fill="#371A45"/>
<path d="M72.9283 91.749C72.3618 92.968 71.7509 94.162 71.1311 95.3416C70.832 95.9392 70.5007 96.5146 70.1955 97.1077L69.2423 98.8593C67.9566 101.185 66.6986 103.523 65.4706 105.876C64.2382 108.226 63.0757 110.613 62.0165 113.044C60.9589 115.476 60.0239 117.957 59.1761 120.463C58.7005 121.857 58.2721 123.265 57.887 124.683H55.6675C56.102 123.031 56.592 121.395 57.1418 119.782C58.8681 114.641 61.0349 109.676 63.4253 104.83C64.6344 102.413 65.9623 100.057 67.4017 97.7718C68.1252 96.6311 68.8865 95.5153 69.7022 94.435C70.519 93.3547 71.3741 92.3066 72.3468 91.3334C72.4883 91.1925 72.7169 91.1919 72.8584 91.3328C72.9694 91.4438 72.9932 91.6069 72.9317 91.7412L72.9283 91.749Z" fill="#371A45" fill-opacity="0.458824"/>
<path d="M114.805 21.8202C119.067 18.813 138.599 5.3895 142.547 8.54659C149.462 14.0773 143.407 34.9469 141.923 39.6708L114.805 21.8202Z" fill="#747D8C"/>
<path d="M141.923 40.7439C141.817 40.7439 141.709 40.7278 141.603 40.694C141.038 40.5164 140.724 39.9155 140.901 39.3501C144.459 28.0123 146.849 13.361 141.877 9.38495C141.55 9.12362 139.409 8.10768 129.32 13.8049C123.283 17.2139 117.156 21.4729 115.423 22.6952C114.939 23.037 114.27 22.9222 113.929 22.4378C113.587 21.9534 113.703 21.2848 114.186 20.9452C115.94 19.7046 122.141 15.3962 128.266 11.9373C138.898 5.93379 141.89 6.64787 143.216 7.70985C150.531 13.558 144.859 33.8976 142.946 39.9921C142.803 40.4504 142.38 40.7439 141.923 40.7439Z" fill="#371A45" fill-opacity="0.470588"/>
<path d="M140.495 14.8042C140.495 14.8042 141.472 14.4185 141.49 16.7811C141.521 20.8282 140.105 31.0285 135.551 34.8459C135.551 34.8459 128.307 24.7398 126.403 23.6018C124.498 22.4633 128.479 21.0435 129.582 19.5326C130.687 18.0217 139.731 14.459 140.495 14.8042Z" fill="#FFB8B8"/>
<path d="M140.441 14.7387C139.052 15.1843 137.664 15.7285 136.316 16.3172C134.967 16.9093 133.644 17.5596 132.364 18.2792C131.085 18.9955 129.847 19.7773 128.679 20.6401C127.51 21.5007 126.416 22.4467 125.435 23.4793L125.311 22.0489C125.936 22.5327 126.456 23.0043 126.995 23.5087C127.525 24.0075 128.037 24.5207 128.531 25.0467C129.523 26.0976 130.456 27.1973 131.343 28.3265C132.213 29.47 133.063 30.6269 133.834 31.8348C134.236 32.4274 134.591 33.0504 134.968 33.6563C135.335 34.2711 135.676 34.8992 136.029 35.519C136.141 35.7149 136.074 35.9634 135.878 36.0755C135.69 36.1826 135.453 36.1243 135.335 35.9462L135.325 35.9296C134.938 35.3414 134.565 34.7461 134.168 34.1663C133.76 33.5942 133.376 33.0072 132.945 32.4529C132.12 31.3193 131.221 30.2429 130.307 29.187C129.377 28.1439 128.408 27.1369 127.394 26.1886C126.889 25.712 126.369 25.2531 125.839 24.8131C125.315 24.3798 124.752 23.9359 124.233 23.5836L123.317 22.9622L124.109 22.151C125.248 21.0857 126.477 20.1469 127.76 19.3135C129.043 18.4784 130.375 17.7405 131.738 17.0791C133.102 16.4155 134.495 15.829 135.908 15.3047C137.325 14.7842 138.747 14.3181 140.224 13.9403C140.445 13.8815 140.671 14.0168 140.728 14.2377C140.783 14.4519 140.66 14.6688 140.454 14.7348L140.441 14.7387Z" fill="#371A45"/>
<path d="M134.015 97.434C132.887 96.2871 131.64 95.188 130.276 94.1698C131.64 95.188 132.887 96.2871 134.015 97.434ZM130.276 94.1704V94.1698V94.1704Z" fill="#0198D4"/>
<path d="M154.787 74.2768C154.551 76.6537 149.203 73.9111 149.203 73.9111C149.203 73.9111 148.905 74.6602 149.996 76.7686C150.807 78.3338 151.518 79.4812 151.201 80.3335C150.867 81.2418 149.329 81.4482 147.527 81.2684C146.268 81.1419 145.203 81.3211 143.829 82.8458C143.56 83.1405 143.283 83.4889 142.988 83.8956L142.983 83.9017V83.9045C138.884 88.7933 133.26 92.412 126.607 94.9116C126.607 94.9116 89.5743 105.415 68.8788 91.0498C65.6821 88.7461 62.8894 85.9391 60.6898 82.5595C60.1582 82.4181 59.6372 82.4269 59.0796 82.498C57.2862 82.7277 55.7386 82.5656 55.3785 81.6662C55.0422 80.8229 55.6115 79.555 56.3013 77.9243C56.865 76.606 57.0831 75.7804 57.1596 75.4153C57.1802 75.3204 57.1003 75.2439 57.027 75.2827C56.1092 75.7571 51.896 77.8211 51.6274 75.7099C51.5742 75.291 51.769 74.5714 52.0725 73.6514C52.6185 71.9886 53.5118 69.6704 53.898 67.3267C54.8746 61.3937 55.6559 57.2151 56.1536 54.6906C56.1658 54.6234 56.1775 54.553 56.1925 54.4847C56.2042 54.4193 56.2186 54.3516 56.2308 54.2872C56.2419 54.2223 56.2569 54.1601 56.2691 54.0985C56.42 53.3639 56.587 52.636 56.779 51.9108C57.649 48.5611 58.9203 45.2315 60.545 41.4602L73.9482 26.7334L82.8863 16.9142C88.0789 14.3164 93.9829 12.6791 100.571 12.2973C101.901 12.2169 103.207 12.1914 104.485 12.2224C104.517 12.2208 104.549 12.2224 104.582 12.2263C109.38 12.3284 113.64 13.6201 117.751 15.0361C133.747 20.574 142.431 35.3413 142.431 35.3413C144.525 38.924 146.191 42.1737 147.445 45.5001C148.064 47.1302 148.583 48.7759 149.002 50.4893C149.002 50.4893 149.011 50.5187 149.025 50.583C149.203 51.3005 150.414 56.2802 152.287 65.9612C152.989 69.5794 154.901 73.0999 154.787 74.2768Z" fill="#747D8C"/>
<path d="M93.8298 78.886C94.2826 85.7883 101.681 87.5405 110.627 86.9529C119.573 86.3664 126.679 83.6627 126.226 76.7609C125.773 69.8591 118.477 63.7253 109.532 64.3123C100.586 64.8993 93.3776 71.9847 93.8298 78.886Z" fill="white"/>
<path d="M117.76 75.1729C117.76 75.1729 118.832 77.7912 117.135 78.8349C114.945 80.181 112.746 78.4127 111.74 77.0833C111.74 77.0833 109.415 80.8357 106.208 79.3776C104.062 78.4016 104.937 75.3937 104.937 75.3937L117.76 75.1729Z" fill="white"/>
<path d="M107.687 79.8796C107.2 79.8796 106.681 79.7764 106.14 79.5301C103.887 78.5058 104.767 75.3782 104.776 75.3477L105.098 75.4409C105.089 75.4697 104.29 78.3216 106.279 79.2255C109.313 80.6059 111.506 77.1426 111.598 76.9944L111.727 76.7875L111.875 76.9817C112.133 77.3229 114.474 80.2725 117.048 78.6923C118.603 77.7363 117.616 75.2611 117.606 75.2361L117.916 75.1091C117.962 75.2217 119.02 77.8722 117.223 78.9774C115.031 80.3257 112.821 78.6745 111.75 77.3656C111.305 77.9871 109.776 79.8796 107.687 79.8796Z" fill="#000072"/>
<path d="M117.856 75.1341C118.261 75.4581 118.503 75.8814 118.643 76.3508C118.782 76.8203 118.787 77.3446 118.654 77.8823C118.627 78.0171 118.577 78.1514 118.52 78.2845C118.473 78.4205 118.398 78.5475 118.319 78.6735C118.246 78.8033 118.146 78.9143 118.045 79.0247C117.948 79.1412 117.836 79.2344 117.718 79.3215L117.542 79.453C117.483 79.4924 117.428 79.5191 117.371 79.5524C117.258 79.6167 117.142 79.6761 117.027 79.736C116.778 79.8265 116.535 79.9336 116.268 79.9779C115.745 80.0911 115.192 80.0839 114.689 79.9618C114.183 79.8448 113.718 79.6428 113.296 79.397C112.464 78.886 111.779 78.2407 111.205 77.4878L112.312 77.4362C112.007 77.8939 111.706 78.2612 111.347 78.6285C110.992 78.9875 110.598 79.3171 110.163 79.6062C109.716 79.8775 109.237 80.1238 108.701 80.2515C108.571 80.2959 108.432 80.3081 108.295 80.3297C108.158 80.3458 108.023 80.3785 107.884 80.3785C107.801 80.3769 107.717 80.3774 107.633 80.3785C107.437 80.3807 107.242 80.383 107.052 80.3403L106.64 80.2748C106.507 80.2398 106.379 80.1938 106.249 80.1522C106.119 80.1044 105.991 80.0706 105.86 80.0073C105.726 79.9397 105.598 79.8631 105.468 79.7887C104.963 79.4497 104.579 78.9182 104.416 78.3683C104.242 77.8201 104.233 77.2719 104.317 76.7687C104.403 76.2632 104.569 75.791 104.839 75.3649C104.87 75.3155 104.936 75.3005 104.985 75.3322C105.015 75.351 105.032 75.3815 105.035 75.4137L105.036 75.4226C105.106 76.3553 105.238 77.2558 105.6 77.8789C105.784 78.1869 105.998 78.4083 106.265 78.5842C106.339 78.6224 106.411 78.659 106.481 78.704C106.554 78.7462 106.653 78.7722 106.737 78.81C106.826 78.8438 106.912 78.8865 107.001 78.9171L107.271 78.9781C107.999 79.154 108.757 78.8998 109.437 78.4798C109.773 78.2545 110.094 77.9894 110.389 77.6909C110.679 77.3979 110.966 77.0444 111.17 76.7293L111.695 75.9203L112.276 76.6777C112.743 77.2847 113.348 77.8129 113.995 78.1675C114.648 78.5059 115.337 78.6629 115.956 78.5098C116.116 78.4904 116.265 78.416 116.42 78.3678C116.494 78.3284 116.568 78.2873 116.643 78.2518C116.68 78.2329 116.723 78.2157 116.755 78.1963L116.836 78.1369C117.057 77.9844 117.212 77.7818 117.317 77.4972C117.421 77.2109 117.44 76.8619 117.485 76.484C117.528 76.1023 117.562 75.6889 117.665 75.2117L117.668 75.2001C117.681 75.1374 117.744 75.0969 117.807 75.1113C117.826 75.1146 117.842 75.123 117.856 75.1341Z" fill="#371A45"/>
<path d="M105.201 75.3893C105.211 75.335 105.219 75.2839 105.226 75.2379C105.237 75.2861 105.247 75.3361 105.256 75.3888L105.201 75.3893ZM111.712 75.2773C112.044 74.8372 112.236 74.5243 112.236 74.5243C112.398 74.739 112.603 74.992 112.837 75.2578L111.712 75.2773Z" fill="#B2B2D4"/>
<path d="M107.698 79.7138C107.229 79.7138 106.731 79.6145 106.21 79.3776C104.973 78.816 104.968 77.2087 105.099 76.0868C105.183 76.7731 105.325 77.4062 105.6 77.8789C105.784 78.1868 105.998 78.4082 106.265 78.5841C106.338 78.6224 106.411 78.659 106.481 78.704C106.554 78.7461 106.653 78.7722 106.737 78.8099C106.826 78.8438 106.912 78.8865 107 78.917L107.271 78.9781C107.43 79.0164 107.591 79.0347 107.753 79.0347C108.327 79.0347 108.906 78.8077 109.437 78.4798C109.773 78.2545 110.094 77.9893 110.389 77.6908C110.679 77.3979 110.966 77.0444 111.17 76.7293L111.695 75.9203L112.276 76.6777C112.743 77.2847 113.348 77.8129 113.995 78.1674C114.477 78.4171 114.98 78.5686 115.459 78.5686C115.628 78.5686 115.795 78.5497 115.956 78.5098C116.115 78.4904 116.265 78.416 116.42 78.3677C116.494 78.3284 116.568 78.2873 116.643 78.2518C116.68 78.2329 116.723 78.2157 116.755 78.1963L116.836 78.1369C117.057 77.9843 117.212 77.7818 117.317 77.4972C117.421 77.2109 117.44 76.8619 117.485 76.484C117.515 76.2149 117.542 75.9308 117.59 75.619C117.799 76.5606 118.142 78.2146 117.136 78.8338C116.583 79.1745 116.029 79.316 115.494 79.316C113.91 79.316 112.492 78.077 111.741 77.0833C111.741 77.0833 110.11 79.7138 107.698 79.7138Z" fill="#371A45"/>
<path d="M112.491 72.508C112.599 72.8858 112.682 73.2481 112.757 73.6249C112.829 74 112.89 74.3795 112.927 74.7684C112.963 75.1579 112.989 75.5524 112.964 75.9658C112.94 76.3797 112.887 76.8086 112.729 77.2636L112.72 77.2896C112.573 77.7119 112.112 77.9355 111.69 77.789C111.268 77.642 111.044 77.1804 111.191 76.7581C111.208 76.7076 111.233 76.6571 111.258 76.6127C111.389 76.3908 111.492 76.0967 111.568 75.7838C111.647 75.4703 111.687 75.1285 111.719 74.7851C111.75 74.4399 111.757 74.086 111.753 73.7314C111.75 73.3791 111.732 73.0129 111.699 72.6706L111.698 72.6572C111.676 72.4342 111.84 72.2366 112.063 72.215C112.261 72.1961 112.439 72.3227 112.491 72.508Z" fill="#371A45"/>
<path d="M105.823 71.7666C106.115 73.4168 109.375 74.3667 111.744 74.3545C113.532 74.345 116.386 73.1416 116.363 71.3494C116.345 69.9345 114.737 68.9341 110.48 69.3197C106.999 69.6343 105.629 70.6653 105.823 71.7666Z" fill="#371A45"/>
<path d="M111.954 70.7185H111.947C111.502 70.7185 111.003 70.521 110.832 70.3429C110.791 70.3013 110.784 70.2752 110.784 70.2697C110.82 70.1104 111.097 69.9606 111.741 69.9606C111.871 69.9606 112.017 69.9667 112.177 69.98C113.102 70.0572 113.373 70.248 113.452 70.3557C113.485 70.4012 113.495 70.4456 113.485 70.4933C113.448 70.5543 113.102 70.7135 111.954 70.7185Z" fill="#B2B2D4"/>
<path d="M111.956 71.0536H111.946C111.417 71.0536 110.78 70.8151 110.55 70.531C110.442 70.3951 110.439 70.2746 110.457 70.1964C110.518 69.9256 110.802 69.6266 111.744 69.6266C111.884 69.6266 112.036 69.6321 112.204 69.6466C113.023 69.7143 113.518 69.8813 113.721 70.157C113.812 70.2802 113.842 70.4239 113.809 70.5732C113.78 70.7019 113.702 71.0459 111.956 71.0536ZM111.741 69.9606C111.097 69.9606 110.82 70.1104 110.784 70.2696C110.783 70.2752 110.791 70.3013 110.832 70.3429C111.003 70.521 111.501 70.7185 111.946 70.7185H111.954C113.102 70.7135 113.447 70.5543 113.485 70.4933C113.495 70.4456 113.485 70.4011 113.452 70.3557C113.372 70.248 113.102 70.0571 112.177 69.98C112.016 69.9667 111.871 69.9606 111.741 69.9606Z" fill="#371A45"/>
<path d="M141.474 111.766C141.444 111.349 141.391 110.917 141.316 110.475V110.474C141.393 110.917 141.444 111.349 141.474 111.766Z" fill="#0198D4"/>
<path fill-rule="evenodd" clip-rule="evenodd" d="M121.721 122.974C123.215 122.523 125.105 121.732 126.773 118.886C128.442 116.039 129.89 111.137 130.22 107.612C130.55 104.087 129.761 101.942 128.276 100.438C126.79 98.9348 124.607 98.0743 122.744 98.4272C120.88 98.78 119.337 100.346 118.447 101.381C117.558 102.417 117.323 102.92 116.198 102.108C115.073 101.297 113.058 99.1712 110.886 98.0537C108.713 96.9368 106.382 96.8281 104.608 98.0954C102.834 99.3632 101.616 102.006 101.578 105.068C101.54 108.129 102.682 111.609 104.037 114.72C105.394 117.83 106.963 120.572 109.331 121.998C111.698 123.425 114.864 123.537 116.996 123.537C119.128 123.537 120.226 123.425 121.721 122.974Z" fill="#FD7272"/>
<path fill-rule="evenodd" clip-rule="evenodd" d="M112.875 103.545C112.051 102.806 110.311 101.746 108.839 101.308C107.368 100.87 106.165 101.053 105.334 101.603C104.503 102.152 104.045 103.067 104.038 103.826C104.032 104.585 104.477 105.186 105.013 105.173C105.55 105.16 106.177 104.532 107.027 104.173C107.877 103.813 108.951 103.722 110.069 103.924C111.187 104.127 112.351 104.624 112.979 104.663C113.607 104.702 113.699 104.284 112.875 103.545Z" fill="white"/>
<path fill-rule="evenodd" clip-rule="evenodd" d="M124.745 102.427C124.568 102.178 123.809 101.903 122.854 102.014C121.9 102.126 120.749 102.622 120.055 103.277C119.362 103.931 119.127 104.742 119.532 105.075C119.938 105.409 120.984 105.265 121.854 104.859C122.724 104.454 123.417 103.787 123.966 103.342C124.516 102.898 124.921 102.675 124.745 102.427Z" fill="white"/>
<path d="M113.988 118.786C109.819 121.134 105.321 122.232 101.139 122.645C92.2802 123.509 84.8221 121.283 84.8221 121.283L88.9781 103.584C93.557 105.421 97.7686 106.439 101.342 107.078C105.91 107.894 109.432 108.084 111.348 108.554C117.535 110.067 117.616 116.742 113.988 118.786Z" fill="#747D8C"/>
<path d="M113.987 118.786C109.818 121.134 105.321 122.232 101.139 122.645C96.8736 115.939 100.267 108.96 101.342 107.078C105.91 107.894 109.432 108.084 111.347 108.554C117.535 110.067 117.616 116.742 113.987 118.786Z" fill="white"/>
<path d="M84.9183 120.962C86.3582 120.83 87.7116 120.962 89.0594 121.135C90.41 121.287 91.7511 121.491 93.1017 121.642C94.4528 121.795 95.8128 121.841 97.1684 121.835C98.5251 121.826 99.8807 121.764 101.226 121.623C103.915 121.339 106.574 120.794 109.103 119.89C110.371 119.453 111.599 118.908 112.783 118.288L113.226 118.052C113.376 117.974 113.529 117.893 113.629 117.825C113.859 117.688 114.066 117.513 114.258 117.323C114.453 117.134 114.614 116.91 114.767 116.682C114.906 116.444 115.041 116.199 115.133 115.932C115.334 115.408 115.419 114.834 115.414 114.266C115.393 113.697 115.285 113.128 115.063 112.604C114.843 112.08 114.531 111.595 114.135 111.178C113.736 110.763 113.261 110.414 112.734 110.137C112.206 109.86 111.63 109.656 111.023 109.512C110.411 109.372 109.742 109.271 109.067 109.18L104.941 108.652C102.166 108.284 99.389 107.784 96.6546 107.104C95.2862 106.764 93.9357 106.364 92.5657 106.015C91.8887 105.813 91.2312 105.548 90.5925 105.241C89.9672 104.898 89.3668 104.492 88.8541 103.894C88.7181 103.735 88.737 103.496 88.8951 103.361C88.9534 103.311 89.0216 103.283 89.0916 103.273L89.1037 103.272C89.8883 103.167 90.5831 103.256 91.2556 103.405C91.9304 103.545 92.5829 103.737 93.2227 103.972C93.8691 104.188 94.5039 104.444 95.1614 104.626C95.8212 104.802 96.4737 105.002 97.1395 105.154C99.7913 105.812 102.483 106.298 105.21 106.66L109.34 107.188C110.04 107.284 110.744 107.386 111.486 107.555C112.227 107.731 112.971 107.991 113.671 108.358C114.371 108.726 115.03 109.205 115.592 109.793C116.153 110.381 116.605 111.08 116.921 111.836C117.55 113.349 117.595 115.086 117.017 116.634C116.879 117.024 116.683 117.394 116.47 117.751C116.24 118.1 115.989 118.439 115.688 118.737C115.389 119.035 115.059 119.308 114.696 119.53C114.505 119.653 114.35 119.732 114.193 119.815L113.717 120.067C112.444 120.734 111.128 121.317 109.774 121.785C107.074 122.749 104.258 123.325 101.431 123.622C100.017 123.771 98.5967 123.836 97.1795 123.845C95.7607 123.853 94.3463 123.787 92.9313 123.712C91.5175 123.635 90.102 123.499 88.7153 123.195C87.3287 122.903 85.9581 122.487 84.7263 121.605C84.567 121.491 84.531 121.27 84.6447 121.111C84.7063 121.024 84.8 120.974 84.8983 120.965L84.9183 120.962Z" fill="#371A45"/>
<path d="M111.022 116.657C111.928 116.46 112.784 116.125 113.565 115.704C113.955 115.495 114.324 115.26 114.665 115.002C115.013 114.751 115.318 114.46 115.607 114.173L115.61 114.169C116.01 113.77 116.657 113.77 117.056 114.171C117.455 114.57 117.454 115.217 117.055 115.616C116.965 115.705 116.859 115.776 116.751 115.825C116.276 116.039 115.802 116.231 115.316 116.362C114.834 116.502 114.349 116.601 113.867 116.663C112.903 116.79 111.944 116.795 111.022 116.657Z" fill="#371A45"/>
<path d="M114.971 110.601C114.97 110.6 114.968 110.598 114.966 110.597C114.968 110.598 114.969 110.6 114.971 110.601ZM114.963 110.594C114.962 110.591 114.959 110.588 114.957 110.586C114.959 110.588 114.962 110.591 114.963 110.594ZM114.956 110.585C114.131 109.677 112.942 108.944 111.347 108.554C112.942 108.944 114.131 109.677 114.956 110.585Z" fill="#FADBAE"/>
<path d="M110.364 112.117C111.174 111.933 111.954 111.669 112.694 111.354C113.064 111.197 113.422 111.023 113.765 110.835C114.111 110.652 114.434 110.439 114.743 110.227C115.21 109.906 115.85 110.025 116.17 110.493C116.492 110.959 116.372 111.599 115.905 111.92C115.787 112 115.659 112.053 115.529 112.08L115.518 112.081C115.07 112.171 114.629 112.246 114.19 112.282C113.752 112.323 113.318 112.343 112.888 112.34C112.029 112.337 111.185 112.268 110.364 112.117Z" fill="#371A45"/>
<path d="M135.304 119.84C132.447 120.818 128.517 121.031 123.668 118.786C119.891 117.038 120.123 110.067 126.309 108.554C128.666 107.978 130.91 107.091 131.736 105.984C133.245 107.199 135.246 109.41 136.065 113.001C136.694 115.76 136.12 118.102 135.304 119.84Z" fill="white"/>
<path d="M130.967 121.619C128.715 121.619 126.124 121.104 123.218 119.758C121.092 118.775 119.88 116.463 120.132 113.869C120.369 111.437 122.048 108.491 126.053 107.512L126.327 107.445C127.993 107.041 130.511 106.428 130.853 105.341C131.06 104.684 130.527 103.587 129.353 102.253C128.961 101.809 129.004 101.131 129.449 100.74C129.892 100.349 130.571 100.392 130.961 100.837C132.725 102.839 133.358 104.523 132.898 105.985C132.192 108.226 129.221 108.948 126.833 109.529L126.562 109.595C124.087 110.2 122.48 111.876 122.267 114.076C122.105 115.75 122.831 117.217 124.119 117.812C134.286 122.519 139.14 115.831 139.184 115.761C141.963 111.399 138.724 101.812 129.633 95.0304C129.159 94.6758 129.061 94.0045 129.415 93.5295C129.769 93.0557 130.441 92.958 130.916 93.312C141.099 100.908 144.346 111.649 140.993 116.914C139.986 118.49 136.51 121.619 130.967 121.619Z" fill="#371A45"/>
<path d="M126.776 112.585C125.995 112.874 125.175 113.09 124.33 113.24C123.907 113.317 123.477 113.373 123.037 113.408C122.598 113.449 122.151 113.451 121.694 113.441H121.689C121.122 113.429 120.673 112.959 120.684 112.392C120.697 111.825 121.167 111.376 121.733 111.388C121.875 111.391 122.015 111.426 122.138 111.481C122.478 111.636 122.832 111.789 123.205 111.91C123.575 112.036 123.958 112.145 124.35 112.235C125.134 112.418 125.947 112.543 126.776 112.585Z" fill="#371A45"/>
<path d="M127.184 116.433C126.403 116.722 125.584 116.937 124.738 117.088C124.315 117.165 123.885 117.221 123.445 117.256C123.006 117.296 122.559 117.299 122.102 117.289H122.098C121.531 117.277 121.081 116.807 121.093 116.24C121.105 115.674 121.575 115.224 122.142 115.236C122.284 115.239 122.423 115.273 122.546 115.328C122.886 115.484 123.241 115.637 123.613 115.758C123.983 115.884 124.367 115.993 124.758 116.082C125.542 116.266 126.355 116.39 127.184 116.433Z" fill="#371A45"/>
<path fill-rule="evenodd" clip-rule="evenodd" d="M134.82 76.2166C136.649 76.3686 140.092 76.3891 142.211 76.019C144.331 75.649 145.127 74.8883 143.298 74.7357C141.47 74.5837 137.016 75.0392 134.897 75.4098C132.777 75.7799 132.992 76.064 134.82 76.2166Z" fill="#371A45"/>
<path fill-rule="evenodd" clip-rule="evenodd" d="M134.993 73.1621C136.823 73.0007 140.264 72.382 142.231 71.7051C144.198 71.0287 144.69 70.2947 143.714 70.182C142.738 70.0688 140.293 70.5771 138.217 71.1053C136.141 71.6341 134.433 72.1822 133.689 72.6039C132.945 73.0262 133.163 73.323 134.993 73.1621Z" fill="#371A45"/>
<path fill-rule="evenodd" clip-rule="evenodd" d="M134.173 70.1026C135.958 69.5555 139.1 68.3215 140.694 67.3833C142.288 66.4451 142.334 65.8026 141.537 65.792C140.74 65.7809 139.101 66.4012 137.294 67.2707C135.487 68.1396 133.513 69.257 132.738 69.8851C131.964 70.5126 132.389 70.6508 134.173 70.1026Z" fill="#371A45"/>
<path fill-rule="evenodd" clip-rule="evenodd" d="M80.1097 76.9279C78.2808 77.0805 74.8377 77.1005 72.7181 76.7304C70.5984 76.3609 69.8027 75.5996 71.6316 75.4476C73.4599 75.295 77.9135 75.7511 80.0326 76.1212C82.1517 76.4912 81.9381 76.7753 80.1097 76.9279Z" fill="#371A45"/>
<path fill-rule="evenodd" clip-rule="evenodd" d="M79.9374 73.8735C78.1074 73.712 74.666 73.0934 72.6989 72.4164C70.7318 71.7406 70.2391 71.006 71.2157 70.8934C72.1923 70.7807 74.6366 71.289 76.7129 71.8172C78.7893 72.3454 80.4967 72.8936 81.2414 73.3158C81.9855 73.7381 81.7669 74.0344 79.9374 73.8735Z" fill="#371A45"/>
<path fill-rule="evenodd" clip-rule="evenodd" d="M80.7573 70.814C78.9727 70.2669 75.8304 69.0329 74.2368 68.0947C72.6421 67.1565 72.5966 66.5145 73.3934 66.5034C74.1902 66.4929 75.8293 67.1132 77.636 67.9821C79.4427 68.8515 81.4175 69.9684 82.1922 70.5965C82.9662 71.224 82.5407 71.3622 80.7573 70.814Z" fill="#371A45"/>
<path d="M86.7929 21.8202C82.5314 18.813 62.9994 5.3895 59.0514 8.54659C52.1353 14.0773 59.4321 38.0035 60.9153 42.7281L86.7929 21.8202Z" fill="#747D8C"/>
<path d="M61.1046 14.8042C61.1046 14.8042 60.1258 14.4185 60.1075 16.7811C60.0758 20.8282 61.4924 31.0285 66.0464 34.8459C66.0464 34.8459 73.2903 24.7398 75.1953 23.6018C77.0996 22.4633 73.1189 21.0435 72.0152 19.5326C70.911 18.0217 61.867 14.459 61.1046 14.8042Z" fill="#FFB8B8"/>
<path d="M75.4495 22.3612C74.7415 21.4951 72.7472 20.5341 72.0153 19.5326C71.6852 19.0815 70.6465 18.4457 69.3308 17.7859C70.6465 18.4457 71.6857 19.0799 72.0153 19.5309C72.7472 20.5341 74.742 21.4951 75.4495 22.3612Z" fill="#7D87AB"/>
<path d="M61.3743 13.9403C62.8509 14.3182 64.2725 14.7842 65.6902 15.3047C67.1035 15.829 68.4968 16.4155 69.8596 17.0791C71.2224 17.7405 72.5558 18.4784 73.8386 19.3135C75.121 20.1469 76.3506 21.0857 77.4887 22.151L78.2805 22.9622L77.3639 23.5836C76.8462 23.9359 76.2835 24.3798 75.7591 24.8132C75.2292 25.2531 74.7093 25.712 74.2038 26.1886C73.1894 27.1369 72.2207 28.1439 71.2907 29.187C70.3773 30.2429 69.4784 31.3193 68.6527 32.4529C68.2216 33.0071 67.8376 33.5942 67.4298 34.1662C67.033 34.7461 66.6602 35.3414 66.2734 35.9296L66.2639 35.9457C66.1397 36.1337 65.8872 36.1859 65.6985 36.0622C65.5176 35.9434 65.4632 35.7043 65.5687 35.519C65.9227 34.8992 66.2639 34.2711 66.6296 33.6563C67.0075 33.0504 67.3621 32.4274 67.7644 31.8348C68.5345 30.6269 69.3847 29.47 70.2547 28.3265C71.142 27.1973 72.0758 26.0976 73.0674 25.0467C73.5618 24.5207 74.0734 24.0075 74.6033 23.5087C75.1415 23.0043 75.6615 22.5327 76.2874 22.0489L76.1625 23.4793C75.182 22.4467 74.0878 21.5007 72.9187 20.6401C71.7506 19.7773 70.5138 18.9955 69.2337 18.2792C67.9541 17.5596 66.6313 16.9093 65.2818 16.3173C63.9334 15.7286 62.5468 15.1843 61.1574 14.7388L61.1452 14.7365C60.9276 14.6655 60.8067 14.4314 60.8766 14.2139C60.9432 14.0041 61.1635 13.8854 61.3743 13.9403Z" fill="#371A45"/>
<path d="M122.818 95.3766C125.58 94.4078 128.301 93.3475 130.908 92.0774C133.515 90.8102 135.99 89.3027 138.234 87.5077C138.787 87.0483 139.336 86.5867 139.86 86.0956C140.129 85.8587 140.379 85.6007 140.635 85.3499L140.997 84.9926L141.357 84.5886C141.594 84.3184 141.83 84.0432 142.044 83.7758L142.195 83.5822C142.216 83.5539 142.243 83.5178 142.254 83.4984L142.327 83.388C142.449 83.2049 142.572 83.0451 142.7 82.8842C143.213 82.25 143.809 81.6768 144.528 81.2179C145.245 80.7674 146.109 80.4328 147.03 80.4101L147.372 80.4223C147.478 80.4267 147.619 80.4306 147.69 80.44C147.859 80.4584 148.03 80.4711 148.2 80.4806C148.536 80.4977 148.87 80.4977 149.186 80.4711C149.502 80.445 149.804 80.3885 150.038 80.3013C150.271 80.2109 150.392 80.0999 150.397 80.0528C150.438 79.9845 150.46 79.7604 150.4 79.4879C150.345 79.2144 150.239 78.902 150.113 78.5852C149.857 77.9432 149.537 77.294 149.228 76.5944C148.921 75.8908 148.638 75.1862 148.426 74.3872L148.417 74.3484L148.404 74.2873C148.395 74.2474 148.389 74.2058 148.388 74.1619C148.377 73.9899 148.411 73.8035 148.503 73.6326C148.594 73.4639 148.749 73.2986 148.981 73.2004C149.212 73.0977 149.522 73.1127 149.725 73.2115L149.99 73.3346L150.471 73.5488C150.794 73.6875 151.121 73.8152 151.448 73.9311C152.095 74.1581 152.773 74.3467 153.343 74.3739C153.621 74.3938 153.865 74.3328 153.886 74.3018C153.893 74.2957 153.893 74.2956 153.893 74.2956C153.893 74.2956 153.891 74.2956 153.9 74.2834C153.915 74.264 153.917 74.1697 153.915 74.1136C153.9 73.9083 153.806 73.5638 153.708 73.2475C153.601 72.9185 153.482 72.5828 153.356 72.2416C152.849 70.8783 152.302 69.474 151.881 68.012C151.772 67.6474 151.676 67.2762 151.583 66.9039C151.499 66.5305 151.415 66.1405 151.348 65.7876L150.918 63.6237L150.036 59.302C149.429 56.429 148.808 53.5426 148.114 50.714L149.893 50.2795L149.915 50.3717L148.129 50.7784C147.536 48.3309 146.67 45.8779 145.638 43.5326C144.603 41.1789 143.39 38.8924 142.095 36.643C140.851 34.4397 139.268 32.3829 137.616 30.4165C135.946 28.4596 134.165 26.5925 132.238 24.8913C131.769 24.4513 131.257 24.0618 130.77 23.6435L130.03 23.0281C129.78 22.8267 129.518 22.6425 129.262 22.4489C128.747 22.0649 128.237 21.676 127.718 21.3015L126.113 20.2434C125.843 20.0719 125.584 19.8816 125.305 19.7246L124.472 19.2496C123.913 18.9372 123.365 18.6065 122.8 18.3086L121.072 17.4791C120.784 17.3437 120.499 17.1978 120.207 17.0696L119.316 16.7228L117.533 16.0281C116.927 15.8106 116.306 15.6081 115.692 15.4073C114.461 15.0073 113.228 14.6377 111.988 14.322C110.748 14.0096 109.499 13.75 108.244 13.5674C107.617 13.4725 106.987 13.4048 106.357 13.3483L105.411 13.2839L104.921 13.2678L104.676 13.2584L104.553 13.255C104.546 13.255 104.524 13.2528 104.53 13.2528L104.55 13.255C104.563 13.2528 104.577 13.2511 104.59 13.2478L104.457 13.2528C102.519 13.2073 100.559 13.2933 98.644 13.5141C96.7219 13.7355 94.8097 14.1117 92.9303 14.6105C89.1738 15.6065 85.5121 17.0535 82.1845 19.0027L81.5869 19.3534L81.0225 18.9572C79.0277 17.554 76.9902 16.2018 74.9182 14.9212C72.8441 13.6423 70.7316 12.4311 68.5681 11.3674C67.4856 10.8375 66.3902 10.3459 65.2832 9.93313C64.179 9.52753 63.0487 9.17688 61.9695 9.04704C61.4307 8.9738 60.914 8.98658 60.4779 9.06925C60.2571 9.10754 60.0762 9.18243 59.9142 9.26289C59.8415 9.32114 59.7765 9.34111 59.6894 9.41436L59.4142 9.6718C58.6851 10.3643 58.1541 11.3197 57.7945 12.3723C57.4322 13.4281 57.2274 14.5739 57.1092 15.738C56.9888 16.9015 56.9661 18.0927 57.0055 19.2879C57.0388 20.4808 57.1303 21.6815 57.2685 22.88C57.3989 24.0801 57.5753 25.2769 57.7823 26.4721C58.1924 28.8618 58.7234 31.2388 59.3387 33.5947C59.9563 35.9439 60.65 38.2992 61.469 40.5492L61.6232 40.9742L61.4324 41.3837C60.9413 42.4362 60.499 43.5248 60.0895 44.6301C59.6889 45.7403 59.316 46.8656 58.9709 48.0013C58.6302 49.1393 58.3111 50.2857 58.0148 51.4392C57.8672 52.0151 57.7241 52.5938 57.5892 53.1725L57.3911 54.0414L57.2136 54.8731L57.1975 54.9497C57.0943 55.4053 56.9866 55.9518 56.889 56.4606L56.5976 58.0197L56.0433 61.1546L54.9918 67.4444C54.6306 69.6727 53.8809 71.7661 53.2106 73.7519C53.0497 74.2418 52.8888 74.7395 52.7961 75.1651C52.7728 75.2705 52.7512 75.3748 52.7478 75.4447C52.7295 75.5479 52.7462 75.5446 52.7362 75.5712C52.7423 75.5801 52.7412 75.5984 52.7428 75.6007C52.744 75.5973 52.7439 75.5973 52.7434 75.5984C52.7417 75.5984 52.7384 75.599 52.7378 75.5862C52.7256 75.5685 52.6985 75.5241 52.6707 75.5102C52.6147 75.4758 52.6779 75.5169 52.82 75.5224C52.9593 75.5302 53.1551 75.5141 53.3604 75.4786C53.776 75.4065 54.2371 75.2672 54.6938 75.0985C55.1516 74.9293 55.6122 74.729 56.0638 74.512L56.4007 74.3467L56.4828 74.3034C56.5188 74.2929 56.4245 74.3162 56.7103 74.208C56.9256 74.1375 57.1964 74.1353 57.4189 74.2069C57.8755 74.355 58.118 74.6868 58.2213 75.0025C58.2734 75.1634 58.29 75.3288 58.2773 75.4841C58.2745 75.5224 58.2695 75.559 58.2634 75.5968L58.2518 75.6567L58.2451 75.6855C58.1763 75.9929 58.0964 76.272 58.0093 76.5489C57.8361 77.0993 57.6369 77.6236 57.4244 78.1391C57.2113 78.6501 57.001 79.1261 56.8152 79.5967C56.6321 80.0583 56.4667 80.5255 56.4156 80.8756C56.3884 81.0493 56.3962 81.1797 56.4084 81.2291C56.4156 81.2335 56.4151 81.2523 56.4173 81.2501C56.4234 81.2451 56.4073 81.244 56.4151 81.2435C56.4151 81.2435 56.4206 81.2568 56.4561 81.2812C56.5161 81.3311 56.6603 81.4088 56.8379 81.4721C57.0188 81.5364 57.2352 81.5886 57.4594 81.6391C57.9155 81.7328 58.4149 81.8 58.9287 81.8549C59.1351 81.8754 59.5818 81.9237 59.8881 82.0197C60.2211 82.1096 60.5184 82.2305 60.8064 82.3593C61.3746 82.6234 61.8746 82.9374 62.3462 83.2687C63.2851 83.9345 64.1174 84.6696 64.9109 85.4265C65.7027 86.1833 66.4535 86.9662 67.1865 87.7485L68.274 88.9126C68.4538 89.1029 68.6336 89.2921 68.809 89.468C68.9804 89.6417 69.1713 89.8231 69.2834 89.9146L69.0431 89.7826C69.1502 89.8226 69.2817 89.9074 69.345 89.964L69.3567 89.974L69.3799 89.994L69.4271 90.0339L69.5209 90.1133L69.7084 90.2731L70.0897 90.5866C70.346 90.7935 70.604 90.9972 70.8676 91.1947C71.3925 91.5931 71.933 91.9709 72.4795 92.3427C73.0272 92.7122 73.5871 93.0645 74.1575 93.4002C74.7351 93.7398 75.2894 94.0527 75.8887 94.3462C77.0773 94.9333 78.2991 95.467 79.5537 95.9303C80.8056 96.4019 82.0884 96.8053 83.3857 97.1854L83.3885 97.1865C83.5994 97.2475 83.7209 97.4689 83.6593 97.6803C83.6033 97.8701 83.4185 97.9866 83.2276 97.9633C80.4948 97.6243 77.7831 96.9291 75.2012 95.8582C74.5587 95.5974 73.8989 95.2939 73.2897 94.9677C72.6704 94.6447 72.06 94.3024 71.4602 93.9412C70.8587 93.5816 70.2761 93.1899 69.7034 92.7838C69.4171 92.5818 69.1347 92.3721 68.855 92.1601L68.4383 91.8378L68.2324 91.6724L68.1292 91.5903L68.0782 91.5487L68.0521 91.5282L68.0394 91.5182C68.0948 91.5675 68.218 91.6458 68.3168 91.6791L68.0765 91.547C67.7658 91.314 67.5732 91.1231 67.3668 90.9223C67.1654 90.7247 66.9751 90.5294 66.787 90.3352L65.6783 89.1806C64.9464 88.4182 64.2112 87.6742 63.4549 86.9695C62.6997 86.2665 61.9195 85.6018 61.1133 85.0464C60.7115 84.7707 60.3004 84.5248 59.8992 84.3467C59.7 84.2624 59.5024 84.1847 59.3188 84.1398C59.1146 84.0854 59.028 84.081 58.7051 84.0482C58.1602 83.9966 57.6014 83.9334 57.0138 83.8202C56.7169 83.7597 56.4145 83.6859 56.0933 83.5733C55.772 83.4556 55.4252 83.3069 55.0673 83.0273C54.8914 82.8914 54.7116 82.7083 54.5629 82.4874C54.4846 82.3842 54.4275 82.2533 54.3681 82.1329C54.3132 82.0103 54.2827 81.8976 54.246 81.7778C54.1312 81.3073 54.1578 80.895 54.2083 80.5438C54.3209 79.8402 54.5363 79.3032 54.7377 78.7749C54.943 78.2551 55.1627 77.7562 55.3586 77.2852C55.5517 76.8163 55.7298 76.3447 55.8752 75.8786C55.9484 75.6478 56.0128 75.4148 56.0605 75.2028L56.0649 75.1828C56.0672 75.1718 56.0655 75.1773 56.0577 75.2184C56.0527 75.2472 56.0494 75.2761 56.0472 75.306C56.0372 75.4286 56.0499 75.5602 56.0921 75.6894C56.1754 75.9413 56.3696 76.2171 56.7619 76.3458C56.9533 76.4074 57.1886 76.4046 57.3728 76.3452C57.627 76.2476 57.5037 76.2881 57.5098 76.292L57.415 76.3403L57.0349 76.5289C56.5277 76.773 56.0116 76.9989 55.4701 77.1986C54.9285 77.3973 54.3692 77.5776 53.735 77.6863C53.4165 77.7385 53.0786 77.7768 52.6868 77.7546C52.3023 77.7257 51.8206 77.6531 51.3334 77.299C51.0976 77.1198 50.8851 76.8751 50.7575 76.6166C50.6815 76.4845 50.6498 76.3641 50.6032 76.2337C50.5655 76.1089 50.5483 75.9941 50.5261 75.8731C50.5034 75.6351 50.5033 75.3643 50.5316 75.2039C50.5505 75.0081 50.5844 74.8522 50.6177 74.6968C50.7569 74.0832 50.9323 73.5682 51.1032 73.0483C51.8029 71.0082 52.4948 69.0701 52.8228 67.0865L53.9009 60.7806L54.4708 57.628L54.7715 56.0489C54.8775 55.5129 54.9735 55.0146 55.1083 54.4332L55.0928 54.5086L55.2942 53.5737L55.5012 52.682C55.6405 52.0884 55.7858 51.4963 55.9373 50.906C56.2403 49.7264 56.5671 48.5512 56.9184 47.381C57.2735 46.2125 57.6591 45.049 58.0753 43.8932C58.5031 42.7397 58.9676 41.5951 59.4958 40.4637L59.4597 41.2982C58.5952 38.9218 57.8988 36.5476 57.264 34.1373C56.6348 31.7304 56.0916 29.2985 55.6688 26.8355C55.4557 25.606 55.2731 24.367 55.1372 23.1191C54.994 21.8713 54.898 20.6162 54.862 19.35C54.8209 18.0855 54.8431 16.8083 54.9757 15.5243C55.1067 14.2415 55.3314 12.9476 55.767 11.6726C56.202 10.4064 56.8734 9.13305 57.9322 8.12267L58.3344 7.75149C58.4831 7.6272 58.6923 7.50344 58.8737 7.38803C59.2555 7.18552 59.6567 7.04073 60.0412 6.96971C60.812 6.81989 61.5433 6.831 62.2231 6.91865C63.5908 7.08678 64.8266 7.48514 66.0301 7.92346C67.2298 8.37123 68.3823 8.89002 69.5109 9.44155C71.7665 10.549 73.9272 11.793 76.0447 13.0958C78.1593 14.4041 80.2273 15.7746 82.2577 17.205L81.0952 17.1573C84.6476 15.0949 88.4624 13.6073 92.3987 12.5787C94.3675 12.0637 96.3728 11.6765 98.4048 11.4479C100.443 11.2215 102.47 11.141 104.51 11.196L104.378 11.201C104.431 11.1977 104.486 11.1977 104.54 11.1977L104.66 11.1993L104.783 11.2048L105.028 11.2137L105.518 11.2343L106.531 11.3053C107.205 11.3674 107.877 11.4423 108.543 11.5467C109.877 11.7458 111.194 12.0233 112.491 12.3562C113.786 12.6918 115.06 13.0797 116.318 13.4903C116.947 13.7006 117.571 13.9053 118.195 14.1317L120.069 14.868L121.005 15.2375C121.31 15.374 121.609 15.5277 121.912 15.672L123.721 16.5492C124.312 16.8615 124.884 17.2089 125.468 17.5396L126.337 18.04C126.627 18.2065 126.898 18.4035 127.179 18.5843L128.849 19.6935C129.388 20.0863 129.918 20.4936 130.453 20.892C130.718 21.095 130.989 21.2904 131.248 21.4984L132.015 22.142C132.52 22.5765 133.05 22.9843 133.533 23.4426C135.525 25.2148 137.361 27.1496 139.081 29.1814C140.785 31.226 142.405 33.3428 143.732 35.7042C146.354 40.2812 148.671 45.1222 149.919 50.3872L148.132 50.7928L148.112 50.7012L149.89 50.2668C150.589 53.1648 151.196 56.0411 151.797 58.9357L152.669 63.2769L153.091 65.4491C153.16 65.8203 153.232 66.1499 153.308 66.4956C153.392 66.8379 153.478 67.1808 153.579 67.522C153.968 68.8936 154.487 70.2408 155.002 71.6401C155.13 71.9903 155.254 72.3503 155.375 72.7215C155.486 73.1099 155.611 73.4761 155.656 74.0054C155.666 74.3162 155.649 74.5969 155.519 74.921C155.399 75.2411 155.147 75.5585 154.852 75.7482C154.56 75.9413 154.258 76.0312 153.999 76.0712C153.736 76.1122 153.491 76.1217 153.266 76.1084C152.362 76.0523 151.611 75.8143 150.871 75.559C150.502 75.4281 150.144 75.285 149.791 75.1324C149.614 75.0569 149.439 74.9776 149.263 74.8966L149.027 74.7839C149.19 74.8633 149.449 74.876 149.637 74.7911C149.828 74.7123 149.946 74.5797 150.017 74.4515C150.087 74.3217 150.113 74.1819 150.105 74.0554C150.102 74.0232 150.098 73.9933 150.092 73.9639C150.083 73.9211 150.085 73.9295 150.087 73.9372L150.094 73.9649C150.257 74.5925 150.515 75.2628 150.796 75.9086C151.079 76.5572 151.41 77.2319 151.699 77.9593C151.841 78.3277 151.978 78.7139 152.068 79.1633C152.148 79.6044 152.21 80.1599 151.936 80.7663C151.87 80.9239 151.77 81.0559 151.671 81.188C151.565 81.3012 151.454 81.4205 151.337 81.5014C151.101 81.6851 150.865 81.7933 150.635 81.8843C150.177 82.0519 149.745 82.1173 149.327 82.1529C148.909 82.1867 148.505 82.184 148.106 82.1623C147.907 82.1496 147.71 82.134 147.514 82.1124C147.403 82.099 147.359 82.1051 147.281 82.1007L147.07 82.0902C146.511 82.1018 145.948 82.3054 145.42 82.6323C144.896 82.9618 144.41 83.4179 143.995 83.9273C143.895 84.0532 143.792 84.1875 143.71 84.3107L143.63 84.43C143.593 84.4877 143.562 84.5243 143.529 84.5704L143.341 84.8128C143.092 85.1202 142.848 85.4015 142.599 85.6845L142.223 86.1045L141.797 86.5234C141.527 86.7864 141.262 87.0577 140.977 87.3063C140.424 87.8212 139.846 88.3056 139.263 88.7855C136.901 90.6731 134.295 92.2223 131.586 93.4929C130.232 94.1326 128.846 94.6902 127.452 95.2162C126.056 95.7339 124.639 96.1855 123.222 96.6222C122.876 96.7287 122.51 96.5351 122.403 96.1889C122.299 95.8515 122.481 95.4948 122.811 95.3782L122.818 95.3766Z" fill="#371A45" fill-opacity="0.470588"/>
<path d="M56.9635 123.496C60.8943 124.134 64.8256 124.773 68.8463 125.338C72.8282 125.898 76.8927 126.385 81.117 126.724C85.2642 127.057 89.5091 127.246 93.673 127.303C98.061 127.365 102.413 127.286 106.515 127.083C110.504 126.885 114.255 126.569 117.6 126.217C120.914 125.868 123.857 125.481 126.238 125.14C128.569 124.808 130.369 124.516 131.903 124.248C133.441 123.978 134.655 123.739 135.869 123.501L136.33 125.864C135.076 126.111 133.82 126.357 132.318 126.621C130.812 126.885 129 127.177 126.577 127.523C124.205 127.862 121.247 128.251 117.844 128.609C114.471 128.963 110.678 129.283 106.628 129.484C102.506 129.688 98.1065 129.767 93.6447 129.705C89.356 129.645 85.0528 129.456 80.9284 129.125C76.6868 128.785 72.5696 128.291 68.5167 127.721C64.5021 127.156 60.5392 126.513 56.5773 125.869L56.9635 123.496Z" fill="#371A45" fill-opacity="0.509804"/>
<path fill-rule="evenodd" clip-rule="evenodd" d="M93.0332 68.4259C94.2406 68.4969 95.1644 68.1773 96.0162 67.4405C96.869 66.7036 97.6504 65.5496 98.1475 64.0315C98.6447 62.5134 98.8578 60.6314 98.6713 59.0601C98.4843 57.4882 97.8989 56.2276 97.0905 55.2954C96.2826 54.3633 95.2527 53.7596 94.2234 53.5288C93.193 53.298 92.1631 53.44 91.2753 54.0437C90.3875 54.6474 89.6417 55.7127 89.0469 57.0709C88.452 58.4298 88.0081 60.0804 87.9993 61.8565C87.9904 63.6315 88.4165 65.5318 89.3754 66.7125C90.3342 67.8932 91.8257 68.3549 93.0332 68.4259Z" fill="#371A45"/>
<path fill-rule="evenodd" clip-rule="evenodd" d="M129.362 67.7584C130.785 67.8755 131.921 67.2008 132.773 66.1C133.626 64.9991 134.194 63.4722 134.443 61.9275C134.692 60.3828 134.621 58.8198 134.034 57.2573C133.449 55.6949 132.347 54.1324 131.282 53.2624C130.217 52.3924 129.187 52.2148 128.672 52.1261C128.157 52.0373 128.157 52.0373 127.766 52.2148C127.376 52.3924 126.594 52.7475 125.789 53.6058C122.096 57.5464 122.931 67.2302 129.362 67.7584Z" fill="#371A45"/>
<path fill-rule="evenodd" clip-rule="evenodd" d="M127.685 56.0401C127.392 56.0844 127.002 56.2448 126.71 56.6443C126.417 57.0449 126.222 57.6841 126.25 58.432C126.278 59.1799 126.53 60.0377 126.839 60.4966C127.148 60.956 127.515 61.017 127.93 60.9787C128.347 60.941 128.811 60.804 129.043 60.238C129.276 59.6727 129.276 58.6778 129.125 57.9232C128.974 57.1686 128.672 56.6537 128.423 56.3608C128.175 56.0678 127.978 55.9957 127.685 56.0401Z" fill="white"/>
<path fill-rule="evenodd" clip-rule="evenodd" d="M95.0047 57.1952C94.5253 57.2224 93.9216 57.5592 93.6281 58.2333C93.3351 58.908 93.3524 59.9184 93.3962 60.7623C93.4406 61.6057 93.5127 62.2815 93.9211 62.5661C94.33 62.8507 95.0758 62.7442 95.5818 62.2826C96.0879 61.821 96.3542 61.0042 96.4163 60.1875C96.4785 59.3708 96.3365 58.5535 96.0879 58.0036C95.8393 57.4527 95.4841 57.1686 95.0047 57.1952Z" fill="white"/>
<path d="M95.0244 57.5498C94.8329 57.5603 94.6104 57.6413 94.4068 57.795C94.2259 57.9304 94.0633 58.1235 93.954 58.3754C93.8258 58.6689 93.7642 59.0506 93.7404 59.4557C93.7149 59.8823 93.7298 60.334 93.7515 60.744C93.7726 61.1474 93.7998 61.5097 93.8674 61.7905C93.9213 62.0185 94.0006 62.1883 94.1244 62.2743C94.2531 62.3636 94.4523 62.3886 94.6681 62.352C94.9023 62.312 95.1453 62.1999 95.3428 62.0202C95.5415 61.8387 95.6985 61.584 95.8156 61.2916C95.951 60.9499 96.032 60.5565 96.062 60.1609C96.0903 59.7913 96.0731 59.4207 96.022 59.0789C95.9688 58.7238 95.8783 58.402 95.764 58.149C95.6641 57.9271 95.5487 57.7634 95.4189 57.6652C95.3085 57.5814 95.177 57.542 95.0244 57.5498ZM93.979 57.2285C94.2975 56.9866 94.662 56.859 94.9855 56.8412C95.3112 56.8235 95.5992 56.9122 95.8472 57.1003C96.0764 57.2746 96.264 57.5292 96.4116 57.8571C96.5525 58.1695 96.6623 58.5557 96.725 58.9735C96.7838 59.3647 96.8033 59.7891 96.7711 60.2136C96.7367 60.6741 96.639 61.1391 96.4748 61.553C96.3189 61.9431 96.1025 62.2882 95.8211 62.5456C95.5204 62.8197 95.1481 62.9906 94.788 63.0516C94.3935 63.1194 94.0039 63.0566 93.7187 62.858C93.4346 62.6605 93.2721 62.3492 93.1777 61.9569C93.0962 61.6196 93.0651 61.2201 93.0424 60.7801C93.0196 60.3484 93.0041 59.8713 93.0313 59.4135C93.0601 58.9347 93.1372 58.4725 93.3031 58.0918C93.4646 57.7206 93.7076 57.4327 93.979 57.2285Z" fill="black"/>
</svg>
