<svg width="161" height="136" viewBox="0 0 161 136" fill="none" xmlns="http://www.w3.org/2000/svg">
<path d="M2.26793 69.294C2.43828 68.8862 2.70963 68.5716 3.04922 68.1766C3.36551 67.8082 3.77612 67.331 4.05523 66.7806C4.30215 66.2923 4.51023 65.6293 4.71277 64.9812C4.95358 64.2122 5.18943 63.4592 5.54234 62.7906C5.70436 62.4838 5.88908 62.1959 6.09162 61.9312C6.93283 60.8309 8.10035 60.0874 9.3788 59.7889C10.6467 59.4915 12.0206 59.6302 13.2907 60.2855C13.5366 59.8555 13.8889 59.4166 14.4227 59.0499C15.053 58.6171 15.8887 58.3596 16.7626 58.2964C17.5722 58.2381 18.4456 58.3413 19.2319 58.6226L19.3756 58.6825C20.8089 59.2396 21.8066 60.2838 22.7537 61.2759L22.7804 61.3042C23.1799 61.7226 23.5711 62.1293 23.9756 62.4855C24.3085 62.779 24.627 63.0154 24.9239 63.1491C25.1741 63.2612 25.5143 63.3416 25.7911 63.4071L26.0941 63.4837C27.2838 63.7922 27.9846 64.2455 27.6267 65.6282C27.4769 66.2063 26.8449 66.8333 26.0054 67.2911C25.4522 67.5929 24.7485 67.8875 24.046 68.0739C22.7842 68.4091 21.5796 68.3952 20.5303 68.3824L20.1652 68.3786C19.7274 68.3763 19.3118 68.3863 18.9095 68.4207C18.5937 68.4479 18.3419 68.4862 18.1687 68.5411C16.9768 68.9218 15.6268 69.1653 14.3761 69.3906C13.3268 69.5792 12.353 69.7551 11.7493 69.9638C11.4124 70.0808 10.8498 70.3671 10.2599 70.6673C9.61182 70.9969 8.93099 71.3431 8.2113 71.6128C7.47997 71.8863 6.81413 72.0272 6.21374 72.0872C5.6067 72.1476 5.07617 72.1271 4.61452 72.0777L4.57069 72.0722C4.03134 72.0128 3.53805 71.9035 3.15296 71.6988C2.193 71.1894 1.79184 70.4309 2.26793 69.294ZM6.7392 68.1344C6.56386 68.4807 6.37298 68.788 6.18155 69.0632C6.48119 69.0155 6.80802 68.9323 7.16315 68.7991C7.64479 68.6194 8.28457 68.2937 8.89439 67.9835C9.54139 67.6545 10.1595 67.3399 10.7727 67.1274C11.5989 66.8416 12.6803 66.6463 13.8467 66.436C15.0064 66.2274 16.2588 66.0016 17.2626 65.6809C17.6921 65.5444 18.1571 65.4623 18.6625 65.4195C19.0798 65.384 19.5936 65.374 20.1829 65.3774L20.5658 65.3813C21.2239 65.389 21.9575 65.3979 22.6683 65.2914C22.4341 65.1238 22.2077 64.9402 21.9863 64.7454C21.5302 64.3437 21.0719 63.8671 20.603 63.3755L20.5764 63.3477C19.8628 62.6003 19.112 61.8141 18.3141 61.4895L18.2192 61.4596C17.8275 61.3192 17.3863 61.2682 16.9746 61.2976C16.6139 61.3236 16.306 61.4052 16.1179 61.5339C15.8882 61.6915 15.7416 62.1243 15.6462 62.4084C15.5924 62.5693 15.5452 62.7085 15.4792 62.8567C14.9282 64.0912 14.249 64.2727 13.1859 63.7994C12.9473 63.6928 12.7791 63.5652 12.5761 63.4049L12.3846 63.2578C12.2381 63.1463 12.0877 63.0498 11.9373 62.9704C11.3264 62.6486 10.6661 62.5776 10.0613 62.7196C9.45149 62.8622 8.88992 63.2218 8.48154 63.7555C8.37832 63.8898 8.28454 64.0363 8.20298 64.1916C7.98213 64.6094 7.78569 65.2364 7.58536 65.8762C7.34732 66.6358 7.10376 67.4142 6.7392 68.1344Z" fill="white"/>
<path fill-rule="evenodd" clip-rule="evenodd" d="M3.65712 69.8705C3.8491 69.4117 4.78524 68.6654 5.39728 67.4575C6.00986 66.2491 6.29949 64.5784 6.87324 63.4909C8.11008 61.1461 11.0599 60.3527 13.2972 62.0627C13.7583 62.4156 13.9336 62.6359 14.1079 62.2447C14.2827 61.8535 14.4563 60.8509 15.2709 60.2922C16.0855 59.7329 17.5415 59.6169 18.7262 60.0408C19.9103 60.4659 20.8236 61.4308 21.6925 62.3402C22.5615 63.2501 23.3872 64.1046 24.3122 64.5201C25.2372 64.9352 26.2621 64.9102 26.1733 65.2509C26.0845 65.5921 24.8826 66.2979 23.6641 66.6208C22.445 66.9443 21.2092 66.8843 20.1777 66.8782C19.1462 66.8716 18.3194 66.9187 17.7162 67.1113C15.6077 67.7838 12.7539 68.029 11.2618 68.5456C10.3024 68.8785 8.88026 69.7596 7.68726 70.2057C6.49426 70.6523 5.53098 70.664 4.77357 70.583C4.01615 70.5025 3.46458 70.33 3.65712 69.8705Z" fill="#FF574C"/>
<path d="M8.04902 72.5349C8.86025 73.2923 9.65819 73.9903 10.4267 74.5474C11.0493 74.9996 11.648 75.3563 12.2389 75.6138C12.8132 75.8646 13.3914 76.031 13.9901 76.1104C14.6166 76.1936 15.2736 76.1864 15.9383 76.0638C16.5465 75.9517 17.1691 75.738 17.7911 75.4046C18.432 75.0606 19.0784 74.5845 19.6738 74.0546C20.3485 73.4543 20.9417 72.8018 21.3789 72.2037C22.1341 71.1722 22.4532 70.2517 22.7362 69.4344C22.7562 69.3767 22.8017 69.2718 22.8094 69.2175L22.6191 69.2419C21.9488 69.3173 21.2846 69.2863 20.6371 69.2563C20.2498 69.2385 19.868 69.2208 19.5484 69.2324C19.2105 69.2458 18.9075 69.2918 18.6412 69.3728C18.4076 69.4438 18.195 69.5465 18.0047 69.6819C17.8055 69.8245 17.603 70.0303 17.4265 70.2328L17.3638 70.3005C17.2096 70.4853 17.0626 70.6873 16.9616 70.8265C15.8568 72.3463 15.8562 72.3463 14.3076 71.3021L14.226 71.2427C13.9485 71.0579 13.4847 70.7683 13.0341 70.6839C12.8099 70.6418 12.5575 70.6429 12.2928 70.6773C11.9626 70.72 11.6114 70.8171 11.2624 70.9491C10.723 71.1567 10.2064 71.438 9.71088 71.7065C9.4917 71.8258 9.27305 71.9446 9.00006 72.0838V72.0899C8.68877 72.2486 8.36585 72.3984 8.04902 72.5349ZM8.66104 76.9842C7.19892 75.9239 5.71626 74.4824 4.23361 73.0354C3.98558 72.8229 3.8036 72.5294 3.73479 72.1843C3.57277 71.3692 4.10211 70.5752 4.91779 70.4132L4.92502 70.4115C5.18137 70.3588 5.44438 70.3016 5.8561 70.1624C6.10691 70.0775 6.39048 69.9726 6.6768 69.8544L6.74782 69.8217C7.0086 69.7113 7.30659 69.5737 7.63508 69.4061L7.6373 69.4111C7.80654 69.3251 8.03844 69.1981 8.27538 69.0699C8.88408 68.7397 9.51947 68.3941 10.1914 68.1377H10.1975C10.7435 67.9302 11.3217 67.7754 11.9038 67.6999C12.4742 67.6251 13.0441 67.6278 13.5873 67.7299C14.1821 67.8414 14.7059 68.0606 15.1299 68.2842L15.1549 68.2554C15.4501 67.9163 15.8201 67.5496 16.2629 67.2339C16.7146 66.9115 17.2179 66.6685 17.77 66.5004C18.2888 66.3422 18.8431 66.2546 19.4308 66.2318H19.4369C19.8863 66.2146 20.323 66.2346 20.7669 66.2551C21.2885 66.2795 21.8245 66.3045 22.2895 66.2518C22.8799 66.1852 23.4836 65.9688 23.8998 65.8129C24.0091 65.768 24.1517 65.7053 24.2621 65.6775C25.125 65.3713 25.6865 65.3812 26.2242 65.9993C26.2652 66.0421 26.3052 66.0881 26.3418 66.1375C26.8085 66.7567 26.7369 67.23 26.4811 67.9502L26.2253 68.6354C26.0539 69.0882 25.8375 69.6608 25.6433 70.2146L25.5733 70.4115C25.2165 71.4408 24.8143 72.6004 23.8038 73.9814C23.2434 74.7471 22.5021 75.5666 21.6747 76.3023C20.9201 76.9737 20.0788 77.5896 19.2154 78.0523C18.3132 78.5367 17.3921 78.8497 16.4804 79.0178C15.4944 79.2003 14.525 79.2109 13.6012 79.0882C12.7095 78.9701 11.8644 78.7287 11.0382 78.3681C10.228 78.0146 9.44509 77.5524 8.66104 76.9842Z" fill="white"/>
<path fill-rule="evenodd" clip-rule="evenodd" d="M5.21161 71.8902C6.67371 73.3179 8.13583 74.7455 9.54302 75.7664C10.9508 76.7868 12.3047 77.401 13.7951 77.5991C15.2861 77.7977 16.9135 77.5813 18.5032 76.7285C20.0924 75.8763 21.6434 74.3882 22.5917 73.0926C23.5394 71.797 23.8845 70.694 24.2252 69.7202C24.5654 68.7465 24.9011 67.9031 25.0625 67.4504C25.224 66.9976 25.2107 66.936 24.7618 67.0958C24.3134 67.2556 23.4284 67.6368 22.454 67.7466C21.4797 67.857 20.4154 67.6967 19.4898 67.7322C18.5637 67.7683 17.7764 67.9996 17.1333 68.4579C16.4902 68.9163 15.9913 69.6015 15.7427 69.9438C15.4936 70.2867 15.4936 70.2867 15.149 70.0543C14.8045 69.8223 14.1153 69.3579 13.3107 69.207C12.5061 69.0561 11.5861 69.2181 10.7277 69.5449C9.86874 69.8712 9.07193 70.3628 8.31674 70.7478C7.5621 71.1334 6.84909 71.4142 6.3386 71.5868C5.8281 71.7593 5.52012 71.8248 5.21161 71.8902Z" fill="#FF574C"/>
<path fill-rule="evenodd" clip-rule="evenodd" d="M132.919 42.0233C134.23 38.8679 133.552 37.7188 137.446 38.5061C141.34 39.294 149.805 42.02 154.547 52.0932C159.29 62.1671 160.311 79.5888 158.688 91.2218C157.065 102.855 152.799 108.7 146.34 111.945C139.881 115.192 131.229 115.84 124.186 116.399C117.143 116.957 111.708 117.426 107.397 117.862C103.087 118.298 99.9013 118.703 97.6812 120.986C95.4605 123.268 94.2049 127.427 92.472 130.063C90.7385 132.698 88.5278 133.81 86.1812 134.087C83.8346 134.363 81.3515 133.804 79.3989 132.632C77.4463 131.461 76.0241 129.675 75.1674 127.455C74.3106 125.235 74.0188 122.581 74.2579 119.338C74.4971 116.096 75.2667 112.266 77.0922 109.133C78.9173 106.002 81.7982 103.568 85.304 100.815C88.8092 98.0614 92.9392 94.9892 99.661 87.3839C106.383 79.7791 115.696 67.6412 122.002 58.9911C128.309 50.3416 131.608 45.1793 132.919 42.0233Z" fill="white"/>
<path d="M131.808 41.5623C132.048 40.983 132.229 40.4376 132.382 39.9738C133.251 37.3399 133.532 36.4899 137.682 37.3294C139.725 37.7427 142.969 38.6649 146.324 40.8055C149.684 42.9494 153.153 46.3074 155.636 51.5801C157.92 56.4312 159.36 62.9074 160.072 69.6327C160.873 77.2036 160.754 85.1202 159.88 91.3867C159.044 97.3807 157.514 101.905 155.35 105.364C153.147 108.887 150.302 111.297 146.877 113.019C140.286 116.332 131.652 117.016 124.56 117.577L124.281 117.599C120.829 117.873 117.716 118.13 114.871 118.377C111.947 118.631 109.507 118.856 107.516 119.058C105.413 119.271 103.588 119.475 102.071 119.89C100.66 120.276 99.4867 120.854 98.5434 121.824C97.3298 123.071 96.3815 125.056 95.4649 126.974C94.8268 128.31 94.2019 129.617 93.475 130.722C92.5007 132.204 91.3843 133.262 90.1785 133.991C88.9589 134.727 87.656 135.125 86.3182 135.282C85.0259 135.435 83.6969 135.36 82.4229 135.086C81.1278 134.809 79.8815 134.324 78.7823 133.663C77.6892 133.007 76.7459 132.185 75.9602 131.224V131.219C75.165 130.246 74.5252 129.126 74.0469 127.889C73.5791 126.677 73.2673 125.358 73.1058 123.912C72.9477 122.491 72.9333 120.945 73.0576 119.253C73.1929 117.422 73.4931 115.403 74.0475 113.407C74.5163 111.717 75.1672 110.048 76.0517 108.531C77.0249 106.86 78.2701 105.386 79.7295 103.971C81.1661 102.579 82.7869 101.261 84.5603 99.8681L85.2389 99.3399C88.5638 96.7393 92.539 93.6294 98.762 86.5883C101.769 83.1865 105.336 78.821 108.931 74.2523C113.299 68.7005 117.631 62.9517 121.033 58.2849C124.15 54.0092 126.538 50.5742 128.322 47.7972C130.059 45.0934 131.18 43.0748 131.808 41.5623ZM134.671 40.7267C134.51 41.2133 134.321 41.7842 134.03 42.485C133.348 44.1274 132.163 46.2691 130.347 49.0972C128.576 51.8525 126.16 55.3248 122.973 59.6976C119.479 64.4892 115.116 70.2852 110.824 75.7399C107.239 80.2958 103.647 84.6885 100.561 88.1802C94.193 95.3843 90.1224 98.5692 86.7177 101.233L86.0463 101.759C84.3161 103.121 82.7436 104.398 81.4063 105.694C80.094 106.966 78.9843 108.276 78.1331 109.736C77.3551 111.072 76.7797 112.548 76.3641 114.048C75.8592 115.864 75.5845 117.725 75.4591 119.423C75.3448 120.974 75.3564 122.378 75.4979 123.648C75.6367 124.895 75.8991 126.014 76.2881 127.022C76.6743 128.023 77.1881 128.923 77.8223 129.7C78.4438 130.456 79.1762 131.097 80.0163 131.602C80.8853 132.123 81.8802 132.509 82.9217 132.732C83.9455 132.952 85.0114 133.013 86.0452 132.891C87.0528 132.772 88.0294 132.475 88.9355 131.928C89.8533 131.374 90.7106 130.557 91.4692 129.404C92.1039 128.438 92.6949 127.202 93.2986 125.938C94.3002 123.841 95.3378 121.671 96.8199 120.148C98.0961 118.836 99.6271 118.07 101.441 117.574C103.149 117.107 105.073 116.89 107.28 116.666C109.597 116.431 112.033 116.205 114.664 115.975C117.373 115.74 120.502 115.483 124.092 115.198L124.371 115.176C131.261 114.631 139.648 113.966 145.803 110.872C148.836 109.348 151.355 107.213 153.306 104.093C155.296 100.912 156.711 96.6955 157.498 91.0571C158.347 84.9671 158.461 77.2596 157.68 69.8774C156.995 63.4034 155.623 57.2007 153.46 52.6066C151.2 47.806 148.065 44.7638 145.034 42.8301C141.997 40.8926 139.061 40.0576 137.211 39.6836C135.153 39.2675 135.035 39.6237 134.671 40.7267Z" fill="#371A45" fill-opacity="0.341176"/>
<path fill-rule="evenodd" clip-rule="evenodd" d="M83.5074 99.1067C79.3219 98.6601 75.7962 97.9926 72.731 97.0671C71.7578 96.773 70.8195 96.4507 69.9122 96.0972C66.5713 97.7274 63.4306 99.5628 61.3886 102.524C58.8905 106.147 58.0377 111.455 58.5138 115.299C58.9133 118.523 60.2478 120.717 62.0806 122.167C61.9774 121.931 61.8808 121.691 61.7948 121.449L61.6777 121.074L61.5712 120.696C61.5124 120.438 61.4458 120.185 61.4059 119.924L61.3426 119.532L61.2982 119.138C61.2405 118.612 61.2316 118.078 61.2543 117.547C61.2699 117.281 61.2876 117.016 61.3232 116.751C61.3493 116.487 61.3986 116.224 61.4425 115.963C61.6461 114.919 61.9879 113.906 62.4868 112.983C62.7376 112.524 63.0206 112.084 63.3463 111.681C63.5083 111.478 63.6759 111.282 63.8595 111.1C64.0415 110.915 64.228 110.745 64.4455 110.587C64.5187 110.533 64.6203 110.548 64.6741 110.621C64.713 110.673 64.7158 110.74 64.6869 110.794L64.6797 110.807C64.572 111.012 64.4677 111.234 64.375 111.451L64.1198 112.115C63.97 112.562 63.8412 113.01 63.7447 113.461C63.5488 114.363 63.4706 115.268 63.4723 116.164C63.4811 116.389 63.4806 116.611 63.4972 116.834C63.5061 117.057 63.5338 117.28 63.551 117.501C63.6026 117.944 63.6537 118.384 63.7308 118.825L63.7841 119.155L63.8451 119.485L63.8723 119.649L63.9073 119.814L63.9705 120.146C64.0116 120.366 64.0654 120.586 64.1042 120.811C64.1514 121.033 64.1981 121.256 64.233 121.484L64.243 121.553C64.3351 122.171 63.9084 122.749 63.2897 122.84C63.2164 122.851 63.1426 122.855 63.071 122.852C63.1105 122.876 63.1498 122.9 63.1898 122.923C65.5841 124.322 68.5661 124.74 70.4133 124.453C72.261 124.167 72.973 123.175 73.3287 122.677C73.5517 122.366 73.6349 122.248 73.6805 121.945C73.6705 121.265 73.6877 120.589 73.7282 119.926C74.0245 115.112 75.5593 111.029 77.8571 107.714C80.1549 104.399 83.2167 101.851 86.1715 100.248C86.7929 99.9107 87.4105 99.6155 88.0448 99.3525C85.3136 99.3131 83.6811 99.1273 83.5074 99.1067ZM69.258 113.118C69.329 113.062 69.4322 113.074 69.4883 113.146C69.5277 113.194 69.5338 113.26 69.5094 113.314L69.5038 113.326L69.2547 113.941L69.0461 114.566C68.9218 114.984 68.8196 115.403 68.7442 115.821C68.6671 116.239 68.6171 116.656 68.5888 117.07L68.5644 117.688C68.5678 117.894 68.5666 118.097 68.5794 118.301L68.5861 118.452L68.5999 118.604L68.626 118.906L68.6632 119.206L68.7087 119.504L68.7592 119.802L68.8136 120.096L68.944 120.683L69.0133 120.974L69.091 121.266C69.1376 121.46 69.1986 121.654 69.2525 121.848L69.293 121.994L69.3379 122.14L69.4234 122.434C69.4822 122.631 69.5466 122.825 69.5949 123.03L69.6148 123.121C69.7557 123.731 69.3751 124.34 68.7647 124.48C68.2703 124.594 67.7754 124.363 67.5318 123.947C67.408 123.735 67.2921 123.517 67.1877 123.294L67.0424 122.954L66.9097 122.606L66.7927 122.252C66.7527 122.135 66.7266 122.011 66.6933 121.891L66.6057 121.527L66.5374 121.158L66.5058 120.973L66.4836 120.786L66.4431 120.412C66.4298 120.16 66.4081 119.911 66.417 119.659C66.4198 119.533 66.4159 119.408 66.4248 119.283L66.4503 118.907L66.4897 118.534L66.5136 118.348L66.5452 118.162C66.6223 117.67 66.7427 117.185 66.9009 116.719C67.0562 116.25 67.2499 115.798 67.4774 115.368C67.7049 114.939 67.9646 114.529 68.2581 114.15C68.4068 113.961 68.5622 113.779 68.7275 113.607C68.8924 113.432 69.0621 113.271 69.258 113.118Z" fill="white"/>
<path d="M72.682 96.1122C68.6874 97.9804 64.6917 99.8497 62.3768 103.207C61.2903 104.782 60.5373 106.722 60.089 108.713C59.5851 110.954 59.4731 113.246 59.7089 115.153C59.9131 116.8 60.3797 118.137 61.0384 119.211C61.7492 120.37 62.7013 121.242 63.7961 121.882C64.7988 122.468 65.9191 122.863 66.9978 123.091C68.228 123.352 69.381 123.399 70.2289 123.267C70.9175 123.16 71.3803 122.933 71.6999 122.689C72.0106 122.452 72.2137 122.169 72.3486 121.98V121.975C72.5023 121.761 72.5034 121.758 72.5411 121.061V121.028C72.5727 120.472 72.6193 119.651 72.7259 118.719C72.8368 117.75 73.0178 116.617 73.3229 115.429C75.4775 107.051 77.8214 105.297 81.3554 102.653C82.5268 101.777 83.8424 100.794 85.3467 99.3725L86.9947 101.124C85.4166 102.615 84.0311 103.652 82.7965 104.575C79.6675 106.916 77.5911 108.469 75.6485 116.022C75.3843 117.051 75.2218 118.085 75.118 118.993C75.0115 119.923 74.9698 120.677 74.9427 121.179L74.9421 121.212C74.8655 122.597 74.8605 122.607 74.3073 123.379C74.0848 123.686 73.7524 124.147 73.1593 124.6C72.5728 125.048 71.7548 125.46 70.5962 125.64C69.4743 125.814 68.0077 125.766 66.499 125.445C65.1828 125.167 63.8123 124.683 62.5821 123.963C61.1638 123.135 59.9242 121.994 58.9853 120.463C58.1513 119.104 57.5648 117.448 57.3173 115.445C57.051 113.293 57.1764 110.709 57.744 108.186C58.2545 105.918 59.1279 103.685 60.3992 101.841C63.0809 97.9521 67.3735 95.9441 71.6649 93.9366L72.682 96.1122Z" fill="#371A45" fill-opacity="0.341176"/>
<path d="M73.6455 27.6799C69.0777 25.7085 48.2136 17.0129 45.1484 20.7337C39.7777 27.2521 49.5259 45.5427 51.8364 49.6619L73.6455 27.6799Z" fill="#FF574C"/>
<path d="M51.8384 50.9036C51.4033 50.9036 50.9822 50.675 50.7547 50.2689C49.5478 48.1188 46.517 42.4722 44.4395 36.5059C41.7018 28.6387 41.618 23.0669 44.1904 19.9442C45.2153 18.7013 47.1923 18.3179 50.414 18.7418C52.7001 19.0414 55.6593 19.7638 59.2089 20.8885C65.6117 22.9176 72.2537 25.7274 74.1375 26.5402C74.7667 26.8115 75.0575 27.5417 74.7856 28.1715C74.5142 28.8007 73.7835 29.0909 73.1543 28.8195C71.2976 28.0172 64.7516 25.2491 58.4592 23.2555C47.8382 19.8892 46.2523 21.3457 46.1064 21.5238C42.3149 26.1241 47.407 39.2296 52.9193 49.0549C53.255 49.6524 53.0414 50.4087 52.4438 50.7438C52.2518 50.852 52.0437 50.9036 51.8384 50.9036Z" fill="#371A45" fill-opacity="0.341176"/>
<path d="M57.5446 42.9043C60.5831 34.7919 64.5378 30.5651 64.5378 30.5651C59.3996 27.216 52.4674 26.1374 49.6364 25.8233C48.93 25.7445 48.3135 26.3055 48.3285 27.0168C48.3751 29.204 48.8335 33.7948 51.5513 38.1887C53.1777 40.8192 54.3729 42.3966 55.2157 43.3416C55.9088 44.12 57.1795 43.8798 57.5446 42.9043Z" fill="#FFB8B8"/>
<path d="M121.023 91.5524C123.718 90.3889 126.258 88.9402 128.541 87.1464C130.307 85.7121 131.915 84.1019 133.324 82.3064L133.333 82.2953C134.375 81.1235 137.781 74.1096 140.781 73.1725C142.428 72.6581 143.809 72.1355 143.967 71.225C144.117 70.3705 143.338 69.3002 142.372 67.9136C141.59 66.7912 141.225 66.0649 141.079 65.7386C141.043 65.656 141.102 65.5688 141.179 65.5905C142.127 65.8546 146.463 66.9543 146.3 64.9302C146.209 63.8066 143.812 60.8304 142.538 57.5513C138.844 48.045 137.953 46.1991 137.953 46.1991C137.928 46.1375 134.805 38.8939 131.228 34.1955C132.014 28.9627 133.735 7.50278 126.195 3.69874C121.889 1.5265 110.368 13.3858 106.981 17.029C101.574 15.2008 94.3997 14.4095 88.1772 15.3439C86.9176 15.5298 85.6957 15.7628 84.5105 16.0441C84.4783 16.048 84.4489 16.0563 84.4201 16.0652C79.9616 17.1028 76.2377 19.1441 72.6776 21.2725C58.8365 29.578 53.6268 45.065 53.6268 45.065C52.3772 48.8196 51.4589 52.1792 50.9417 55.53C50.6826 57.1734 50.5216 58.8119 50.4662 60.4948C50.4662 60.4948 50.4645 60.5242 50.4645 60.5841L50.4662 60.4942C50.4662 60.4942 50.2736 65.3802 50.4367 75.5772C50.4928 79.0944 49.3952 82.7542 49.7342 83.83C50.3463 85.7664 53.9475 83.1132 54.7266 82.5106C54.7898 82.4618 54.8774 82.52 54.8747 82.6105C54.863 82.9672 54.7987 83.7779 54.4979 85.1123C54.1256 86.7613 53.8082 88.0452 54.2687 88.7815C54.7587 89.5644 56.2436 89.4723 57.8827 88.9324C60.3519 88.1201 62.6419 90.5015 62.6419 90.5015C62.9899 90.8605 64.2595 91.7766 64.2628 91.7788C69.6923 95.4109 75.9103 97.0488 83.6465 97.8733C83.6465 97.8733 101.4 100.023 121.023 91.5524Z" fill="white"/>
<path d="M63.297 91.3011C62.9669 91.047 62.6561 90.7946 62.503 90.6364C62.4841 90.6159 60.8599 88.9596 58.9378 88.9596C58.6132 88.9596 58.2797 89.0079 57.9451 89.1178C57.3287 89.3203 56.4581 89.55 55.6801 89.55C55.0142 89.55 54.4166 89.3819 54.1031 88.8831C54.0354 88.7727 53.985 88.6606 53.9472 88.5374L53.8984 88.3765L54.0498 88.3055C54.0604 88.2999 54.0715 88.2949 54.0826 88.2888C54.1181 88.4736 54.1786 88.6373 54.2685 88.7815C54.5193 89.1816 55.0298 89.3531 55.6884 89.3531C56.3177 89.3531 57.0817 89.196 57.8824 88.9325C58.242 88.8143 58.5983 88.7638 58.944 88.7638C60.9704 88.7638 62.6417 90.5016 62.6417 90.5016C62.8026 90.6669 63.1583 90.9505 63.4968 91.209C63.4308 91.239 63.3636 91.2706 63.297 91.3011Z" fill="#AEA5BC"/>
<path d="M83.8652 98.0918C83.711 98.0769 83.6283 98.0669 83.6233 98.0669C79.5017 97.6274 76.037 96.9727 73.0328 96.0655C70.3605 95.2582 67.9612 94.2295 65.7494 92.9384C65.826 92.9068 65.9015 92.8757 65.9775 92.8452C70.9975 95.7421 76.7122 97.1342 83.6461 97.8732C83.6461 97.8732 83.9346 97.9087 84.4773 97.9515C84.2714 97.997 84.0678 98.0441 83.8652 98.0918Z" fill="#C3BAC7"/>
<path d="M65.7493 92.9384C65.2072 92.6211 64.6745 92.2887 64.1535 91.9403L64.1241 91.9181C63.8977 91.7538 63.5898 91.5264 63.2968 91.3011C63.3634 91.2706 63.4305 91.239 63.4965 91.209C63.8911 91.5108 64.2606 91.7777 64.2623 91.7788C64.8249 92.155 65.3964 92.5107 65.9774 92.8453C65.9014 92.8758 65.8259 92.9068 65.7493 92.9384Z" fill="#371A45"/>
<path d="M122.013 91.3228C122.071 91.2279 122.131 91.128 122.193 91.0243C124.454 89.9579 126.592 88.679 128.541 87.1465C130.307 85.7122 131.915 84.102 133.324 82.3065L133.332 82.2954C134.374 81.1236 137.781 74.1097 140.781 73.1726C142.428 72.6582 143.809 72.1356 143.967 71.2251C144.02 70.9249 143.958 70.5997 143.815 70.2424C144.061 70.6208 144.206 70.9865 144.159 71.2589C143.978 72.2987 142.486 72.8436 140.839 73.3562C138.713 74.0221 136.259 78.0292 134.794 80.4233C134.227 81.3494 133.778 82.0835 133.486 82.4147L133.477 82.4269C132.101 84.1802 130.482 85.8193 128.664 87.2974C126.705 88.8338 124.473 90.1854 122.013 91.3228Z" fill="#C3BAC7"/>
<path d="M89.1001 98.3099C86.3579 98.3099 84.5023 98.1545 83.8659 98.0918C84.0684 98.0441 84.272 97.9969 84.4779 97.9514C85.3702 98.023 86.9516 98.1168 89.0762 98.1168C95.8109 98.1168 108.005 97.1713 121.023 91.5524C121.417 91.3821 121.807 91.2067 122.193 91.0242C122.131 91.1279 122.071 91.2278 122.014 91.3227C121.712 91.4625 121.407 91.599 121.099 91.7321C110.938 96.1176 101.293 97.6069 94.9907 98.0835C92.7518 98.2527 90.7625 98.3099 89.1001 98.3099Z" fill="#371A45"/>
<path d="M50.5204 59.3806C57.3726 60.1102 64.9634 59.0433 71.5526 53.6662C86.4856 41.4801 81.8035 25.7845 78.2257 18.2546C76.2858 19.159 74.463 20.2033 72.6779 21.2714C58.8352 29.578 53.6271 45.0649 53.6271 45.0649C52.3759 48.8196 51.4581 52.1803 50.9404 55.5299C50.7417 56.8111 50.5986 58.085 50.5204 59.3806Z" fill="#FF574C"/>
<path d="M112.16 66.0927L112.031 65.7664C111.988 65.6549 111.941 65.5451 111.895 65.4346C111.804 65.2132 111.705 64.9952 111.608 64.7793C111.411 64.3477 111.198 63.9299 110.973 63.5265C110.52 62.7236 110.006 61.9823 109.412 61.3787C109.339 61.2999 109.262 61.2305 109.186 61.1578L109.074 61.0496L108.955 60.9503C108.8 60.8133 108.634 60.6968 108.472 60.5769C108.388 60.5225 108.305 60.4687 108.222 60.4127C108.136 60.3611 108.049 60.3161 107.964 60.2662C107.88 60.2135 107.788 60.1785 107.7 60.1347L107.568 60.072C107.523 60.0515 107.476 60.0359 107.432 60.0182L107.295 59.9655C107.249 59.9477 107.205 59.9266 107.157 59.915C107.063 59.8883 106.97 59.8584 106.877 59.829C106.783 59.8001 106.684 59.7863 106.589 59.7618L106.445 59.7286L106.297 59.7075C106.198 59.693 106.101 59.6764 106.001 59.6636L105.698 59.6414C105.647 59.6387 105.598 59.632 105.544 59.632L105.385 59.6309C105.28 59.6309 105.172 59.622 105.069 59.6309C104.647 59.6364 104.238 59.6853 103.844 59.7702C103.45 59.8562 103.069 59.9732 102.714 60.143C102.356 60.3084 102.018 60.5159 101.708 60.7689C101.394 61.0164 101.114 61.3138 100.854 61.64C100.342 62.2975 99.942 63.0915 99.6667 63.9532C99.3882 64.8154 99.2323 65.7409 99.1673 66.6969V66.7036C99.1512 66.935 98.9515 67.1092 98.7207 67.0936C98.5375 67.0803 98.39 66.9516 98.3444 66.784C98.0753 65.777 98.0043 64.7072 98.1214 63.6358C98.1358 63.5015 98.1575 63.3684 98.1758 63.2335C98.1958 63.0998 98.2263 62.9672 98.2513 62.8329C98.3095 62.5661 98.375 62.2992 98.4615 62.0367C98.502 61.9025 98.5531 61.7737 98.5997 61.6422C98.6463 61.5113 98.7046 61.3837 98.7584 61.2533C98.8133 61.124 98.881 60.9992 98.9421 60.8715C99.0059 60.745 99.0803 60.623 99.1491 60.4981C99.4381 60.0038 99.801 59.5438 100.217 59.1271C100.637 58.7165 101.117 58.3553 101.635 58.0673C102.156 57.7827 102.709 57.5613 103.275 57.4165L103.487 57.3627C103.557 57.3449 103.629 57.3338 103.699 57.3188L103.913 57.2783C103.985 57.2645 104.055 57.2511 104.126 57.2445L104.554 57.1901L104.979 57.1629C105.121 57.1513 105.26 57.1568 105.401 57.1546H105.613C105.682 57.1546 105.757 57.1618 105.829 57.1657L106.264 57.1957C106.409 57.2117 106.555 57.2373 106.7 57.2595L106.917 57.2944L107.134 57.3449L107.35 57.3987C107.421 57.417 107.494 57.4315 107.565 57.457C107.706 57.5036 107.847 57.5502 107.988 57.599C108.059 57.6218 108.126 57.6534 108.196 57.6823L108.401 57.7716C108.943 58.0185 109.455 58.3309 109.907 58.706C110.129 58.8952 110.347 59.0888 110.542 59.3013L110.691 59.4572L110.83 59.6209C110.921 59.7297 111.017 59.8356 111.097 59.951C111.179 60.0659 111.268 60.1769 111.344 60.2939C111.42 60.4105 111.497 60.5275 111.572 60.6446C111.642 60.7628 111.71 60.8843 111.778 61.0042C111.843 61.1251 111.904 61.2472 111.966 61.3681C112.205 61.8597 112.399 62.3619 112.551 62.8712C112.704 63.3795 112.815 63.8955 112.891 64.4126C112.926 64.6723 112.956 64.9308 112.971 65.1916C112.979 65.3215 112.985 65.4518 112.987 65.5833L112.987 65.7809L112.982 65.9856C112.974 66.217 112.782 66.3984 112.551 66.3912C112.379 66.3867 112.235 66.2785 112.175 66.1287L112.16 66.0927Z" fill="#371A45"/>
<path d="M78.3208 69.1388C77.651 67.4687 76.8137 65.8429 75.694 64.7088C75.6263 64.6362 75.553 64.5701 75.482 64.5024L75.3755 64.4015L75.2651 64.3088C75.1191 64.1806 74.9632 64.0724 74.8112 63.9615C74.7313 63.911 74.653 63.8605 74.5759 63.8083C74.4971 63.7606 74.4144 63.7184 74.3345 63.6724C74.2563 63.6235 74.1708 63.5908 74.0887 63.5503L73.9644 63.4921C73.9234 63.4726 73.8795 63.4582 73.8373 63.4416L73.7103 63.3922C73.6676 63.3766 73.6259 63.3567 73.5821 63.3467C73.4933 63.3206 73.4062 63.2934 73.3196 63.2657C73.2325 63.2396 73.1404 63.2257 73.0511 63.2041L72.9168 63.1719L72.7781 63.1525C72.6859 63.1403 72.5944 63.1242 72.5012 63.1114L72.2176 63.092C72.1693 63.0887 72.1239 63.082 72.0739 63.082L71.9247 63.0809C71.8259 63.0809 71.7249 63.0731 71.6278 63.0798C71.2322 63.0854 70.8493 63.1303 70.4803 63.2096C70.1118 63.2901 69.7556 63.3983 69.4232 63.5559C69.0886 63.7096 68.7723 63.901 68.4821 64.1362C68.1869 64.3671 67.9239 64.6439 67.6781 64.948C67.1948 65.5628 66.8142 66.3068 66.549 67.118C66.2815 67.9298 66.1283 68.802 66.0573 69.7064V69.7136C66.039 69.9444 65.837 70.117 65.6068 70.0987C65.4253 70.0848 65.2805 69.9577 65.2344 69.7918C64.9714 68.8375 64.8976 67.8204 65.0052 66.8006C65.0169 66.673 65.0374 66.546 65.0541 66.4172C65.0729 66.2896 65.1012 66.1637 65.1245 66.0355C65.1789 65.7814 65.2411 65.5267 65.3221 65.2759C65.3598 65.1488 65.4086 65.0257 65.4519 64.9003C65.4969 64.7743 65.5524 64.6528 65.6029 64.5285C65.6545 64.4054 65.7189 64.286 65.7777 64.164C65.837 64.043 65.9075 63.9265 65.9741 63.8072C66.2482 63.3339 66.5939 62.8945 66.9906 62.495C67.3918 62.1022 67.8496 61.7554 68.3451 61.4796C68.8423 61.2066 69.3711 60.9952 69.911 60.8565L70.1135 60.8044C70.1812 60.7872 70.2489 60.7766 70.3166 60.7627L70.5203 60.7239C70.588 60.7106 70.6562 60.6984 70.7244 60.6912L71.1317 60.639L71.5379 60.6129C71.6733 60.6013 71.8065 60.6074 71.9413 60.6046H72.1422C72.2093 60.6046 72.2798 60.6118 72.3492 60.6157L72.7642 60.644C72.9029 60.6595 73.0422 60.6845 73.1809 60.7045L73.389 60.7383L73.596 60.7866L73.8024 60.8371C73.8706 60.856 73.94 60.8693 74.0072 60.8943C74.1431 60.9386 74.2779 60.9825 74.4122 61.0296C74.4799 61.0513 74.5454 61.0818 74.6103 61.1101L74.8067 61.1955C75.325 61.4324 75.8149 61.7315 76.245 62.0899C76.4581 62.2703 76.6661 62.4567 76.8509 62.6598L76.9935 62.8096L77.1256 62.9649C77.2127 63.0698 77.3037 63.1714 77.3803 63.2818C77.4585 63.3905 77.5423 63.4976 77.6139 63.6091C77.6866 63.7212 77.7598 63.8311 77.8303 63.9437C77.8974 64.0569 77.9607 64.1729 78.0251 64.2872C78.0866 64.4031 78.1455 64.5191 78.2037 64.635C78.429 65.1034 78.6121 65.5822 78.7531 66.0671C78.8979 66.5521 78.9989 67.0431 79.0683 67.5347C79.0993 67.7822 79.126 68.0274 79.1393 68.276C79.1459 68.3997 79.1487 68.524 79.1504 68.6488L79.1493 68.8358L79.141 69.0322C79.1321 69.2636 78.9373 69.4434 78.7065 69.4345C78.5361 69.4278 78.3935 69.3202 78.3341 69.1715L78.3208 69.1388Z" fill="#371A45"/>
<path d="M82.5505 75.4901C82.5505 75.4901 82.0638 78.1451 83.8522 78.7859C86.1605 79.6121 87.8651 77.5303 88.5432 76.0921C88.5432 76.0921 91.4508 79.1388 94.157 77.1491C95.9698 75.8169 94.5626 73.1814 94.5626 73.1814L82.5505 75.4901Z" fill="white"/>
<path d="M93.0231 69.9699C93.0752 71.5662 90.2192 73.0937 88.0053 73.5464C86.3339 73.8888 83.4352 73.3251 83.104 71.6472C82.8432 70.3239 84.1488 69.0749 88.1962 68.5983C91.5077 68.2105 92.9892 68.9029 93.0231 69.9699Z" fill="#371A45"/>
<path d="M85.9613 70.3056C85.7776 70.3056 85.6844 70.2834 85.6516 70.2634C85.6389 70.2296 85.6405 70.1991 85.6566 70.1636C85.6966 70.0748 85.8842 69.8407 86.7509 69.5821C87.1499 69.4634 87.4456 69.4178 87.6564 69.4178C87.8945 69.4178 88.0227 69.4755 88.0648 69.5538C88.0477 69.6731 87.6049 70.0548 87.0871 70.1608C86.5422 70.2723 86.1849 70.3056 85.9613 70.3056Z" fill="#C3BAC7"/>
<path d="M85.9655 70.6945C85.4207 70.6945 85.3441 70.5253 85.3036 70.4365C85.2387 70.2951 85.2387 70.1452 85.3031 70.0026C85.4429 69.6958 85.8801 69.4367 86.6403 69.2097C87.047 69.0888 87.3882 69.0278 87.6618 69.0278C88.0541 69.0278 88.3077 69.1515 88.4203 69.3995C88.4553 69.475 88.4791 69.5987 88.3975 69.759C88.2349 70.0792 87.6701 70.4371 87.1652 70.5408C86.6175 70.6529 86.2341 70.6945 85.9655 70.6945ZM87.6562 69.4178C87.4454 69.4178 87.1497 69.4633 86.7507 69.5821C85.884 69.8406 85.6964 70.0748 85.6565 70.1635C85.6404 70.1991 85.6387 70.2296 85.6515 70.2634C85.6842 70.2834 85.7775 70.3056 85.9611 70.3056C86.1847 70.3056 86.5421 70.2723 87.0869 70.1608C87.6046 70.0548 88.0474 69.673 88.0646 69.5537C88.0224 69.4755 87.8943 69.4178 87.6562 69.4178Z" fill="#371A45"/>
<path d="M102.905 21.5288C106.292 17.8862 121.889 1.52652 126.194 3.69875C133.735 7.50279 131.618 31.2675 131.161 35.9677L102.905 21.5288Z" fill="white"/>
<path d="M50.5001 84.512C50.2043 84.4648 49.9658 84.3195 49.817 84.0315C49.9663 84.3189 50.2054 84.4649 50.5001 84.5109V84.512ZM49.8803 81.2772C49.9441 80.8466 50.0168 80.3817 50.0873 79.8918C50.0168 80.3817 49.9441 80.8466 49.8803 81.2772ZM50.3719 67.6829C50.3725 65.2371 50.3969 63.4283 50.4208 62.237C50.3969 63.4283 50.3725 65.2376 50.3719 67.6829ZM50.4663 60.5036C50.4663 60.4987 50.4663 60.4964 50.4663 60.4964C50.4735 60.295 50.4812 60.0936 50.4912 59.8939C50.4812 60.0936 50.4735 60.2939 50.4663 60.4948V60.4942V60.4948C50.4663 60.4953 50.4663 60.4987 50.4663 60.5036Z" fill="#F0F0F7"/>
<path d="M50.4782 84.6457C50.3112 84.619 50.1587 84.563 50.0271 84.4748C49.9378 84.4132 49.8573 84.3366 49.789 84.2423C49.7524 84.1918 49.7269 84.1496 49.6964 84.0936L49.9372 83.9693C50.0005 84.0919 50.0832 84.1846 50.1797 84.2501L50.2785 84.3061C50.3518 84.3405 50.4333 84.3644 50.5204 84.3771L50.6353 84.3943V84.6707L50.4782 84.6457ZM49.7458 81.2572L49.9528 79.8723L50.2213 79.9111L50.0144 81.2977L49.7458 81.2572ZM50.2363 67.6828C50.2363 65.8668 50.2485 64.0497 50.2852 62.2348L50.5559 62.2398C50.5188 64.0525 50.5066 65.8685 50.5066 67.6828H50.2363ZM50.3301 60.5036C50.3301 60.3039 50.3467 60.0892 50.3556 59.8883L50.6259 59.8994C50.617 60.0992 50.6165 60.3117 50.6009 60.5086L50.3301 60.5036Z" fill="white"/>
<path d="M50.4999 84.5109C50.2052 84.4648 49.9661 84.3189 49.8168 84.0315C49.7858 83.9699 49.7586 83.9038 49.7358 83.8306C49.591 83.3751 49.7053 82.4546 49.8801 81.2772C49.9439 80.8466 50.0166 80.3817 50.0871 79.8917C50.2796 78.564 50.461 77.0581 50.4383 75.5778C50.3878 72.4518 50.3706 69.8229 50.3717 67.6829C50.3723 65.2376 50.3967 63.4283 50.4206 62.237C50.4389 61.3354 50.4572 60.7883 50.4644 60.5858C50.4661 60.5436 50.4661 60.5164 50.4661 60.5037C50.4661 60.4987 50.4661 60.4953 50.4661 60.4948V60.4942V60.4948C50.4733 60.2939 50.481 60.0936 50.491 59.8939C50.5387 58.9162 50.6209 57.9519 50.7379 56.9909C50.6414 57.7827 50.5682 58.5778 50.5199 59.3806C50.8295 59.4134 51.1414 59.4428 51.4538 59.4677C51.2601 60.8621 51.1369 62.2581 51.0909 63.6868C51.0909 63.6868 51.0881 63.7162 51.0897 63.7767C51.062 64.4803 50.9111 69.3657 51.0625 78.7693C51.0958 80.8106 50.7374 82.9057 50.4999 84.5109Z" fill="white"/>
<path d="M50.4783 84.644C50.3118 84.6185 50.1593 84.563 50.0277 84.4737C49.894 84.3827 49.7808 84.2573 49.6959 84.0936L49.6471 83.9854L49.606 83.87C49.5283 83.6242 49.5189 83.2636 49.5522 82.8147C49.5844 82.3764 49.6576 81.8487 49.7453 81.2578L49.9523 79.8723C50.0488 79.206 50.1432 78.4963 50.2086 77.78C50.2741 77.0587 50.3135 76.3157 50.3024 75.58C50.2774 74.0181 50.2602 72.5777 50.2497 71.2616C50.2397 69.9466 50.2353 68.7532 50.2358 67.6829C50.2364 66.46 50.243 65.3952 50.2519 64.4886C50.2608 63.5803 50.273 62.829 50.2847 62.2348C50.303 61.4513 50.3207 60.6707 50.3551 59.8883C50.379 59.3917 50.4123 58.904 50.4528 58.4246C50.4772 58.1322 50.5055 57.8393 50.5371 57.5452L50.6026 56.9742L50.8717 57.007L50.8174 57.4769C50.7824 57.7993 50.7508 58.1222 50.723 58.4468L50.662 59.2597L51.6075 59.344L51.5876 59.486C51.4916 60.1768 51.4127 60.8732 51.3517 61.5762C51.2907 62.2792 51.248 62.9827 51.2258 63.6868L51.2241 63.7811C51.2074 64.2311 51.1381 66.3945 51.1314 70.3528C51.1281 72.5816 51.1431 75.3819 51.1974 78.7671C51.2268 80.5992 50.945 82.4657 50.7147 83.9882L50.6137 84.6646L50.4783 84.644ZM50.1792 84.2501C50.2414 84.2922 50.3107 84.3244 50.3862 84.3472L50.4467 83.9477C50.6753 82.433 50.9561 80.5759 50.9272 78.7715C50.8728 75.3858 50.8567 72.5838 50.8606 70.3528C50.8679 66.3856 50.9366 64.2217 50.9538 63.7717L50.955 63.6824C50.9777 62.9605 51.0204 62.2514 51.0809 61.5529C51.1375 60.8998 51.2108 60.2467 51.2995 59.5915L50.6453 59.5299C50.5965 60.4348 50.5765 61.332 50.5554 62.2398C50.5432 62.8357 50.531 63.5864 50.5222 64.4908C50.5133 65.3974 50.5061 66.4616 50.5061 67.6829C50.5061 68.752 50.5105 69.945 50.5205 71.2594C50.5305 72.5733 50.5476 74.012 50.5726 75.5756C50.5843 76.3202 50.5443 77.072 50.4777 77.8044C50.41 78.5412 50.3163 79.2503 50.2208 79.9112L50.0139 81.2977C49.9268 81.8831 49.854 82.4052 49.823 82.8341C49.7919 83.253 49.798 83.5815 49.864 83.7896L49.8984 83.885L49.9367 83.9693C50 84.092 50.0827 84.1846 50.1792 84.2501Z" fill="white"/>
<path d="M53.5363 45.3351C53.5658 45.2453 53.5952 45.1559 53.6251 45.066C53.6251 45.066 53.7294 44.7575 53.9464 44.2043C53.7294 44.7564 53.6262 45.0649 53.6262 45.0649C53.5957 45.1548 53.5658 45.2453 53.5363 45.3351Z" fill="#FCBAA5"/>
<path d="M106.981 17.029C103.127 15.7262 98.375 14.9494 93.7106 14.9494C91.8307 14.9494 89.9646 15.0759 88.1773 15.3439C88.1091 15.3539 88.0408 15.3645 87.9731 15.375C88.0419 15.3645 88.1102 15.3539 88.1784 15.3439C90.5267 14.9916 92.9077 14.7957 95.2904 14.7957C99.2201 14.7957 103.154 15.3295 106.951 16.5729L106.835 16.9258C108.265 15.4726 110.125 13.6494 112.145 11.8162C109.934 13.9057 108.052 15.8777 106.981 17.029ZM82.1601 16.6922C82.8931 16.4547 83.6461 16.245 84.4207 16.0641C84.4407 16.0586 84.4629 16.0519 84.4868 16.048C84.4646 16.0525 84.4418 16.0586 84.4202 16.0652C83.6456 16.2456 82.8931 16.4558 82.1601 16.6922ZM129.714 7.75413C129.675 7.71252 129.637 7.67147 129.599 7.63096C128.76 5.82492 127.65 4.43225 126.195 3.69873C126.192 3.69762 126.19 3.69652 126.188 3.6954C126.151 3.67709 126.114 3.6599 126.076 3.64325C126.116 3.66044 126.155 3.67875 126.194 3.69762C127.702 4.46109 128.85 5.90093 129.714 7.75413Z" fill="#F0F0F7"/>
<path d="M79.473 21.1592C79.063 20.095 78.6379 19.1207 78.2257 18.2546C78.0714 18.3256 77.9182 18.3989 77.7657 18.4727C79.1645 17.7957 80.6194 17.1871 82.1603 16.6922C82.8933 16.4558 83.6458 16.2455 84.4204 16.0652C84.442 16.0585 84.4648 16.0524 84.487 16.048C84.4953 16.0463 84.5036 16.0458 84.5119 16.0458C85.6334 15.7767 86.7864 15.5564 87.9733 15.3749C88.041 15.3644 88.1093 15.3539 88.1775 15.3439C89.9648 15.0759 91.8308 14.9494 93.7108 14.9494C98.3751 14.9494 103.127 15.7262 106.981 17.029C108.052 15.8776 109.934 13.9057 112.145 11.8161C116.72 7.66254 122.107 3.46899 125.129 3.46899C125.477 3.46899 125.795 3.52448 126.077 3.64322C126.114 3.65987 126.152 3.67707 126.188 3.69538C125.924 3.56277 125.617 3.50118 125.273 3.50118C120.82 3.50118 110.179 13.9462 105.077 19.2384C102.08 18.3156 99.1381 17.9289 96.0779 17.9289C93.7463 17.9289 91.3453 18.1525 88.8001 18.5354C87.5433 18.7224 86.3214 18.9526 85.1367 19.2361C85.1023 19.2378 85.0724 19.2467 85.0457 19.2561C83.0581 19.7178 81.2181 20.3797 79.473 21.1592ZM129.599 7.63092C129.521 7.5488 129.44 7.4689 129.359 7.39178C128.567 5.67674 127.533 4.37396 126.195 3.69871C127.65 4.43222 128.76 5.82489 129.599 7.63092Z" fill="white"/>
<path d="M107.855 20.2694L105.987 19.5359C105.684 19.431 105.38 19.3317 105.077 19.2385C110.179 13.9463 120.82 3.50128 125.273 3.50128C125.617 3.50128 125.924 3.56287 126.188 3.69548C126.19 3.69659 126.192 3.69769 126.195 3.69881C127.533 4.37406 128.567 5.67685 129.359 7.39188C128.917 6.96965 128.432 6.61898 127.902 6.35376C127.581 6.1912 127.211 6.11517 126.797 6.11517C122.226 6.11517 112.474 15.4222 107.855 20.2694Z" fill="white"/>
<path d="M113.958 22.0776C115.051 22.4554 118.291 25.1614 120.806 27.3553C122.61 28.9316 124.041 30.2433 124.041 30.2433C127.327 26.0608 126.688 16.867 125.916 13.3243C125.466 11.2586 124.679 11.779 124.679 11.779C124.356 11.7074 122.757 12.6019 121.013 13.7548C118.811 15.2096 116.376 17.0739 115.993 17.9279C115.303 19.4559 112.078 21.4323 113.958 22.0776Z" fill="#FFB8B8"/>
<path d="M64.9698 90.759C69.8067 93.9905 75.4332 95.7493 83.7781 96.6399L83.7953 96.641C83.8386 96.6465 88.245 97.1603 94.9535 96.6465C101.129 96.1738 110.58 94.7085 120.53 90.4134L121.022 91.5525L120.53 90.4134C123.242 89.2432 125.676 87.8172 127.765 86.1777C129.484 84.7794 131.018 83.2291 132.324 81.5691C132.355 81.5274 132.387 81.4881 132.421 81.4509C132.636 81.1968 133.11 80.4233 133.568 79.6754C135.782 76.0583 137.971 72.7503 140.41 71.9879C140.986 71.8081 141.641 71.5929 142.13 71.3621C142.543 71.1668 142.696 71.0292 142.745 70.9753C142.727 70.5942 141.975 69.5149 141.471 68.7931L141.353 68.6233C140.515 67.421 140.111 66.6159 139.945 66.2436C139.731 65.7642 139.813 65.2005 140.153 64.8054C140.486 64.4192 141.019 64.2572 141.511 64.3943C143.222 64.872 144.476 64.9452 145 64.8509C144.815 64.3965 144.288 63.5109 143.886 62.8368C143.082 61.4841 142.081 59.8018 141.381 58.0013C137.78 48.7336 136.871 46.8144 136.834 46.7367L136.806 46.6724C136.706 46.4415 133.657 39.4377 130.24 34.9473L129.922 34.5289L129.999 34.0107C130.385 31.4512 131.004 24.9128 130.594 18.4905C130.369 14.9561 129.865 12.0093 129.096 9.72884C128.239 7.1893 127.074 5.53306 125.635 4.80622C125.154 4.56374 123.111 4.1587 117.03 9.14291C113.153 12.3217 109.346 16.3077 107.89 17.8746L107.343 18.4622L106.583 18.2047C101.064 16.3376 94.0807 15.7123 88.3609 16.5718C87.1402 16.7516 85.9422 16.9796 84.7969 17.252L84.7015 17.2737C80.2951 18.2985 76.6595 20.337 73.3136 22.3372C66.4025 26.4842 61.7442 32.5331 59.0536 36.8765C56.1161 41.6188 54.8154 45.4234 54.8027 45.4611C53.4476 49.5304 52.6347 52.6958 52.1675 55.7192C51.9106 57.3516 51.7602 58.9229 51.7069 60.5275L51.7036 60.6157C51.6814 61.2588 51.5277 66.1792 51.6776 75.5578C51.7086 77.4887 51.4151 79.4246 51.1792 80.9815C51.0622 81.756 50.9074 82.7758 50.9074 83.2658C51.4278 83.157 52.5615 82.6155 53.9675 81.5285C54.3709 81.2167 54.9253 81.1651 55.3803 81.3971C55.8436 81.6345 56.1321 82.1261 56.115 82.651C56.1016 83.0583 56.0306 83.956 55.7082 85.3853L55.6621 85.5873C55.4713 86.4306 55.1878 87.6846 55.2998 88.0708C55.5074 88.1363 56.1915 88.1829 57.4944 87.754C60.6683 86.7097 63.42 89.5201 63.536 89.6405C63.7052 89.8158 64.4804 90.4056 64.9698 90.759ZM89.0567 99.3592C85.7186 99.3592 83.7015 99.13 83.5068 99.1067C79.3213 98.6601 75.7956 97.9926 72.7304 97.0671C69.3018 96.0318 66.3054 94.6391 63.5721 92.8103C63.5576 92.8003 62.2009 91.8304 61.7498 91.3644C61.7326 91.3466 59.9553 89.5578 58.2701 90.1115C57.217 90.4583 56.3674 90.5981 55.6821 90.5981C54.2999 90.5981 53.5858 90.0294 53.2157 89.4396C52.5026 88.3011 52.8289 86.8612 53.2412 85.0396L53.2584 84.9614C51.8812 85.7077 50.8335 85.9285 49.9674 85.6583C49.2826 85.4436 48.7788 84.9276 48.5508 84.2035C48.3005 83.4128 48.4692 82.2976 48.7256 80.6092C48.947 79.1449 49.2227 77.3223 49.1955 75.5972C49.0424 66.0305 49.2044 61.0507 49.2244 60.497C49.225 60.4715 49.2255 60.4521 49.2266 60.4398C49.2832 58.7337 49.4425 57.0647 49.7149 55.3369C50.2038 52.1737 51.0466 48.8834 52.4483 44.6721C52.5049 44.5051 53.8333 40.6051 56.9051 35.6309C58.7079 32.7113 60.7427 30.0263 62.9517 27.6488C65.7239 24.6654 68.7813 22.1619 72.0379 20.2072C75.3927 18.2025 79.3652 15.9726 84.105 14.8634C84.1455 14.8523 84.2021 14.8384 84.2703 14.8257C85.4711 14.5427 86.7235 14.3036 87.9953 14.1166C93.8177 13.2421 100.872 13.8136 106.613 15.6052C108.587 13.5129 111.952 10.0961 115.456 7.22314C117.675 5.4049 119.641 4.06494 121.3 3.24098C123.587 2.10576 125.371 1.8927 126.752 2.59071C130.397 4.42892 132.523 9.72551 133.072 18.3318C133.47 24.5694 132.926 30.9235 132.528 33.8631C135.901 38.4567 138.771 44.9657 139.079 45.6786C139.185 45.9028 140.172 48.0345 143.694 57.1019C144.319 58.7098 145.262 60.2939 146.02 61.5667C146.893 63.0343 147.47 64.0031 147.536 64.8304C147.598 65.5866 147.327 66.2552 146.772 66.7113C146.073 67.2884 145.018 67.4787 143.463 67.3078L143.507 67.3727C144.576 68.9046 145.421 70.1147 145.19 71.4386C144.884 73.1914 142.726 73.865 141.15 74.3571C140.665 74.5086 139.8 75.0596 138.442 76.8179C137.412 78.1507 136.454 79.7147 135.685 80.9715C135.079 81.9613 134.637 82.6838 134.287 83.0877C132.86 84.9032 131.191 86.5921 129.324 88.1096L129.307 88.1224C127.049 89.8974 124.426 91.4354 121.514 92.6921C111.22 97.1348 101.452 98.6435 95.07 99.1267C92.7706 99.3009 90.7447 99.3592 89.0567 99.3592Z" fill="#371A45" fill-opacity="0.341176"/>
<path d="M87.5678 123.281C87.489 123.47 87.4119 123.673 87.3447 123.871C87.2781 124.072 87.2171 124.272 87.1605 124.472C87.0512 124.873 86.9618 125.272 86.898 125.67C86.8331 126.068 86.7943 126.465 86.7749 126.856C86.7638 127.052 86.7632 127.248 86.7615 127.442C86.7687 127.635 86.7698 127.828 86.7854 128.019L86.7948 128.163L86.8098 128.306C86.8203 128.402 86.8248 128.497 86.8392 128.591L86.8792 128.874C86.8919 128.968 86.9108 129.061 86.9258 129.154C86.9407 129.248 86.9574 129.341 86.9763 129.433L87.0318 129.711C87.0767 129.895 87.1122 130.079 87.1594 130.262C87.1827 130.354 87.2077 130.445 87.2276 130.537C87.2504 130.629 87.2798 130.719 87.3037 130.811C87.3486 130.994 87.4069 131.176 87.4585 131.359C87.4712 131.406 87.4818 131.452 87.4962 131.499C87.5117 131.543 87.5262 131.59 87.5395 131.635C87.5678 131.727 87.595 131.819 87.6205 131.912C87.6749 132.099 87.7365 132.284 87.7792 132.477L87.8008 132.576C87.9401 133.208 87.5412 133.832 86.9103 133.971C86.4086 134.083 85.9098 133.851 85.6567 133.436C85.5347 133.233 85.4204 133.026 85.3183 132.813C85.2683 132.705 85.2211 132.597 85.1751 132.488C85.1274 132.379 85.0846 132.267 85.0458 132.155L84.9309 131.816C84.8916 131.704 84.866 131.586 84.8333 131.47C84.8039 131.354 84.7728 131.239 84.7473 131.121C84.7223 131.004 84.7017 130.886 84.6807 130.767C84.6701 130.708 84.6579 130.649 84.649 130.59L84.6274 130.41C84.6141 130.291 84.5975 130.17 84.5869 130.051C84.5753 129.809 84.5536 129.57 84.5614 129.327C84.5647 129.206 84.5603 129.086 84.5697 128.966L84.5946 128.605C84.6024 128.485 84.6191 128.366 84.633 128.246L84.6546 128.068L84.6846 127.891C84.7611 127.417 84.8771 126.952 85.0302 126.503C85.1812 126.055 85.3688 125.622 85.589 125.21C85.8093 124.799 86.0607 124.409 86.3459 124.048C86.4891 123.867 86.64 123.694 86.7998 123.531C86.9596 123.364 87.1233 123.213 87.3131 123.067C87.3869 123.009 87.4945 123.023 87.5511 123.098C87.5894 123.148 87.5961 123.212 87.5739 123.267L87.5678 123.281Z" fill="#371A45"/>
<path d="M82.5234 122.63C82.4213 122.827 82.3204 123.038 82.2277 123.245C82.1373 123.455 82.0524 123.664 81.9713 123.874C81.8132 124.296 81.6795 124.72 81.569 125.144C81.3482 125.993 81.2195 126.842 81.1939 127.68C81.1912 127.785 81.1851 127.89 81.1884 127.994V128.307C81.1978 128.515 81.2017 128.722 81.22 128.928C81.2317 129.134 81.2555 129.34 81.2744 129.544C81.2999 129.749 81.3238 129.953 81.3532 130.157C81.3687 130.259 81.3865 130.359 81.3998 130.462C81.4115 130.564 81.437 130.665 81.4531 130.766C81.4836 130.971 81.5269 131.174 81.5657 131.376L81.5929 131.53C81.6051 131.58 81.6162 131.631 81.6262 131.684C81.6484 131.785 81.6684 131.887 81.6878 131.991C81.7294 132.197 81.7799 132.402 81.8099 132.615L81.822 132.702C81.9119 133.343 81.4653 133.936 80.8255 134.026C80.3106 134.097 79.8267 133.821 79.6098 133.378C79.5543 133.264 79.5032 133.148 79.4533 133.031C79.4283 132.972 79.4045 132.914 79.3801 132.854C79.3562 132.796 79.3318 132.737 79.3129 132.676C79.2713 132.556 79.2319 132.435 79.1936 132.313C79.1748 132.253 79.1559 132.191 79.137 132.13L79.0893 131.945L79.0005 131.572C78.9716 131.447 78.9545 131.319 78.9317 131.192C78.9112 131.065 78.8879 130.94 78.8746 130.811C78.8596 130.683 78.8501 130.554 78.8374 130.426C78.8235 130.298 78.8207 130.169 78.8163 130.04C78.8146 129.911 78.8047 129.783 78.8096 129.653C78.8174 129.394 78.8202 129.137 78.8507 128.88C78.8967 128.366 78.9861 127.857 79.1148 127.361C79.3623 126.367 79.7713 125.425 80.2995 124.579C80.5669 124.158 80.8616 123.759 81.1906 123.391C81.3548 123.208 81.5269 123.033 81.7077 122.867C81.8892 122.699 82.074 122.545 82.2826 122.4C82.3603 122.347 82.4652 122.365 82.5184 122.443C82.5562 122.496 82.5584 122.563 82.5307 122.617L82.5234 122.63Z" fill="#371A45"/>
<path d="M69.5039 113.326C69.4162 113.523 69.3308 113.735 69.2548 113.941C69.1793 114.149 69.1105 114.357 69.0461 114.567C68.9218 114.984 68.8197 115.403 68.7442 115.821C68.6671 116.239 68.6172 116.656 68.5889 117.07C68.5739 117.277 68.5706 117.483 68.5645 117.688C68.5678 117.894 68.5667 118.097 68.5794 118.301L68.5861 118.452L68.6 118.604C68.6094 118.705 68.6133 118.806 68.626 118.906L68.6632 119.206C68.676 119.306 68.6943 119.405 68.7087 119.504C68.7237 119.604 68.7398 119.703 68.7593 119.802L68.8136 120.096C68.858 120.291 68.8941 120.488 68.944 120.683C68.9668 120.78 68.9929 120.876 69.0134 120.974C69.0356 121.072 69.0666 121.169 69.091 121.266C69.1376 121.461 69.1987 121.654 69.2525 121.848C69.2664 121.897 69.2775 121.946 69.293 121.994C69.3091 122.043 69.3241 122.091 69.338 122.14C69.368 122.238 69.3968 122.336 69.4234 122.434C69.4822 122.631 69.5466 122.825 69.5949 123.03L69.6149 123.121C69.7558 123.731 69.3752 124.34 68.7648 124.48C68.2704 124.594 67.7754 124.363 67.5318 123.947C67.4081 123.735 67.2921 123.517 67.1878 123.294C67.1373 123.181 67.0896 123.067 67.0424 122.954C66.993 122.839 66.9492 122.724 66.9098 122.606L66.7927 122.252C66.7528 122.135 66.7267 122.011 66.6934 121.891C66.6634 121.77 66.6318 121.65 66.6058 121.527C66.5802 121.404 66.5602 121.281 66.5375 121.158C66.5264 121.097 66.5142 121.036 66.5059 120.973L66.4837 120.786C66.4693 120.66 66.4526 120.536 66.4432 120.412C66.4299 120.16 66.4082 119.911 66.4171 119.659C66.4199 119.534 66.416 119.408 66.4249 119.283L66.4504 118.907C66.4598 118.783 66.477 118.658 66.4898 118.534L66.5136 118.348L66.5452 118.162C66.6224 117.67 66.7428 117.185 66.9009 116.719C67.0563 116.25 67.25 115.798 67.4775 115.368C67.705 114.939 67.9647 114.529 68.2582 114.15C68.4069 113.961 68.5623 113.779 68.7276 113.607C68.8924 113.432 69.0622 113.271 69.2581 113.118C69.3291 113.062 69.4323 113.074 69.4883 113.146C69.5277 113.194 69.5339 113.26 69.5094 113.314L69.5039 113.326Z" fill="#371A45"/>
<path d="M64.6796 110.807C64.5719 111.012 64.4676 111.234 64.3749 111.451C64.2823 111.671 64.1968 111.893 64.1197 112.115C63.9699 112.562 63.8411 113.01 63.7446 113.461C63.5487 114.363 63.4705 115.268 63.4722 116.164C63.481 116.389 63.4805 116.611 63.4971 116.834C63.506 117.057 63.5337 117.28 63.5509 117.501C63.6025 117.944 63.6536 118.384 63.7307 118.825L63.784 119.155L63.845 119.485L63.8722 119.649L63.9072 119.814L63.9704 120.146C64.0115 120.366 64.0653 120.586 64.1041 120.811C64.1513 121.033 64.198 121.256 64.2329 121.484L64.2429 121.553C64.335 122.171 63.9083 122.749 63.2896 122.84C62.773 122.919 62.2847 122.633 62.0844 122.176C61.98 121.937 61.8818 121.695 61.7947 121.449C61.7547 121.324 61.7148 121.199 61.6776 121.074C61.6399 120.948 61.601 120.824 61.5711 120.696C61.5123 120.438 61.4457 120.185 61.4057 119.924L61.3424 119.532C61.3219 119.402 61.3131 119.269 61.2981 119.138C61.2404 118.612 61.2315 118.078 61.2542 117.547C61.2697 117.281 61.2875 117.016 61.323 116.751C61.3491 116.487 61.3985 116.224 61.4423 115.963C61.646 114.919 61.9878 113.906 62.4866 112.983C62.7375 112.524 63.0205 112.084 63.3462 111.681C63.5082 111.478 63.6758 111.282 63.8594 111.1C64.0414 110.915 64.2279 110.745 64.4454 110.587C64.5186 110.533 64.6202 110.548 64.674 110.621C64.7129 110.673 64.7157 110.74 64.6868 110.794L64.6796 110.807Z" fill="#371A45"/>
<path fill-rule="evenodd" clip-rule="evenodd" d="M120.121 73.3807C121.474 73.4938 124.02 73.5088 125.587 73.2347C127.154 72.9617 127.742 72.3991 126.39 72.2859C125.038 72.1738 121.745 72.5106 120.179 72.7842C118.611 73.0583 118.77 73.268 120.121 73.3807Z" fill="#371A45"/>
<path fill-rule="evenodd" clip-rule="evenodd" d="M120.249 71.1224C121.603 71.0031 124.147 70.5454 125.602 70.0454C127.056 69.545 127.42 69.0023 126.698 68.9191C125.976 68.8353 124.168 69.2109 122.633 69.6021C121.098 69.9927 119.835 70.3978 119.285 70.7102C118.734 71.022 118.896 71.2411 120.249 71.1224Z" fill="#371A45"/>
<path fill-rule="evenodd" clip-rule="evenodd" d="M119.643 68.8608C120.962 68.4558 123.286 67.5431 124.464 66.8495C125.643 66.1559 125.677 65.681 125.088 65.6732C124.499 65.6649 123.287 66.1237 121.951 66.7663C120.615 67.4093 119.155 68.2349 118.582 68.6994C118.009 69.1638 118.324 69.2659 119.643 68.8608Z" fill="#371A45"/>
<path fill-rule="evenodd" clip-rule="evenodd" d="M106.056 73.9411C105.316 73.6459 104.492 73.096 104.287 72.3814C104.081 71.6667 104.494 70.7889 105.233 70.1054C105.971 69.4223 107.035 68.9347 108.308 68.635C109.579 68.3354 111.06 68.2233 112.347 68.4092C113.635 68.5951 114.729 69.0778 115.209 69.6959C115.689 70.3129 115.552 71.0647 115.037 71.7366C114.52 72.408 113.623 72.9995 112.406 73.4156C111.187 73.8318 109.648 74.072 108.55 74.1736C107.452 74.2745 106.796 74.2357 106.056 73.9411Z" fill="#FFB8B8"/>
<path fill-rule="evenodd" clip-rule="evenodd" d="M64.034 75.7792C63.3498 75.4263 62.6235 74.8443 62.5336 74.2057C62.4437 73.5676 62.9897 72.8746 63.8276 72.3924C64.6638 71.9097 65.7924 71.6395 67.0958 71.5568C68.3987 71.4753 69.8786 71.5818 71.121 71.9169C72.3628 72.2515 73.3672 72.813 73.7428 73.4061C74.119 73.9987 73.8654 74.6218 73.2501 75.1251C72.6336 75.6272 71.6542 76.0095 70.3863 76.1987C69.1178 76.3873 67.5597 76.3818 66.4594 76.3185C65.3591 76.2547 64.7182 76.1316 64.034 75.7792Z" fill="#FFB8B8"/>
<path d="M87.4586 72.3757C87.6811 73.2269 87.9036 74.0797 88.0085 74.8398C88.14 75.8019 88.0718 76.6409 87.604 77.2346C86.9276 78.0913 85.8755 78.0774 84.7624 78.0635C84.4112 78.0585 84.0489 78.0541 83.7243 78.0885C83.3031 78.1334 82.9507 78.2488 82.7188 78.4064C82.6367 78.4624 82.5873 78.4486 82.5873 78.4674C82.5867 78.514 82.6761 78.6178 82.8231 78.7421C83.0378 78.9235 83.3336 79.0645 83.6665 79.1061H83.6704C84.3652 79.1937 85.3157 78.9002 85.7135 78.777C85.8822 78.7249 85.9971 78.6894 86.1075 78.6766C86.7778 78.5951 87.1895 79.0006 87.281 79.5522L87.2894 79.6099C87.3632 80.274 87.0935 80.446 86.6435 80.7268C86.386 80.8866 85.8006 81.2511 85.4827 81.6895C85.4122 81.7871 85.3545 81.8859 85.3107 81.9802C85.2369 82.1477 85.1925 82.3087 85.1841 82.4451C85.3828 82.4385 85.7335 82.3852 86.0886 82.3303C86.6524 82.2443 87.2234 82.1566 87.7805 82.2271C88.5506 82.3264 89.0795 82.6959 89.4862 83.2003C89.8119 83.6042 90.0211 84.0575 90.2292 84.5109L88.3176 85.3842C88.1672 85.0568 88.0157 84.7278 87.8465 84.5186C87.7577 84.4082 87.6529 84.3289 87.5169 84.3117C87.2755 84.2811 86.8355 84.3488 86.4016 84.4149C85.6131 84.5358 84.8362 84.6545 84.1715 84.3527C84.0594 84.3017 83.954 84.2406 83.8597 84.1718C83.3641 83.8128 83.1156 83.2574 83.0834 82.6294C83.059 82.1688 83.1583 81.66 83.3625 81.184C82.6139 81.0802 81.9498 80.7606 81.4631 80.3489C80.8489 79.8285 80.4776 79.1277 80.4865 78.4424C80.4954 77.7211 80.8866 77.1075 81.5319 76.668C82.0418 76.3213 82.7332 76.0783 83.5017 75.9956C83.9184 75.9518 84.3596 75.9568 84.7874 75.9629C85.3695 75.9701 85.9205 75.9767 85.956 75.9323C86.0065 75.8679 85.9838 75.5561 85.9238 75.1206C85.8367 74.4847 85.6297 73.6935 85.4233 72.9034L87.4586 72.3757Z" fill="#371A45"/>
<path fill-rule="evenodd" clip-rule="evenodd" d="M59.6829 75.2804C58.2408 75.4008 55.5263 75.4169 53.8555 75.1251C52.1842 74.8332 51.5572 74.2334 52.9988 74.1136C54.4398 73.9932 57.9511 74.3527 59.6219 74.6446C61.2932 74.9364 61.1245 75.1606 59.6829 75.2804Z" fill="#371A45"/>
<path fill-rule="evenodd" clip-rule="evenodd" d="M59.5475 72.8724C58.1042 72.7453 55.3914 72.2576 53.8405 71.7238C52.2902 71.1906 51.9018 70.6119 52.6714 70.5231C53.441 70.4344 55.3687 70.835 57.005 71.2511C58.6424 71.6678 59.9886 72.1 60.5751 72.4329C61.1622 72.7653 60.9896 72.9994 59.5475 72.8724Z" fill="#371A45"/>
<path fill-rule="evenodd" clip-rule="evenodd" d="M60.1928 70.461C58.7862 70.0293 56.3087 69.0561 55.0519 68.3165C53.7956 67.5768 53.759 67.0708 54.3876 67.0619C55.0152 67.0536 56.3076 67.5424 57.7325 68.2277C59.1569 68.9135 60.7134 69.794 61.3243 70.289C61.9347 70.7839 61.5995 70.8926 60.1928 70.461Z" fill="#371A45"/>
<path d="M27.263 80.6208C27.5582 80.3584 27.8878 80.2146 28.299 80.0354C28.6391 79.8873 29.0808 79.6942 29.4509 79.4118C29.7839 79.1577 30.1562 78.7593 30.5202 78.3714L30.5962 78.296C31.0273 77.8355 31.4535 77.3894 31.9179 77.0465C32.1593 76.8684 32.4084 76.7147 32.6604 76.5876C33.7097 76.0561 34.8799 75.919 35.9747 76.1632C36.9823 76.3879 37.9195 76.9311 38.6337 77.7789C38.9477 77.5969 39.3228 77.4482 39.7751 77.3794L39.931 77.3644C40.5557 77.3006 41.2405 77.4138 41.8792 77.6662C42.5168 77.9181 43.1487 78.3226 43.6553 78.837C44.6037 79.8018 44.9854 80.9798 45.3478 82.0973L45.3572 82.1272C45.5036 82.5805 45.6474 83.0194 45.7978 83.3751C45.9237 83.6747 46.058 83.931 46.2089 84.1102C46.3299 84.2545 46.5385 84.4237 46.7083 84.5613L46.8981 84.7167C47.7915 85.4719 48.2043 86.1538 47.2987 87.2241C46.9353 87.6519 46.1773 87.9243 45.33 87.9664C44.8062 87.9925 44.1719 87.9592 43.5776 87.8455C42.5006 87.6385 41.6195 87.2002 40.8515 86.819L40.5158 86.6503C40.2372 86.5155 39.9665 86.3951 39.6941 86.2914C39.4799 86.2098 39.3062 86.1554 39.1835 86.1388C38.1731 85.9962 37.0994 85.6977 36.1056 85.4219C35.2999 85.1983 34.5519 84.9902 34.052 84.9325C33.7229 84.8937 33.2524 84.9042 32.7608 84.9148C32.1543 84.9275 31.5184 84.9403 30.9252 84.887C30.2693 84.8271 29.715 84.6912 29.2423 84.5186C28.754 84.3411 28.3589 84.1313 28.0282 83.926L27.9417 83.8678C27.5693 83.6286 27.2452 83.3662 27.0233 83.0644C26.4101 82.2293 26.3808 81.4076 27.2658 80.6236L27.263 80.6208ZM31.2754 81.8015L31.1522 81.8925L31.1954 81.8969C31.6255 81.9358 32.1765 81.9247 32.7014 81.9136C33.3251 81.9003 33.9199 81.8875 34.3938 81.9424C35.1001 82.0246 35.9691 82.2659 36.9058 82.5262C37.8041 82.7753 38.7746 83.0455 39.5958 83.1609C39.9748 83.2142 40.3616 83.324 40.765 83.4783C41.0657 83.592 41.4236 83.7551 41.827 83.9516L42.181 84.123C42.4474 84.255 42.7309 84.3965 43.0245 84.5236C42.8197 84.037 42.6594 83.5476 42.4968 83.0455L42.4873 83.0155C42.2332 82.2304 41.9646 81.4031 41.5129 80.9437C41.3143 80.7423 41.0502 80.5764 40.7733 80.4671C40.5735 80.3889 40.3988 80.3451 40.2778 80.3473L40.2223 80.3567C40.098 80.3756 39.8849 80.5931 39.7462 80.7351C39.6413 80.8422 39.5492 80.9365 39.4477 81.022C38.4461 81.8681 37.7747 81.7377 37.0422 80.8694C36.8702 80.6658 36.7848 80.491 36.6766 80.2674L36.6128 80.137C36.5529 80.0188 36.4874 79.9123 36.4186 79.819C36.1317 79.4306 35.7422 79.186 35.3277 79.0939C34.9021 78.999 34.4382 79.0561 34.0143 79.2709C33.9066 79.3252 33.8029 79.389 33.7074 79.4595C33.4278 79.6659 33.1114 79.9966 32.7868 80.3428L32.7097 80.4316C32.2636 80.9077 31.8064 81.3954 31.2754 81.8015Z" fill="white"/>
<path fill-rule="evenodd" clip-rule="evenodd" d="M28.2632 81.7444C28.5623 81.4798 29.4989 81.2667 30.3629 80.6064C31.2268 79.9467 32.0181 78.8398 32.8122 78.2533C34.524 76.9893 36.9328 77.4438 37.9543 79.4601C38.1646 79.8757 38.2145 80.096 38.477 79.874C38.7395 79.6521 39.2145 78.9879 39.9985 78.8675C40.782 78.7477 41.8751 79.171 42.5837 79.8907C43.2917 80.6103 43.6158 81.6262 43.9271 82.5867C44.2378 83.5471 44.5369 84.4532 45.0607 85.0752C45.5851 85.6977 46.3342 86.0373 46.1516 86.2526C45.9685 86.4684 44.8538 86.5594 43.86 86.3686C42.8662 86.1771 41.9933 85.7033 41.2498 85.3393C40.5062 84.9753 39.8925 84.7212 39.3892 84.6496C37.6302 84.401 35.4817 83.5838 34.2227 83.4373C33.4131 83.3435 32.078 83.485 31.0598 83.3918C30.0422 83.2986 29.3419 82.9712 28.8225 82.6488C28.3026 82.327 27.9641 82.0096 28.2632 81.7444Z" fill="#FF574C"/>
<path d="M27.268 84.2496L27.2652 84.2413C27.1736 83.9777 27.1537 83.6853 27.2241 83.394C27.4189 82.5878 28.2307 82.0923 29.0369 82.2871L29.053 82.291C29.2334 82.3348 29.4171 82.3792 29.7872 82.4247C30.0197 82.4535 30.2799 82.4796 30.5263 82.4913C30.776 82.5035 31.0384 82.5085 31.2976 82.5024L31.8724 82.478C32.4378 82.4508 33.0283 82.4219 33.6187 82.473C34.1114 82.5151 34.6074 82.6095 35.0752 82.7637C35.5358 82.9163 35.9747 83.1316 36.3625 83.4173C36.706 83.6698 36.984 83.9589 37.2065 84.2357C37.5184 84.1126 37.8713 84.0016 38.2458 83.9372C38.7119 83.8573 39.1919 83.8573 39.6852 83.9339C40.1435 84.0055 40.6008 84.1425 41.0558 84.34C41.4381 84.5087 41.7344 84.6696 42.0368 84.8333C42.4025 85.0308 42.7781 85.2345 43.0878 85.3427C43.5211 85.4941 44.02 85.5446 44.359 85.5751L44.6476 85.5995C45.5892 85.7016 46.0797 85.9863 46.2584 86.9062C46.3988 87.6403 46.1474 88.0231 45.6358 88.5264L45.2141 88.9325C44.94 89.1928 44.5937 89.5223 44.2508 89.8636L44.1271 89.9884C43.5006 90.6171 42.7959 91.3256 41.5352 91.9975C40.836 92.3704 39.9931 92.7149 39.1281 92.9613C38.334 93.1871 37.4879 93.3425 36.6711 93.378C35.8188 93.4146 35.0148 93.3158 34.2701 93.1128C33.4622 92.8925 32.7269 92.5479 32.0749 92.119C31.4457 91.7062 30.8975 91.2191 30.4103 90.6509C29.9375 90.1016 29.5208 89.4774 29.1401 88.7705C28.4321 87.4555 27.8529 85.8609 27.2741 84.2674L27.268 84.2496ZM30.9491 85.5074C31.2171 86.1744 31.4945 86.8008 31.7881 87.3462C32.0688 87.8672 32.3668 88.3172 32.6937 88.6973C33.005 89.0596 33.3446 89.3631 33.723 89.6122C34.1203 89.873 34.5681 90.0833 35.0586 90.217C35.5108 90.3402 36.0069 90.3995 36.5412 90.3768C37.0917 90.3529 37.7032 90.2364 38.3041 90.0655C38.9905 89.8697 39.6253 89.6144 40.123 89.3492C40.8621 88.9553 41.366 88.4959 41.7999 88.0664C41.3693 87.8911 40.9864 87.6836 40.6124 87.4811C40.3267 87.3268 40.0437 87.1737 39.8605 87.0943L39.8555 87.0921C39.6286 86.9961 39.4178 86.9301 39.2258 86.9001C39.0682 86.8763 38.9095 86.8768 38.7519 86.9034C38.5788 86.9329 38.3851 87.0033 38.2098 87.0782L38.1415 87.106C37.9662 87.1842 37.8014 87.2735 37.6876 87.334L37.6027 87.3767C36.1051 88.1779 36.089 88.1519 35.2073 86.6421L35.1529 86.5406C35.0269 86.3303 34.8239 86.0179 34.5847 85.842C34.4687 85.756 34.3128 85.6833 34.133 85.624C33.8989 85.5468 33.6336 85.4975 33.3595 85.4742C32.9128 85.4359 32.4534 85.4581 32.0133 85.4791C31.823 85.488 31.6388 85.4975 31.3564 85.5036L30.9491 85.5074Z" fill="white"/>
<path fill-rule="evenodd" clip-rule="evenodd" d="M28.6832 83.7463C29.2426 85.2882 29.8024 86.8296 30.4638 88.0586C31.1258 89.287 31.8899 90.2025 32.8987 90.8656C33.9074 91.5286 35.1592 91.9392 36.6058 91.877C38.0519 91.8143 39.6915 91.2795 40.8285 90.6736C41.966 90.0671 42.5997 89.3902 43.1857 88.8043C43.7711 88.2195 44.3076 87.7268 44.5823 87.4554C44.8564 87.1847 44.8686 87.1353 44.4885 87.0948C44.1084 87.0537 43.3355 87.0204 42.5925 86.7608C41.8501 86.5011 41.1365 86.0139 40.4551 85.7171C39.7731 85.4203 39.1228 85.3132 38.4986 85.4203C37.8738 85.5274 37.2745 85.8492 36.9754 86.0101C36.6752 86.171 36.6752 86.171 36.5076 85.8825C36.339 85.595 36.0032 85.0191 35.4739 84.6296C34.9451 84.2401 34.2232 84.0365 33.4885 83.9738C32.7538 83.9105 32.007 83.9876 31.3267 84.0032C30.6459 84.0187 30.0332 83.9726 29.6038 83.9199C29.1748 83.8667 28.929 83.8068 28.6832 83.7463Z" fill="#FF574C"/>
<path d="M28.5171 50.5807C28.774 50.3138 29.0553 50.164 29.4071 49.977V49.9709C29.6829 49.8244 30.0402 49.6341 30.2922 49.4094C30.5469 49.1808 30.8238 48.8351 31.094 48.4978V48.4917C31.448 48.0495 31.7954 47.6167 32.2171 47.2516C32.4079 47.0862 32.6171 46.9353 32.8396 46.7999C33.7375 46.2501 34.7712 46.0465 35.7594 46.1874C36.6095 46.3083 37.4252 46.6829 38.0955 47.3087C38.3341 47.1678 38.6138 47.0468 38.9461 46.9697C39.5321 46.8327 40.2124 46.8804 40.8593 47.0796C41.4453 47.2605 42.0335 47.5751 42.5123 47.9912H42.5185C43.4168 48.773 43.8275 49.7706 44.2164 50.7166L44.2442 50.7854C44.3835 51.1233 44.521 51.4518 44.6708 51.7414C44.7863 51.965 44.9028 52.152 45.0232 52.2746C45.1292 52.3817 45.299 52.4993 45.4383 52.5953L45.6214 52.7263L45.6242 52.7224C46.5364 53.3832 46.9725 54.0202 46.1657 55.131C45.8522 55.5638 45.1714 55.875 44.399 55.9744C43.9373 56.0332 43.3808 56.0482 42.862 55.9893C41.9114 55.8823 41.1263 55.5654 40.4421 55.2897L40.1358 55.1648C39.8928 55.07 39.6653 54.9878 39.4505 54.9251C39.288 54.8769 39.1548 54.8469 39.0577 54.8408C38.1688 54.7853 37.2449 54.6039 36.3909 54.4369C35.6901 54.2998 35.0398 54.1717 34.6724 54.1578C34.435 54.1489 34.0359 54.1883 33.6176 54.2299C33.1071 54.2799 32.5728 54.3337 32.0434 54.3265C31.4635 54.3187 30.9691 54.2371 30.543 54.1189C30.0941 53.9935 29.7339 53.8382 29.4349 53.6823L29.35 53.6346C29.0048 53.4487 28.6958 53.2329 28.4694 52.9693C27.808 52.2042 27.7175 51.4107 28.5171 50.5807ZM33.4333 50.3726C33.1814 50.6872 32.9256 51.0062 32.6449 51.302C32.8641 51.2859 33.0966 51.2626 33.3235 51.2398C33.8407 51.1888 34.3345 51.14 34.7784 51.1566C35.4337 51.1816 36.1723 51.3269 36.9674 51.4823C37.7404 51.6338 38.576 51.798 39.2463 51.8396C39.5776 51.8607 39.926 51.9317 40.2984 52.041C40.5769 52.1237 40.891 52.2375 41.2372 52.3734C41.4059 52.4344 41.5724 52.5049 41.7394 52.5715C41.6468 52.364 41.558 52.1498 41.4686 51.9328L41.4326 51.8468C41.1812 51.2326 40.9138 50.5873 40.5409 50.2628L40.5437 50.26C40.3839 50.1224 40.1813 50.0153 39.9765 49.952C39.8228 49.9049 39.6964 49.8849 39.6287 49.9004C39.6015 49.9065 39.4639 50.0713 39.3745 50.1784C39.3063 50.26 39.2452 50.3321 39.1537 50.4248L39.1259 50.4525C38.2248 51.3419 37.5644 51.2748 36.7882 50.5013L36.761 50.4741C36.614 50.3249 36.5274 50.1923 36.4347 50.0364L36.3104 49.8322L36.3144 49.8305C36.2705 49.7595 36.2172 49.6896 36.1579 49.6208C35.9326 49.3606 35.6402 49.2085 35.3355 49.1653C35.0237 49.1203 34.6935 49.1869 34.4033 49.3639H34.3978C34.3306 49.4044 34.2579 49.4582 34.183 49.5231C33.9749 49.7024 33.708 50.0358 33.4361 50.3754L33.4333 50.3726Z" fill="white"/>
<path fill-rule="evenodd" clip-rule="evenodd" d="M29.6 51.6221C29.8341 51.3797 30.6087 51.1394 31.2924 50.5274C31.9765 49.9154 32.5702 48.9322 33.2 48.3874C34.5578 47.2116 36.6148 47.4369 37.6058 49.0671C37.81 49.4027 37.8666 49.5853 38.073 49.3811C38.2794 49.1775 38.6357 48.5871 39.2877 48.4351C39.9391 48.2825 40.8868 48.5677 41.5299 49.127C42.1731 49.6863 42.5115 50.5202 42.8361 51.3081C43.1608 52.096 43.4715 52.8389 43.9531 53.3283C44.4348 53.8182 45.0873 54.0546 44.948 54.2477C44.8077 54.4413 43.8755 54.5906 43.027 54.4946C42.1781 54.3986 41.4123 54.0574 40.7631 53.7994C40.1139 53.5414 39.5807 53.3677 39.1529 53.3405C37.6558 53.2462 35.7947 52.6986 34.726 52.6575C34.0385 52.6314 32.9237 52.8378 32.0614 52.8256C31.1986 52.814 30.5877 52.5842 30.1299 52.3468C29.6715 52.1098 29.3658 51.8652 29.6 51.6221Z" fill="#FF574C"/>
<path d="M32.473 54.8181C32.6888 55.2398 32.9074 55.6338 33.1299 55.9794C33.3918 56.3878 33.6604 56.7324 33.944 57.0153C34.2092 57.2789 34.4988 57.4992 34.8207 57.6767C35.153 57.8604 35.5215 57.9996 35.9166 58.0751C36.2806 58.145 36.679 58.1605 37.1051 58.1089C37.5501 58.0557 38.0368 57.9236 38.5095 57.7477L38.575 57.7255C39.0983 57.5275 39.5765 57.2883 39.9505 57.0503C40.3961 56.7668 40.7246 56.461 40.9999 56.1642C40.7457 56.0671 40.5032 55.9595 40.2652 55.8535C40.0282 55.7481 39.7946 55.6438 39.6304 55.5872C39.4645 55.53 39.303 55.4939 39.146 55.4823C39.0283 55.474 38.9185 55.4812 38.818 55.5067C38.6815 55.5411 38.5428 55.6027 38.4218 55.6659C38.2959 55.732 38.1317 55.8374 38.0224 55.9084C36.5597 56.8472 36.5586 56.8472 35.572 55.4196H35.5681C35.4654 55.272 35.2629 54.9818 35.0615 54.8564C34.9749 54.8026 34.8628 54.7599 34.7358 54.7288C34.5432 54.6811 34.3385 54.6583 34.1365 54.6572C33.7919 54.6545 33.4002 54.7038 33.0262 54.7516L32.473 54.8181ZM30.5992 57.604C29.9072 56.5287 29.3174 55.2298 28.7286 53.9315C28.6021 53.6707 28.5505 53.37 28.5955 53.062C28.7153 52.2398 29.48 51.671 30.3023 51.7909L30.34 51.7987C30.5054 51.8253 30.6752 51.8536 30.9349 51.8647C31.1102 51.8724 31.3227 51.8763 31.5502 51.8697C31.7228 51.8647 31.9181 51.853 32.1306 51.8331L32.6495 51.7737C33.12 51.7138 33.6133 51.6522 34.1487 51.6561C34.5948 51.6594 35.041 51.7077 35.4538 51.8092C35.8805 51.9141 36.2878 52.0761 36.6507 52.3025C36.9209 52.4711 37.1517 52.6625 37.3454 52.8534C37.5773 52.748 37.8287 52.6531 38.0884 52.5871C38.5056 52.4828 38.9329 52.4484 39.3696 52.4811C39.7663 52.5111 40.1791 52.6026 40.607 52.7502C40.9355 52.864 41.2107 52.9866 41.4892 53.1103C41.7927 53.2457 42.1051 53.3844 42.3687 53.4543C42.7344 53.5514 43.1561 53.5581 43.4313 53.5614L43.6444 53.5642C44.5572 53.5925 45.0505 53.8283 45.3029 54.7133L45.2985 54.7149L45.3029 54.7305C45.4988 55.4429 45.2896 55.8268 44.8412 56.3456L44.5167 56.7135C44.2842 56.9715 43.9868 57.3011 43.7598 57.5663L43.6671 57.6745L43.6643 57.6723C43.1655 58.2582 42.6023 58.919 41.563 59.581C41.0087 59.9338 40.3379 60.2734 39.6381 60.5397L39.5577 60.5725C38.8841 60.8222 38.161 61.0141 37.458 61.099C36.7228 61.1878 36.0164 61.1562 35.3517 61.0291C34.6309 60.8915 33.9673 60.6418 33.373 60.3134C32.8037 59.9999 32.2938 59.612 31.8254 59.1454C31.376 58.6976 30.9732 58.1855 30.5992 57.604Z" fill="white"/>
<path fill-rule="evenodd" clip-rule="evenodd" d="M30.0844 53.2795C30.6554 54.5401 31.2269 55.8013 31.8639 56.7917C32.5009 57.7826 33.2045 58.5034 34.0962 58.995C34.9879 59.4871 36.0688 59.7512 37.2818 59.6042C38.4942 59.4572 39.8398 58.8995 40.757 58.3153C41.6743 57.731 42.1631 57.1196 42.6176 56.5891C43.0726 56.0581 43.4921 55.6082 43.7051 55.3624C43.9182 55.1166 43.9254 55.0744 43.603 55.065C43.2801 55.0555 42.6281 55.0777 41.9861 54.9074C41.3435 54.7376 40.7115 54.3742 40.1189 54.1689C39.5252 53.9636 38.9714 53.9159 38.4526 54.0468C37.9343 54.1783 37.451 54.4879 37.2091 54.6427C36.9677 54.7975 36.9677 54.7975 36.8074 54.5662C36.647 54.3353 36.3263 53.8726 35.8557 53.5791C35.3852 53.2861 34.7648 53.1618 34.1423 53.1568C33.5202 53.1518 32.896 53.2656 32.325 53.3227C31.7535 53.3804 31.2347 53.3816 30.8696 53.3655C30.505 53.3488 30.2947 53.3139 30.0844 53.2795Z" fill="#FF574C"/>
</svg>
