<svg width="224" height="224" viewBox="0 0 224 224" fill="none" xmlns="http://www.w3.org/2000/svg">
<path fill-rule="evenodd" clip-rule="evenodd" d="M210.427 124.942C217.522 124.942 223.274 130.694 223.274 137.789C223.274 144.883 217.522 150.635 210.427 150.635C203.333 150.635 197.581 144.883 197.581 137.789C197.581 130.694 203.333 124.942 210.427 124.942ZM8.50285 91.4908C12.6073 91.4908 15.935 94.8179 15.935 98.923C15.935 103.027 12.6073 106.355 8.50285 106.355C4.39839 106.355 1.07007 103.027 1.07007 98.923C1.07007 94.8179 4.39839 91.4908 8.50285 91.4908ZM20.8711 114.927C29.8403 114.927 37.1117 122.197 37.1117 131.167C37.1117 140.136 29.8403 147.407 20.8711 147.407C11.9012 147.407 4.63042 140.136 4.63042 131.167C4.63042 122.197 11.9012 114.927 20.8711 114.927ZM177.893 47.0726C167.896 39.7476 150.804 38.6789 140.121 41.4259C129.438 44.173 125.165 50.7357 117.229 49.7433C91.6215 46.5423 56.0641 26.9071 32.5571 66.1939C23.5821 81.1937 27.9123 101.428 34.3987 113.942C40.8845 126.457 49.526 131.252 47.8949 136.702C46.2638 142.151 34.3597 148.255 29.3996 159.168C24.4396 170.079 26.4237 185.799 36.5726 194.497C46.7216 203.197 65.0346 204.875 91.3605 205.714C117.687 206.554 152.025 206.554 171.865 202.739C198.318 197.652 208.322 176.295 195.952 153.292C191.602 145.203 183.946 140.167 181.263 133.299C178.58 126.432 180.868 117.733 183.769 108.805C186.668 99.8769 190.178 90.7197 190.483 79.3502C190.789 67.9807 187.889 54.3982 177.893 47.0726ZM87.5921 26.1607C89.7464 26.1607 91.4935 27.9077 91.4935 30.0621C91.4935 32.2171 89.7464 33.9642 87.5921 33.9642C85.4371 33.9642 83.6907 32.2171 83.6907 30.0621C83.6907 27.9077 85.4371 26.1607 87.5921 26.1607ZM117.1 16.3528C124.478 16.3528 130.459 22.3336 130.459 29.7116C130.459 37.0895 124.478 43.0702 117.1 43.0702C109.722 43.0702 103.741 37.0895 103.741 29.7116C103.741 22.3336 109.722 16.3528 117.1 16.3528ZM199.187 102.368C204.47 102.368 208.754 106.651 208.754 111.935C208.754 117.218 204.47 121.502 199.187 121.502C193.903 121.502 189.62 117.218 189.62 111.935C189.62 106.651 193.903 102.368 199.187 102.368Z" fill="url(#paint0_linear)" fill-opacity="0.321569"/>
<path fill-rule="evenodd" clip-rule="evenodd" d="M30.8857 187.584H196.878C194.244 191.705 190.444 195.228 185.567 197.934H41.6443C39.7737 196.931 38.0834 195.792 36.5733 194.498C34.2569 192.512 32.3655 190.161 30.8857 187.584Z" fill="#90ADD6" fill-opacity="0.529412"/>
<path d="M75.7622 194.694C91.9505 194.694 105.074 194.009 105.074 193.164C105.074 192.807 79.5243 191.634 75.7622 191.634C59.5732 191.634 46.4497 192.319 46.4497 193.164C46.4497 194.009 59.5732 194.694 75.7622 194.694Z" fill="#546185" fill-opacity="0.529412"/>
<path d="M80.3761 190.205C78.443 190.205 76.8706 188.615 76.8706 186.661V61.1243C76.8706 59.1698 78.443 57.5797 80.3761 57.5797H146.32C148.253 57.5797 149.826 59.1698 149.826 61.1243V186.661C149.826 188.615 148.253 190.205 146.32 190.205H80.3761Z" fill="#90ADD6"/>
<path fill-rule="evenodd" clip-rule="evenodd" d="M76.8706 69.7774V178.008H149.827V69.7774H76.8706Z" fill="#FEFEFE"/>
<path d="M109.176 62.6542H119.451V63.1624H109.176V62.6542Z" fill="#FEFEFE"/>
<path d="M119.45 62.6542C119.634 62.6542 119.801 62.7293 119.921 62.8491C120.04 62.9707 120.115 63.1372 120.115 63.3194H119.607C119.607 63.2759 119.59 63.2362 119.562 63.2078C119.533 63.1801 119.493 63.1624 119.45 63.1624V62.6542Z" fill="#FEFEFE"/>
<path d="M120.115 63.319C120.115 63.5019 120.04 63.6683 119.921 63.7887C119.801 63.9098 119.634 63.9848 119.45 63.9848V63.4767C119.493 63.4767 119.533 63.459 119.561 63.4306C119.59 63.4029 119.607 63.3632 119.607 63.319H120.115Z" fill="#FEFEFE"/>
<path d="M119.451 63.9847H109.176V63.4766H119.451V63.9847Z" fill="#FEFEFE"/>
<path d="M109.178 63.9848C108.994 63.9848 108.827 63.9098 108.708 63.79C108.588 63.6683 108.513 63.5019 108.513 63.319H109.02C109.02 63.3632 109.038 63.4029 109.066 63.4313C109.095 63.459 109.134 63.4767 109.178 63.4767V63.9848Z" fill="#FEFEFE"/>
<path d="M108.513 63.3194C108.513 63.1359 108.588 62.9695 108.708 62.8491C108.827 62.7293 108.994 62.6542 109.178 62.6542V63.1624C109.134 63.1624 109.095 63.1801 109.066 63.2084C109.039 63.2368 109.02 63.2765 109.02 63.3194H108.513Z" fill="#FEFEFE"/>
<path d="M106.199 63.3195C106.199 63.1322 106.276 62.9626 106.398 62.8403C106.522 62.7174 106.691 62.6417 106.877 62.6417C107.065 62.6417 107.235 62.718 107.357 62.8403C107.479 62.9626 107.556 63.1329 107.556 63.3195C107.556 63.5061 107.479 63.6757 107.357 63.7987C107.235 63.9216 107.065 63.9985 106.877 63.9985C106.69 63.9985 106.52 63.9216 106.398 63.7993C106.275 63.6764 106.199 63.5061 106.199 63.3195ZM106.757 63.1991C106.727 63.23 106.707 63.2728 106.707 63.3195C106.707 63.3674 106.726 63.4103 106.756 63.4405C106.788 63.4708 106.831 63.4903 106.877 63.4903C106.925 63.4903 106.967 63.4708 106.998 63.4405C107.029 63.4103 107.048 63.3668 107.048 63.3195C107.048 63.2728 107.029 63.23 106.998 63.1997C106.967 63.1688 106.925 63.1493 106.877 63.1493C106.83 63.1493 106.787 63.1682 106.757 63.1991Z" fill="#FEFEFE"/>
<path d="M117.397 184.126C117.397 185.242 116.944 186.254 116.211 186.987C115.475 187.722 114.463 188.175 113.347 188.175C112.23 188.175 111.217 187.721 110.484 186.989C109.752 186.254 109.298 185.242 109.298 184.126C109.298 183.011 109.752 181.998 110.485 181.265C111.22 180.53 112.233 180.077 113.347 180.077C114.464 180.077 115.477 180.531 116.209 181.263C116.943 181.995 117.397 183.008 117.397 184.126ZM115.439 186.217C115.973 185.683 116.304 184.943 116.304 184.126C116.304 183.31 115.973 182.57 115.438 182.036C114.904 181.502 114.165 181.17 113.347 181.17C112.53 181.17 111.791 181.501 111.258 182.034C110.723 182.569 110.392 183.308 110.392 184.126C110.392 184.943 110.723 185.682 111.257 186.217C111.792 186.75 112.532 187.082 113.347 187.082C114.165 187.082 114.905 186.751 115.439 186.217Z" fill="#FEFEFE"/>
<path d="M143.448 76.0573H116.415C115.885 76.0573 115.456 76.4864 115.456 77.0157V104.049C115.456 104.579 115.885 105.008 116.415 105.008H143.448C143.978 105.008 144.407 104.579 144.407 104.049V77.0157C144.407 76.4864 143.978 76.0573 143.448 76.0573Z" fill="#D0E0FE"/>
<path d="M110.28 109.418H83.2468C82.7175 109.418 82.2883 109.847 82.2883 110.376V137.409C82.2883 137.939 82.7175 138.368 83.2468 138.368H110.28C110.81 138.368 111.239 137.939 111.239 137.409V110.376C111.239 109.847 110.81 109.418 110.28 109.418Z" fill="#D0E0FE"/>
<path d="M143.448 109.418H116.415C115.885 109.418 115.456 109.847 115.456 110.376V137.409C115.456 137.939 115.885 138.368 116.415 138.368H143.448C143.978 138.368 144.407 137.939 144.407 137.409V110.376C144.407 109.847 143.978 109.418 143.448 109.418Z" fill="#D0E0FE"/>
<path d="M110.28 142.777H83.2468C82.7175 142.777 82.2883 143.206 82.2883 143.736V170.769C82.2883 171.298 82.7175 171.728 83.2468 171.728H110.28C110.81 171.728 111.239 171.298 111.239 170.769V143.736C111.239 143.206 110.81 142.777 110.28 142.777Z" fill="#D0E0FE"/>
<path d="M143.448 142.777H116.415C115.885 142.777 115.456 143.206 115.456 143.736V170.769C115.456 171.298 115.885 171.728 116.415 171.728H143.448C143.978 171.728 144.407 171.298 144.407 170.769V143.736C144.407 143.206 143.978 142.777 143.448 142.777Z" fill="#D0E0FE"/>
<path d="M125.607 57.2987L77.1549 188.971C77.8396 189.786 78.866 190.304 80.0142 190.304H92.7903L141.734 57.2987H125.607Z" fill="url(#paint1_linear)"/>
<path d="M140.642 89.6523C141.099 95.5681 136.675 100.734 130.759 101.191C124.843 101.649 119.677 97.2238 119.22 91.3086C118.763 85.3928 123.188 80.2272 129.103 79.7695C135.018 79.3124 140.185 83.7371 140.642 89.6523Z" fill="white"/>
<path d="M131.583 92.9164C133.209 92.2349 134.366 90.5578 134.375 88.5818C134.386 85.9943 132.428 83.8873 130 83.8759C127.575 83.8646 125.598 85.9534 125.587 88.5415C125.579 90.5357 126.744 92.2323 128.387 92.9164C124.689 93.4738 123.112 95.9219 122.436 98.0284C123.977 99.7755 126.114 100.976 128.533 101.314L131.24 101.327C133.699 101.004 135.873 99.79 137.431 98.0158C136.768 95.9005 135.219 93.4656 131.583 92.9164Z" fill="#D0E0FE"/>
<path d="M140.642 123.013C141.099 128.929 136.674 134.094 130.759 134.551C124.843 135.008 119.677 130.584 119.22 124.668C118.763 118.753 123.187 113.587 129.103 113.13C135.018 112.673 140.185 117.098 140.642 123.013Z" fill="white"/>
<path d="M131.584 126.277C133.21 125.594 134.366 123.918 134.376 121.942C134.386 119.355 132.428 117.247 130 117.235C127.575 117.225 125.598 119.314 125.587 121.902C125.579 123.895 126.744 125.592 128.388 126.277C124.69 126.834 123.113 129.282 122.436 131.388C123.977 133.136 126.115 134.336 128.533 134.675L131.241 134.687C133.7 134.364 135.873 133.15 137.431 131.375C136.768 129.261 135.22 126.826 131.584 126.277Z" fill="#D0E0FE"/>
<path d="M140.642 156.373C141.099 162.288 136.675 167.454 130.759 167.911C124.843 168.369 119.677 163.944 119.22 158.029C118.763 152.113 123.188 146.947 129.103 146.49C135.018 146.032 140.185 150.457 140.642 156.373Z" fill="white"/>
<path d="M131.583 159.636C133.209 158.955 134.366 157.278 134.375 155.302C134.386 152.714 132.428 150.607 130 150.596C127.575 150.585 125.598 152.674 125.587 155.262C125.579 157.256 126.744 158.952 128.387 159.636C124.689 160.194 123.112 162.642 122.436 164.748C123.977 166.495 126.114 167.696 128.533 168.035L131.24 168.047C133.699 167.724 135.873 166.51 137.431 164.736C136.768 162.62 135.219 160.186 131.583 159.636Z" fill="#D0E0FE"/>
<path d="M107.475 123.013C107.933 128.929 103.508 134.094 97.5926 134.551C91.6774 135.008 86.5112 130.584 86.0541 124.668C85.597 118.753 90.0211 113.587 95.9369 113.13C101.852 112.673 107.018 117.098 107.475 123.013Z" fill="white"/>
<path d="M98.4136 126.277C100.04 125.594 101.196 123.918 101.205 121.942C101.215 119.355 99.2571 117.247 96.8304 117.235C94.4043 117.225 92.4277 119.314 92.4176 121.902C92.4094 123.895 93.5733 125.592 95.2176 126.277C91.5192 126.834 89.9424 129.282 89.2665 131.388C90.8061 133.136 92.9441 134.336 95.3633 134.675L98.0706 134.687C100.529 134.364 102.703 133.15 104.261 131.375C103.598 129.261 102.05 126.826 98.4136 126.277Z" fill="#D0E0FE"/>
<path d="M82.2857 94.4237L82.8727 89.3975C82.8727 89.3975 83.7976 86.1379 83.6703 85.9147C83.5524 85.7067 82.6609 87.9077 82.6609 87.9077C82.6609 87.9077 83.1993 84.8442 83.0259 84.8164C82.8141 84.7824 81.9661 87.5388 81.9661 87.5388C81.9661 87.5388 82.2492 84.4955 81.9408 84.8196C81.6874 85.0863 81.299 87.8005 81.299 87.8005C81.299 87.8005 81.4806 84.5712 81.2032 85.0024C80.9258 85.4343 80.7915 88.0388 80.7915 88.0388C80.7915 88.0388 79.2897 86.6631 79.2008 86.8491C79.1743 86.9046 80.3495 88.9612 80.3495 88.9612L79.8722 94.4237H82.2857Z" fill="#FF9A8C"/>
<path d="M82.5074 96.0632C82.5093 96.0758 82.2886 96.1224 81.9261 96.1514C81.5635 96.1811 81.0585 96.1855 80.5062 96.1193C79.9539 96.0531 79.464 95.9289 79.1191 95.8148C78.7736 95.7 78.5706 95.6029 78.575 95.5909C78.5813 95.5752 78.7932 95.6464 79.1412 95.741C79.4886 95.8362 79.9741 95.9459 80.5194 96.0121C81.0642 96.077 81.5623 96.0852 81.9216 96.0752C82.2823 96.0657 82.5055 96.0461 82.5074 96.0632Z" fill="#547777"/>
<path d="M82.0629 93.7773C82.0938 93.7867 81.9425 94.2955 81.8637 94.9418C81.7805 95.5868 81.8013 96.1176 81.7685 96.1189C81.7414 96.1227 81.672 95.5861 81.7565 94.9279C81.8372 94.2697 82.0377 93.7666 82.0629 93.7773Z" fill="#547777"/>
<path d="M80.4342 93.7749C80.4664 93.7806 80.3995 94.2887 80.3989 94.9186C80.3951 95.5478 80.4582 96.0572 80.4267 96.0617C80.3995 96.0673 80.2873 95.5585 80.2905 94.918C80.2917 94.278 80.4077 93.7692 80.4342 93.7749Z" fill="#547777"/>
<path d="M79.2554 191.64V192.364C79.2554 192.364 82.6172 193.244 82.5138 193.824C82.445 194.21 82.5138 193.824 82.5138 193.824L76.8268 193.133V191.64H79.2554Z" fill="#465670"/>
<path d="M68.7281 192.173V192.896C68.7281 192.896 72.0904 193.777 71.987 194.357C71.9183 194.742 71.987 194.357 71.987 194.357L66.2994 193.665V192.173H68.7281Z" fill="#465670"/>
<path d="M82.8101 93.889C82.8101 93.889 81.0952 116.004 75.3054 124.648L71.1921 118.238C71.1921 118.238 73.5602 115.45 79.1697 93.6078L82.8101 93.889Z" fill="#7EA3F6"/>
<path d="M85.1083 141.377L85.6726 130.557V123.341L87.373 120.024L81.7113 116.465H74.728C72.0327 116.465 69.9672 118.859 70.36 121.525C71 125.871 71.7666 131.659 71.5516 133.127C71.1967 135.553 69.5789 141.377 69.5789 141.377H85.1083Z" fill="#7EA3F6"/>
<path d="M81.8396 192.818H74.6565L76.7674 147.755L70.9064 192.818L64.205 192.83L69.5792 141.377H85.1087L81.8396 192.818Z" fill="#4A69BD"/>
<path d="M79.067 101.579C79.067 101.579 83.9973 108.152 82.5359 109.888C81.075 111.622 81.075 111.622 81.075 111.622L81.0959 116.943C81.0959 116.943 74.7841 117.298 74.8755 116.658C74.9663 116.02 78.8236 102.157 78.8236 102.157L79.067 101.579Z" fill="#FF9A8C"/>
<path d="M79.0277 107.068C79.7975 105.988 80.0605 105.015 79.7156 103.734C79.5126 102.981 79.1179 102.175 79.447 101.469C79.5933 101.155 79.8637 100.919 80.0605 100.634C80.2565 100.349 80.6008 99.8919 80.1752 99.6655C79.343 99.4266 78.7743 100.044 78.1772 100.447C78.7238 100.163 78.5076 99.2229 77.9338 98.9978C77.3607 98.7734 76.7088 99.0609 76.2309 99.4493C75.7524 99.8376 75.3545 100.334 74.8148 100.631C73.9321 101.117 72.8156 100.994 71.9215 101.459C71.0975 101.887 70.5773 102.782 70.4645 103.703C70.3523 104.624 70.1776 104.741 70.6095 105.562C69.2685 106.176 69.0755 108.814 69.7546 110.123C70.2621 111.101 71.3869 111.91 71.1996 112.995C71.153 113.266 71.0206 113.525 71.0256 113.8C71.0326 114.172 71.3232 114.52 71.6883 114.592C72.0533 114.663 72.4543 114.452 72.6018 114.111C72.9675 114.549 73.615 114.727 74.1534 114.537C74.6919 114.348 75.0853 113.803 75.0967 113.233C75.3091 114.026 76.4263 114.286 77.1256 113.855C77.8248 113.425 78.1356 112.557 78.1917 111.737C78.2478 110.918 78.1009 110.097 78.1249 109.276C78.1488 108.455 78.384 107.578 79.0277 107.068Z" fill="#264291"/>
<path d="M79.0584 107.061C78.8579 106.742 78.3851 106.655 78.0585 106.843C77.7306 107.03 77.5636 107.437 77.6115 107.811C77.6588 108.185 77.8958 108.518 78.2029 108.738C78.3611 108.851 78.5446 108.938 78.7388 108.949C78.933 108.96 79.1391 108.882 79.2482 108.72C79.3781 108.528 79.3472 108.274 79.3113 108.046C79.252 107.666 79.1177 107.441 79.0584 107.061Z" fill="#C77D71"/>
<path d="M72.3038 119.383C72.2969 119.382 72.2969 119.334 72.3045 119.247C72.307 119.203 72.3133 119.149 72.3272 119.089C72.3398 119.028 72.3505 118.957 72.3757 118.883C72.4173 118.731 72.4879 118.557 72.5857 118.372C72.6386 118.283 72.691 118.186 72.7597 118.096C72.8234 118.002 72.9009 117.913 72.9791 117.823C73.0636 117.737 73.1455 117.652 73.2338 117.58C73.3177 117.504 73.4103 117.444 73.4948 117.384C73.6701 117.272 73.8384 117.186 73.986 117.132C74.0578 117.101 74.1278 117.084 74.1871 117.067C74.2464 117.048 74.2993 117.037 74.3422 117.031C74.4292 117.016 74.4771 117.012 74.4784 117.019C74.4796 117.026 74.4349 117.045 74.3529 117.072C74.3119 117.084 74.2621 117.1 74.206 117.124C74.1493 117.147 74.0837 117.168 74.0156 117.203C73.8756 117.264 73.7167 117.353 73.5509 117.466C73.4702 117.527 73.3826 117.586 73.3025 117.661C73.218 117.731 73.1405 117.813 73.0585 117.895C72.9835 117.983 72.9078 118.068 72.8454 118.158C72.7773 118.244 72.7263 118.336 72.672 118.422C72.5737 118.597 72.498 118.762 72.4488 118.906C72.4192 118.977 72.4041 119.045 72.3858 119.102C72.3669 119.161 72.3549 119.212 72.3461 119.254C72.3259 119.338 72.3114 119.384 72.3038 119.383Z" fill="#3C5599"/>
<path d="M72.3396 117.925C72.3346 117.92 72.3554 117.888 72.3982 117.836C72.4411 117.783 72.5092 117.713 72.5994 117.632C72.7791 117.47 73.0565 117.274 73.3969 117.125C73.7386 116.977 74.0709 116.908 74.3124 116.888C74.5539 116.868 74.7033 116.886 74.7033 116.898C74.7033 116.916 74.5551 116.925 74.3218 116.965C74.0892 117.003 73.7708 117.081 73.4404 117.224C73.1101 117.369 72.8358 117.547 72.6479 117.691C72.554 117.763 72.479 117.823 72.4285 117.866C72.3768 117.908 72.3453 117.93 72.3396 117.925Z" fill="#3C5599"/>
<path d="M85.1984 139.68C85.1991 139.683 85.1467 139.688 85.0465 139.694C84.9362 139.7 84.7905 139.707 84.6096 139.717C84.23 139.735 83.6802 139.751 83.0006 139.766C81.6419 139.797 79.7643 139.801 77.6906 139.796C75.6176 139.79 73.7407 139.8 72.3826 139.827C71.7124 139.843 71.1664 139.855 70.7742 139.864C70.5926 139.868 70.4476 139.871 70.3367 139.873C70.2371 139.874 70.1841 139.873 70.1841 139.869C70.1835 139.866 70.2358 139.859 70.3354 139.852C70.4464 139.844 70.5914 139.835 70.7723 139.823C71.1519 139.799 71.701 139.775 72.3807 139.751C73.7394 139.704 75.617 139.683 77.6913 139.688C79.7643 139.693 81.6412 139.701 82.9993 139.69C83.6695 139.683 84.2161 139.678 84.6083 139.674C84.7899 139.674 84.9355 139.673 85.0459 139.673C85.1461 139.673 85.1984 139.676 85.1984 139.68Z" fill="#3C5599"/>
<path d="M83.6006 139.319C83.5968 139.32 83.5911 139.265 83.5848 139.163C83.5785 139.05 83.5703 138.9 83.5602 138.713C83.5413 138.31 83.5148 137.748 83.482 137.059C83.4146 135.662 83.3068 133.733 83.1472 131.606C82.9871 129.477 82.8055 127.554 82.6637 126.163C82.593 125.476 82.5357 124.916 82.4941 124.516C82.4764 124.329 82.4619 124.18 82.4506 124.068C82.4424 123.965 82.4392 123.911 82.443 123.91C82.4468 123.909 82.4569 123.963 82.4726 124.064C82.4884 124.177 82.5092 124.325 82.5357 124.511C82.5893 124.898 82.6593 125.46 82.74 126.155C82.9007 127.545 83.0949 129.468 83.2551 131.597C83.4146 133.727 83.5104 135.657 83.5583 137.055C83.5823 137.755 83.5974 138.321 83.6025 138.711C83.6043 138.899 83.6056 139.048 83.6069 139.162C83.6062 139.265 83.6043 139.319 83.6006 139.319Z" fill="#3C5599"/>
<path d="M82.8727 131.192C82.8708 131.222 82.5184 131.23 82.084 131.209C81.6496 131.188 81.2984 131.148 81.3003 131.118C81.3016 131.088 81.6546 131.081 82.089 131.101C82.5228 131.122 82.874 131.162 82.8727 131.192Z" fill="#3C5599"/>
<path d="M83.0597 131.757C83.0698 131.783 82.7747 131.913 82.3832 131.964C81.9923 132.019 81.6727 131.973 81.6758 131.945C81.6771 131.914 81.9898 131.91 82.3687 131.857C82.7476 131.807 83.0503 131.727 83.0597 131.757Z" fill="#3C5599"/>
<path d="M71.6666 141.411C71.637 141.409 71.6282 141.073 71.6465 140.66C71.6654 140.247 71.7051 139.914 71.7347 139.915C71.7644 139.916 71.7732 140.252 71.7549 140.665C71.736 141.078 71.6969 141.412 71.6666 141.411Z" fill="#3C5599"/>
<path d="M73.1082 141.272C73.0805 141.279 72.9872 140.955 72.9878 140.542C72.9859 140.129 73.0786 139.805 73.1064 139.812C73.1372 139.817 73.0944 140.141 73.0956 140.542C73.0956 140.942 73.1391 141.266 73.1082 141.272Z" fill="#3C5599"/>
<path d="M74.6392 141.312C74.6114 141.319 74.5162 140.987 74.5042 140.565C74.4904 140.142 74.566 139.805 74.5938 139.81C74.6247 139.815 74.5988 140.15 74.6121 140.561C74.6234 140.973 74.6701 141.306 74.6392 141.312Z" fill="#3C5599"/>
<path d="M76.4648 141.277C76.4383 141.286 76.3052 140.965 76.2416 140.544C76.1766 140.122 76.2081 139.776 76.2365 139.776C76.2674 139.777 76.2851 140.116 76.3487 140.527C76.4099 140.938 76.495 141.267 76.4648 141.277Z" fill="#3C5599"/>
<path d="M78.4207 141.482C78.391 141.483 78.3412 141.111 78.3097 140.651C78.2782 140.19 78.2769 139.815 78.3065 139.812C78.3368 139.81 78.386 140.182 78.4175 140.643C78.449 141.104 78.4503 141.48 78.4207 141.482Z" fill="#3C5599"/>
<path d="M80.3029 141.272C80.2752 141.28 80.1724 140.96 80.144 140.55C80.1138 140.139 80.1705 139.808 80.1989 139.811C80.2298 139.814 80.2222 140.141 80.2518 140.542C80.2796 140.942 80.3332 141.265 80.3029 141.272Z" fill="#3C5599"/>
<path d="M82.4249 141.203C82.3966 141.21 82.2963 140.891 82.2579 140.482C82.2181 140.072 82.2566 139.74 82.2856 139.742C82.3165 139.743 82.3266 140.07 82.3657 140.471C82.4029 140.872 82.4552 141.196 82.4249 141.203Z" fill="#3C5599"/>
<path d="M84.0344 141.625C84.0066 141.631 83.8975 141.241 83.8572 140.744C83.8149 140.248 83.8584 139.844 83.8868 139.846C83.9177 139.847 83.9234 140.246 83.965 140.735C84.0041 141.224 84.0652 141.619 84.0344 141.625Z" fill="#3C5599"/>
<path d="M80.6931 148.487C80.7196 148.633 79.1339 149.046 77.1517 149.408C75.1688 149.77 73.5396 149.945 73.5132 149.798C73.486 149.651 75.0717 149.238 77.0546 148.876C79.0368 148.515 80.666 148.34 80.6931 148.487Z" fill="#3C5599"/>
<path d="M107.219 105.642C107.219 105.642 96.4566 121.738 84.1678 125.301L82.2883 116.829C82.2883 116.829 91.8194 119.037 103.829 103.508L107.219 105.642Z" fill="#7EA3F6"/>
<path d="M84.5669 125.48C84.5669 125.484 84.5253 125.487 84.4464 125.491C84.367 125.496 84.2497 125.493 84.0984 125.484C83.9484 125.472 83.7649 125.447 83.5543 125.401C83.345 125.352 83.1104 125.28 82.8601 125.175C82.3646 124.961 81.8047 124.602 81.3432 124.047C81.1137 123.771 80.9088 123.448 80.7594 123.086C80.608 122.725 80.5046 122.329 80.4586 121.916C80.4183 121.503 80.4378 121.094 80.511 120.709C80.5828 120.324 80.7165 119.966 80.8836 119.647C81.2215 119.009 81.695 118.543 82.1357 118.23C82.3589 118.077 82.5733 117.957 82.7687 117.866C82.9642 117.778 83.1394 117.716 83.2838 117.673C83.4301 117.633 83.5436 117.606 83.6224 117.595C83.7006 117.581 83.7416 117.576 83.7422 117.58C83.7447 117.591 83.5801 117.618 83.2964 117.713C83.1552 117.762 82.985 117.828 82.7946 117.921C82.6054 118.015 82.3967 118.137 82.1798 118.293C81.753 118.607 81.2959 119.069 80.9718 119.693C80.8117 120.004 80.6831 120.353 80.615 120.729C80.545 121.104 80.5267 121.502 80.5664 121.905C80.6106 122.307 80.7108 122.692 80.8571 123.045C81.0008 123.398 81.1982 123.713 81.4195 123.984C81.8652 124.528 82.4081 124.885 82.891 125.105C83.1344 125.212 83.3639 125.288 83.5688 125.342C83.7743 125.393 83.9547 125.424 84.1028 125.442C84.3998 125.476 84.5669 125.468 84.5669 125.48Z" fill="#3C5599"/>
<path d="M104.53 106.801C104.531 106.802 104.517 106.823 104.486 106.861C104.452 106.904 104.407 106.96 104.35 107.03C104.223 107.184 104.044 107.4 103.816 107.676C103.699 107.816 103.57 107.971 103.428 108.141C103.285 108.309 103.121 108.485 102.949 108.678C102.601 109.06 102.218 109.507 101.759 109.968C101.533 110.202 101.296 110.447 101.05 110.702C100.803 110.958 100.531 111.207 100.257 111.475C99.7142 112.013 99.1007 112.554 98.4602 113.128C98.1405 113.416 97.795 113.69 97.4526 113.981C97.2799 114.126 97.1053 114.271 96.9287 114.419C96.7478 114.561 96.5649 114.703 96.3808 114.848C96.0088 115.131 95.6425 115.437 95.2485 115.716C94.8569 116 94.4597 116.288 94.0581 116.58C93.647 116.857 93.2404 117.132 92.84 117.402C92.4409 117.677 92.0298 117.918 91.6358 118.17C91.4372 118.294 91.2405 118.417 91.0457 118.539C90.8471 118.654 90.6504 118.769 90.4562 118.882C90.0646 119.105 89.6895 119.337 89.3099 119.539C88.5527 119.947 87.8359 120.34 87.1455 120.67C86.8019 120.838 86.4747 121.01 86.1512 121.156C85.8284 121.303 85.5182 121.444 85.2225 121.579C84.6343 121.857 84.0851 122.07 83.6097 122.272C83.3708 122.369 83.1501 122.465 82.9439 122.545C82.7371 122.623 82.548 122.694 82.3778 122.758C82.0417 122.883 81.7788 122.981 81.5928 123.05C81.5071 123.081 81.439 123.105 81.3879 123.123C81.3412 123.139 81.3173 123.147 81.3167 123.145C81.316 123.144 81.3387 123.132 81.3841 123.113C81.4346 123.093 81.5008 123.065 81.5852 123.029C81.7693 122.956 82.0297 122.852 82.362 122.719C82.5316 122.652 82.7195 122.578 82.9244 122.497C83.1293 122.415 83.3487 122.316 83.5864 122.216C84.0593 122.009 84.6053 121.791 85.191 121.509C85.4854 121.373 85.7944 121.23 86.1153 121.081C86.4375 120.933 86.7628 120.759 87.1058 120.59C87.793 120.257 88.5067 119.862 89.2614 119.452C89.6397 119.248 90.0136 119.017 90.4032 118.793C90.5974 118.68 90.7935 118.564 90.9914 118.449C91.1856 118.327 91.3817 118.204 91.5797 118.08C91.9725 117.827 92.3829 117.587 92.7801 117.313C93.1799 117.042 93.5859 116.768 93.9963 116.491C94.3973 116.2 94.7933 115.913 95.1842 115.63C95.5776 115.351 95.9439 115.047 96.3153 114.764C96.4993 114.621 96.6822 114.478 96.8631 114.338C97.0397 114.191 97.2137 114.046 97.3864 113.902C97.7294 113.612 98.0749 113.339 98.3952 113.053C99.0358 112.481 99.6505 111.945 100.195 111.41C100.47 111.144 100.743 110.897 100.99 110.643C101.239 110.39 101.477 110.147 101.704 109.915C102.166 109.458 102.552 109.015 102.904 108.637C103.078 108.447 103.244 108.273 103.389 108.107C103.533 107.939 103.665 107.786 103.784 107.648C104.019 107.378 104.203 107.167 104.333 107.017C104.394 106.949 104.442 106.895 104.478 106.854C104.511 106.818 104.529 106.8 104.53 106.801Z" fill="#3C5599"/>
<path d="M105.948 107.416C105.944 107.428 105.719 107.366 105.368 107.228C105.017 107.09 104.544 106.867 104.053 106.565C103.563 106.262 103.147 105.949 102.85 105.72C102.553 105.489 102.376 105.338 102.384 105.327C102.394 105.315 102.587 105.444 102.895 105.658C103.203 105.872 103.625 106.173 104.11 106.473C104.596 106.772 105.058 107.002 105.398 107.158C105.739 107.313 105.954 107.4 105.948 107.416Z" fill="#3C5599"/>
<path d="M106.568 105.186C106.59 105.209 106.227 105.582 105.847 106.095C105.463 106.606 105.209 107.061 105.181 107.046C105.156 107.035 105.37 106.551 105.76 106.031C106.147 105.509 106.55 105.166 106.568 105.186Z" fill="#3C5599"/>
<path fill-rule="evenodd" clip-rule="evenodd" d="M79.1409 106.424C79.2815 106.611 79.4946 107.302 79.9006 107.849C80.306 108.397 80.905 108.803 81.2801 108.854C81.6559 108.905 81.8078 108.6 81.922 108.187C82.0361 107.774 82.1118 107.252 82.2788 107.039C82.4465 106.826 82.7057 106.921 82.8658 107.182C83.0259 107.443 83.0865 107.87 83.1016 108.342C83.1174 108.813 83.0865 109.331 82.9188 109.777C82.7517 110.224 82.4472 110.599 82.1073 110.893C81.7669 111.188 81.3917 111.4 81.0469 111.4C80.702 111.4 80.3874 111.188 80.0828 110.772C79.7783 110.356 79.4845 109.736 79.3067 109.3C79.1289 108.864 79.0684 108.61 79.0142 108.235C78.96 107.86 78.9127 107.363 78.9228 106.957C78.9328 106.551 79.0009 106.237 79.1409 106.424Z" fill="#264291"/>
<path d="M107.475 156.373C107.933 162.288 103.508 167.454 97.5926 167.911C91.6774 168.369 86.5112 163.944 86.0541 158.029C85.597 152.113 90.0211 146.947 95.9369 146.49C101.852 146.032 107.018 150.457 107.475 156.373Z" fill="white"/>
<path d="M98.4136 159.636C100.04 158.955 101.196 157.278 101.205 155.302C101.215 152.714 99.2571 150.607 96.8304 150.596C94.4043 150.585 92.4277 152.674 92.4176 155.262C92.4094 157.256 93.5733 158.952 95.2176 159.636C91.5192 160.194 89.9424 162.642 89.2665 164.748C90.8061 166.495 92.9441 167.696 95.3633 168.035L98.0706 168.047C100.529 167.724 102.703 166.51 104.261 164.736C103.598 162.62 102.05 160.186 98.4136 159.636Z" fill="#D0E0FE"/>
<path d="M178.271 29.1304H161.782C160.794 29.1304 159.994 29.9309 159.994 30.9183V47.4081C159.994 48.3955 160.794 49.196 161.782 49.196H178.271C179.259 49.196 180.059 48.3955 180.059 47.4081V30.9183C180.059 29.9309 179.259 29.1304 178.271 29.1304Z" fill="#F05173"/>
<path fill-rule="evenodd" clip-rule="evenodd" d="M170.491 33.957L171.638 37.5117L175.408 37.5041C175.427 37.5016 175.448 37.5003 175.469 37.5003C175.722 37.5003 175.928 37.7058 175.928 37.9599C175.928 38.1819 175.771 38.3672 175.561 38.4101L175.572 38.4385L172.63 40.5663L173.782 44.0901L173.774 44.0945C173.819 44.1652 173.845 44.2496 173.845 44.3398C173.845 44.5933 173.639 44.7994 173.386 44.7994C173.258 44.7994 173.142 44.7471 173.059 44.6626L170.032 42.4546L167.008 44.6607C166.924 44.7616 166.797 44.8253 166.655 44.8253C166.402 44.8253 166.196 44.6197 166.196 44.3663C166.196 44.2704 166.225 44.1822 166.275 44.1084L167.433 40.5663L164.405 38.3748V38.3741C164.241 38.3048 164.125 38.1415 164.125 37.9511C164.125 37.697 164.33 37.4915 164.584 37.4915C164.651 37.4915 164.715 37.506 164.771 37.5312L164.776 37.5047L168.426 37.5117L169.571 33.9627V33.9608C169.571 33.7073 169.777 33.5018 170.031 33.5018C170.283 33.5018 170.488 33.7048 170.491 33.957Z" fill="#FEFEFE"/>
<path d="M161.741 86.7706H195.609C196.574 86.7706 197.356 85.9882 197.356 85.0229V70.1839C197.356 69.2186 196.574 68.4362 195.609 68.4362H161.741C160.776 68.4362 159.994 69.2186 159.994 70.1839V85.0229C159.994 85.9882 160.776 86.7706 161.741 86.7706Z" fill="#3A6AB3"/>
<path d="M164.31 81.5008H172.07" stroke="#FEFEFE" stroke-opacity="0.658824" stroke-width="1.5" stroke-linecap="round" stroke-linejoin="round"/>
<path d="M187.571 78.7365H192.823" stroke="#FEFEFE" stroke-opacity="0.658824" stroke-width="1.5" stroke-linecap="round" stroke-linejoin="round"/>
<path d="M164.31 78.7365H185.295" stroke="#FEFEFE" stroke-opacity="0.658824" stroke-width="1.5" stroke-linecap="round" stroke-linejoin="round"/>
<path d="M164.31 75.9719H192.823" stroke="#FEFEFE" stroke-opacity="0.658824" stroke-width="1.5" stroke-linecap="round" stroke-linejoin="round"/>
<path d="M184.029 73.2071H192.82" stroke="#FEFEFE" stroke-opacity="0.658824" stroke-width="1.5" stroke-linecap="round" stroke-linejoin="round"/>
<path d="M164.31 73.2071H181.843" stroke="#FEFEFE" stroke-opacity="0.658824" stroke-width="1.5" stroke-linecap="round" stroke-linejoin="round"/>
<path d="M174.338 81.5008H192.824" stroke="#FEFEFE" stroke-opacity="0.658824" stroke-width="1.5" stroke-linecap="round" stroke-linejoin="round"/>
<path d="M108.343 75.4994L82.1558 77.5236C81.643 77.5632 81.2594 78.011 81.2991 78.5238L83.3232 104.711C83.3628 105.224 83.8106 105.607 84.3234 105.568L110.511 103.544C111.024 103.504 111.407 103.056 111.367 102.543L109.343 76.3561C109.304 75.8434 108.856 75.4598 108.343 75.4994Z" fill="#F05173"/>
<path d="M48.5521 97.4881H66.3645C66.8727 97.4881 67.2844 96.6363 67.2844 95.5853V79.4317C67.2844 78.3807 66.8727 77.5289 66.3645 77.5289H48.5521C48.0445 77.5289 47.6328 78.3807 47.6328 79.4317V95.5853C47.6328 96.6363 48.0445 97.4881 48.5521 97.4881Z" fill="#3A6AB3"/>
<path d="M60.4954 97.4881L64.1988 101.992V97.4881H60.4954Z" fill="#3A6AB3"/>
<path d="M107.405 89.6775C107.878 95.7919 103.305 101.131 97.1902 101.604C91.0764 102.077 85.7369 97.503 85.264 91.3892C84.7917 85.2748 89.3647 79.9352 95.4791 79.463C101.593 78.9901 106.933 83.5637 107.405 89.6775Z" fill="white"/>
<path d="M107.405 89.6775C107.878 95.7919 103.305 101.131 97.1902 101.604C91.0764 102.077 85.7369 97.503 85.264 91.3892C84.7917 85.2748 89.3647 79.9352 95.4791 79.463C101.593 78.9901 106.933 83.5637 107.405 89.6775Z" fill="white"/>
<path d="M100.871 90.4745C100.514 90.6479 100.762 91.895 100.727 92.3048C100.691 92.714 100.516 94.3104 99.7094 94.6105C98.9024 94.9125 98.3955 95.0196 98.4012 95.1539C98.4031 95.2183 98.4472 95.5045 98.4926 95.7907C98.543 96.1091 98.5947 96.425 98.5947 96.425L97.9283 97.4054L97.1175 97.5283L95.0785 97.1047C95.0785 97.1047 94.8257 95.0386 94.7185 94.7252C94.6511 94.5279 93.7968 93.1881 93.1474 91.8622C92.7672 91.0867 92.4576 90.3175 92.4141 89.7841C92.3 88.3365 92.2338 86.8208 93.0679 86.0062C93.9008 85.1942 99.3482 82.0809 99.8444 86.4905C99.8444 86.4905 100.721 88.972 101.054 89.3856C101.385 89.7992 101.231 90.3005 100.871 90.4745Z" fill="#C77D71" fill-opacity="0.701961"/>
<path d="M98.4927 95.7908C98.5432 96.1092 98.5948 96.4251 98.5948 96.4251L98.4631 97.4742L97.1176 97.5284L95.0786 97.1048C95.0786 97.1048 94.8258 95.0387 94.7186 94.7253C94.6512 94.528 93.7969 93.1882 93.1475 91.8623L93.155 91.0029C93.155 91.0029 94.7691 90.6915 94.8334 90.694C94.8977 90.694 95.4929 91.6492 95.4954 91.704C95.4979 91.7595 95.2533 92.75 95.2533 92.75C95.2533 92.75 95.3006 94.0879 95.4342 95.1118C95.5048 95.649 95.9115 96.0853 96.4436 96.1893C96.7425 96.2473 97.0829 96.2877 97.3995 96.2656C97.9385 96.2278 98.3048 95.9674 98.4927 95.7908Z" fill="#FF9A8C" fill-opacity="0.701961"/>
<path d="M94.9354 90.4181C94.9354 90.4181 94.4745 93.3133 96.1818 94.7136C97.8885 96.1139 100.585 95.0622 100.947 94.6934C101.31 94.3246 102.429 91.8525 101.142 90.8519C99.8538 89.8519 98.3583 91.1696 98.3583 91.1696C98.3583 91.1696 97.4743 92.0511 97.1603 92.0239C96.8558 91.9981 96.0835 91.0334 96.1736 89.2006C96.178 89.1004 96.2524 89.0184 96.3508 88.9976C96.7171 88.9201 97.5487 88.5462 97.3589 86.7462C97.3432 86.5961 97.4567 86.4624 97.6073 86.4561C98.1281 86.4347 99.2031 86.3988 99.4345 86.4473C99.4345 86.4473 99.6047 86.4656 99.775 86.5167C99.8304 86.5331 99.8752 86.574 99.8948 86.6283C99.9572 86.7997 100.1 87.1913 100.135 87.2846C100.18 87.405 100.521 88.2776 100.521 88.2776C100.521 88.2776 100.789 88.0841 100.767 87.7625C100.744 87.4409 100.56 86.7436 100.61 86.5791C100.66 86.4152 101.111 86.2645 101.158 85.8874C101.266 85.0344 101.35 81.7344 98.7845 83.4891C98.449 83.7186 98.1414 84.0054 97.8583 84.0861C97.4895 84.1921 97.1238 83.8712 96.3502 83.8472C95.2689 83.8144 90.5239 84.5105 91.4633 89.2259C92.4027 93.9412 94.7519 94.8554 94.7519 94.8554C94.7519 94.8554 94.4051 90.9471 94.9354 90.4181Z" fill="#264291"/>
<path d="M94.9372 90.4181C94.9372 90.4181 94.801 89.6104 94.1857 89.7718C93.3604 89.9887 93.1725 92.2042 94.9278 92.1008C94.9278 92.1008 94.8036 91.1734 94.9372 90.4181Z" fill="#FFB8AF" fill-opacity="0.701961"/>
<path d="M95.1286 97.0573C95.1286 97.0573 97.6613 97.8019 98.6568 96.4438C101.537 96.6223 102.624 96.5384 104.37 98.1972C102.545 100.111 100.035 101.384 97.1909 101.604C94.8941 101.782 92.7069 101.248 90.8451 100.186C91.248 99.0099 92.3822 97.1645 95.1286 97.0573Z" fill="#7EA3F6" fill-opacity="0.701961"/>
<path d="M106.72 105.329L109.895 101.388C109.895 101.388 112.414 99.1224 112.425 98.8658C112.436 98.6268 110.509 100.014 110.509 100.014C110.509 100.014 112.597 97.7088 112.465 97.5928C112.304 97.451 110.118 99.3323 110.118 99.3323C110.118 99.3323 111.978 96.9075 111.545 97.0178C111.188 97.1086 109.414 99.198 109.414 99.198C109.414 99.198 111.288 96.562 110.823 96.7795C110.358 96.997 108.857 99.1293 108.857 99.1293C108.857 99.1293 108.319 97.1653 108.145 97.275C108.093 97.3078 107.992 99.6747 107.992 99.6747L104.677 104.043L106.72 105.329Z" fill="#FF9A8C"/>
<path d="M104.591 103.937C104.614 103.957 104.285 104.384 103.884 104.913C103.483 105.442 103.162 105.875 103.137 105.858C103.113 105.842 103.395 105.38 103.798 104.848C104.201 104.316 104.569 103.918 104.591 103.937Z" fill="#3C5599"/>
<path d="M105.593 104.651C105.616 104.669 105.286 105.093 104.856 105.598C104.426 106.102 104.059 106.495 104.037 106.475C104.015 106.455 104.344 106.031 104.774 105.528C105.203 105.025 105.569 104.632 105.593 104.651Z" fill="#3C5599"/>
<path d="M62.0809 88.2865C62.1219 87.8735 61.8269 87.5205 61.4366 87.4681C61.4284 87.4669 61.4284 87.4555 61.4366 87.4549C61.8269 87.4019 62.1219 87.0488 62.0809 86.6359C62.0425 86.2462 61.6882 85.9625 61.2966 85.9625H59.0017C58.9985 85.9581 58.9979 85.9569 58.9947 85.9524C59.3825 84.9758 59.6227 83.6531 59.4197 82.8536C59.3459 82.5642 59.1889 82.2395 58.8938 82.191C58.7047 82.1601 58.513 82.2622 58.3838 82.4053C58.2552 82.5478 58.177 82.7281 58.0969 82.9028C57.5339 84.1385 56.771 85.2885 55.882 86.315H55.0466V91.6634H55.9791C56.0958 91.8399 56.2963 91.9565 56.5245 91.9565H58.4147C58.4185 91.9565 58.4222 91.9578 58.426 91.9578H60.9442C61.3395 91.9578 61.6951 91.669 61.7291 91.275C61.7676 90.8311 61.4189 90.4585 60.9826 90.4585H61.1201C61.5154 90.4585 61.8716 90.1704 61.9057 89.7763C61.9441 89.3325 61.5955 88.9598 61.1592 88.9598H61.2966C61.6882 88.9598 62.0425 88.6768 62.0809 88.2865Z" fill="#FBFBFD"/>
<path d="M53.2763 91.663H55.2472V86.3146H53.2763C53.0298 86.3146 52.83 86.5144 52.83 86.761V91.2166C52.83 91.4631 53.0298 91.663 53.2763 91.663Z" fill="#FBFBFD"/>
<path d="M58.9279 161.895C58.9279 167.88 54.0763 172.731 48.0911 172.731C42.106 172.731 37.255 167.88 37.255 161.895C37.255 155.91 42.106 151.059 48.0911 151.059C54.0763 151.059 58.9279 155.91 58.9279 161.895Z" fill="#F05173"/>
<path d="M52.712 159.185C51.6162 158.113 49.8622 158.132 48.791 159.227L48.0848 159.948L47.3579 159.232C46.2671 158.157 44.5119 158.171 43.4369 159.262C42.3626 160.353 42.3758 162.108 43.4678 163.183L46.1644 165.84C46.1701 165.845 46.1738 165.852 46.1801 165.857C46.6101 166.28 47.1423 166.532 47.6958 166.617C48.5495 166.748 49.4505 166.48 50.1005 165.816L52.7536 163.107C53.8248 162.013 53.8065 160.257 52.712 159.185Z" fill="#FEFEFE"/>
<defs>
<linearGradient id="paint0_linear" x1="104.012" y1="78.207" x2="122.167" y2="334.922" gradientUnits="userSpaceOnUse">
<stop stop-color="#ADD1FF"/>
<stop offset="1" stop-color="#0044BA"/>
</linearGradient>
<linearGradient id="paint1_linear" x1="59.3058" y1="172.845" x2="159.582" y2="74.7574" gradientUnits="userSpaceOnUse">
<stop stop-color="white" stop-opacity="0.101961"/>
<stop offset="0.270588" stop-color="white" stop-opacity="0.101961"/>
<stop offset="1" stop-color="white" stop-opacity="0.301961"/>
</linearGradient>
</defs>
</svg>
